<svg width="30" height="30" viewBox="0 0 30 30" fill="none" xmlns="http://www.w3.org/2000/svg">
<g clip-path="url(#clip0_294_21530)">
<path d="M25 7.4375V11.7125C24.0125 11.4125 22.9625 11.25 21.875 11.25C16.0125 11.25 11.25 16.0125 11.25 21.875C11.25 22.9625 11.4125 24.0125 11.7125 25H1.1125C0.5 25 0 24.5 0 23.8875V7.4375H25Z" fill="#FFB74D"/>
<path d="M25 7.4325H0L3.74375 0.68875C3.9725 0.27 4.4325 0 4.91875 0H20.0813C20.5675 0 21.0275 0.27 21.2563 0.68875L25 7.4325Z" fill="#FFA726"/>
<path d="M13.5135 0L14.8648 7.4325H10.1348L11.486 0H13.5135Z" fill="#795548"/>
<path d="M12.5 7.4375H0V23.8875C0 24.5 0.5 25 1.1125 25H11.7125C11.4125 24.0125 11.25 22.9625 11.25 21.875C11.25 20.0675 11.7025 18.3663 12.5 16.875V7.4375Z" fill="#DE9F43"/>
<path d="M11.4863 0H4.91875C4.4325 0 3.9725 0.27 3.74375 0.68875L0 7.4325H12.5H10.135L11.4863 0Z" fill="#DE9121"/>
<path d="M12.4998 0H11.486L10.1348 7.4325H12.4998V0Z" fill="#694A3F"/>
<path d="M21.875 13.75C17.395 13.75 13.75 17.395 13.75 21.875C13.75 26.355 17.395 30 21.875 30C26.355 30 30 26.355 30 21.875C30 17.395 26.355 13.75 21.875 13.75Z" fill="#2196F3"/>
<path d="M21.875 26.25C21.3575 26.25 20.9375 25.83 20.9375 25.3125V18.4375C20.9375 17.92 21.3575 17.5 21.875 17.5C22.3925 17.5 22.8125 17.92 22.8125 18.4375V25.3125C22.8125 25.83 22.3925 26.25 21.875 26.25Z" fill="white"/>
<path d="M25.3125 22.8125H18.4375C17.92 22.8125 17.5 22.3925 17.5 21.875C17.5 21.3575 17.92 20.9375 18.4375 20.9375H25.3125C25.83 20.9375 26.25 21.3575 26.25 21.875C26.25 22.3925 25.83 22.8125 25.3125 22.8125Z" fill="white"/>
<path d="M21.875 13.75C17.395 13.75 13.75 17.395 13.75 21.875C13.75 26.355 17.395 30 21.875 30V26.25C21.3575 26.25 20.9375 25.83 20.9375 25.3125V22.8125H18.4375C17.92 22.8125 17.5 22.3925 17.5 21.875C17.5 21.3575 17.92 20.9375 18.4375 20.9375H20.9375V18.4375C20.9375 17.92 21.3575 17.5 21.875 17.5V13.75Z" fill="#1D83D4"/>
<path d="M21.875 22.8125H20.9375V25.3125C20.9375 25.83 21.3575 26.25 21.875 26.25V22.8125ZM21.875 17.5C21.3575 17.5 20.9375 17.92 20.9375 18.4375V20.9375H21.875V17.5Z" fill="#DEDEDE"/>
<path d="M21.875 20.9375H20.9375H18.4375C17.92 20.9375 17.5 21.3575 17.5 21.875C17.5 22.3925 17.92 22.8125 18.4375 22.8125H20.9375H21.875V20.9375Z" fill="#DEDEDE"/>
</g>
<defs>
<clipPath id="clip0_294_21530">
<rect width="30" height="30" fill="white"/>
</clipPath>
</defs>
</svg>
