<svg width="24" height="16" viewBox="0 0 24 16" fill="none" xmlns="http://www.w3.org/2000/svg">
<path d="M23 0H1C0.724 0 0.5 0.224 0.5 0.5V15.25C0.5 15.526 0.724 15.75 1 15.75H23C23.276 15.75 23.5 15.526 23.5 15.25V0.5C23.5 0.224 23.276 0 23 0ZM21.6285 1L13.931 7.473C12.8123 8.414 11.1877 8.414 10.0693 7.473L2.3715 1H21.6285ZM22.5 14.2365L15.8042 9.10325C15.5852 8.9355 15.2715 8.97675 15.1032 9.196C14.9352 9.415 14.9765 9.729 15.1958 9.897L21.526 14.75H2.474L8.80425 9.89675C9.0235 9.72875 9.06475 9.41475 8.89675 9.19575C8.7285 8.97675 8.41475 8.93525 8.19575 9.103L1.5 14.2365V1.57375L9.4255 8.2385C10.898 9.47675 13.102 9.47675 14.5745 8.2385L22.5 1.57375V14.2365Z" fill="#414651"/>
</svg>
