<svg width="24" height="24" viewBox="0 0 24 24" fill="none" xmlns="http://www.w3.org/2000/svg">
<g clip-path="url(#clip0_536_1815)">
<path d="M10 24C7.93311 24 6.25 22.318 6.25 20.25C6.25 19.836 6.586 19.5 7 19.5C7.414 19.5 7.75 19.836 7.75 20.25C7.75 21.4911 8.76001 22.5 10 22.5C11.24 22.5 12.25 21.4911 12.25 20.25C12.25 19.836 12.586 19.5 13 19.5C13.414 19.5 13.75 19.836 13.75 20.25C13.75 22.318 12.0671 24 10 24Z" fill="#414651"/>
<path d="M18.2499 21H1.74994C0.784973 21 0 20.215 0 19.25C0 18.7379 0.223022 18.253 0.611939 17.92C0.637024 17.898 0.66394 17.878 0.691956 17.8599C2.15991 16.5789 3 14.7359 3 12.7899V9.99993C3 6.74303 5.20697 3.94701 8.367 3.19994C8.77094 3.10692 9.17505 3.35393 9.27008 3.75804C9.36493 4.16106 9.11499 4.56499 8.71307 4.66002C6.23199 5.24596 4.5 7.44194 4.5 9.99993V12.7899C4.5 15.206 3.44092 17.4921 1.59705 19.0609C1.58203 19.073 1.56903 19.084 1.55292 19.095C1.526 19.129 1.5 19.181 1.5 19.25C1.5 19.3859 1.61407 19.5 1.74994 19.5H18.2499C18.386 19.5 18.5001 19.3859 18.5001 19.25C18.5001 19.1799 18.4741 19.129 18.446 19.095C18.431 19.084 18.4169 19.073 18.403 19.0609C17.5071 18.297 16.7999 17.375 16.3021 16.32C16.1241 15.9459 16.2839 15.499 16.6589 15.321C17.037 15.143 17.48 15.305 17.657 15.6789C18.0529 16.515 18.6079 17.2491 19.3099 17.863C19.3359 17.881 19.363 17.9 19.3859 17.92C19.777 18.253 20.0001 18.7379 20.0001 19.25C20.0001 20.215 19.2151 21 18.2499 21Z" fill="#414651"/>
<path d="M17.4999 12.9999C13.916 12.9999 11 10.084 11 6.50006C11 2.91595 13.916 0 17.4999 0C21.084 0 23.9999 2.91595 23.9999 6.50006C23.9999 10.084 21.084 12.9999 17.4999 12.9999ZM17.4999 1.5C14.7429 1.5 12.5 3.74304 12.5 6.50006C12.5 9.25708 14.7429 11.4999 17.4999 11.4999C20.2569 11.4999 22.4999 9.25708 22.4999 6.50006C22.4999 3.74304 20.2569 1.5 17.4999 1.5Z" fill="#414651"/>
<path d="M17.7501 9.50006C17.3361 9.50006 17.0001 9.16406 17.0001 8.75006V5.49994H16.5C16.086 5.49994 15.75 5.16394 15.75 4.74994C15.75 4.33594 16.086 3.99994 16.5 3.99994H17.7501C18.1641 3.99994 18.5001 4.33594 18.5001 4.74994V8.75006C18.5001 9.16406 18.1641 9.50006 17.7501 9.50006Z" fill="#414651"/>
</g>
<defs>
<clipPath id="clip0_536_1815">
<rect width="24" height="24" fill="white"/>
</clipPath>
</defs>
</svg>
