<svg width="25" height="24" viewBox="0 0 25 24" fill="none" xmlns="http://www.w3.org/2000/svg">
<g clip-path="url(#clip0_521_469)">
<path d="M12.5 0C5.87281 0 0.5 5.37234 0.5 12C0.5 18.6277 5.87281 24 12.5 24C19.1272 24 24.5 18.6272 24.5 12C24.5 5.37281 19.1272 0 12.5 0Z" fill="#F9973E"/>
<path d="M6.15126 18.7885C13.3527 18.7885 19.1905 12.9506 19.1905 5.7497C19.1916 4.34543 18.9656 2.95022 18.5211 1.61814C16.6927 0.555257 14.6149 -0.00313937 12.5 1.32759e-05C5.87283 1.32759e-05 0.500013 5.37283 0.500013 12C0.496745 14.1789 1.08954 16.3171 2.21423 18.1833C3.48783 18.5855 4.81567 18.7896 6.15126 18.7885Z" fill="#FCA84C"/>
<path d="M19.5041 12.0001C19.5041 12.1747 19.4698 12.3476 19.4029 12.5088C19.3361 12.6701 19.2382 12.8167 19.1148 12.9401C18.9913 13.0636 18.8448 13.1615 18.6835 13.2283C18.5222 13.2951 18.3493 13.3295 18.1748 13.3295H13.8285V17.6757C13.8285 18.0283 13.6885 18.3664 13.4392 18.6158C13.1898 18.8651 12.8517 19.0051 12.4991 19.0051C12.1466 19.0051 11.8084 18.8651 11.5591 18.6158C11.3098 18.3664 11.1698 18.0283 11.1698 17.6757V13.3295H6.82352C6.47094 13.3295 6.13281 13.1894 5.88351 12.9401C5.6342 12.6908 5.49414 12.3527 5.49414 12.0001C5.49414 11.6475 5.6342 11.3094 5.88351 11.0601C6.13281 10.8108 6.47094 10.6707 6.82352 10.6707H11.1698V6.32449C11.1698 5.97192 11.3098 5.63379 11.5591 5.38448C11.8084 5.13518 12.1466 4.99512 12.4991 4.99512C12.8517 4.99512 13.1898 5.13518 13.4392 5.38448C13.6885 5.63379 13.8285 5.97192 13.8285 6.32449V10.6707H18.1748C18.5273 10.6707 18.8655 10.8108 19.1148 11.0601C19.3641 11.3094 19.5041 11.6475 19.5041 12.0001Z" fill="white"/>
</g>
<defs>
<clipPath id="clip0_521_469">
<rect width="24" height="24" fill="white" transform="translate(0.5)"/>
</clipPath>
</defs>
</svg>
