<svg width="30" height="30" viewBox="0 0 30 30" fill="none" xmlns="http://www.w3.org/2000/svg">
<g clip-path="url(#clip0_297_22419)">
<path d="M9.1582 14.5161V11.129C9.1582 7.92241 11.758 5.32257 14.9647 5.32257C18.1713 5.32257 20.7711 7.92241 20.7711 11.129V14.5161H9.1582Z" fill="#D3A06C"/>
<path d="M14.9663 5.32257C14.8027 5.32257 14.6426 5.3337 14.4824 5.34676C17.4621 5.59354 19.805 8.08547 19.805 11.129V14.5161H20.7727V11.129C20.7727 7.92241 18.1729 5.32257 14.9663 5.32257Z" fill="#B27946"/>
<path d="M13.0306 25.6452H23.6757L22.7675 22.921C22.4322 21.9155 21.5757 21.1722 20.5325 20.9826L16.9015 20.3226H13.0306L9.39911 20.9826C8.35636 21.1722 7.49943 21.915 7.16411 22.921L6.74023 24.8472V25.6452H13.0306Z" fill="#92E0C0"/>
<path d="M13.0293 18.8709V20.3226L14.9648 22.258L16.9003 20.3226V18.8709H13.0293Z" fill="#F9E0A6"/>
<path d="M18.8359 13.0645H19.3198C20.1216 13.0645 20.7714 13.7144 20.7714 14.5161C20.7714 15.3179 20.1216 15.9677 19.3198 15.9677H18.8359V13.0645Z" fill="#F9E0A6"/>
<path d="M11.0937 13.0645H10.6098C9.80804 13.0645 9.1582 13.7143 9.1582 14.5161C9.1582 15.3179 9.80804 15.9677 10.6098 15.9677H11.0937V13.0645Z" fill="#F9E0A6"/>
<path d="M10.6094 12.5806V15.4839C10.6094 17.8892 12.5589 19.8387 14.9642 19.8387C17.3695 19.8387 19.3191 17.8892 19.3191 15.4839V12.5806C17.7702 12.5806 16.2842 11.9651 15.1887 10.8697L14.9642 10.6451L14.7397 10.8697C13.6442 11.9651 12.1582 12.5806 10.6094 12.5806Z" fill="#F9E0A6"/>
<path d="M18.3534 15.4839C18.3534 17.7251 16.6594 19.5692 14.4824 19.8101C14.6416 19.8281 14.8027 19.8387 14.9663 19.8387C17.3716 19.8387 19.3211 17.8892 19.3211 15.4839V12.5806C18.9945 12.5806 18.6713 12.5472 18.3534 12.494V15.4839Z" fill="#EABD8C"/>
<path d="M21.7392 0.483887H28.5134C29.0481 0.483887 29.4812 0.916951 29.4812 1.45163V5.3226C29.4812 5.85727 29.0481 6.29034 28.5134 6.29034H27.0618L23.1908 8.70969L23.6055 6.29034H21.7392C21.2045 6.29034 20.7715 5.85727 20.7715 5.3226V1.45163C20.7715 0.916951 21.2045 0.483887 21.7392 0.483887Z" fill="#ECECEC"/>
<path d="M21.578 25.6452H23.6746L22.7664 22.921C22.431 21.9155 21.5746 21.1722 20.5314 20.9826L16.9004 20.3226L20.3818 22.2566C20.9296 22.561 21.2964 23.1116 21.3656 23.7348L21.578 25.6452Z" fill="#48C397"/>
<path d="M11.0937 23.9443L9.35851 25.5135C8.9806 25.8914 8.36802 25.8914 7.99012 25.5135L4.5198 22.0432C4.14189 21.6653 4.14189 21.0527 4.5198 20.6748L6.08899 19.1056L3.18576 16.2024L1.36786 18.0203C0.234151 19.154 0.234151 20.9922 1.36786 22.1259L7.90738 28.6655C9.04109 29.7992 10.8793 29.7992 12.013 28.6655L13.9969 26.8476L11.0937 23.9443Z" fill="#FB5968"/>
<path d="M23.2261 22.7681C22.8347 21.5947 21.836 20.7285 20.6185 20.5069L17.3848 19.9185V19.6679C17.9476 19.3413 18.4373 18.9044 18.8273 18.3871H19.8042C20.6045 18.3871 21.2558 17.7358 21.2558 16.9355V11.129C21.2558 7.66064 18.4339 4.83871 14.9655 4.83871C11.4971 4.83871 8.67516 7.66064 8.67516 11.129V14.5161C8.67516 15.449 9.33854 16.2295 10.2182 16.4114C10.4897 17.8021 11.3587 18.9789 12.5461 19.6679V19.9185L9.31193 20.5069C8.09499 20.7285 7.0958 21.5947 6.70483 22.7681L6.51128 23.3492L4.86322 21.7011C4.67451 21.5124 4.67451 21.2052 4.86322 21.0164L6.77451 19.1056L3.18709 15.5182L1.02709 17.6782C0.387414 18.3179 0.0351562 19.1685 0.0351562 20.0734C0.0351562 20.9782 0.387414 21.8284 1.02709 22.4681L7.56661 29.0076C8.20628 29.6473 9.05693 30 9.96177 30C10.8666 30 11.7168 29.6473 12.3414 29.0221L14.6984 26.8626L13.9634 26.129H24.3463L23.2261 22.7681ZM14.9655 21.5739L13.5139 20.1223V20.0995C13.9726 20.2437 14.4598 20.3226 14.9655 20.3226C15.4711 20.3226 15.9584 20.2437 16.4171 20.0995V20.1223L14.9655 21.5739ZM19.8042 17.4194H19.3973C19.5376 17.0995 19.644 16.7623 19.7127 16.4114C19.9198 16.3684 20.1105 16.2861 20.2881 16.1826V16.9355C20.2881 17.2026 20.0708 17.4194 19.8042 17.4194ZM19.8042 13.6829C20.0921 13.8508 20.2881 14.1595 20.2881 14.5161C20.2881 14.8727 20.0921 15.1814 19.8042 15.3494V13.6829ZM9.6429 14.5161C9.6429 14.1595 9.83887 13.8508 10.1268 13.6829V15.3494C9.83887 15.1814 9.6429 14.8727 9.6429 14.5161ZM10.1268 12.0968V12.6494C9.95451 12.6944 9.7929 12.7621 9.6429 12.8497V11.129C9.6429 8.19435 12.0308 5.80645 14.9655 5.80645C17.9002 5.80645 20.2881 8.19435 20.2881 11.129V12.8497C20.1381 12.7621 19.9764 12.6939 19.8042 12.6494V12.0968H19.3203C17.8895 12.0968 16.5443 11.5394 15.5321 10.5276L14.9655 9.96097L14.3989 10.5276C13.3866 11.5394 12.0414 12.0968 10.6106 12.0968H10.1268ZM11.0945 15.4839V13.0461C12.5476 12.9368 13.9024 12.3373 14.9655 11.3264C16.0285 12.3373 17.3834 12.9373 18.8364 13.0461V15.4839C18.8364 16.1894 18.6439 16.8494 18.3129 17.4194H14.9655V18.3871H17.5174C16.8352 18.9876 15.9434 19.3548 14.9655 19.3548C12.8311 19.3548 11.0945 17.6182 11.0945 15.4839ZM5.40564 19.1056L4.88016 19.6311L2.66112 17.4121L3.18661 16.8866L5.40564 19.1056ZM9.9608 29.0323C9.31483 29.0323 8.70709 28.7802 8.24983 28.3234L1.71032 21.7844C1.25354 21.3276 1.00193 20.7198 1.00193 20.0739C1.00193 19.4274 1.25354 18.8197 1.71032 18.3629L1.97645 18.0968L4.19548 20.3158L4.17806 20.3332C3.61241 20.8994 3.61241 21.8202 4.17806 22.3863L7.6479 25.8561C7.92225 26.13 8.28661 26.2814 8.67467 26.2814C9.06274 26.2814 9.42709 26.1305 9.68354 25.8731L9.71983 25.8406L11.949 28.0698L11.6713 28.3244C11.2145 28.7802 10.6068 29.0323 9.9608 29.0323ZM12.6632 27.4147L10.4389 25.1903L11.0781 24.6126L13.2985 26.8331L12.6632 27.4147ZM12.9956 25.1613L11.111 23.2766L9.01677 25.171C8.83435 25.3544 8.51548 25.3544 8.33258 25.171L7.2758 24.1142L7.62225 23.0739C7.90145 22.2358 8.61516 21.6169 9.48467 21.4582L12.8669 20.8437L14.9655 22.9423L17.0635 20.8442L20.4453 21.4587C21.3148 21.6174 22.0285 22.2358 22.3077 23.0744L23.004 25.1613H12.9956Z" fill="black"/>
<path d="M28.5129 0H21.7387C20.9384 0 20.2871 0.65129 20.2871 1.45161V5.32258C20.2871 6.1229 20.9384 6.77419 21.7387 6.77419H23.0311L22.5308 9.69242L27.2002 6.77419H28.5129C29.3132 6.77419 29.9645 6.1229 29.9645 5.32258V1.45161C29.9645 0.65129 29.3132 0 28.5129 0ZM28.9968 5.32258C28.9968 5.58919 28.7795 5.80645 28.5129 5.80645H26.9224L23.8494 7.72694L24.1789 5.80645H21.7387C21.4721 5.80645 21.2549 5.58919 21.2549 5.32258V1.45161C21.2549 1.185 21.4721 0.967742 21.7387 0.967742H28.5129C28.7795 0.967742 28.9968 1.185 28.9968 1.45161V5.32258Z" fill="black"/>
<path d="M28.0291 1.93549H22.2227V2.90323H28.0291V1.93549Z" fill="black"/>
<path d="M26.0936 3.87097H22.2227V4.83871H26.0936V3.87097Z" fill="black"/>
<path d="M28.0302 3.87097H27.0625V4.83871H28.0302V3.87097Z" fill="black"/>
<path d="M4.56999 12.0276L4.07209 11.1977L2.7608 11.9845C4.13209 6.40402 9.15032 2.41934 14.966 2.41934C16.2371 2.41934 17.4913 2.60805 18.6937 2.98063L18.9802 2.05644C17.6848 1.65482 16.3343 1.4516 14.966 1.4516C8.6437 1.4516 3.19774 5.82483 1.78193 11.925L0.864995 10.3964L0.0351562 10.8943L1.73596 13.7284L4.56999 12.0276Z" fill="black"/>
<path d="M25.196 11.8476L26.0259 12.3455L26.8727 10.934C27.3183 12.2381 27.5462 13.6021 27.5462 15C27.5462 17.8776 26.5494 20.6908 24.7402 22.921L25.4917 23.5306C27.4407 21.1287 28.5139 18.0987 28.5139 15C28.5139 13.5198 28.2754 12.0745 27.8104 10.6906L29.2325 11.5437L29.7304 10.7139L26.8964 9.01306L25.196 11.8476Z" fill="black"/>
</g>
<defs>
<clipPath id="clip0_297_22419">
<rect width="30" height="30" fill="white"/>
</clipPath>
</defs>
</svg>
