<svg width="40" height="40" viewBox="0 0 40 40" fill="none" xmlns="http://www.w3.org/2000/svg">
<g clip-path="url(#clip0_230_3010)">
<path d="M10.0139 10.7217H10.0791C10.5768 11.2927 11.1395 11.7984 11.6697 12.3449L15.275 15.9502V16.0155C13.5296 17.7529 11.792 19.5066 10.0465 21.244C8.29277 19.4984 6.5472 17.7447 4.79349 15.9991C4.88338 15.8278 5.05451 15.7137 5.18502 15.575C6.79191 13.9518 8.42327 12.353 10.0139 10.7217ZM20.5361 10.7217H20.6014C20.6505 10.7951 20.6993 10.8603 20.7645 10.9256C22.453 12.5977 24.1171 14.2944 25.8218 15.9584C25.781 16.0562 25.6913 16.1215 25.6178 16.1949C23.9295 17.8752 22.2491 19.5637 20.5606 21.244C18.7987 19.5066 17.0695 17.7365 15.2995 16.0073C17.0124 14.221 18.8151 12.4999 20.5361 10.7217ZM31.0584 10.7217H31.1237C31.45 11.1132 31.8333 11.4476 32.1841 11.8147C33.5055 13.1361 34.8189 14.4493 36.1401 15.7707C36.2055 15.8442 36.3116 15.9094 36.3359 16.0155C34.5659 17.7365 32.8529 19.5229 31.0747 21.244L26.0583 16.2275C25.9767 16.1378 25.8707 16.0725 25.8299 15.9584C26.719 15.0937 27.5836 14.2046 28.4646 13.3319C29.3292 12.4591 30.2101 11.6108 31.0584 10.7217ZM15.3729 26.4235C17.094 24.7025 18.8232 22.9814 20.5443 21.2521L20.6175 21.2848C22.3468 23.0222 24.076 24.7596 25.8216 26.4806C25.7647 26.6112 25.6423 26.6846 25.5524 26.7906C24.2964 28.0386 23.0401 29.3029 21.784 30.5509C21.3761 30.9424 20.9846 31.3829 20.5688 31.7499C19.9733 31.2116 19.4268 30.608 18.8475 30.0533C17.6731 28.8787 16.5067 27.7042 15.3239 26.5377C15.3403 26.5051 15.3566 26.4562 15.3729 26.4235ZM-38.666 49.0506H-22.9723C-22.9641 50.3065 -22.9641 51.5628 -22.9723 52.8108H-28.625V67.6562C-28.6331 67.901 -28.6087 68.1457 -28.6576 68.3904H-33.0215C-33.0052 63.1945 -33.0133 58.0067 -33.0133 52.8108H-38.666V49.0506ZM-9.88062 49.0506C-8.41239 49.0506 -6.94416 49.0505 -5.47594 49.0587C-5.4841 55.5026 -5.45962 61.9465 -5.49225 68.3904H-9.87246C-9.89693 66.6774 -9.88062 64.9645 -9.88877 63.2516C-9.88062 58.5206 -9.88877 53.7897 -9.88062 49.0506ZM67.7804 49.0506C69.2486 49.0506 70.7169 49.0505 72.1851 49.0587V64.5077C74.7382 64.5239 77.2994 64.5159 79.8525 64.5159V68.3904H67.7886C67.7641 61.9465 67.7886 55.5026 67.7804 49.0506ZM26.3764 55.5352C25.936 54.0179 25.0795 52.6395 23.8886 51.6036C22.3143 50.2088 20.2588 49.4502 18.1951 49.1811C17.0287 49.0098 15.846 49.0587 14.6716 49.0506H9.45935C9.36147 49.0506 9.25544 49.0587 9.15755 49.075C9.18202 55.4618 9.15755 61.8486 9.17387 68.2352C9.16571 68.276 9.15755 68.3494 9.14939 68.3902H16.6861C17.3633 68.2678 18.0566 68.276 18.7253 68.1292C21.0092 67.7132 23.2034 66.5794 24.6961 64.7767C25.7973 63.4716 26.4743 61.832 26.6945 60.1437C26.8903 58.6022 26.8087 57.0198 26.3764 55.5352ZM21.4089 61.9546C20.8624 62.8274 20.0549 63.5207 19.1169 63.9449C18.2686 64.3364 17.3305 64.5159 16.4005 64.5403C15.4217 64.5487 14.4428 64.5403 13.464 64.5487C13.4151 63.4636 13.4559 62.3788 13.4395 61.2941C13.4395 58.4637 13.4396 55.6414 13.4479 52.811H16.474C17.9912 52.8436 19.5329 53.3657 20.634 54.4424C21.621 55.3967 22.1757 56.7426 22.2654 58.1048C22.3551 59.4342 22.1104 60.8127 21.4089 61.9546ZM54.2075 63.8389C52.364 59.3608 50.5288 54.8745 48.6692 50.4046C48.4977 49.956 48.3183 49.4992 48.1144 49.0669C46.5972 49.0424 45.0802 49.0424 43.5628 49.0669C40.969 55.3068 38.3751 61.5468 35.7814 67.7786C35.6998 67.9825 35.6019 68.1783 35.5612 68.3904H40.2513C40.7163 67.1016 41.2138 65.8291 41.6788 64.5403C44.3379 64.4996 47.0052 64.5322 49.6724 64.524C49.8111 64.4832 49.8519 64.6302 49.8845 64.7279C50.3332 65.9515 50.7901 67.1668 51.2304 68.3904H56.0676C55.4799 66.8569 54.8274 65.356 54.2075 63.8389ZM42.9184 61.1063C42.894 60.9349 43 60.7882 43.0489 60.6332C43.938 58.3085 44.8518 55.9838 45.7325 53.6592C45.7489 53.6508 45.7815 53.6428 45.7978 53.6428C46.7195 56.0899 47.6575 58.5286 48.5874 60.9757C48.5874 61.0083 48.5956 61.0735 48.5956 61.1063C46.7032 61.09 44.8108 61.09 42.9184 61.1063Z" fill="#F2F2F2" stroke="black" stroke-width="0.00766741"/>
</g>
<defs>
<clipPath id="clip0_230_3010">
<rect width="40" height="40" fill="white"/>
</clipPath>
</defs>
</svg>
