<svg width="32" height="32" viewBox="0 0 32 32" fill="none" xmlns="http://www.w3.org/2000/svg">
<g clip-path="url(#clip0_297_22444)">
<path fill-rule="evenodd" clip-rule="evenodd" d="M2.67503 11.2017L8.05852 19.1599C8.49321 19.7952 9.1954 20.163 9.99791 20.163C10.767 20.163 11.5026 19.7952 11.9373 19.1599L17.187 11.4023C17.2539 11.302 17.3208 11.1682 17.3877 11.0679C17.5549 10.7335 17.8892 10.5664 18.2571 10.5664H22.1358C23.1724 10.5664 24.0084 10.5664 24.9446 11.7367L30.6625 18.8924C31.5653 19.9289 32 21.0993 32 22.4702V26.2821C32 27.3521 31.1641 28.1881 30.094 28.1881H28.9237C28.6897 28.1881 28.489 28.0209 28.4556 27.7534C28.1212 25.4462 26.1149 23.674 23.7409 23.674C21.3333 23.674 19.3605 25.4462 18.9927 27.7534C18.9592 28.0209 18.7586 28.1881 18.5246 28.1881H12.1379C11.8704 28.1881 11.6698 28.0209 11.6364 27.7534C11.302 25.4462 9.32915 23.674 6.92163 23.674C4.51411 23.674 2.54127 25.4462 2.2069 27.7534C2.17346 28.0209 1.90596 28.2215 1.63845 28.1881C0.735632 28.0543 0 27.2518 0 26.2821V12.4723C0 11.536 0.668756 10.767 1.53814 10.5998C2.07315 10.4995 2.37409 10.7335 2.67503 11.2017ZM25.0115 14.5455L28.0878 18.1567C28.4222 18.558 28.489 19.0596 28.2884 19.5277C28.0543 19.9958 27.6196 20.2633 27.1181 20.2633H20.1964C19.4943 20.2633 18.9258 19.6949 18.9258 18.9927V15.3814C18.9258 14.6792 19.4943 14.1108 20.1964 14.1108H24.0418C24.4096 14.1108 24.744 14.2445 25.0115 14.5455Z" fill="#303C47"/>
<path fill-rule="evenodd" clip-rule="evenodd" d="M6.92136 24.9112C8.86076 24.9112 10.4658 26.5162 10.4658 28.4556C10.4658 30.4284 8.86076 32 6.92136 32C4.94853 32 3.37695 30.4284 3.37695 28.4556C3.37695 26.5162 4.94853 24.9112 6.92136 24.9112ZM6.92136 26.7168C7.89106 26.7168 8.66013 27.4859 8.66013 28.4556C8.66013 29.4253 7.89106 30.1944 6.92136 30.1944C5.95167 30.1944 5.1826 29.4253 5.1826 28.4556C5.1826 27.4859 5.95167 26.7168 6.92136 26.7168Z" fill="#0070B7"/>
<path fill-rule="evenodd" clip-rule="evenodd" d="M23.7397 24.9112C25.6791 24.9112 27.2507 26.5162 27.2507 28.4556C27.2507 30.4284 25.6791 32 23.7397 32C21.7669 32 20.1953 30.4284 20.1953 28.4556C20.1953 26.5162 21.7669 24.9112 23.7397 24.9112ZM23.7397 26.7168C24.7094 26.7168 25.4785 27.4859 25.4785 28.4556C25.4785 29.4253 24.7094 30.1944 23.7397 30.1944C22.77 30.1944 21.9675 29.4253 21.9675 28.4556C21.9675 27.4859 22.77 26.7168 23.7397 26.7168Z" fill="#0070B7"/>
<path fill-rule="evenodd" clip-rule="evenodd" d="M15.7484 10.4995L10.5321 18.1902C10.3984 18.3908 10.1977 18.4911 9.9971 18.4911C9.76303 18.4911 9.56241 18.3908 9.46209 18.1902L4.21235 10.4995C3.5436 9.42947 3.17578 8.19227 3.17578 6.82132C3.17578 3.04284 6.21862 0 9.9971 0C13.7756 0 16.8184 3.04284 16.8184 6.82132C16.8184 8.19227 16.4172 9.42947 15.7484 10.4995ZM9.9971 3.10972C7.92395 3.10972 6.25206 4.78161 6.25206 6.82132C6.25206 8.89446 7.92395 10.5664 9.9971 10.5664C12.0368 10.5664 13.7087 8.89446 13.7087 6.82132C13.7087 4.78161 12.0368 3.10972 9.9971 3.10972Z" fill="#0070B7"/>
</g>
<defs>
<clipPath id="clip0_297_22444">
<rect width="32" height="32" fill="white"/>
</clipPath>
</defs>
</svg>
