<svg width="384" height="288" viewBox="0 0 384 288" fill="none" xmlns="http://www.w3.org/2000/svg">
<rect x="0.5" y="0.5" width="383" height="287" rx="11.5" fill="#0C1022" fill-opacity="0.6"/>
<rect x="0.5" y="0.5" width="383" height="287" rx="11.5" fill="url(#paint0_linear_1948_4170)" fill-opacity="0.7"/>
<rect x="0.5" y="0.5" width="383" height="287" rx="11.5" stroke="url(#paint1_linear_1948_4170)"/>
<path d="M112.921 84.4663C112.921 87.7792 113.788 89.4775 115.026 90.3911C116.308 91.3373 118.139 91.5669 120.369 91.5669H123.051C123.38 91.5671 123.647 91.8336 123.647 92.1626C123.646 92.4915 123.38 92.7581 123.051 92.7583H120.369C118.131 92.7583 115.94 92.5474 114.318 91.3501C113.768 90.9445 113.302 90.437 112.921 89.8159V121.958C112.921 125.272 113.788 126.971 115.026 127.884C116.308 128.83 118.139 129.059 120.369 129.059H123.051C123.38 129.059 123.647 129.327 123.647 129.656C123.646 129.985 123.38 130.251 123.051 130.251H120.369C118.131 130.251 115.94 130.041 114.318 128.843C113.768 128.438 113.302 127.93 112.921 127.309V159.452C112.921 162.765 113.788 164.464 115.026 165.377C116.308 166.324 118.139 166.552 120.369 166.552H123.051C123.38 166.552 123.647 166.82 123.647 167.149C123.646 167.478 123.38 167.745 123.051 167.745H120.369C118.131 167.745 115.94 167.534 114.318 166.336C113.768 165.931 113.302 165.423 112.921 164.802V193.503C112.921 196.817 113.788 198.516 115.026 199.429C116.308 200.375 118.139 200.604 120.369 200.604H123.051C123.38 200.604 123.647 200.872 123.647 201.201C123.646 201.529 123.38 201.796 123.051 201.796H120.369C118.131 201.796 115.94 201.586 114.318 200.388C113.768 199.983 113.302 199.475 112.921 198.854V227.555C112.921 230.868 113.788 232.567 115.026 233.481C116.308 234.427 118.139 234.656 120.369 234.656H123.051C123.38 234.656 123.647 234.923 123.647 235.252C123.646 235.581 123.38 235.848 123.051 235.848H120.369C118.131 235.848 115.94 235.637 114.318 234.44C112.65 233.21 111.73 231.059 111.73 227.555V74.2681H112.921V84.4663Z" fill="white" fill-opacity="0.16"/>
<path d="M139.248 134.197C138.612 134.197 138.004 134.102 137.424 133.911C136.844 133.713 136.387 133.458 136.054 133.149L136.495 132.219C136.812 132.497 137.218 132.727 137.71 132.91C138.203 133.093 138.715 133.184 139.248 133.184C139.732 133.184 140.126 133.129 140.428 133.017C140.73 132.906 140.952 132.755 141.095 132.565C141.238 132.366 141.31 132.143 141.31 131.897C141.31 131.611 141.214 131.381 141.023 131.206C140.841 131.031 140.598 130.892 140.296 130.789C140.002 130.678 139.677 130.582 139.319 130.503C138.962 130.423 138.6 130.332 138.235 130.229C137.877 130.117 137.547 129.978 137.245 129.811C136.951 129.645 136.713 129.422 136.53 129.144C136.348 128.858 136.256 128.493 136.256 128.048C136.256 127.619 136.367 127.225 136.59 126.868C136.82 126.502 137.17 126.212 137.639 125.998C138.115 125.775 138.719 125.664 139.45 125.664C139.935 125.664 140.416 125.728 140.892 125.855C141.369 125.982 141.782 126.165 142.132 126.403L141.739 127.356C141.381 127.118 141.004 126.947 140.606 126.844C140.209 126.733 139.824 126.677 139.45 126.677C138.981 126.677 138.596 126.737 138.294 126.856C137.992 126.975 137.77 127.134 137.627 127.333C137.492 127.531 137.424 127.754 137.424 128C137.424 128.294 137.516 128.528 137.698 128.703C137.889 128.878 138.131 129.017 138.425 129.12C138.727 129.224 139.057 129.319 139.415 129.406C139.772 129.486 140.13 129.577 140.487 129.68C140.853 129.784 141.182 129.919 141.476 130.086C141.778 130.252 142.021 130.475 142.203 130.753C142.386 131.031 142.478 131.389 142.478 131.826C142.478 132.247 142.362 132.64 142.132 133.006C141.901 133.363 141.544 133.653 141.059 133.876C140.583 134.09 139.979 134.197 139.248 134.197ZM146.71 134.174C146.169 134.174 145.693 134.074 145.279 133.876C144.874 133.677 144.556 133.375 144.326 132.97C144.103 132.557 143.992 132.04 143.992 131.42V127.785H145.136V131.289C145.136 131.909 145.283 132.374 145.577 132.684C145.879 132.994 146.3 133.149 146.841 133.149C147.238 133.149 147.584 133.069 147.878 132.91C148.172 132.743 148.398 132.505 148.557 132.195C148.716 131.877 148.795 131.496 148.795 131.051V127.785H149.939V134.102H148.855V132.398L149.034 132.851C148.827 133.272 148.517 133.598 148.104 133.828C147.691 134.058 147.226 134.174 146.71 134.174ZM155.467 134.174C154.926 134.174 154.438 134.054 154.001 133.816C153.572 133.57 153.23 133.208 152.976 132.731C152.729 132.255 152.606 131.659 152.606 130.944C152.606 130.229 152.733 129.633 152.988 129.156C153.25 128.679 153.595 128.322 154.024 128.083C154.461 127.845 154.942 127.726 155.467 127.726C156.086 127.726 156.635 127.861 157.111 128.131C157.588 128.401 157.965 128.779 158.244 129.263C158.522 129.74 158.661 130.3 158.661 130.944C158.661 131.587 158.522 132.151 158.244 132.636C157.965 133.121 157.588 133.498 157.111 133.768C156.635 134.038 156.086 134.174 155.467 134.174ZM152.118 134.102V125.259H153.262V129.466L153.143 130.932L153.214 132.398V134.102H152.118ZM155.371 133.172C155.776 133.172 156.138 133.081 156.456 132.898C156.782 132.716 157.036 132.457 157.219 132.124C157.409 131.782 157.505 131.389 157.505 130.944C157.505 130.491 157.409 130.102 157.219 129.776C157.036 129.442 156.782 129.184 156.456 129.001C156.138 128.818 155.776 128.727 155.371 128.727C154.974 128.727 154.612 128.818 154.287 129.001C153.969 129.184 153.715 129.442 153.524 129.776C153.341 130.102 153.25 130.491 153.25 130.944C153.25 131.389 153.341 131.782 153.524 132.124C153.715 132.457 153.969 132.716 154.287 132.898C154.612 133.081 154.974 133.172 155.371 133.172ZM168.143 127.726C168.652 127.726 169.101 127.825 169.49 128.024C169.879 128.222 170.181 128.524 170.396 128.93C170.618 129.335 170.73 129.847 170.73 130.467V134.102H169.585V130.598C169.585 129.986 169.442 129.525 169.156 129.216C168.87 128.906 168.469 128.751 167.953 128.751C167.571 128.751 167.238 128.83 166.951 128.989C166.665 129.148 166.443 129.382 166.284 129.692C166.133 130.002 166.058 130.388 166.058 130.848V134.102H164.913V130.598C164.913 129.986 164.77 129.525 164.484 129.216C164.206 128.906 163.805 128.751 163.281 128.751C162.907 128.751 162.577 128.83 162.291 128.989C162.005 129.148 161.783 129.382 161.624 129.692C161.465 130.002 161.386 130.388 161.386 130.848V134.102H160.242V127.785H161.338V129.466L161.159 129.037C161.358 128.624 161.664 128.302 162.077 128.071C162.49 127.841 162.971 127.726 163.519 127.726C164.123 127.726 164.643 127.877 165.08 128.179C165.517 128.473 165.803 128.922 165.938 129.525L165.474 129.335C165.664 128.85 165.998 128.461 166.475 128.167C166.951 127.873 167.508 127.726 168.143 127.726ZM172.835 134.102V127.785H173.979V134.102H172.835ZM173.407 126.57C173.184 126.57 172.998 126.498 172.847 126.355C172.704 126.212 172.632 126.037 172.632 125.831C172.632 125.616 172.704 125.438 172.847 125.294C172.998 125.151 173.184 125.08 173.407 125.08C173.629 125.08 173.812 125.151 173.955 125.294C174.106 125.43 174.182 125.6 174.182 125.807C174.182 126.021 174.11 126.204 173.967 126.355C173.824 126.498 173.637 126.57 173.407 126.57ZM178.333 134.174C177.697 134.174 177.204 134.003 176.855 133.661C176.505 133.319 176.33 132.831 176.33 132.195V126.403H177.475V132.147C177.475 132.489 177.558 132.751 177.725 132.934C177.9 133.117 178.146 133.208 178.464 133.208C178.821 133.208 179.119 133.109 179.358 132.91L179.715 133.733C179.54 133.884 179.33 133.995 179.083 134.066C178.845 134.138 178.595 134.174 178.333 134.174ZM175.258 128.727V127.785H179.286V128.727H175.258Z" fill="#E5E5E5"/>
<path d="M139.248 205.707C138.612 205.707 138.004 205.612 137.424 205.421C136.844 205.222 136.387 204.968 136.054 204.658L136.495 203.729C136.812 204.007 137.218 204.237 137.71 204.42C138.203 204.603 138.715 204.694 139.248 204.694C139.732 204.694 140.126 204.638 140.428 204.527C140.73 204.416 140.952 204.265 141.095 204.074C141.238 203.876 141.31 203.653 141.31 203.407C141.31 203.121 141.214 202.89 141.023 202.716C140.841 202.541 140.598 202.402 140.296 202.299C140.002 202.187 139.677 202.092 139.319 202.013C138.962 201.933 138.6 201.842 138.235 201.738C137.877 201.627 137.547 201.488 137.245 201.321C136.951 201.154 136.713 200.932 136.53 200.654C136.348 200.368 136.256 200.002 136.256 199.557C136.256 199.128 136.367 198.735 136.59 198.377C136.82 198.012 137.17 197.722 137.639 197.507C138.115 197.285 138.719 197.174 139.45 197.174C139.935 197.174 140.416 197.237 140.892 197.364C141.369 197.492 141.782 197.674 142.132 197.913L141.739 198.866C141.381 198.628 141.004 198.457 140.606 198.354C140.209 198.242 139.824 198.187 139.45 198.187C138.981 198.187 138.596 198.246 138.294 198.366C137.992 198.485 137.77 198.644 137.627 198.842C137.492 199.041 137.424 199.263 137.424 199.51C137.424 199.804 137.516 200.038 137.698 200.213C137.889 200.388 138.131 200.527 138.425 200.63C138.727 200.733 139.057 200.829 139.415 200.916C139.772 200.995 140.13 201.087 140.487 201.19C140.853 201.293 141.182 201.429 141.476 201.595C141.778 201.762 142.021 201.985 142.203 202.263C142.386 202.541 142.478 202.898 142.478 203.335C142.478 203.757 142.362 204.15 142.132 204.515C141.901 204.873 141.544 205.163 141.059 205.385C140.583 205.6 139.979 205.707 139.248 205.707ZM147.401 205.683C146.876 205.683 146.396 205.564 145.959 205.326C145.53 205.079 145.184 204.718 144.922 204.241C144.668 203.764 144.54 203.169 144.54 202.453C144.54 201.738 144.664 201.142 144.91 200.666C145.164 200.189 145.506 199.831 145.935 199.593C146.372 199.355 146.861 199.236 147.401 199.236C148.021 199.236 148.569 199.371 149.046 199.641C149.522 199.911 149.9 200.288 150.178 200.773C150.456 201.25 150.595 201.81 150.595 202.453C150.595 203.097 150.456 203.661 150.178 204.146C149.9 204.631 149.522 205.008 149.046 205.278C148.569 205.548 148.021 205.683 147.401 205.683ZM144.052 207.924V199.295H145.148V200.999L145.077 202.465L145.196 203.931V207.924H144.052ZM147.306 204.682C147.711 204.682 148.072 204.591 148.39 204.408C148.716 204.225 148.97 203.967 149.153 203.633C149.344 203.292 149.439 202.898 149.439 202.453C149.439 202.001 149.344 201.611 149.153 201.286C148.97 200.952 148.716 200.694 148.39 200.511C148.072 200.328 147.711 200.237 147.306 200.237C146.908 200.237 146.547 200.328 146.221 200.511C145.903 200.694 145.649 200.952 145.458 201.286C145.275 201.611 145.184 202.001 145.184 202.453C145.184 202.898 145.275 203.292 145.458 203.633C145.649 203.967 145.903 204.225 146.221 204.408C146.547 204.591 146.908 204.682 147.306 204.682ZM152.176 205.612V196.768H153.32V205.612H152.176ZM155.504 205.612V199.295H156.649V205.612H155.504ZM156.077 198.08C155.854 198.08 155.667 198.008 155.516 197.865C155.373 197.722 155.302 197.547 155.302 197.341C155.302 197.126 155.373 196.947 155.516 196.804C155.667 196.661 155.854 196.59 156.077 196.59C156.299 196.59 156.482 196.661 156.625 196.804C156.776 196.939 156.851 197.11 156.851 197.317C156.851 197.531 156.78 197.714 156.637 197.865C156.494 198.008 156.307 198.08 156.077 198.08ZM161.002 205.683C160.367 205.683 159.874 205.512 159.524 205.171C159.175 204.829 159 204.341 159 203.705V197.913H160.144V203.657C160.144 203.999 160.228 204.261 160.394 204.444C160.569 204.627 160.816 204.718 161.133 204.718C161.491 204.718 161.789 204.619 162.027 204.42L162.385 205.242C162.21 205.393 161.999 205.505 161.753 205.576C161.515 205.648 161.265 205.683 161.002 205.683ZM157.927 200.237V199.295H161.956V200.237H157.927ZM169.567 205.707C168.931 205.707 168.323 205.612 167.743 205.421C167.163 205.222 166.707 204.968 166.373 204.658L166.814 203.729C167.132 204.007 167.537 204.237 168.03 204.42C168.522 204.603 169.035 204.694 169.567 204.694C170.052 204.694 170.445 204.638 170.747 204.527C171.049 204.416 171.271 204.265 171.414 204.074C171.557 203.876 171.629 203.653 171.629 203.407C171.629 203.121 171.533 202.89 171.343 202.716C171.16 202.541 170.918 202.402 170.616 202.299C170.322 202.187 169.996 202.092 169.638 202.013C169.281 201.933 168.919 201.842 168.554 201.738C168.196 201.627 167.867 201.488 167.565 201.321C167.271 201.154 167.032 200.932 166.85 200.654C166.667 200.368 166.575 200.002 166.575 199.557C166.575 199.128 166.687 198.735 166.909 198.377C167.14 198.012 167.489 197.722 167.958 197.507C168.435 197.285 169.039 197.174 169.77 197.174C170.254 197.174 170.735 197.237 171.212 197.364C171.688 197.492 172.102 197.674 172.451 197.913L172.058 198.866C171.7 198.628 171.323 198.457 170.926 198.354C170.528 198.242 170.143 198.187 169.77 198.187C169.301 198.187 168.915 198.246 168.614 198.366C168.312 198.485 168.089 198.644 167.946 198.842C167.811 199.041 167.743 199.263 167.743 199.51C167.743 199.804 167.835 200.038 168.018 200.213C168.208 200.388 168.451 200.527 168.745 200.63C169.047 200.733 169.376 200.829 169.734 200.916C170.091 200.995 170.449 201.087 170.806 201.19C171.172 201.293 171.502 201.429 171.796 201.595C172.098 201.762 172.34 201.985 172.523 202.263C172.705 202.541 172.797 202.898 172.797 203.335C172.797 203.757 172.682 204.15 172.451 204.515C172.221 204.873 171.863 205.163 171.379 205.385C170.902 205.6 170.298 205.707 169.567 205.707ZM177.744 199.236C178.26 199.236 178.713 199.335 179.103 199.534C179.5 199.732 179.81 200.034 180.032 200.439C180.255 200.845 180.366 201.357 180.366 201.977V205.612H179.222V202.108C179.222 201.496 179.071 201.035 178.769 200.725C178.475 200.415 178.058 200.261 177.518 200.261C177.112 200.261 176.759 200.34 176.457 200.499C176.155 200.658 175.92 200.892 175.754 201.202C175.595 201.512 175.515 201.897 175.515 202.358V205.612H174.371V196.768H175.515V200.999L175.289 200.547C175.495 200.133 175.813 199.812 176.242 199.581C176.671 199.351 177.172 199.236 177.744 199.236ZM185.296 205.683C184.621 205.683 184.025 205.544 183.508 205.266C183 204.988 182.603 204.607 182.317 204.122C182.038 203.637 181.899 203.081 181.899 202.453C181.899 201.826 182.035 201.27 182.305 200.785C182.583 200.3 182.96 199.923 183.437 199.653C183.922 199.375 184.466 199.236 185.07 199.236C185.681 199.236 186.222 199.371 186.691 199.641C187.159 199.911 187.525 200.292 187.787 200.785C188.057 201.27 188.192 201.838 188.192 202.489C188.192 202.537 188.188 202.593 188.18 202.656C188.18 202.72 188.176 202.779 188.168 202.835H182.793V202.013H187.573L187.108 202.299C187.116 201.893 187.032 201.532 186.857 201.214C186.683 200.896 186.44 200.65 186.13 200.475C185.828 200.292 185.475 200.201 185.07 200.201C184.672 200.201 184.319 200.292 184.009 200.475C183.699 200.65 183.457 200.9 183.282 201.226C183.107 201.544 183.02 201.909 183.02 202.322V202.513C183.02 202.934 183.115 203.312 183.306 203.645C183.504 203.971 183.779 204.225 184.128 204.408C184.478 204.591 184.879 204.682 185.332 204.682C185.705 204.682 186.043 204.619 186.345 204.492C186.655 204.364 186.925 204.174 187.155 203.919L187.787 204.658C187.501 204.992 187.143 205.246 186.714 205.421C186.293 205.596 185.821 205.683 185.296 205.683ZM192.594 205.683C191.918 205.683 191.322 205.544 190.806 205.266C190.297 204.988 189.9 204.607 189.614 204.122C189.336 203.637 189.197 203.081 189.197 202.453C189.197 201.826 189.332 201.27 189.602 200.785C189.88 200.3 190.258 199.923 190.734 199.653C191.219 199.375 191.763 199.236 192.367 199.236C192.979 199.236 193.519 199.371 193.988 199.641C194.457 199.911 194.822 200.292 195.085 200.785C195.355 201.27 195.49 201.838 195.49 202.489C195.49 202.537 195.486 202.593 195.478 202.656C195.478 202.72 195.474 202.779 195.466 202.835H190.091V202.013H194.87L194.405 202.299C194.413 201.893 194.33 201.532 194.155 201.214C193.98 200.896 193.738 200.65 193.428 200.475C193.126 200.292 192.772 200.201 192.367 200.201C191.97 200.201 191.616 200.292 191.307 200.475C190.997 200.65 190.754 200.9 190.58 201.226C190.405 201.544 190.317 201.909 190.317 202.322V202.513C190.317 202.934 190.413 203.312 190.603 203.645C190.802 203.971 191.076 204.225 191.426 204.408C191.775 204.591 192.177 204.682 192.629 204.682C193.003 204.682 193.341 204.619 193.643 204.492C193.952 204.364 194.223 204.174 194.453 203.919L195.085 204.658C194.799 204.992 194.441 205.246 194.012 205.421C193.591 205.596 193.118 205.683 192.594 205.683ZM199.248 205.683C198.612 205.683 198.119 205.512 197.77 205.171C197.42 204.829 197.245 204.341 197.245 203.705V197.913H198.39V203.657C198.39 203.999 198.473 204.261 198.64 204.444C198.815 204.627 199.061 204.718 199.379 204.718C199.736 204.718 200.034 204.619 200.273 204.42L200.63 205.242C200.455 205.393 200.245 205.505 199.999 205.576C199.76 205.648 199.51 205.683 199.248 205.683ZM196.173 200.237V199.295H200.201V200.237H196.173ZM203.825 205.683C203.301 205.683 202.8 205.612 202.323 205.469C201.855 205.326 201.485 205.151 201.215 204.944L201.692 204.039C201.962 204.221 202.296 204.376 202.693 204.503C203.09 204.631 203.495 204.694 203.908 204.694C204.441 204.694 204.822 204.619 205.053 204.468C205.291 204.317 205.41 204.106 205.41 203.836C205.41 203.637 205.339 203.482 205.196 203.371C205.053 203.26 204.862 203.177 204.624 203.121C204.393 203.065 204.135 203.018 203.849 202.978C203.563 202.93 203.277 202.875 202.991 202.811C202.705 202.74 202.443 202.644 202.204 202.525C201.966 202.398 201.775 202.227 201.632 202.013C201.489 201.79 201.418 201.496 201.418 201.131C201.418 200.749 201.525 200.415 201.739 200.129C201.954 199.843 202.256 199.625 202.645 199.474C203.042 199.315 203.511 199.236 204.051 199.236C204.465 199.236 204.882 199.287 205.303 199.391C205.732 199.486 206.082 199.625 206.352 199.808L205.863 200.713C205.577 200.523 205.279 200.392 204.969 200.32C204.659 200.249 204.349 200.213 204.04 200.213C203.539 200.213 203.166 200.296 202.919 200.463C202.673 200.622 202.55 200.829 202.55 201.083C202.55 201.297 202.621 201.464 202.764 201.583C202.915 201.695 203.106 201.782 203.336 201.846C203.575 201.909 203.837 201.965 204.123 202.013C204.409 202.052 204.695 202.108 204.981 202.179C205.267 202.243 205.525 202.334 205.756 202.453C205.994 202.573 206.185 202.74 206.328 202.954C206.479 203.169 206.554 203.455 206.554 203.812C206.554 204.194 206.443 204.523 206.221 204.801C205.998 205.079 205.684 205.298 205.279 205.457C204.874 205.608 204.389 205.683 203.825 205.683Z" fill="#E5E5E5"/>
<path d="M137.901 234.92H142.191V235.933H137.901V234.92ZM138.008 238.627H142.871V239.664H136.816V231.321H142.704V232.358H138.008V238.627ZM147.162 239.735C146.551 239.735 146.002 239.6 145.518 239.33C145.041 239.06 144.664 238.682 144.385 238.198C144.107 237.713 143.968 237.149 143.968 236.505C143.968 235.862 144.107 235.302 144.385 234.825C144.664 234.34 145.041 233.963 145.518 233.693C146.002 233.422 146.551 233.287 147.162 233.287C147.695 233.287 148.175 233.407 148.604 233.645C149.034 233.883 149.375 234.241 149.629 234.718C149.892 235.194 150.023 235.79 150.023 236.505C150.023 237.22 149.896 237.816 149.641 238.293C149.395 238.77 149.057 239.131 148.628 239.378C148.199 239.616 147.711 239.735 147.162 239.735ZM147.258 238.734C147.655 238.734 148.013 238.643 148.33 238.46C148.656 238.277 148.91 238.019 149.093 237.685C149.284 237.343 149.379 236.95 149.379 236.505C149.379 236.052 149.284 235.663 149.093 235.337C148.91 235.004 148.656 234.745 148.33 234.563C148.013 234.38 147.655 234.288 147.258 234.288C146.853 234.288 146.491 234.38 146.173 234.563C145.855 234.745 145.601 235.004 145.41 235.337C145.22 235.663 145.124 236.052 145.124 236.505C145.124 236.95 145.22 237.343 145.41 237.685C145.601 238.019 145.855 238.277 146.173 238.46C146.491 238.643 146.853 238.734 147.258 238.734ZM149.415 239.664V237.959L149.486 236.493L149.367 235.027V230.82H150.511V239.664H149.415ZM152.676 239.664V233.347H153.82V239.664H152.676ZM153.248 232.131C153.026 232.131 152.839 232.06 152.688 231.917C152.545 231.774 152.474 231.599 152.474 231.392C152.474 231.178 152.545 230.999 152.688 230.856C152.839 230.713 153.026 230.641 153.248 230.641C153.471 230.641 153.654 230.713 153.797 230.856C153.948 230.991 154.023 231.162 154.023 231.368C154.023 231.583 153.951 231.766 153.808 231.917C153.665 232.06 153.479 232.131 153.248 232.131ZM158.174 239.735C157.538 239.735 157.046 239.564 156.696 239.223C156.347 238.881 156.172 238.392 156.172 237.757V231.964H157.316V237.709C157.316 238.051 157.399 238.313 157.566 238.496C157.741 238.678 157.987 238.77 158.305 238.77C158.663 238.77 158.961 238.67 159.199 238.472L159.557 239.294C159.382 239.445 159.171 239.556 158.925 239.628C158.687 239.699 158.436 239.735 158.174 239.735ZM155.099 234.288V233.347H159.128V234.288H155.099ZM163.436 239.735C162.8 239.735 162.236 239.596 161.743 239.318C161.251 239.04 160.861 238.658 160.575 238.174C160.289 237.681 160.146 237.125 160.146 236.505C160.146 235.878 160.289 235.321 160.575 234.837C160.861 234.352 161.251 233.975 161.743 233.704C162.236 233.426 162.8 233.287 163.436 233.287C164.063 233.287 164.624 233.426 165.116 233.704C165.617 233.975 166.006 234.352 166.284 234.837C166.57 235.313 166.713 235.87 166.713 236.505C166.713 237.133 166.57 237.689 166.284 238.174C166.006 238.658 165.617 239.04 165.116 239.318C164.624 239.596 164.063 239.735 163.436 239.735ZM163.436 238.734C163.841 238.734 164.203 238.643 164.52 238.46C164.846 238.277 165.1 238.019 165.283 237.685C165.466 237.343 165.557 236.95 165.557 236.505C165.557 236.052 165.466 235.663 165.283 235.337C165.1 235.004 164.846 234.745 164.52 234.563C164.203 234.38 163.841 234.288 163.436 234.288C163.031 234.288 162.669 234.38 162.351 234.563C162.033 234.745 161.779 235.004 161.588 235.337C161.398 235.663 161.302 236.052 161.302 236.505C161.302 236.95 161.398 237.343 161.588 237.685C161.779 238.019 162.033 238.277 162.351 238.46C162.669 238.643 163.031 238.734 163.436 238.734ZM168.296 239.664V233.347H169.392V235.063L169.285 234.634C169.46 234.197 169.754 233.863 170.167 233.633C170.58 233.403 171.088 233.287 171.692 233.287V234.396C171.645 234.388 171.597 234.384 171.549 234.384C171.51 234.384 171.47 234.384 171.43 234.384C170.818 234.384 170.334 234.567 169.976 234.932C169.619 235.298 169.44 235.826 169.44 236.517V239.664H168.296ZM173.102 239.664V233.347H174.247V239.664H173.102ZM173.675 232.131C173.452 232.131 173.265 232.06 173.114 231.917C172.971 231.774 172.9 231.599 172.9 231.392C172.9 231.178 172.971 230.999 173.114 230.856C173.265 230.713 173.452 230.641 173.675 230.641C173.897 230.641 174.08 230.713 174.223 230.856C174.374 230.991 174.449 231.162 174.449 231.368C174.449 231.583 174.378 231.766 174.235 231.917C174.092 232.06 173.905 232.131 173.675 232.131ZM180.352 239.664V238.329L180.293 238.078V235.802C180.293 235.317 180.15 234.944 179.864 234.682C179.586 234.412 179.164 234.277 178.6 234.277C178.227 234.277 177.861 234.34 177.504 234.467C177.146 234.586 176.844 234.749 176.598 234.956L176.121 234.098C176.447 233.836 176.836 233.637 177.289 233.502C177.75 233.359 178.231 233.287 178.731 233.287C179.597 233.287 180.265 233.498 180.734 233.919C181.202 234.34 181.437 234.984 181.437 235.85V239.664H180.352ZM178.279 239.735C177.81 239.735 177.397 239.656 177.039 239.497C176.689 239.338 176.419 239.119 176.229 238.841C176.038 238.555 175.943 238.233 175.943 237.876C175.943 237.534 176.022 237.224 176.181 236.946C176.348 236.668 176.614 236.446 176.979 236.279C177.353 236.112 177.853 236.029 178.481 236.029H180.483V236.851H178.529C177.957 236.851 177.571 236.946 177.373 237.137C177.174 237.328 177.075 237.558 177.075 237.828C177.075 238.138 177.198 238.388 177.444 238.579C177.691 238.762 178.032 238.853 178.469 238.853C178.898 238.853 179.272 238.758 179.59 238.567C179.915 238.376 180.15 238.098 180.293 237.733L180.519 238.519C180.368 238.893 180.102 239.191 179.721 239.413C179.339 239.628 178.859 239.735 178.279 239.735ZM183.554 239.664V230.82H184.698V239.664H183.554ZM192.682 239.759C192.046 239.759 191.438 239.664 190.858 239.473C190.278 239.274 189.821 239.02 189.488 238.71L189.929 237.78C190.247 238.059 190.652 238.289 191.144 238.472C191.637 238.654 192.149 238.746 192.682 238.746C193.166 238.746 193.56 238.69 193.862 238.579C194.164 238.468 194.386 238.317 194.529 238.126C194.672 237.927 194.744 237.705 194.744 237.459C194.744 237.173 194.648 236.942 194.458 236.767C194.275 236.593 194.033 236.454 193.731 236.35C193.437 236.239 193.111 236.144 192.753 236.064C192.396 235.985 192.034 235.893 191.669 235.79C191.311 235.679 190.981 235.54 190.68 235.373C190.386 235.206 190.147 234.984 189.964 234.706C189.782 234.42 189.69 234.054 189.69 233.609C189.69 233.18 189.802 232.787 190.024 232.429C190.254 232.064 190.604 231.774 191.073 231.559C191.55 231.337 192.153 231.225 192.884 231.225C193.369 231.225 193.85 231.289 194.327 231.416C194.803 231.543 195.216 231.726 195.566 231.964L195.173 232.918C194.815 232.679 194.438 232.509 194.04 232.405C193.643 232.294 193.258 232.239 192.884 232.239C192.416 232.239 192.03 232.298 191.728 232.417C191.426 232.536 191.204 232.695 191.061 232.894C190.926 233.093 190.858 233.315 190.858 233.561C190.858 233.855 190.95 234.09 191.132 234.265C191.323 234.439 191.565 234.578 191.859 234.682C192.161 234.785 192.491 234.88 192.849 234.968C193.206 235.047 193.564 235.139 193.921 235.242C194.287 235.345 194.617 235.48 194.91 235.647C195.212 235.814 195.455 236.036 195.638 236.315C195.82 236.593 195.912 236.95 195.912 237.387C195.912 237.808 195.796 238.202 195.566 238.567C195.336 238.925 194.978 239.215 194.493 239.437C194.017 239.652 193.413 239.759 192.682 239.759ZM200.144 239.735C199.603 239.735 199.127 239.636 198.714 239.437C198.308 239.238 197.99 238.937 197.76 238.531C197.538 238.118 197.426 237.602 197.426 236.982V233.347H198.571V236.851C198.571 237.471 198.717 237.935 199.011 238.245C199.313 238.555 199.735 238.71 200.275 238.71C200.672 238.71 201.018 238.631 201.312 238.472C201.606 238.305 201.832 238.067 201.991 237.757C202.15 237.439 202.229 237.057 202.229 236.613V233.347H203.374V239.664H202.289V237.959L202.468 238.412C202.261 238.833 201.951 239.159 201.538 239.389C201.125 239.62 200.66 239.735 200.144 239.735ZM208.901 239.735C208.376 239.735 207.896 239.616 207.459 239.378C207.03 239.131 206.684 238.77 206.422 238.293C206.167 237.816 206.04 237.22 206.04 236.505C206.04 235.79 206.163 235.194 206.41 234.718C206.664 234.241 207.006 233.883 207.435 233.645C207.872 233.407 208.36 233.287 208.901 233.287C209.52 233.287 210.069 233.422 210.545 233.693C211.022 233.963 211.4 234.34 211.678 234.825C211.956 235.302 212.095 235.862 212.095 236.505C212.095 237.149 211.956 237.713 211.678 238.198C211.4 238.682 211.022 239.06 210.545 239.33C210.069 239.6 209.52 239.735 208.901 239.735ZM205.552 241.976V233.347H206.648V235.051L206.577 236.517L206.696 237.983V241.976H205.552ZM208.805 238.734C209.211 238.734 209.572 238.643 209.89 238.46C210.216 238.277 210.47 238.019 210.653 237.685C210.843 237.343 210.939 236.95 210.939 236.505C210.939 236.052 210.843 235.663 210.653 235.337C210.47 235.004 210.216 234.745 209.89 234.563C209.572 234.38 209.211 234.288 208.805 234.288C208.408 234.288 208.047 234.38 207.721 234.563C207.403 234.745 207.149 235.004 206.958 235.337C206.775 235.663 206.684 236.052 206.684 236.505C206.684 236.95 206.775 237.343 206.958 237.685C207.149 238.019 207.403 238.277 207.721 238.46C208.047 238.643 208.408 238.734 208.805 238.734ZM217.025 239.735C216.5 239.735 216.02 239.616 215.583 239.378C215.153 239.131 214.808 238.77 214.546 238.293C214.291 237.816 214.164 237.22 214.164 236.505C214.164 235.79 214.287 235.194 214.534 234.718C214.788 234.241 215.13 233.883 215.559 233.645C215.996 233.407 216.484 233.287 217.025 233.287C217.644 233.287 218.193 233.422 218.669 233.693C219.146 233.963 219.524 234.34 219.802 234.825C220.08 235.302 220.219 235.862 220.219 236.505C220.219 237.149 220.08 237.713 219.802 238.198C219.524 238.682 219.146 239.06 218.669 239.33C218.193 239.6 217.644 239.735 217.025 239.735ZM213.676 241.976V233.347H214.772V235.051L214.701 236.517L214.82 237.983V241.976H213.676ZM216.929 238.734C217.335 238.734 217.696 238.643 218.014 238.46C218.34 238.277 218.594 238.019 218.777 237.685C218.967 237.343 219.063 236.95 219.063 236.505C219.063 236.052 218.967 235.663 218.777 235.337C218.594 235.004 218.34 234.745 218.014 234.563C217.696 234.38 217.335 234.288 216.929 234.288C216.532 234.288 216.171 234.38 215.845 234.563C215.527 234.745 215.273 235.004 215.082 235.337C214.899 235.663 214.808 236.052 214.808 236.505C214.808 236.95 214.899 237.343 215.082 237.685C215.273 238.019 215.527 238.277 215.845 238.46C216.171 238.643 216.532 238.734 216.929 238.734ZM224.505 239.735C223.869 239.735 223.305 239.596 222.813 239.318C222.32 239.04 221.931 238.658 221.645 238.174C221.359 237.681 221.216 237.125 221.216 236.505C221.216 235.878 221.359 235.321 221.645 234.837C221.931 234.352 222.32 233.975 222.813 233.704C223.305 233.426 223.869 233.287 224.505 233.287C225.133 233.287 225.693 233.426 226.185 233.704C226.686 233.975 227.075 234.352 227.353 234.837C227.64 235.313 227.783 235.87 227.783 236.505C227.783 237.133 227.64 237.689 227.353 238.174C227.075 238.658 226.686 239.04 226.185 239.318C225.693 239.596 225.133 239.735 224.505 239.735ZM224.505 238.734C224.91 238.734 225.272 238.643 225.59 238.46C225.915 238.277 226.17 238.019 226.352 237.685C226.535 237.343 226.626 236.95 226.626 236.505C226.626 236.052 226.535 235.663 226.352 235.337C226.17 235.004 225.915 234.745 225.59 234.563C225.272 234.38 224.91 234.288 224.505 234.288C224.1 234.288 223.738 234.38 223.42 234.563C223.103 234.745 222.848 235.004 222.658 235.337C222.467 235.663 222.372 236.052 222.372 236.505C222.372 236.95 222.467 237.343 222.658 237.685C222.848 238.019 223.103 238.277 223.42 238.46C223.738 238.643 224.1 238.734 224.505 238.734ZM229.365 239.664V233.347H230.461V235.063L230.354 234.634C230.529 234.197 230.823 233.863 231.236 233.633C231.649 233.403 232.158 233.287 232.762 233.287V234.396C232.714 234.388 232.666 234.384 232.619 234.384C232.579 234.384 232.539 234.384 232.499 234.384C231.888 234.384 231.403 234.567 231.045 234.932C230.688 235.298 230.509 235.826 230.509 236.517V239.664H229.365ZM236.597 239.735C235.961 239.735 235.469 239.564 235.119 239.223C234.769 238.881 234.595 238.392 234.595 237.757V231.964H235.739V237.709C235.739 238.051 235.822 238.313 235.989 238.496C236.164 238.678 236.41 238.77 236.728 238.77C237.086 238.77 237.383 238.67 237.622 238.472L237.979 239.294C237.805 239.445 237.594 239.556 237.348 239.628C237.109 239.699 236.859 239.735 236.597 239.735ZM233.522 234.288V233.347H237.55V234.288H233.522Z" fill="#E5E5E5"/>
<path d="M136.816 96.6455V88.3028H140.07C140.801 88.3028 141.425 88.418 141.941 88.6484C142.458 88.8788 142.855 89.2125 143.133 89.6495C143.411 90.0865 143.55 90.6069 143.55 91.2108C143.55 91.8147 143.411 92.3351 143.133 92.7721C142.855 93.2011 142.458 93.5309 141.941 93.7613C141.425 93.9917 140.801 94.1069 140.07 94.1069H137.472L138.008 93.5587V96.6455H136.816ZM142.394 96.6455L140.273 93.6183H141.548L143.693 96.6455H142.394ZM138.008 93.6779L137.472 93.0939H140.034C140.797 93.0939 141.373 92.931 141.762 92.6052C142.16 92.2715 142.358 91.8067 142.358 91.2108C142.358 90.6149 142.16 90.1541 141.762 89.8283C141.373 89.5025 140.797 89.3396 140.034 89.3396H137.472L138.008 88.7437V93.6779ZM148.122 96.717C147.446 96.717 146.85 96.578 146.334 96.2999C145.825 96.0218 145.428 95.6404 145.142 95.1557C144.864 94.6711 144.725 94.1149 144.725 93.4872C144.725 92.8595 144.86 92.3033 145.13 91.8186C145.408 91.334 145.786 90.9565 146.262 90.6864C146.747 90.4083 147.291 90.2693 147.895 90.2693C148.507 90.2693 149.047 90.4043 149.516 90.6745C149.985 90.9446 150.35 91.326 150.612 91.8186C150.883 92.3033 151.018 92.8714 151.018 93.5229C151.018 93.5706 151.014 93.6262 151.006 93.6898C151.006 93.7534 151.002 93.8129 150.994 93.8686H145.619V93.0462H150.398L149.933 93.3322C149.941 92.927 149.858 92.5655 149.683 92.2477C149.508 91.9299 149.266 91.6836 148.956 91.5088C148.654 91.326 148.3 91.2346 147.895 91.2346C147.498 91.2346 147.144 91.326 146.834 91.5088C146.524 91.6836 146.282 91.9338 146.107 92.2596C145.933 92.5774 145.845 92.9429 145.845 93.3561V93.5468C145.845 93.9679 145.94 94.3453 146.131 94.679C146.33 95.0048 146.604 95.259 146.954 95.4418C147.303 95.6245 147.704 95.7159 148.157 95.7159C148.531 95.7159 148.868 95.6523 149.17 95.5252C149.48 95.3981 149.75 95.2074 149.981 94.9531L150.612 95.6921C150.326 96.0258 149.969 96.28 149.54 96.4548C149.119 96.6296 148.646 96.717 148.122 96.717ZM152.606 96.6455V87.8022H153.751V96.6455H152.606ZM158.748 96.717C158.072 96.717 157.477 96.578 156.96 96.2999C156.452 96.0218 156.054 95.6404 155.768 95.1557C155.49 94.6711 155.351 94.1149 155.351 93.4872C155.351 92.8595 155.486 92.3033 155.756 91.8186C156.034 91.334 156.412 90.9565 156.889 90.6864C157.373 90.4083 157.918 90.2693 158.521 90.2693C159.133 90.2693 159.673 90.4043 160.142 90.6745C160.611 90.9446 160.977 91.326 161.239 91.8186C161.509 92.3033 161.644 92.8714 161.644 93.5229C161.644 93.5706 161.64 93.6262 161.632 93.6898C161.632 93.7534 161.628 93.8129 161.62 93.8686H156.245V93.0462H161.024L160.559 93.3322C160.567 92.927 160.484 92.5655 160.309 92.2477C160.134 91.9299 159.892 91.6836 159.582 91.5088C159.28 91.326 158.927 91.2346 158.521 91.2346C158.124 91.2346 157.771 91.326 157.461 91.5088C157.151 91.6836 156.908 91.9338 156.734 92.2596C156.559 92.5774 156.471 92.9429 156.471 93.3561V93.5468C156.471 93.9679 156.567 94.3453 156.757 94.679C156.956 95.0048 157.23 95.259 157.58 95.4418C157.929 95.6245 158.331 95.7159 158.784 95.7159C159.157 95.7159 159.495 95.6523 159.797 95.5252C160.107 95.3981 160.377 95.2074 160.607 94.9531L161.239 95.6921C160.953 96.0258 160.595 96.28 160.166 96.4548C159.745 96.6296 159.272 96.717 158.748 96.717ZM166.979 96.6455V95.3107L166.92 95.0604V92.784C166.92 92.2993 166.777 91.9259 166.491 91.6637C166.212 91.3935 165.791 91.2585 165.227 91.2585C164.854 91.2585 164.488 91.322 164.131 91.4492C163.773 91.5683 163.471 91.7312 163.225 91.9378L162.748 91.0797C163.074 90.8175 163.463 90.6189 163.916 90.4838C164.377 90.3408 164.858 90.2693 165.358 90.2693C166.224 90.2693 166.892 90.4798 167.361 90.9009C167.829 91.322 168.064 91.9656 168.064 92.8317V96.6455H166.979ZM164.905 96.717C164.437 96.717 164.024 96.6376 163.666 96.4787C163.316 96.3197 163.046 96.1012 162.856 95.8232C162.665 95.5371 162.569 95.2153 162.569 94.8578C162.569 94.5161 162.649 94.2062 162.808 93.9282C162.975 93.6501 163.241 93.4276 163.606 93.2607C163.98 93.0939 164.48 93.0105 165.108 93.0105H167.11V93.8328H165.156C164.584 93.8328 164.198 93.9282 164 94.1188C163.801 94.3095 163.702 94.54 163.702 94.8101C163.702 95.12 163.825 95.3703 164.071 95.5609C164.317 95.7437 164.659 95.8351 165.096 95.8351C165.525 95.8351 165.899 95.7397 166.216 95.549C166.542 95.3583 166.777 95.0802 166.92 94.7148L167.146 95.5014C166.995 95.8748 166.729 96.1728 166.348 96.3952C165.966 96.6098 165.485 96.717 164.905 96.717ZM171.993 96.717C171.468 96.717 170.968 96.6455 170.491 96.5025C170.022 96.3595 169.653 96.1847 169.383 95.9781L169.859 95.0723C170.129 95.255 170.463 95.41 170.86 95.5371C171.258 95.6642 171.663 95.7278 172.076 95.7278C172.608 95.7278 172.99 95.6523 173.22 95.5014C173.459 95.3504 173.578 95.1398 173.578 94.8697C173.578 94.6711 173.506 94.5161 173.363 94.4049C173.22 94.2936 173.03 94.2102 172.791 94.1546C172.561 94.099 172.303 94.0513 172.017 94.0116C171.73 93.9639 171.444 93.9083 171.158 93.8447C170.872 93.7732 170.61 93.6779 170.372 93.5587C170.133 93.4316 169.943 93.2607 169.8 93.0462C169.657 92.8237 169.585 92.5297 169.585 92.1643C169.585 91.7829 169.692 91.4492 169.907 91.1631C170.122 90.8771 170.423 90.6586 170.813 90.5076C171.21 90.3487 171.679 90.2693 172.219 90.2693C172.632 90.2693 173.049 90.3209 173.471 90.4242C173.9 90.5195 174.249 90.6586 174.519 90.8413L174.031 91.7471C173.745 91.5564 173.447 91.4253 173.137 91.3538C172.827 91.2823 172.517 91.2466 172.207 91.2466C171.707 91.2466 171.333 91.33 171.087 91.4968C170.841 91.6557 170.717 91.8623 170.717 92.1166C170.717 92.3311 170.789 92.498 170.932 92.6171C171.083 92.7284 171.274 92.8158 171.504 92.8794C171.742 92.9429 172.005 92.9985 172.291 93.0462C172.577 93.0859 172.863 93.1416 173.149 93.2131C173.435 93.2766 173.693 93.368 173.923 93.4872C174.162 93.6064 174.353 93.7732 174.496 93.9877C174.646 94.2023 174.722 94.4883 174.722 94.8459C174.722 95.2272 174.611 95.557 174.388 95.8351C174.166 96.1132 173.852 96.3317 173.447 96.4906C173.041 96.6415 172.557 96.717 171.993 96.717ZM178.965 96.717C178.289 96.717 177.693 96.578 177.177 96.2999C176.668 96.0218 176.271 95.6404 175.985 95.1557C175.707 94.6711 175.568 94.1149 175.568 93.4872C175.568 92.8595 175.703 92.3033 175.973 91.8186C176.251 91.334 176.629 90.9565 177.105 90.6864C177.59 90.4083 178.134 90.2693 178.738 90.2693C179.35 90.2693 179.89 90.4043 180.359 90.6745C180.828 90.9446 181.193 91.326 181.455 91.8186C181.726 92.3033 181.861 92.8714 181.861 93.5229C181.861 93.5706 181.857 93.6262 181.849 93.6898C181.849 93.7534 181.845 93.8129 181.837 93.8686H176.462V93.0462H181.241L180.776 93.3322C180.784 92.927 180.701 92.5655 180.526 92.2477C180.351 91.9299 180.109 91.6836 179.799 91.5088C179.497 91.326 179.143 91.2346 178.738 91.2346C178.341 91.2346 177.987 91.326 177.677 91.5088C177.368 91.6836 177.125 91.9338 176.95 92.2596C176.776 92.5774 176.688 92.9429 176.688 93.3561V93.5468C176.688 93.9679 176.784 94.3453 176.974 94.679C177.173 95.0048 177.447 95.259 177.797 95.4418C178.146 95.6245 178.547 95.7159 179 95.7159C179.374 95.7159 179.711 95.6523 180.013 95.5252C180.323 95.3981 180.593 95.2074 180.824 94.9531L181.455 95.6921C181.169 96.0258 180.812 96.28 180.383 96.4548C179.962 96.6296 179.489 96.717 178.965 96.717ZM185.261 96.717C184.737 96.717 184.236 96.6455 183.759 96.5025C183.291 96.3595 182.921 96.1847 182.651 95.9781L183.128 95.0723C183.398 95.255 183.732 95.41 184.129 95.5371C184.526 95.6642 184.931 95.7278 185.344 95.7278C185.877 95.7278 186.258 95.6523 186.489 95.5014C186.727 95.3504 186.846 95.1398 186.846 94.8697C186.846 94.6711 186.775 94.5161 186.632 94.4049C186.489 94.2936 186.298 94.2102 186.06 94.1546C185.829 94.099 185.571 94.0513 185.285 94.0116C184.999 93.9639 184.713 93.9083 184.427 93.8447C184.141 93.7732 183.879 93.6779 183.64 93.5587C183.402 93.4316 183.211 93.2607 183.068 93.0462C182.925 92.8237 182.854 92.5297 182.854 92.1643C182.854 91.7829 182.961 91.4492 183.175 91.1631C183.39 90.8771 183.692 90.6586 184.081 90.5076C184.478 90.3487 184.947 90.2693 185.487 90.2693C185.901 90.2693 186.318 90.3209 186.739 90.4242C187.168 90.5195 187.518 90.6586 187.788 90.8413L187.299 91.7471C187.013 91.5564 186.715 91.4253 186.405 91.3538C186.095 91.2823 185.785 91.2466 185.476 91.2466C184.975 91.2466 184.602 91.33 184.355 91.4968C184.109 91.6557 183.986 91.8623 183.986 92.1166C183.986 92.3311 184.057 92.498 184.2 92.6171C184.351 92.7284 184.542 92.8158 184.772 92.8794C185.011 92.9429 185.273 92.9985 185.559 93.0462C185.845 93.0859 186.131 93.1416 186.417 93.2131C186.703 93.2766 186.961 93.368 187.192 93.4872C187.43 93.6064 187.621 93.7732 187.764 93.9877C187.915 94.2023 187.99 94.4883 187.99 94.8459C187.99 95.2272 187.879 95.557 187.657 95.8351C187.434 96.1132 187.12 96.3317 186.715 96.4906C186.31 96.6415 185.825 96.717 185.261 96.717Z" fill="#E5E5E5"/>
<path d="M136.816 171.56V163.217H140.559C141.52 163.217 142.259 163.411 142.775 163.801C143.292 164.182 143.55 164.707 143.55 165.374C143.55 165.827 143.447 166.208 143.24 166.518C143.042 166.828 142.771 167.066 142.43 167.233C142.088 167.4 141.719 167.484 141.321 167.484L141.536 167.126C142.013 167.126 142.434 167.209 142.799 167.376C143.165 167.543 143.455 167.789 143.669 168.115C143.884 168.433 143.991 168.83 143.991 169.307C143.991 170.022 143.721 170.578 143.181 170.976C142.648 171.365 141.854 171.56 140.797 171.56H136.816ZM138.008 170.594H140.749C141.409 170.594 141.913 170.483 142.263 170.26C142.613 170.038 142.787 169.688 142.787 169.212C142.787 168.727 142.613 168.373 142.263 168.151C141.913 167.928 141.409 167.817 140.749 167.817H137.901V166.852H140.451C141.055 166.852 141.524 166.741 141.858 166.518C142.191 166.296 142.358 165.962 142.358 165.517C142.358 165.072 142.191 164.738 141.858 164.516C141.524 164.293 141.055 164.182 140.451 164.182H138.008V170.594ZM149.591 171.56V170.225L149.531 169.974V167.698C149.531 167.213 149.388 166.84 149.102 166.578C148.824 166.308 148.403 166.173 147.839 166.173C147.465 166.173 147.1 166.236 146.742 166.363C146.385 166.482 146.083 166.645 145.836 166.852L145.36 165.994C145.686 165.732 146.075 165.533 146.528 165.398C146.989 165.255 147.469 165.183 147.97 165.183C148.836 165.183 149.503 165.394 149.972 165.815C150.441 166.236 150.675 166.88 150.675 167.746V171.56H149.591ZM147.517 171.631C147.048 171.631 146.635 171.552 146.277 171.393C145.928 171.234 145.658 171.015 145.467 170.737C145.276 170.451 145.181 170.129 145.181 169.772C145.181 169.43 145.26 169.12 145.419 168.842C145.586 168.564 145.852 168.342 146.218 168.175C146.591 168.008 147.092 167.925 147.72 167.925H149.722V168.747H147.767C147.195 168.747 146.81 168.842 146.611 169.033C146.413 169.224 146.313 169.454 146.313 169.724C146.313 170.034 146.436 170.284 146.683 170.475C146.929 170.658 147.271 170.749 147.708 170.749C148.137 170.749 148.51 170.654 148.828 170.463C149.154 170.272 149.388 169.994 149.531 169.629L149.758 170.415C149.607 170.789 149.34 171.087 148.959 171.309C148.578 171.524 148.097 171.631 147.517 171.631ZM155.546 171.631C154.902 171.631 154.326 171.492 153.818 171.214C153.317 170.936 152.924 170.554 152.638 170.07C152.352 169.585 152.209 169.029 152.209 168.401C152.209 167.774 152.352 167.217 152.638 166.733C152.924 166.248 153.317 165.871 153.818 165.6C154.326 165.322 154.902 165.183 155.546 165.183C156.118 165.183 156.626 165.299 157.071 165.529C157.524 165.751 157.874 166.085 158.12 166.53L157.25 167.09C157.043 166.78 156.789 166.554 156.487 166.411C156.193 166.26 155.875 166.184 155.534 166.184C155.121 166.184 154.751 166.276 154.425 166.459C154.1 166.641 153.841 166.9 153.651 167.233C153.46 167.559 153.365 167.948 153.365 168.401C153.365 168.854 153.46 169.247 153.651 169.581C153.841 169.915 154.1 170.173 154.425 170.356C154.751 170.539 155.121 170.63 155.534 170.63C155.875 170.63 156.193 170.558 156.487 170.415C156.789 170.264 157.043 170.034 157.25 169.724L158.12 170.272C157.874 170.709 157.524 171.047 157.071 171.285C156.626 171.516 156.118 171.631 155.546 171.631ZM160.45 170.034L160.473 168.568L164.108 165.243H165.491L162.702 167.984L162.082 168.509L160.45 170.034ZM159.52 171.56V162.716H160.664V171.56H159.52ZM164.347 171.56L161.868 168.485L162.607 167.567L165.753 171.56H164.347ZM173.962 171.655C173.326 171.655 172.738 171.552 172.198 171.345C171.666 171.131 171.201 170.833 170.804 170.451C170.414 170.062 170.108 169.609 169.886 169.092C169.663 168.576 169.552 168.008 169.552 167.388C169.552 166.768 169.663 166.2 169.886 165.684C170.108 165.167 170.418 164.719 170.816 164.337C171.213 163.948 171.678 163.65 172.21 163.443C172.75 163.229 173.338 163.121 173.974 163.121C174.617 163.121 175.209 163.233 175.75 163.455C176.298 163.67 176.763 163.992 177.144 164.421L176.369 165.171C176.052 164.838 175.694 164.591 175.297 164.432C174.9 164.266 174.474 164.182 174.022 164.182C173.553 164.182 173.116 164.262 172.711 164.421C172.313 164.579 171.968 164.802 171.674 165.088C171.38 165.374 171.149 165.716 170.982 166.113C170.824 166.502 170.744 166.927 170.744 167.388C170.744 167.849 170.824 168.278 170.982 168.675C171.149 169.065 171.38 169.402 171.674 169.688C171.968 169.974 172.313 170.197 172.711 170.356C173.116 170.515 173.553 170.594 174.022 170.594C174.474 170.594 174.9 170.515 175.297 170.356C175.694 170.189 176.052 169.935 176.369 169.593L177.144 170.344C176.763 170.773 176.298 171.099 175.75 171.321C175.209 171.544 174.614 171.655 173.962 171.655ZM182.517 171.56V170.225L182.458 169.974V167.698C182.458 167.213 182.315 166.84 182.028 166.578C181.75 166.308 181.329 166.173 180.765 166.173C180.392 166.173 180.026 166.236 179.669 166.363C179.311 166.482 179.009 166.645 178.763 166.852L178.286 165.994C178.612 165.732 179.001 165.533 179.454 165.398C179.915 165.255 180.396 165.183 180.896 165.183C181.762 165.183 182.43 165.394 182.899 165.815C183.367 166.236 183.602 166.88 183.602 167.746V171.56H182.517ZM180.443 171.631C179.975 171.631 179.561 171.552 179.204 171.393C178.854 171.234 178.584 171.015 178.393 170.737C178.203 170.451 178.107 170.129 178.107 169.772C178.107 169.43 178.187 169.12 178.346 168.842C178.513 168.564 178.779 168.342 179.144 168.175C179.518 168.008 180.018 167.925 180.646 167.925H182.648V168.747H180.694C180.122 168.747 179.736 168.842 179.538 169.033C179.339 169.224 179.24 169.454 179.24 169.724C179.24 170.034 179.363 170.284 179.609 170.475C179.855 170.658 180.197 170.749 180.634 170.749C181.063 170.749 181.437 170.654 181.754 170.463C182.08 170.272 182.315 169.994 182.458 169.629L182.684 170.415C182.533 170.789 182.267 171.087 181.885 171.309C181.504 171.524 181.023 171.631 180.443 171.631ZM187.888 171.631C187.253 171.631 186.76 171.46 186.41 171.119C186.061 170.777 185.886 170.288 185.886 169.653V163.86H187.03V169.605C187.03 169.947 187.113 170.209 187.28 170.392C187.455 170.574 187.701 170.666 188.019 170.666C188.377 170.666 188.675 170.566 188.913 170.368L189.271 171.19C189.096 171.341 188.885 171.452 188.639 171.524C188.401 171.595 188.15 171.631 187.888 171.631ZM184.813 166.184V165.243H188.842V166.184H184.813ZM194.575 171.56V170.225L194.515 169.974V167.698C194.515 167.213 194.372 166.84 194.086 166.578C193.808 166.308 193.387 166.173 192.823 166.173C192.45 166.173 192.084 166.236 191.727 166.363C191.369 166.482 191.067 166.645 190.821 166.852L190.344 165.994C190.67 165.732 191.059 165.533 191.512 165.398C191.973 165.255 192.454 165.183 192.954 165.183C193.82 165.183 194.488 165.394 194.956 165.815C195.425 166.236 195.66 166.88 195.66 167.746V171.56H194.575ZM192.501 171.631C192.032 171.631 191.619 171.552 191.262 171.393C190.912 171.234 190.642 171.015 190.451 170.737C190.261 170.451 190.165 170.129 190.165 169.772C190.165 169.43 190.245 169.12 190.404 168.842C190.57 168.564 190.837 168.342 191.202 168.175C191.576 168.008 192.076 167.925 192.704 167.925H194.706V168.747H192.752C192.179 168.747 191.794 168.842 191.595 169.033C191.397 169.224 191.298 169.454 191.298 169.724C191.298 170.034 191.421 170.284 191.667 170.475C191.913 170.658 192.255 170.749 192.692 170.749C193.121 170.749 193.494 170.654 193.812 170.463C194.138 170.272 194.372 169.994 194.515 169.629L194.742 170.415C194.591 170.789 194.325 171.087 193.943 171.309C193.562 171.524 193.081 171.631 192.501 171.631ZM197.777 171.56V162.716H198.921V171.56H197.777ZM203.811 171.631C203.175 171.631 202.611 171.492 202.119 171.214C201.626 170.936 201.237 170.554 200.951 170.07C200.665 169.577 200.522 169.021 200.522 168.401C200.522 167.774 200.665 167.217 200.951 166.733C201.237 166.248 201.626 165.871 202.119 165.6C202.611 165.322 203.175 165.183 203.811 165.183C204.439 165.183 204.999 165.322 205.492 165.6C205.992 165.871 206.381 166.248 206.66 166.733C206.946 167.209 207.089 167.766 207.089 168.401C207.089 169.029 206.946 169.585 206.66 170.07C206.381 170.554 205.992 170.936 205.492 171.214C204.999 171.492 204.439 171.631 203.811 171.631ZM203.811 170.63C204.216 170.63 204.578 170.539 204.896 170.356C205.221 170.173 205.476 169.915 205.658 169.581C205.841 169.239 205.933 168.846 205.933 168.401C205.933 167.948 205.841 167.559 205.658 167.233C205.476 166.9 205.221 166.641 204.896 166.459C204.578 166.276 204.216 166.184 203.811 166.184C203.406 166.184 203.044 166.276 202.727 166.459C202.409 166.641 202.154 166.9 201.964 167.233C201.773 167.559 201.678 167.948 201.678 168.401C201.678 168.846 201.773 169.239 201.964 169.581C202.154 169.915 202.409 170.173 202.727 170.356C203.044 170.539 203.406 170.63 203.811 170.63ZM211.436 173.943C210.856 173.943 210.292 173.86 209.744 173.693C209.203 173.534 208.762 173.304 208.421 173.002L208.969 172.12C209.263 172.374 209.624 172.573 210.053 172.716C210.482 172.867 210.931 172.942 211.4 172.942C212.147 172.942 212.695 172.767 213.045 172.418C213.395 172.068 213.569 171.536 213.569 170.821V169.486L213.688 168.234L213.629 166.971V165.243H214.713V170.701C214.713 171.814 214.435 172.632 213.879 173.157C213.323 173.681 212.509 173.943 211.436 173.943ZM211.293 171.297C210.681 171.297 210.133 171.17 209.648 170.916C209.171 170.654 208.79 170.292 208.504 169.831C208.226 169.371 208.087 168.838 208.087 168.234C208.087 167.623 208.226 167.09 208.504 166.637C208.79 166.177 209.171 165.819 209.648 165.565C210.133 165.31 210.681 165.183 211.293 165.183C211.833 165.183 212.326 165.295 212.771 165.517C213.216 165.732 213.569 166.065 213.832 166.518C214.102 166.971 214.237 167.543 214.237 168.234C214.237 168.918 214.102 169.486 213.832 169.939C213.569 170.392 213.216 170.733 212.771 170.964C212.326 171.186 211.833 171.297 211.293 171.297ZM211.424 170.296C211.845 170.296 212.219 170.209 212.544 170.034C212.87 169.859 213.124 169.617 213.307 169.307C213.498 168.997 213.593 168.64 213.593 168.234C213.593 167.829 213.498 167.472 213.307 167.162C213.124 166.852 212.87 166.614 212.544 166.447C212.219 166.272 211.845 166.184 211.424 166.184C211.003 166.184 210.626 166.272 210.292 166.447C209.966 166.614 209.708 166.852 209.517 167.162C209.334 167.472 209.243 167.829 209.243 168.234C209.243 168.64 209.334 168.997 209.517 169.307C209.708 169.617 209.966 169.859 210.292 170.034C210.626 170.209 211.003 170.296 211.424 170.296Z" fill="#E5E5E5"/>
<rect x="93" y="30" width="197.502" height="44.2677" rx="10.2156" fill="white" fill-opacity="0.03"/>
<rect x="93" y="30" width="197.502" height="44.2677" rx="10.2156" fill="url(#paint2_radial_1948_4170)" fill-opacity="0.6"/>
<rect x="93" y="30" width="197.502" height="44.2677" rx="10.2156" stroke="url(#paint3_radial_1948_4170)" stroke-opacity="0.12" stroke-width="0.425651" style="mix-blend-mode:lighten"/>
<mask id="mask0_1948_4170" style="mask-type:alpha" maskUnits="userSpaceOnUse" x="103" y="41" width="21" height="22">
<rect x="103.215" y="41.918" width="20.4312" height="20.4312" fill="#D9D9D9"/>
</mask>
<g mask="url(#mask0_1948_4170)">
<path d="M105.769 48.7284H121.093V45.3232H105.769V48.7284ZM105.769 53.8363H121.093V50.431H105.769V53.8363ZM105.769 58.9441H121.093V55.5389H105.769V58.9441ZM106.621 47.8771V46.1745H108.323V47.8771H106.621ZM106.621 52.985V51.2824H108.323V52.985H106.621ZM106.621 58.0928V56.3902H108.323V58.0928H106.621Z" fill="#3A5CFF"/>
</g>
<path d="M139.556 57.2428C138.829 57.2428 138.157 57.1247 137.54 56.8886C136.932 56.6434 136.4 56.3029 135.946 55.8671C135.501 55.4221 135.152 54.9045 134.897 54.3143C134.643 53.724 134.516 53.0748 134.516 52.3665C134.516 51.6582 134.643 51.009 134.897 50.4187C135.152 49.8285 135.506 49.3154 135.96 48.8796C136.414 48.4346 136.945 48.0941 137.554 47.858C138.171 47.6128 138.843 47.4902 139.569 47.4902C140.305 47.4902 140.981 47.6174 141.599 47.8716C142.225 48.1168 142.757 48.4846 143.193 48.9749L142.307 49.833C141.944 49.4516 141.535 49.1701 141.081 48.9885C140.627 48.7978 140.142 48.7025 139.624 48.7025C139.088 48.7025 138.589 48.7933 138.126 48.9749C137.672 49.1565 137.277 49.4108 136.941 49.7377C136.605 50.0646 136.341 50.455 136.151 50.9091C135.969 51.354 135.878 51.8398 135.878 52.3665C135.878 52.8932 135.969 53.3835 136.151 53.8376C136.341 54.2825 136.605 54.6684 136.941 54.9953C137.277 55.3222 137.672 55.5765 138.126 55.7581C138.589 55.9397 139.088 56.0305 139.624 56.0305C140.142 56.0305 140.627 55.9397 141.081 55.7581C141.535 55.5674 141.944 55.2768 142.307 54.8864L143.193 55.7445C142.757 56.2348 142.225 56.6071 141.599 56.8614C140.981 57.1156 140.3 57.2428 139.556 57.2428ZM149.333 57.1338V55.6083L149.265 55.3222V52.7206C149.265 52.1667 149.102 51.7399 148.775 51.4403C148.457 51.1315 147.976 50.9772 147.331 50.9772C146.904 50.9772 146.486 51.0498 146.078 51.1951C145.669 51.3313 145.324 51.5175 145.043 51.7536L144.498 50.7729C144.87 50.4732 145.315 50.2462 145.833 50.0918C146.359 49.9284 146.909 49.8467 147.481 49.8467C148.47 49.8467 149.233 50.0873 149.769 50.5686C150.305 51.0498 150.573 51.7853 150.573 52.7751V57.1338H149.333ZM146.963 57.2155C146.427 57.2155 145.955 57.1247 145.547 56.9431C145.147 56.7615 144.838 56.5118 144.62 56.194C144.402 55.8671 144.293 55.4993 144.293 55.0907C144.293 54.7002 144.384 54.3461 144.566 54.0282C144.757 53.7104 145.061 53.4562 145.478 53.2655C145.905 53.0748 146.477 52.9794 147.195 52.9794H149.483V53.9193H147.249C146.595 53.9193 146.155 54.0282 145.928 54.2462C145.701 54.4641 145.587 54.7274 145.587 55.0362C145.587 55.3903 145.728 55.6764 146.01 55.8943C146.291 56.1031 146.682 56.2076 147.181 56.2076C147.671 56.2076 148.098 56.0986 148.461 55.8807C148.834 55.6627 149.102 55.3449 149.265 54.9272L149.524 55.8262C149.351 56.253 149.047 56.5935 148.611 56.8478C148.175 57.0929 147.626 57.2155 146.963 57.2155ZM155.471 57.2155C154.745 57.2155 154.182 57.0203 153.782 56.6298C153.383 56.2394 153.183 55.6809 153.183 54.9545V48.3347H154.491V54.9C154.491 55.2904 154.586 55.5901 154.777 55.7989C154.977 56.0078 155.258 56.1122 155.621 56.1122C156.03 56.1122 156.37 55.9987 156.643 55.7717L157.051 56.7115C156.852 56.8841 156.611 57.0112 156.33 57.0929C156.057 57.1747 155.771 57.2155 155.471 57.2155ZM151.957 50.9908V49.9148H156.561V50.9908H151.957ZM163.114 57.1338V55.6083L163.045 55.3222V52.7206C163.045 52.1667 162.882 51.7399 162.555 51.4403C162.237 51.1315 161.756 50.9772 161.111 50.9772C160.685 50.9772 160.267 51.0498 159.858 51.1951C159.45 51.3313 159.104 51.5175 158.823 51.7536L158.278 50.7729C158.65 50.4732 159.095 50.2462 159.613 50.0918C160.14 49.9284 160.689 49.8467 161.261 49.8467C162.251 49.8467 163.014 50.0873 163.549 50.5686C164.085 51.0498 164.353 51.7853 164.353 52.7751V57.1338H163.114ZM160.744 57.2155C160.208 57.2155 159.736 57.1247 159.327 56.9431C158.927 56.7615 158.619 56.5118 158.401 56.194C158.183 55.8671 158.074 55.4993 158.074 55.0907C158.074 54.7002 158.165 54.3461 158.346 54.0282C158.537 53.7104 158.841 53.4562 159.259 53.2655C159.686 53.0748 160.258 52.9794 160.975 52.9794H163.263V53.9193H161.03C160.376 53.9193 159.935 54.0282 159.708 54.2462C159.481 54.4641 159.368 54.7274 159.368 55.0362C159.368 55.3903 159.509 55.6764 159.79 55.8943C160.072 56.1031 160.462 56.2076 160.961 56.2076C161.452 56.2076 161.879 56.0986 162.242 55.8807C162.614 55.6627 162.882 55.3449 163.045 54.9272L163.304 55.8262C163.132 56.253 162.828 56.5935 162.392 56.8478C161.956 57.0929 161.406 57.2155 160.744 57.2155ZM166.773 57.1338V47.0271H168.08V57.1338H166.773ZM173.669 57.2155C172.943 57.2155 172.298 57.0566 171.735 56.7388C171.172 56.421 170.727 55.9851 170.4 55.4312C170.073 54.8682 169.91 54.2326 169.91 53.5243C169.91 52.8069 170.073 52.1713 170.4 51.6174C170.727 51.0634 171.172 50.6321 171.735 50.3234C172.298 50.0056 172.943 49.8467 173.669 49.8467C174.386 49.8467 175.027 50.0056 175.59 50.3234C176.162 50.6321 176.607 51.0634 176.924 51.6174C177.251 52.1622 177.415 52.7978 177.415 53.5243C177.415 54.2416 177.251 54.8773 176.924 55.4312C176.607 55.9851 176.162 56.421 175.59 56.7388C175.027 57.0566 174.386 57.2155 173.669 57.2155ZM173.669 56.0714C174.132 56.0714 174.545 55.9669 174.909 55.7581C175.281 55.5492 175.571 55.2541 175.78 54.8727C175.989 54.4823 176.094 54.0328 176.094 53.5243C176.094 53.0067 175.989 52.5617 175.78 52.1894C175.571 51.808 175.281 51.5129 174.909 51.3041C174.545 51.0952 174.132 50.9908 173.669 50.9908C173.206 50.9908 172.793 51.0952 172.43 51.3041C172.066 51.5129 171.776 51.808 171.558 52.1894C171.34 52.5617 171.231 53.0067 171.231 53.5243C171.231 54.0328 171.34 54.4823 171.558 54.8727C171.776 55.2541 172.066 55.5492 172.43 55.7581C172.793 55.9669 173.206 56.0714 173.669 56.0714ZM182.383 59.858C181.72 59.858 181.076 59.7626 180.449 59.5719C179.832 59.3903 179.328 59.127 178.937 58.7819L179.564 57.774C179.9 58.0645 180.313 58.2916 180.803 58.455C181.294 58.6275 181.807 58.7138 182.342 58.7138C183.196 58.7138 183.822 58.514 184.222 58.1145C184.622 57.7149 184.821 57.1065 184.821 56.2893V54.7638L184.958 53.3336L184.889 51.8898V49.9148H186.129V56.1531C186.129 57.4244 185.811 58.3597 185.175 58.959C184.54 59.5583 183.609 59.858 182.383 59.858ZM182.22 56.8341C181.521 56.8341 180.894 56.6888 180.34 56.3983C179.795 56.0986 179.359 55.6854 179.032 55.1588C178.715 54.6321 178.556 54.0237 178.556 53.3336C178.556 52.6344 178.715 52.026 179.032 51.5084C179.359 50.9817 179.795 50.5731 180.34 50.2825C180.894 49.9919 181.521 49.8467 182.22 49.8467C182.837 49.8467 183.4 49.9738 183.909 50.228C184.417 50.4732 184.821 50.8546 185.121 51.3722C185.43 51.8898 185.584 52.5436 185.584 53.3336C185.584 54.1145 185.43 54.7638 185.121 55.2814C184.821 55.7989 184.417 56.1894 183.909 56.4527C183.4 56.707 182.837 56.8341 182.22 56.8341ZM182.37 55.69C182.851 55.69 183.278 55.5901 183.65 55.3903C184.022 55.1906 184.313 54.9136 184.522 54.5595C184.74 54.2053 184.849 53.7967 184.849 53.3336C184.849 52.8705 184.74 52.4618 184.522 52.1077C184.313 51.7536 184.022 51.4811 183.65 51.2905C183.278 51.0907 182.851 50.9908 182.37 50.9908C181.888 50.9908 181.457 51.0907 181.076 51.2905C180.703 51.4811 180.408 51.7536 180.19 52.1077C179.981 52.4618 179.877 52.8705 179.877 53.3336C179.877 53.7967 179.981 54.2053 180.19 54.5595C180.408 54.9136 180.703 55.1906 181.076 55.3903C181.457 55.5901 181.888 55.69 182.37 55.69Z" fill="#3A5CFF"/>
<mask id="mask1_1948_4170" style="mask-type:alpha" maskUnits="userSpaceOnUse" x="259" y="41" width="22" height="22">
<rect x="259.855" y="41.918" width="20.4312" height="20.4312" fill="#D9D9D9"/>
</mask>
<g mask="url(#mask1_1948_4170)">
<path d="M270.07 51.1122L266.154 55.0281L264.963 53.8363L270.07 48.7285L275.178 53.8363L273.986 55.0281L270.07 51.1122Z" fill="#E5E5E5"/>
</g>
<defs>
<linearGradient id="paint0_linear_1948_4170" x1="144.658" y1="-126.92" x2="266.752" y2="311.707" gradientUnits="userSpaceOnUse">
<stop offset="0.133169" stop-color="#0C1022" stop-opacity="0.34"/>
<stop offset="0.506036" stop-color="#29B754" stop-opacity="0.09"/>
</linearGradient>
<linearGradient id="paint1_linear_1948_4170" x1="192" y1="0" x2="192" y2="288" gradientUnits="userSpaceOnUse">
<stop offset="0.370365" stop-color="#C6C6C6" stop-opacity="0.19"/>
<stop offset="1" stop-opacity="0"/>
</linearGradient>
<radialGradient id="paint2_radial_1948_4170" cx="0" cy="0" r="1" gradientUnits="userSpaceOnUse" gradientTransform="translate(191.751 52.1338) scale(132.803 29.7662)">
<stop stop-color="#1D2040"/>
<stop offset="1" stop-color="#1A1A1A"/>
</radialGradient>
<radialGradient id="paint3_radial_1948_4170" cx="0" cy="0" r="1" gradientTransform="matrix(197.502 44.2677 -197.502 4.53301 93 30)" gradientUnits="userSpaceOnUse">
<stop stop-color="#3A5CFF"/>
<stop offset="1" stop-color="#2D45B8"/>
</radialGradient>
</defs>
</svg>
