<svg width="384" height="288" viewBox="0 0 384 288" fill="none" xmlns="http://www.w3.org/2000/svg">
<rect x="0.5" y="0.5" width="383" height="287" rx="11.5" fill="#0C1022" fill-opacity="0.6"/>
<rect x="0.5" y="0.5" width="383" height="287" rx="11.5" fill="url(#paint0_linear_1945_3650)" fill-opacity="0.7"/>
<rect x="0.5" y="0.5" width="383" height="287" rx="11.5" stroke="url(#paint1_linear_1945_3650)"/>
<rect x="29.2122" y="38.2122" width="325.576" height="211.391" rx="6.57943" fill="#0C1022" fill-opacity="0.6"/>
<rect x="29.2122" y="38.2122" width="325.576" height="211.391" rx="6.57943" fill="url(#paint2_linear_1945_3650)" fill-opacity="0.7"/>
<rect x="29.2122" y="38.2122" width="325.576" height="211.391" rx="6.57943" stroke="url(#paint3_linear_1945_3650)" stroke-width="0.424479"/>
<path d="M68.1076 226.176H68.6309V229.265C68.6309 229.541 68.5803 229.775 68.479 229.968C68.3777 230.161 68.2349 230.307 68.0506 230.407C67.8663 230.507 67.6489 230.557 67.3985 230.557C67.1621 230.557 66.9518 230.514 66.7675 230.428C66.5832 230.341 66.4383 230.217 66.3328 230.056C66.2272 229.896 66.1745 229.705 66.1745 229.485H66.6894C66.6894 229.607 66.7197 229.714 66.7802 229.805C66.8421 229.895 66.9265 229.966 67.0334 230.016C67.1403 230.067 67.262 230.092 67.3985 230.092C67.549 230.092 67.677 230.061 67.7826 229.997C67.8881 229.934 67.9683 229.841 68.0231 229.719C68.0794 229.595 68.1076 229.444 68.1076 229.265V226.176ZM70.5661 230.574C70.3607 230.574 70.1743 230.535 70.0069 230.457C69.8394 230.379 69.7065 230.265 69.608 230.118C69.5095 229.969 69.4603 229.788 69.4603 229.577C69.4603 229.392 69.4969 229.241 69.57 229.126C69.6432 229.009 69.741 228.918 69.8634 228.851C69.9858 228.785 70.1208 228.736 70.2685 228.704C70.4177 228.67 70.5675 228.643 70.718 228.624C70.915 228.598 71.0747 228.579 71.1971 228.567C71.3209 228.553 71.4109 228.529 71.4672 228.497C71.5249 228.465 71.5537 228.408 71.5537 228.328V228.311C71.5537 228.103 71.4968 227.941 71.3828 227.826C71.2702 227.711 71.0993 227.653 70.87 227.653C70.6322 227.653 70.4458 227.705 70.3107 227.809C70.1757 227.913 70.0807 228.024 70.0259 228.142L69.5531 227.974C69.6375 227.777 69.7501 227.623 69.8908 227.514C70.0329 227.402 70.1876 227.325 70.3551 227.281C70.5239 227.236 70.6899 227.214 70.8531 227.214C70.9572 227.214 71.0768 227.227 71.2119 227.252C71.3483 227.276 71.4799 227.326 71.6065 227.402C71.7345 227.478 71.8407 227.592 71.9252 227.746C72.0096 227.899 72.0518 228.104 72.0518 228.362V230.498H71.5537V230.059H71.5284C71.4946 230.129 71.4384 230.204 71.3596 230.284C71.2808 230.365 71.176 230.433 71.0451 230.489C70.9143 230.545 70.7546 230.574 70.5661 230.574ZM70.6421 230.126C70.839 230.126 71.005 230.087 71.1401 230.01C71.2766 229.933 71.3793 229.833 71.4482 229.71C71.5186 229.588 71.5537 229.459 71.5537 229.324V228.868C71.5326 228.894 71.4862 228.917 71.4145 228.938C71.3441 228.958 71.2625 228.975 71.1697 228.991C71.0782 229.005 70.9889 229.018 70.9016 229.029C70.8158 229.039 70.7462 229.047 70.6927 229.054C70.5633 229.071 70.4423 229.098 70.3297 229.136C70.2186 229.173 70.1286 229.229 70.0596 229.303C69.9921 229.376 69.9583 229.476 69.9583 229.603C69.9583 229.776 70.0223 229.907 70.1504 229.995C70.2798 230.083 70.4437 230.126 70.6421 230.126ZM73.4588 228.548V230.498H72.9608V227.256H73.442V227.763H73.4842C73.5601 227.598 73.6755 227.466 73.8303 227.366C73.985 227.265 74.1848 227.214 74.4296 227.214C74.6491 227.214 74.8411 227.259 75.0057 227.349C75.1703 227.438 75.2984 227.573 75.3898 227.754C75.4812 227.934 75.527 228.162 75.527 228.438V230.498H75.0289V228.472C75.0289 228.217 74.9628 228.019 74.8306 227.877C74.6983 227.733 74.5168 227.661 74.2861 227.661C74.1271 227.661 73.985 227.696 73.8598 227.765C73.736 227.834 73.6382 227.934 73.5665 228.066C73.4947 228.199 73.4588 228.359 73.4588 228.548Z" fill="#969696"/>
<path d="M118.371 230.498V226.176H120.963V226.64H118.895V228.1H120.769V228.564H118.895V230.498H118.371ZM122.913 230.565C122.601 230.565 122.331 230.496 122.105 230.358C121.88 230.219 121.706 230.025 121.583 229.776C121.462 229.525 121.402 229.234 121.402 228.902C121.402 228.57 121.462 228.277 121.583 228.024C121.706 227.77 121.876 227.571 122.094 227.429C122.314 227.286 122.57 227.214 122.862 227.214C123.031 227.214 123.198 227.242 123.362 227.298C123.527 227.355 123.677 227.446 123.812 227.573C123.947 227.698 124.055 227.864 124.135 228.071C124.215 228.277 124.255 228.532 124.255 228.835V229.046H121.756V228.615H123.749C123.749 228.432 123.712 228.269 123.639 228.126C123.567 227.982 123.464 227.869 123.331 227.786C123.199 227.703 123.042 227.661 122.862 227.661C122.664 227.661 122.492 227.711 122.347 227.809C122.204 227.906 122.093 228.033 122.016 228.189C121.939 228.345 121.9 228.512 121.9 228.691V228.978C121.9 229.223 121.942 229.43 122.027 229.601C122.112 229.769 122.231 229.898 122.383 229.987C122.535 230.074 122.712 230.118 122.913 230.118C123.044 230.118 123.162 230.099 123.267 230.063C123.374 230.025 123.467 229.969 123.544 229.894C123.621 229.818 123.681 229.724 123.723 229.611L124.204 229.746C124.154 229.909 124.069 230.053 123.949 230.177C123.83 230.299 123.682 230.395 123.506 230.464C123.33 230.531 123.132 230.565 122.913 230.565ZM125.08 230.498V226.176H125.578V227.771H125.62C125.657 227.715 125.708 227.643 125.772 227.556C125.839 227.467 125.933 227.388 126.055 227.319C126.179 227.249 126.346 227.214 126.557 227.214C126.83 227.214 127.071 227.282 127.279 227.419C127.487 227.555 127.65 227.748 127.767 227.999C127.883 228.249 127.942 228.545 127.942 228.885C127.942 229.229 127.883 229.526 127.767 229.778C127.65 230.028 127.488 230.223 127.281 230.36C127.074 230.497 126.836 230.565 126.566 230.565C126.358 230.565 126.191 230.531 126.066 230.462C125.941 230.391 125.844 230.312 125.777 230.223C125.709 230.133 125.657 230.059 125.62 230H125.561V230.498H125.08ZM125.57 228.877C125.57 229.122 125.606 229.338 125.677 229.525C125.749 229.71 125.854 229.856 125.992 229.962C126.13 230.066 126.299 230.118 126.498 230.118C126.707 230.118 126.88 230.063 127.02 229.953C127.16 229.842 127.266 229.693 127.336 229.506C127.408 229.317 127.444 229.108 127.444 228.877C127.444 228.649 127.409 228.443 127.338 228.261C127.269 228.076 127.165 227.931 127.024 227.824C126.885 227.715 126.709 227.661 126.498 227.661C126.296 227.661 126.126 227.713 125.988 227.815C125.85 227.917 125.746 228.059 125.675 228.242C125.605 228.423 125.57 228.635 125.57 228.877Z" fill="#969696"/>
<path d="M169.766 226.176H170.391L171.86 229.763H171.91L173.379 226.176H174.004V230.498H173.514V227.214H173.472L172.121 230.498H171.649L170.298 227.214H170.256V230.498H169.766V226.176ZM175.939 230.574C175.734 230.574 175.548 230.535 175.38 230.457C175.213 230.379 175.08 230.265 174.981 230.118C174.883 229.969 174.834 229.788 174.834 229.577C174.834 229.392 174.87 229.241 174.943 229.126C175.017 229.009 175.114 228.918 175.237 228.851C175.359 228.785 175.494 228.736 175.642 228.704C175.791 228.67 175.941 228.643 176.091 228.624C176.288 228.598 176.448 228.579 176.57 228.567C176.694 228.553 176.784 228.529 176.841 228.497C176.898 228.465 176.927 228.408 176.927 228.328V228.311C176.927 228.103 176.87 227.941 176.756 227.826C176.644 227.711 176.473 227.653 176.243 227.653C176.006 227.653 175.819 227.705 175.684 227.809C175.549 227.913 175.454 228.024 175.399 228.142L174.927 227.974C175.011 227.777 175.123 227.623 175.264 227.514C175.406 227.402 175.561 227.325 175.728 227.281C175.897 227.236 176.063 227.214 176.226 227.214C176.331 227.214 176.45 227.227 176.585 227.252C176.722 227.276 176.853 227.326 176.98 227.402C177.108 227.478 177.214 227.592 177.299 227.746C177.383 227.899 177.425 228.104 177.425 228.362V230.498H176.927V230.059H176.902C176.868 230.129 176.812 230.204 176.733 230.284C176.654 230.365 176.549 230.433 176.419 230.489C176.288 230.545 176.128 230.574 175.939 230.574ZM176.015 230.126C176.212 230.126 176.378 230.087 176.513 230.01C176.65 229.933 176.753 229.833 176.822 229.71C176.892 229.588 176.927 229.459 176.927 229.324V228.868C176.906 228.894 176.86 228.917 176.788 228.938C176.717 228.958 176.636 228.975 176.543 228.991C176.452 229.005 176.362 229.018 176.275 229.029C176.189 229.039 176.12 229.047 176.066 229.054C175.937 229.071 175.816 229.098 175.703 229.136C175.592 229.173 175.502 229.229 175.433 229.303C175.365 229.376 175.332 229.476 175.332 229.603C175.332 229.776 175.396 229.907 175.524 229.995C175.653 230.083 175.817 230.126 176.015 230.126ZM178.334 230.498V227.256H178.815V227.746H178.849C178.908 227.585 179.015 227.455 179.17 227.355C179.325 227.255 179.499 227.205 179.693 227.205C179.73 227.205 179.776 227.206 179.83 227.208C179.885 227.209 179.927 227.211 179.955 227.214V227.72C179.938 227.716 179.899 227.71 179.839 227.701C179.78 227.692 179.717 227.687 179.651 227.687C179.493 227.687 179.353 227.72 179.229 227.786C179.107 227.85 179.009 227.941 178.938 228.056C178.867 228.17 178.832 228.3 178.832 228.446V230.498H178.334Z" fill="#969696"/>
<path d="M221.561 230.498H221.012L222.599 226.176H223.139L224.726 230.498H224.178L222.886 226.859H222.852L221.561 230.498ZM221.763 228.809H223.975V229.274H221.763V228.809ZM225.332 231.713V227.256H225.813V227.771H225.872C225.909 227.715 225.959 227.643 226.024 227.556C226.09 227.467 226.185 227.388 226.307 227.319C226.431 227.249 226.598 227.214 226.809 227.214C227.082 227.214 227.323 227.282 227.531 227.419C227.739 227.555 227.902 227.748 228.018 227.999C228.135 228.249 228.194 228.545 228.194 228.885C228.194 229.229 228.135 229.526 228.018 229.778C227.902 230.028 227.74 230.223 227.533 230.36C227.326 230.497 227.088 230.565 226.818 230.565C226.609 230.565 226.443 230.531 226.318 230.462C226.192 230.391 226.096 230.312 226.028 230.223C225.961 230.133 225.909 230.059 225.872 230H225.83V231.713H225.332ZM225.822 228.877C225.822 229.122 225.857 229.338 225.929 229.525C226.001 229.71 226.106 229.856 226.244 229.962C226.382 230.066 226.55 230.118 226.75 230.118C226.958 230.118 227.132 230.063 227.271 229.953C227.412 229.842 227.518 229.693 227.588 229.506C227.66 229.317 227.696 229.108 227.696 228.877C227.696 228.649 227.66 228.443 227.59 228.261C227.521 228.076 227.416 227.931 227.276 227.824C227.136 227.715 226.961 227.661 226.75 227.661C226.548 227.661 226.377 227.713 226.239 227.815C226.102 227.917 225.997 228.059 225.927 228.242C225.857 228.423 225.822 228.635 225.822 228.877ZM228.953 230.498V227.256H229.435V227.746H229.468C229.527 227.585 229.634 227.455 229.789 227.355C229.944 227.255 230.118 227.205 230.312 227.205C230.349 227.205 230.395 227.206 230.45 227.208C230.504 227.209 230.546 227.211 230.574 227.214V227.72C230.557 227.716 230.519 227.71 230.458 227.701C230.399 227.692 230.336 227.687 230.27 227.687C230.113 227.687 229.972 227.72 229.848 227.786C229.726 227.85 229.629 227.941 229.557 228.056C229.487 228.17 229.451 228.3 229.451 228.446V230.498H228.953Z" fill="#969696"/>
<path d="M272.012 226.176H272.637L274.106 229.763H274.156L275.625 226.176H276.25V230.498H275.76V227.214H275.718L274.367 230.498H273.895L272.544 227.214H272.502V230.498H272.012V226.176ZM278.186 230.574C277.98 230.574 277.794 230.535 277.626 230.457C277.459 230.379 277.326 230.265 277.227 230.118C277.129 229.969 277.08 229.788 277.08 229.577C277.08 229.392 277.116 229.241 277.189 229.126C277.263 229.009 277.36 228.918 277.483 228.851C277.605 228.785 277.74 228.736 277.888 228.704C278.037 228.67 278.187 228.643 278.337 228.624C278.534 228.598 278.694 228.579 278.817 228.567C278.94 228.553 279.03 228.529 279.087 228.497C279.144 228.465 279.173 228.408 279.173 228.328V228.311C279.173 228.103 279.116 227.941 279.002 227.826C278.89 227.711 278.719 227.653 278.489 227.653C278.252 227.653 278.065 227.705 277.93 227.809C277.795 227.913 277.7 228.024 277.645 228.142L277.173 227.974C277.257 227.777 277.37 227.623 277.51 227.514C277.652 227.402 277.807 227.325 277.974 227.281C278.143 227.236 278.309 227.214 278.473 227.214C278.577 227.214 278.696 227.227 278.831 227.252C278.968 227.276 279.099 227.326 279.226 227.402C279.354 227.478 279.46 227.592 279.545 227.746C279.629 227.899 279.671 228.104 279.671 228.362V230.498H279.173V230.059H279.148C279.114 230.129 279.058 230.204 278.979 230.284C278.9 230.365 278.795 230.433 278.665 230.489C278.534 230.545 278.374 230.574 278.186 230.574ZM278.261 230.126C278.458 230.126 278.624 230.087 278.76 230.01C278.896 229.933 278.999 229.833 279.068 229.71C279.138 229.588 279.173 229.459 279.173 229.324V228.868C279.152 228.894 279.106 228.917 279.034 228.938C278.964 228.958 278.882 228.975 278.789 228.991C278.698 229.005 278.608 229.018 278.521 229.029C278.435 229.039 278.366 229.047 278.312 229.054C278.183 229.071 278.062 229.098 277.949 229.136C277.838 229.173 277.748 229.229 277.679 229.303C277.612 229.376 277.578 229.476 277.578 229.603C277.578 229.776 277.642 229.907 277.77 229.995C277.899 230.083 278.063 230.126 278.261 230.126ZM280.785 231.713C280.701 231.713 280.625 231.706 280.559 231.692C280.493 231.679 280.447 231.667 280.422 231.654L280.549 231.215C280.67 231.246 280.776 231.257 280.869 231.249C280.962 231.24 281.045 231.199 281.116 231.124C281.189 231.051 281.256 230.932 281.317 230.768L281.41 230.514L280.211 227.256H280.751L281.646 229.839H281.68L282.574 227.256H283.115L281.739 230.97C281.677 231.138 281.6 231.276 281.509 231.386C281.417 231.497 281.311 231.579 281.19 231.633C281.071 231.686 280.935 231.713 280.785 231.713Z" fill="#969696"/>
<path d="M326.391 226.176H326.915V229.265C326.915 229.541 326.864 229.775 326.763 229.968C326.661 230.161 326.519 230.307 326.334 230.407C326.15 230.507 325.933 230.557 325.682 230.557C325.446 230.557 325.236 230.514 325.051 230.428C324.867 230.341 324.722 230.217 324.617 230.056C324.511 229.896 324.458 229.705 324.458 229.485H324.973C324.973 229.607 325.003 229.714 325.064 229.805C325.126 229.895 325.21 229.966 325.317 230.016C325.424 230.067 325.546 230.092 325.682 230.092C325.833 230.092 325.961 230.061 326.066 229.997C326.172 229.934 326.252 229.841 326.307 229.719C326.363 229.595 326.391 229.444 326.391 229.265V226.176ZM329.939 229.172V227.256H330.437V230.498H329.939V229.949H329.905C329.829 230.113 329.711 230.253 329.55 230.369C329.39 230.483 329.188 230.54 328.943 230.54C328.74 230.54 328.56 230.495 328.402 230.407C328.245 230.317 328.121 230.182 328.031 230.002C327.941 229.82 327.896 229.592 327.896 229.316V227.256H328.394V229.282C328.394 229.518 328.46 229.707 328.592 229.848C328.726 229.988 328.896 230.059 329.103 230.059C329.227 230.059 329.353 230.027 329.481 229.964C329.61 229.9 329.719 229.803 329.806 229.672C329.894 229.542 329.939 229.375 329.939 229.172ZM331.847 228.548V230.498H331.349V227.256H331.83V227.763H331.872C331.948 227.598 332.064 227.466 332.218 227.366C332.373 227.265 332.573 227.214 332.818 227.214C333.037 227.214 333.229 227.259 333.394 227.349C333.559 227.438 333.687 227.573 333.778 227.754C333.869 227.934 333.915 228.162 333.915 228.438V230.498H333.417V228.472C333.417 228.217 333.351 228.019 333.219 227.877C333.087 227.733 332.905 227.661 332.674 227.661C332.515 227.661 332.373 227.696 332.248 227.765C332.124 227.834 332.026 227.934 331.955 228.066C331.883 228.199 331.847 228.359 331.847 228.548ZM336.184 230.565C335.872 230.565 335.603 230.496 335.376 230.358C335.151 230.219 334.977 230.025 334.855 229.776C334.734 229.525 334.673 229.234 334.673 228.902C334.673 228.57 334.734 228.277 334.855 228.024C334.977 227.77 335.147 227.571 335.366 227.429C335.585 227.286 335.841 227.214 336.134 227.214C336.303 227.214 336.469 227.242 336.634 227.298C336.798 227.355 336.948 227.446 337.083 227.573C337.218 227.698 337.326 227.864 337.406 228.071C337.486 228.277 337.527 228.532 337.527 228.835V229.046H335.028V228.615H337.02C337.02 228.432 336.983 228.269 336.91 228.126C336.839 227.982 336.736 227.869 336.602 227.786C336.47 227.703 336.314 227.661 336.134 227.661C335.935 227.661 335.764 227.711 335.619 227.809C335.475 227.906 335.365 228.033 335.287 228.189C335.21 228.345 335.171 228.512 335.171 228.691V228.978C335.171 229.223 335.214 229.43 335.298 229.601C335.384 229.769 335.503 229.898 335.655 229.987C335.807 230.074 335.983 230.118 336.184 230.118C336.315 230.118 336.433 230.099 336.539 230.063C336.646 230.025 336.738 229.969 336.815 229.894C336.893 229.818 336.953 229.724 336.995 229.611L337.476 229.746C337.425 229.909 337.34 230.053 337.221 230.177C337.101 230.299 336.953 230.395 336.777 230.464C336.601 230.531 336.404 230.565 336.184 230.565Z" fill="#969696"/>
<path d="M46.5616 90.4194L48.4946 86.5955V86.5617H46.2661V86.0975H49.0349V86.5871L47.1103 90.4194H46.5616ZM51.1384 90.4785C50.8204 90.4785 50.5496 90.392 50.3259 90.219C50.1022 90.0445 49.9313 89.792 49.8131 89.4613C49.6949 89.1293 49.6358 88.7284 49.6358 88.2584C49.6358 87.7914 49.6949 87.3925 49.8131 87.0619C49.9327 86.7299 50.1043 86.4766 50.328 86.3022C50.5531 86.1263 50.8232 86.0384 51.1384 86.0384C51.4535 86.0384 51.7229 86.1263 51.9466 86.3022C52.1717 86.4766 52.3434 86.7299 52.4616 87.0619C52.5811 87.3925 52.6409 87.7914 52.6409 88.2584C52.6409 88.7284 52.5818 89.1293 52.4637 89.4613C52.3455 89.792 52.1745 90.0445 51.9509 90.219C51.7272 90.392 51.4563 90.4785 51.1384 90.4785ZM51.1384 90.0142C51.4535 90.0142 51.6983 89.8623 51.8728 89.5584C52.0472 89.2545 52.1345 88.8212 52.1345 88.2584C52.1345 87.8842 52.0944 87.5656 52.0142 87.3025C51.9354 87.0394 51.8214 86.8389 51.6723 86.701C51.5246 86.5631 51.3466 86.4942 51.1384 86.4942C50.826 86.4942 50.5819 86.6483 50.4061 86.9564C50.2302 87.2631 50.1423 87.6971 50.1423 88.2584C50.1423 88.6327 50.1817 88.9506 50.2605 89.2123C50.3393 89.474 50.4525 89.6731 50.6002 89.8095C50.7494 89.946 50.9287 90.0142 51.1384 90.0142ZM54.8526 90.4785C54.5346 90.4785 54.2638 90.392 54.0401 90.219C53.8164 90.0445 53.6455 89.792 53.5273 89.4613C53.4091 89.1293 53.35 88.7284 53.35 88.2584C53.35 87.7914 53.4091 87.3925 53.5273 87.0619C53.6469 86.7299 53.8185 86.4766 54.0422 86.3022C54.2673 86.1263 54.5374 86.0384 54.8526 86.0384C55.1677 86.0384 55.4371 86.1263 55.6608 86.3022C55.8859 86.4766 56.0576 86.7299 56.1757 87.0619C56.2953 87.3925 56.3551 87.7914 56.3551 88.2584C56.3551 88.7284 56.296 89.1293 56.1779 89.4613C56.0597 89.792 55.8887 90.0445 55.665 90.219C55.4413 90.392 55.1705 90.4785 54.8526 90.4785ZM54.8526 90.0142C55.1677 90.0142 55.4125 89.8623 55.587 89.5584C55.7614 89.2545 55.8486 88.8212 55.8486 88.2584C55.8486 87.8842 55.8085 87.5656 55.7284 87.3025C55.6496 87.0394 55.5356 86.8389 55.3865 86.701C55.2388 86.5631 55.0608 86.4942 54.8526 86.4942C54.5402 86.4942 54.2961 86.6483 54.1203 86.9564C53.9444 87.2631 53.8565 87.6971 53.8565 88.2584C53.8565 88.6327 53.8959 88.9506 53.9747 89.2123C54.0534 89.474 54.1667 89.6731 54.3144 89.8095C54.4636 89.946 54.6429 90.0142 54.8526 90.0142Z" fill="#969696"/>
<path d="M48.2932 111.515C48.1159 111.512 47.9386 111.478 47.7614 111.414C47.5841 111.349 47.4223 111.24 47.276 111.087C47.1297 110.932 47.0122 110.723 46.9236 110.46C46.8349 110.195 46.7906 109.863 46.7906 109.464C46.7906 109.081 46.8265 108.742 46.8982 108.446C46.97 108.15 47.0741 107.9 47.2106 107.697C47.347 107.493 47.5116 107.339 47.7044 107.233C47.8985 107.128 48.1173 107.075 48.3607 107.075C48.6027 107.075 48.8179 107.123 49.0065 107.22C49.1964 107.316 49.3511 107.45 49.4707 107.621C49.5903 107.793 49.6677 107.991 49.7029 108.214H49.1879C49.1401 108.02 49.0473 107.859 48.9094 107.731C48.7715 107.603 48.5886 107.539 48.3607 107.539C48.0258 107.539 47.7621 107.685 47.5693 107.976C47.378 108.267 47.2816 108.676 47.2802 109.202H47.314C47.3927 109.082 47.4863 108.98 47.5946 108.896C47.7044 108.81 47.8254 108.744 47.9576 108.698C48.0899 108.651 48.2298 108.628 48.3776 108.628C48.6252 108.628 48.8517 108.69 49.0571 108.814C49.2625 108.936 49.4271 109.106 49.5509 109.322C49.6747 109.538 49.7366 109.784 49.7366 110.063C49.7366 110.33 49.6768 110.575 49.5573 110.797C49.4377 111.018 49.2695 111.194 49.0529 111.325C48.8376 111.454 48.5844 111.518 48.2932 111.515ZM48.2932 111.051C48.4704 111.051 48.6294 111.006 48.7701 110.918C48.9122 110.829 49.024 110.71 49.1056 110.561C49.1886 110.412 49.2301 110.246 49.2301 110.063C49.2301 109.884 49.1901 109.722 49.1099 109.576C49.0311 109.428 48.922 109.31 48.7828 109.223C48.6449 109.136 48.4873 109.092 48.31 109.092C48.1764 109.092 48.0519 109.119 47.9365 109.172C47.8211 109.224 47.7199 109.296 47.6326 109.388C47.5468 109.479 47.4793 109.584 47.43 109.702C47.3808 109.819 47.3562 109.942 47.3562 110.071C47.3562 110.243 47.3963 110.403 47.4765 110.553C47.5581 110.702 47.6692 110.822 47.8099 110.913C47.952 111.005 48.1131 111.051 48.2932 111.051ZM51.9762 111.515C51.6583 111.515 51.3874 111.428 51.1637 111.255C50.94 111.081 50.7691 110.828 50.6509 110.498C50.5328 110.166 50.4737 109.765 50.4737 109.295C50.4737 108.828 50.5328 108.429 50.6509 108.098C50.7705 107.766 50.9422 107.513 51.1659 107.339C51.391 107.163 51.6611 107.075 51.9762 107.075C52.2914 107.075 52.5608 107.163 52.7845 107.339C53.0096 107.513 53.1812 107.766 53.2994 108.098C53.419 108.429 53.4788 108.828 53.4788 109.295C53.4788 109.765 53.4197 110.166 53.3015 110.498C53.1833 110.828 53.0124 111.081 52.7887 111.255C52.565 111.428 52.2942 111.515 51.9762 111.515ZM51.9762 111.051C52.2914 111.051 52.5362 110.899 52.7106 110.595C52.8851 110.291 52.9723 109.858 52.9723 109.295C52.9723 108.921 52.9322 108.602 52.852 108.339C52.7732 108.076 52.6593 107.875 52.5101 107.737C52.3624 107.6 52.1844 107.531 51.9762 107.531C51.6639 107.531 51.4198 107.685 51.2439 107.993C51.0681 108.299 50.9801 108.733 50.9801 109.295C50.9801 109.669 51.0195 109.987 51.0983 110.249C51.1771 110.51 51.2904 110.709 51.4381 110.846C51.5872 110.982 51.7666 111.051 51.9762 111.051ZM55.6904 111.515C55.3725 111.515 55.1016 111.428 54.8779 111.255C54.6542 111.081 54.4833 110.828 54.3651 110.498C54.2469 110.166 54.1879 109.765 54.1879 109.295C54.1879 108.828 54.2469 108.429 54.3651 108.098C54.4847 107.766 54.6564 107.513 54.88 107.339C55.1052 107.163 55.3753 107.075 55.6904 107.075C56.0056 107.075 56.275 107.163 56.4987 107.339C56.7238 107.513 56.8954 107.766 57.0136 108.098C57.1332 108.429 57.193 108.828 57.193 109.295C57.193 109.765 57.1339 110.166 57.0157 110.498C56.8975 110.828 56.7266 111.081 56.5029 111.255C56.2792 111.428 56.0084 111.515 55.6904 111.515ZM55.6904 111.051C56.0056 111.051 56.2504 110.899 56.4248 110.595C56.5993 110.291 56.6865 109.858 56.6865 109.295C56.6865 108.921 56.6464 108.602 56.5662 108.339C56.4874 108.076 56.3735 107.875 56.2243 107.737C56.0766 107.6 55.8986 107.531 55.6904 107.531C55.3781 107.531 55.134 107.685 54.9581 107.993C54.7823 108.299 54.6943 108.733 54.6943 109.295C54.6943 109.669 54.7337 109.987 54.8125 110.249C54.8913 110.51 55.0046 110.709 55.1523 110.846C55.3014 110.982 55.4808 111.051 55.6904 111.051Z" fill="#969696"/>
<path d="M48.2552 132.552C48.0076 132.552 47.7846 132.502 47.5862 132.404C47.3878 132.305 47.2288 132.17 47.1093 131.999C46.9897 131.827 46.9243 131.631 46.913 131.412H47.4195C47.4392 131.607 47.5278 131.769 47.6854 131.897C47.8444 132.024 48.0343 132.087 48.2552 132.087C48.4324 132.087 48.59 132.046 48.7279 131.963C48.8672 131.88 48.9762 131.766 49.055 131.621C49.1352 131.475 49.1753 131.309 49.1753 131.125C49.1753 130.936 49.1338 130.768 49.0508 130.621C48.9692 130.471 48.8566 130.354 48.7131 130.268C48.5696 130.182 48.4057 130.139 48.2214 130.137C48.0892 130.136 47.9534 130.156 47.8141 130.198C47.6748 130.239 47.5602 130.292 47.4701 130.357L46.9805 130.298L47.2422 128.17H49.4876V128.635H47.6812L47.5292 129.909H47.5545C47.6432 129.839 47.7543 129.781 47.888 129.734C48.0216 129.688 48.1609 129.665 48.3058 129.665C48.5703 129.665 48.806 129.728 49.0128 129.855C49.221 129.98 49.3842 130.151 49.5024 130.369C49.622 130.588 49.6818 130.837 49.6818 131.116C49.6818 131.392 49.6199 131.638 49.4961 131.855C49.3737 132.07 49.2048 132.241 48.9896 132.366C48.7743 132.49 48.5295 132.552 48.2552 132.552ZM51.9298 132.552C51.6118 132.552 51.341 132.465 51.1173 132.292C50.8936 132.117 50.7227 131.865 50.6045 131.534C50.4863 131.202 50.4272 130.801 50.4272 130.331C50.4272 129.864 50.4863 129.466 50.6045 129.135C50.7241 128.803 50.8957 128.55 51.1194 128.375C51.3445 128.199 51.6147 128.111 51.9298 128.111C52.2449 128.111 52.5144 128.199 52.7381 128.375C52.9632 128.55 53.1348 128.803 53.253 129.135C53.3726 129.466 53.4324 129.864 53.4324 130.331C53.4324 130.801 53.3733 131.202 53.2551 131.534C53.1369 131.865 52.966 132.117 52.7423 132.292C52.5186 132.465 52.2478 132.552 51.9298 132.552ZM51.9298 132.087C52.2449 132.087 52.4897 131.935 52.6642 131.631C52.8386 131.328 52.9259 130.894 52.9259 130.331C52.9259 129.957 52.8858 129.639 52.8056 129.375C52.7268 129.112 52.6128 128.912 52.4637 128.774C52.316 128.636 52.138 128.567 51.9298 128.567C51.6175 128.567 51.3734 128.721 51.1975 129.029C51.0216 129.336 50.9337 129.77 50.9337 130.331C50.9337 130.706 50.9731 131.024 51.0519 131.285C51.1307 131.547 51.2439 131.746 51.3917 131.883C51.5408 132.019 51.7202 132.087 51.9298 132.087ZM55.644 132.552C55.326 132.552 55.0552 132.465 54.8315 132.292C54.6078 132.117 54.4369 131.865 54.3187 131.534C54.2005 131.202 54.1414 130.801 54.1414 130.331C54.1414 129.864 54.2005 129.466 54.3187 129.135C54.4383 128.803 54.6099 128.55 54.8336 128.375C55.0587 128.199 55.3288 128.111 55.644 128.111C55.9591 128.111 56.2286 128.199 56.4522 128.375C56.6774 128.55 56.849 128.803 56.9672 129.135C57.0868 129.466 57.1465 129.864 57.1465 130.331C57.1465 130.801 57.0875 131.202 56.9693 131.534C56.8511 131.865 56.6802 132.117 56.4565 132.292C56.2328 132.465 55.9619 132.552 55.644 132.552ZM55.644 132.087C55.9591 132.087 56.2039 131.935 56.3784 131.631C56.5528 131.328 56.6401 130.894 56.6401 130.331C56.6401 129.957 56.6 129.639 56.5198 129.375C56.441 129.112 56.327 128.912 56.1779 128.774C56.0302 128.636 55.8522 128.567 55.644 128.567C55.3317 128.567 55.0876 128.721 54.9117 129.029C54.7358 129.336 54.6479 129.77 54.6479 130.331C54.6479 130.706 54.6873 131.024 54.7661 131.285C54.8449 131.547 54.9581 131.746 55.1059 131.883C55.255 132.019 55.4344 132.087 55.644 132.087Z" fill="#969696"/>
<path d="M46.7046 152.642V152.212L48.6039 149.207H48.9162V149.874H48.7052L47.2702 152.144V152.178H49.8279V152.642H46.7046ZM48.739 153.529V152.512V152.311V149.207H49.237V153.529H48.739ZM52.0285 153.588C51.7105 153.588 51.4397 153.501 51.216 153.328C50.9923 153.154 50.8213 152.901 50.7032 152.571C50.585 152.239 50.5259 151.838 50.5259 151.368C50.5259 150.901 50.585 150.502 50.7032 150.171C50.8227 149.839 50.9944 149.586 51.2181 149.412C51.4432 149.236 51.7133 149.148 52.0285 149.148C52.3436 149.148 52.613 149.236 52.8367 149.412C53.0618 149.586 53.2335 149.839 53.3516 150.171C53.4712 150.502 53.531 150.901 53.531 151.368C53.531 151.838 53.4719 152.239 53.3537 152.571C53.2356 152.901 53.0646 153.154 52.8409 153.328C52.6172 153.501 52.3464 153.588 52.0285 153.588ZM52.0285 153.124C52.3436 153.124 52.5884 152.972 52.7629 152.668C52.9373 152.364 53.0245 151.931 53.0245 151.368C53.0245 150.994 52.9844 150.675 52.9042 150.412C52.8255 150.149 52.7115 149.948 52.5624 149.81C52.4146 149.673 52.2367 149.604 52.0285 149.604C51.7161 149.604 51.472 149.758 51.2962 150.066C51.1203 150.372 51.0324 150.806 51.0324 151.368C51.0324 151.742 51.0718 152.06 51.1506 152.322C51.2293 152.583 51.3426 152.782 51.4903 152.919C51.6394 153.055 51.8188 153.124 52.0285 153.124ZM55.7426 153.588C55.4247 153.588 55.1539 153.501 54.9302 153.328C54.7065 153.154 54.5355 152.901 54.4174 152.571C54.2992 152.239 54.2401 151.838 54.2401 151.368C54.2401 150.901 54.2992 150.502 54.4174 150.171C54.5369 149.839 54.7086 149.586 54.9323 149.412C55.1574 149.236 55.4275 149.148 55.7426 149.148C56.0578 149.148 56.3272 149.236 56.5509 149.412C56.776 149.586 56.9477 149.839 57.0658 150.171C57.1854 150.502 57.2452 150.901 57.2452 151.368C57.2452 151.838 57.1861 152.239 57.0679 152.571C56.9498 152.901 56.7788 153.154 56.5551 153.328C56.3314 153.501 56.0606 153.588 55.7426 153.588ZM55.7426 153.124C56.0578 153.124 56.3026 152.972 56.477 152.668C56.6515 152.364 56.7387 151.931 56.7387 151.368C56.7387 150.994 56.6986 150.675 56.6184 150.412C56.5397 150.149 56.4257 149.948 56.2766 149.81C56.1288 149.673 55.9509 149.604 55.7426 149.604C55.4303 149.604 55.1862 149.758 55.0104 150.066C54.8345 150.372 54.7466 150.806 54.7466 151.368C54.7466 151.742 54.786 152.06 54.8647 152.322C54.9435 152.583 55.0568 152.782 55.2045 152.919C55.3536 153.055 55.533 153.124 55.7426 153.124Z" fill="#969696"/>
<path d="M48.2808 174.624C48.0022 174.624 47.7539 174.576 47.5358 174.481C47.3192 174.385 47.1468 174.252 47.0188 174.082C46.8922 173.91 46.8232 173.711 46.812 173.485H47.3438C47.355 173.624 47.4029 173.744 47.4873 173.846C47.5717 173.945 47.6821 174.023 47.8186 174.078C47.9551 174.133 48.1063 174.16 48.2723 174.16C48.458 174.16 48.6226 174.128 48.7661 174.063C48.9096 173.998 49.0222 173.908 49.1038 173.793C49.1854 173.677 49.2262 173.544 49.2262 173.392C49.2262 173.233 49.1868 173.093 49.108 172.972C49.0292 172.849 48.9139 172.754 48.7619 172.685C48.61 172.616 48.4243 172.581 48.2048 172.581H47.8587V172.117H48.2048C48.3764 172.117 48.527 172.086 48.6564 172.024C48.7872 171.962 48.8892 171.875 48.9624 171.763C49.037 171.65 49.0742 171.518 49.0742 171.366C49.0742 171.22 49.0419 171.092 48.9772 170.984C48.9125 170.876 48.821 170.791 48.7028 170.731C48.5861 170.67 48.4482 170.64 48.2892 170.64C48.1401 170.64 47.9994 170.667 47.8671 170.722C47.7363 170.776 47.6294 170.854 47.5464 170.957C47.4634 171.058 47.4183 171.18 47.4113 171.324H46.9048C46.9133 171.097 46.9815 170.899 47.1095 170.729C47.2376 170.557 47.405 170.423 47.6118 170.328C47.82 170.232 48.0486 170.184 48.2976 170.184C48.565 170.184 48.7943 170.238 48.9856 170.347C49.177 170.454 49.324 170.595 49.4267 170.771C49.5294 170.947 49.5807 171.137 49.5807 171.341C49.5807 171.584 49.5167 171.791 49.3887 171.963C49.2621 172.135 49.0897 172.254 48.8717 172.32V172.354C49.1446 172.399 49.3577 172.515 49.5111 172.702C49.6644 172.887 49.7411 173.117 49.7411 173.392C49.7411 173.627 49.6771 173.838 49.5491 174.025C49.4225 174.211 49.2494 174.357 49.0299 174.464C48.8105 174.571 48.5607 174.624 48.2808 174.624ZM52.0139 174.624C51.696 174.624 51.4252 174.538 51.2015 174.365C50.9778 174.19 50.8068 173.938 50.6887 173.607C50.5705 173.275 50.5114 172.874 50.5114 172.404C50.5114 171.937 50.5705 171.538 50.6887 171.208C50.8082 170.876 50.9799 170.622 51.2036 170.448C51.4287 170.272 51.6988 170.184 52.0139 170.184C52.3291 170.184 52.5985 170.272 52.8222 170.448C53.0473 170.622 53.2189 170.876 53.3371 171.208C53.4567 171.538 53.5165 171.937 53.5165 172.404C53.5165 172.874 53.4574 173.275 53.3392 173.607C53.2211 173.938 53.0501 174.19 52.8264 174.365C52.6027 174.538 52.3319 174.624 52.0139 174.624ZM52.0139 174.16C52.3291 174.16 52.5739 174.008 52.7483 173.704C52.9228 173.4 53.01 172.967 53.01 172.404C53.01 172.03 52.9699 171.711 52.8897 171.448C52.811 171.185 52.697 170.985 52.5479 170.847C52.4001 170.709 52.2222 170.64 52.0139 170.64C51.7016 170.64 51.4575 170.794 51.2817 171.102C51.1058 171.409 51.0179 171.843 51.0179 172.404C51.0179 172.778 51.0573 173.096 51.136 173.358C51.2148 173.62 51.3281 173.819 51.4758 173.955C51.6249 174.092 51.8043 174.16 52.0139 174.16ZM55.7281 174.624C55.4102 174.624 55.1394 174.538 54.9157 174.365C54.692 174.19 54.521 173.938 54.4028 173.607C54.2847 173.275 54.2256 172.874 54.2256 172.404C54.2256 171.937 54.2847 171.538 54.4028 171.208C54.5224 170.876 54.6941 170.622 54.9178 170.448C55.1429 170.272 55.413 170.184 55.7281 170.184C56.0433 170.184 56.3127 170.272 56.5364 170.448C56.7615 170.622 56.9331 170.876 57.0513 171.208C57.1709 171.538 57.2307 171.937 57.2307 172.404C57.2307 172.874 57.1716 173.275 57.0534 173.607C56.9353 173.938 56.7643 174.19 56.5406 174.365C56.3169 174.538 56.0461 174.624 55.7281 174.624ZM55.7281 174.16C56.0433 174.16 56.2881 174.008 56.4625 173.704C56.637 173.4 56.7242 172.967 56.7242 172.404C56.7242 172.03 56.6841 171.711 56.6039 171.448C56.5251 171.185 56.4112 170.985 56.2621 170.847C56.1143 170.709 55.9364 170.64 55.7281 170.64C55.4158 170.64 55.1717 170.794 54.9959 171.102C54.82 171.409 54.7321 171.843 54.7321 172.404C54.7321 172.778 54.7715 173.096 54.8502 173.358C54.929 173.62 55.0423 173.819 55.19 173.955C55.3391 174.092 55.5185 174.16 55.7281 174.16Z" fill="#969696"/>
<path d="M46.9133 195.602V195.222L48.3399 193.66C48.5073 193.477 48.6451 193.318 48.7535 193.183C48.8618 193.047 48.942 192.919 48.9941 192.799C49.0475 192.678 49.0742 192.552 49.0742 192.419C49.0742 192.267 49.0377 192.136 48.9645 192.025C48.8928 191.914 48.7943 191.828 48.6691 191.767C48.5439 191.707 48.4032 191.677 48.247 191.677C48.081 191.677 47.9361 191.711 47.8123 191.78C47.6899 191.848 47.5949 191.942 47.5274 192.065C47.4612 192.187 47.4282 192.331 47.4282 192.495H46.9301C46.9301 192.242 46.9885 192.02 47.1053 191.829C47.2221 191.637 47.3811 191.488 47.5822 191.381C47.7848 191.274 48.012 191.221 48.2639 191.221C48.5171 191.221 48.7415 191.274 48.9371 191.381C49.1326 191.488 49.286 191.632 49.3971 191.814C49.5083 191.995 49.5638 192.197 49.5638 192.419C49.5638 192.578 49.535 192.734 49.4773 192.886C49.421 193.036 49.3226 193.204 49.1819 193.39C49.0426 193.574 48.8491 193.8 48.6015 194.065L47.6308 195.104V195.138H49.6398V195.602H46.9133ZM51.9211 195.661C51.6031 195.661 51.3323 195.574 51.1086 195.401C50.8849 195.227 50.714 194.974 50.5958 194.644C50.4776 194.312 50.4185 193.911 50.4185 193.441C50.4185 192.974 50.4776 192.575 50.5958 192.244C50.7154 191.912 50.887 191.659 51.1107 191.485C51.3358 191.309 51.6059 191.221 51.9211 191.221C52.2362 191.221 52.5057 191.309 52.7294 191.485C52.9545 191.659 53.1261 191.912 53.2443 192.244C53.3639 192.575 53.4237 192.974 53.4237 193.441C53.4237 193.911 53.3646 194.312 53.2464 194.644C53.1282 194.974 52.9573 195.227 52.7336 195.401C52.5099 195.574 52.239 195.661 51.9211 195.661ZM51.9211 195.197C52.2362 195.197 52.481 195.045 52.6555 194.741C52.8299 194.437 52.9172 194.004 52.9172 193.441C52.9172 193.067 52.8771 192.748 52.7969 192.485C52.7181 192.222 52.6041 192.021 52.455 191.883C52.3073 191.746 52.1293 191.677 51.9211 191.677C51.6088 191.677 51.3647 191.831 51.1888 192.139C51.0129 192.445 50.925 192.879 50.925 193.441C50.925 193.815 50.9644 194.133 51.0432 194.395C51.122 194.656 51.2352 194.855 51.383 194.992C51.5321 195.128 51.7115 195.197 51.9211 195.197ZM55.6353 195.661C55.3173 195.661 55.0465 195.574 54.8228 195.401C54.5991 195.227 54.4282 194.974 54.31 194.644C54.1918 194.312 54.1327 193.911 54.1327 193.441C54.1327 192.974 54.1918 192.575 54.31 192.244C54.4296 191.912 54.6012 191.659 54.8249 191.485C55.05 191.309 55.3201 191.221 55.6353 191.221C55.9504 191.221 56.2198 191.309 56.4435 191.485C56.6686 191.659 56.8403 191.912 56.9585 192.244C57.0781 192.575 57.1378 192.974 57.1378 193.441C57.1378 193.911 57.0788 194.312 56.9606 194.644C56.8424 194.974 56.6715 195.227 56.4478 195.401C56.2241 195.574 55.9532 195.661 55.6353 195.661ZM55.6353 195.197C55.9504 195.197 56.1952 195.045 56.3697 194.741C56.5441 194.437 56.6314 194.004 56.6314 193.441C56.6314 193.067 56.5913 192.748 56.5111 192.485C56.4323 192.222 56.3183 192.021 56.1692 191.883C56.0215 191.746 55.8435 191.677 55.6353 191.677C55.323 191.677 55.0789 191.831 54.903 192.139C54.7271 192.445 54.6392 192.879 54.6392 193.441C54.6392 193.815 54.6786 194.133 54.7574 194.395C54.8362 194.656 54.9494 194.855 55.0971 194.992C55.2463 195.128 55.4257 195.197 55.6353 195.197Z" fill="#969696"/>
<path d="M48.7551 212.316V216.638H48.2318V212.865H48.2065L47.1513 213.566V213.034L48.2318 212.316H48.7551ZM51.4078 216.697C51.0899 216.697 50.8191 216.611 50.5954 216.438C50.3717 216.263 50.2007 216.011 50.0825 215.68C49.9644 215.348 49.9053 214.947 49.9053 214.477C49.9053 214.01 49.9644 213.611 50.0825 213.281C50.2021 212.949 50.3738 212.695 50.5975 212.521C50.8226 212.345 51.0927 212.257 51.4078 212.257C51.723 212.257 51.9924 212.345 52.2161 212.521C52.4412 212.695 52.6128 212.949 52.731 213.281C52.8506 213.611 52.9104 214.01 52.9104 214.477C52.9104 214.947 52.8513 215.348 52.7331 215.68C52.615 216.011 52.444 216.263 52.2203 216.438C51.9966 216.611 51.7258 216.697 51.4078 216.697ZM51.4078 216.233C51.723 216.233 51.9678 216.081 52.1422 215.777C52.3167 215.473 52.4039 215.04 52.4039 214.477C52.4039 214.103 52.3638 213.784 52.2836 213.521C52.2048 213.258 52.0909 213.058 51.9418 212.92C51.794 212.782 51.6161 212.713 51.4078 212.713C51.0955 212.713 50.8514 212.867 50.6756 213.175C50.4997 213.482 50.4118 213.916 50.4118 214.477C50.4118 214.851 50.4512 215.169 50.5299 215.431C50.6087 215.693 50.722 215.892 50.8697 216.028C51.0188 216.165 51.1982 216.233 51.4078 216.233ZM55.122 216.697C54.8041 216.697 54.5332 216.611 54.3096 216.438C54.0859 216.263 53.9149 216.011 53.7967 215.68C53.6786 215.348 53.6195 214.947 53.6195 214.477C53.6195 214.01 53.6786 213.611 53.7967 213.281C53.9163 212.949 54.088 212.695 54.3117 212.521C54.5368 212.345 54.8069 212.257 55.122 212.257C55.4372 212.257 55.7066 212.345 55.9303 212.521C56.1554 212.695 56.327 212.949 56.4452 213.281C56.5648 213.611 56.6246 214.01 56.6246 214.477C56.6246 214.947 56.5655 215.348 56.4473 215.68C56.3291 216.011 56.1582 216.263 55.9345 216.438C55.7108 216.611 55.44 216.697 55.122 216.697ZM55.122 216.233C55.4372 216.233 55.682 216.081 55.8564 215.777C56.0309 215.473 56.1181 215.04 56.1181 214.477C56.1181 214.103 56.078 213.784 55.9978 213.521C55.919 213.258 55.8051 213.058 55.6559 212.92C55.5082 212.782 55.3303 212.713 55.122 212.713C54.8097 212.713 54.5656 212.867 54.3897 213.175C54.2139 213.482 54.126 213.916 54.126 214.477C54.126 214.851 54.1653 215.169 54.2441 215.431C54.3229 215.693 54.4362 215.892 54.5839 216.028C54.733 216.165 54.9124 216.233 55.122 216.233Z" fill="#969696"/>
<line x1="65.9297" y1="92.9701" x2="338.021" y2="92.9701" stroke="#2C2C2C" stroke-width="0.424479"/>
<line x1="65.9297" y1="110.374" x2="338.021" y2="110.374" stroke="#2C2C2C" stroke-width="0.424479"/>
<line x1="65.9297" y1="127.777" x2="338.021" y2="127.777" stroke="#2C2C2C" stroke-width="0.424479"/>
<line x1="65.9297" y1="145.181" x2="338.021" y2="145.181" stroke="#2C2C2C" stroke-width="0.424479"/>
<line x1="65.9297" y1="162.585" x2="338.021" y2="162.585" stroke="#2C2C2C" stroke-width="0.424479"/>
<line x1="65.9297" y1="179.988" x2="338.021" y2="179.988" stroke="#2C2C2C" stroke-width="0.424479"/>
<line x1="65.9297" y1="197.392" x2="338.021" y2="197.392" stroke="#2C2C2C" stroke-width="0.424479"/>
<rect x="65.9297" y="145.818" width="6.79167" height="69.1901" rx="1.69792" fill="#3A5CFF"/>
<rect x="74.4193" y="127.99" width="6.79167" height="87.0182" rx="1.69792" fill="#D31301"/>
<rect x="114.745" y="141.573" width="6.79167" height="73.4349" rx="1.69792" fill="#3A5CFF"/>
<rect x="123.234" y="136.903" width="6.79167" height="78.1042" rx="1.69792" fill="#D31301"/>
<rect x="166.956" y="123.32" width="6.79167" height="91.6875" rx="1.69792" fill="#3A5CFF"/>
<rect x="175.445" y="146.666" width="6.79167" height="68.3411" rx="1.69792" fill="#D31301"/>
<rect x="216.62" y="147.515" width="6.79167" height="67.4922" rx="1.69792" fill="#3A5CFF"/>
<rect x="225.109" y="178.927" width="6.79167" height="36.0807" rx="1.69792" fill="#D31301"/>
<rect x="269.68" y="107.19" width="6.79167" height="107.818" rx="1.69792" fill="#3A5CFF"/>
<rect x="278.169" y="134.356" width="6.79167" height="80.651" rx="1.69792" fill="#D31301"/>
<rect x="322.74" y="120.349" width="6.79167" height="94.6589" rx="1.69792" fill="#3A5CFF"/>
<rect x="331.229" y="143.695" width="6.79167" height="71.3125" rx="1.69792" fill="#D31301"/>
<line x1="65.9297" y1="214.796" x2="338.021" y2="214.796" stroke="#2C2C2C" stroke-width="0.424479"/>
<path d="M47.0488 64.9792V57.848H49.83C50.4548 57.848 50.988 57.9465 51.4294 58.1434C51.8709 58.3404 52.2105 58.6256 52.4482 58.9992C52.6859 59.3727 52.8048 59.8176 52.8048 60.3337C52.8048 60.8499 52.6859 61.2948 52.4482 61.6683C52.2105 62.0351 51.8709 62.3203 51.4294 62.5241C50.988 62.721 50.4548 62.8195 49.83 62.8195H47.6091L48.0676 62.3407V64.9792H47.0488ZM48.0676 62.4426L47.6091 61.9332H49.7994C50.4514 61.9332 50.9438 61.794 51.2766 61.5155C51.6162 61.237 51.786 60.8431 51.786 60.3337C51.786 59.8244 51.6162 59.4305 51.2766 59.152C50.9438 58.8735 50.4514 58.7343 49.7994 58.7343H47.6091L48.0676 58.2249V62.4426ZM54.0593 64.9792V59.5799H54.9966V61.0469L54.9049 60.6801C55.0543 60.3066 55.3056 60.0213 55.6588 59.8244C56.0119 59.6274 56.4466 59.5289 56.9628 59.5289V60.4764C56.922 60.4696 56.8813 60.4662 56.8405 60.4662C56.8066 60.4662 56.7726 60.4662 56.7386 60.4662C56.2157 60.4662 55.8014 60.6224 55.4958 60.9348C55.1901 61.2472 55.0373 61.6989 55.0373 62.2897V64.9792H54.0593ZM60.431 65.0404C59.8876 65.0404 59.4054 64.9215 58.9843 64.6838C58.5633 64.4461 58.2305 64.1201 57.986 63.7058C57.7415 63.2847 57.6192 62.8093 57.6192 62.2796C57.6192 61.743 57.7415 61.2676 57.986 60.8533C58.2305 60.439 58.5633 60.1164 58.9843 59.8855C59.4054 59.6478 59.8876 59.5289 60.431 59.5289C60.9675 59.5289 61.4463 59.6478 61.8674 59.8855C62.2953 60.1164 62.6281 60.439 62.8658 60.8533C63.1103 61.2608 63.2325 61.7362 63.2325 62.2796C63.2325 62.8161 63.1103 63.2915 62.8658 63.7058C62.6281 64.1201 62.2953 64.4461 61.8674 64.6838C61.4463 64.9215 60.9675 65.0404 60.431 65.0404ZM60.431 64.1846C60.7773 64.1846 61.0864 64.1065 61.358 63.9503C61.6365 63.7941 61.8538 63.5734 62.01 63.2881C62.1662 62.9961 62.2443 62.6599 62.2443 62.2796C62.2443 61.8924 62.1662 61.5596 62.01 61.2812C61.8538 60.9959 61.6365 60.7752 61.358 60.619C61.0864 60.4628 60.7773 60.3847 60.431 60.3847C60.0846 60.3847 59.7756 60.4628 59.5039 60.619C59.2322 60.7752 59.0149 60.9959 58.8519 61.2812C58.6889 61.5596 58.6074 61.8924 58.6074 62.2796C58.6074 62.6599 58.6889 62.9961 58.8519 63.2881C59.0149 63.5734 59.2322 63.7941 59.5039 63.9503C59.7756 64.1065 60.0846 64.1846 60.431 64.1846ZM64.7277 64.9792V59.1011C64.7277 58.5713 64.8805 58.1502 65.1861 57.8378C65.4986 57.5186 65.94 57.359 66.5105 57.359C66.7211 57.359 66.9214 57.3862 67.1116 57.4405C67.3085 57.488 67.4749 57.5661 67.6108 57.6748L67.3153 58.4185C67.2135 58.337 67.098 58.2759 66.969 58.2351C66.8399 58.1876 66.7041 58.1638 66.5615 58.1638C66.2762 58.1638 66.0589 58.2453 65.9095 58.4083C65.76 58.5645 65.6853 58.7988 65.6853 59.1112V59.8346L65.7057 60.2828V64.9792H64.7277ZM63.8108 60.3847V59.5799H67.2542V60.3847H63.8108ZM68.1813 64.9792V59.5799H69.1593V64.9792H68.1813ZM68.6703 58.5407C68.4801 58.5407 68.3205 58.4796 68.1915 58.3574C68.0692 58.2351 68.0081 58.0857 68.0081 57.9091C68.0081 57.7257 68.0692 57.5729 68.1915 57.4507C68.3205 57.3284 68.4801 57.2673 68.6703 57.2673C68.8604 57.2673 69.0166 57.3284 69.1389 57.4507C69.2679 57.5661 69.3325 57.7122 69.3325 57.8887C69.3325 58.0721 69.2713 58.2283 69.1491 58.3574C69.0268 58.4796 68.8672 58.5407 68.6703 58.5407ZM72.876 65.0404C72.3327 65.0404 71.9116 64.8944 71.6128 64.6023C71.314 64.3103 71.1645 63.8926 71.1645 63.3492V58.3981H72.1425V63.3085C72.1425 63.6005 72.2138 63.8247 72.3565 63.9809C72.5059 64.1371 72.7164 64.2152 72.9881 64.2152C73.2937 64.2152 73.5484 64.1303 73.7522 63.9605L74.0578 64.6634C73.9084 64.7925 73.7284 64.8876 73.5178 64.9487C73.3141 65.0098 73.1002 65.0404 72.876 65.0404ZM70.2477 60.3847V59.5799H73.691V60.3847H70.2477ZM80.0034 65.0607C79.5212 65.0607 79.0933 64.9826 78.7198 64.8264C78.3462 64.6702 78.0508 64.4529 77.8334 64.1744C77.6161 63.896 77.5074 63.5734 77.5074 63.2066C77.5074 62.8874 77.5788 62.5954 77.7214 62.3305C77.864 62.0656 78.0915 61.8109 78.4039 61.5664C78.7164 61.3151 79.1273 61.0571 79.6366 60.7922C80.0509 60.5749 80.3735 60.3847 80.6044 60.2217C80.8422 60.0587 81.0086 59.9059 81.1036 59.7632C81.2055 59.6138 81.2564 59.4542 81.2564 59.2844C81.2564 59.0535 81.1749 58.8667 81.0119 58.7241C80.8489 58.5747 80.6146 58.5 80.309 58.5C79.9898 58.5 79.7385 58.5815 79.5551 58.7445C79.3786 58.9007 79.2903 59.1079 79.2903 59.3659C79.2903 59.495 79.3106 59.6206 79.3514 59.7429C79.3989 59.8583 79.4804 59.9908 79.5959 60.1402C79.7181 60.2828 79.8913 60.4662 80.1154 60.6903L83.8848 64.4393L83.3347 65.0913L79.331 61.108C79.0933 60.8703 78.9065 60.6597 78.7707 60.4764C78.6349 60.2862 78.5364 60.1028 78.4753 59.9262C78.4141 59.7497 78.3836 59.5697 78.3836 59.3863C78.3836 59.0671 78.4617 58.7886 78.6179 58.5509C78.7809 58.3064 79.005 58.1197 79.2903 57.9906C79.5823 57.8548 79.9219 57.7869 80.309 57.7869C80.669 57.7869 80.9814 57.848 81.2463 57.9702C81.5111 58.0857 81.7149 58.2555 81.8575 58.4796C82.0069 58.697 82.0816 58.9618 82.0816 59.2742C82.0816 59.5459 82.0137 59.7972 81.8779 60.0281C81.7488 60.259 81.5383 60.4832 81.2463 60.7005C80.9542 60.9178 80.5603 61.1521 80.0645 61.4034C79.657 61.614 79.3378 61.8109 79.1069 61.9943C78.876 62.1709 78.7096 62.3475 78.6077 62.5241C78.5126 62.7006 78.4651 62.8942 78.4651 63.1047C78.4651 63.3289 78.5296 63.5292 78.6586 63.7058C78.7945 63.8756 78.9812 64.008 79.2189 64.1031C79.4634 64.1982 79.7453 64.2457 80.0645 64.2457C80.5196 64.2457 80.9304 64.1473 81.2972 63.9503C81.6639 63.7534 81.9696 63.4579 82.2141 63.064C82.4654 62.6701 82.6487 62.1811 82.7642 61.597L83.5486 61.8517C83.4128 62.5376 83.1785 63.1183 82.8457 63.5937C82.5197 64.0692 82.1156 64.4325 81.6334 64.6838C81.1512 64.9351 80.6078 65.0607 80.0034 65.0607ZM87.8386 64.9792V57.848H88.8574V64.0929H92.7184V64.9792H87.8386ZM95.9877 65.0404C95.4444 65.0404 94.9622 64.9215 94.5411 64.6838C94.12 64.4461 93.7872 64.1201 93.5427 63.7058C93.2982 63.2847 93.176 62.8093 93.176 62.2796C93.176 61.743 93.2982 61.2676 93.5427 60.8533C93.7872 60.439 94.12 60.1164 94.5411 59.8855C94.9622 59.6478 95.4444 59.5289 95.9877 59.5289C96.5243 59.5289 97.0031 59.6478 97.4242 59.8855C97.852 60.1164 98.1848 60.439 98.4225 60.8533C98.667 61.2608 98.7893 61.7362 98.7893 62.2796C98.7893 62.8161 98.667 63.2915 98.4225 63.7058C98.1848 64.1201 97.852 64.4461 97.4242 64.6838C97.0031 64.9215 96.5243 65.0404 95.9877 65.0404ZM95.9877 64.1846C96.3341 64.1846 96.6431 64.1065 96.9148 63.9503C97.1933 63.7941 97.4106 63.5734 97.5668 63.2881C97.723 62.9961 97.8011 62.6599 97.8011 62.2796C97.8011 61.8924 97.723 61.5596 97.5668 61.2812C97.4106 60.9959 97.1933 60.7752 96.9148 60.619C96.6431 60.4628 96.3341 60.3847 95.9877 60.3847C95.6414 60.3847 95.3323 60.4628 95.0607 60.619C94.789 60.7752 94.5717 60.9959 94.4087 61.2812C94.2457 61.5596 94.1642 61.8924 94.1642 62.2796C94.1642 62.6599 94.2457 62.9961 94.4087 63.2881C94.5717 63.5734 94.789 63.7941 95.0607 63.9503C95.3323 64.1065 95.6414 64.1846 95.9877 64.1846ZM101.69 65.0404C101.242 65.0404 100.814 64.9792 100.407 64.857C100.006 64.7347 99.6902 64.5853 99.4593 64.4087L99.8668 63.6345C100.098 63.7907 100.383 63.9231 100.723 64.0318C101.062 64.1405 101.408 64.1948 101.762 64.1948C102.217 64.1948 102.543 64.1303 102.74 64.0012C102.943 63.8722 103.045 63.6922 103.045 63.4613C103.045 63.2915 102.984 63.1591 102.862 63.064C102.74 62.9689 102.577 62.8976 102.373 62.8501C102.176 62.8025 101.955 62.7618 101.711 62.7278C101.466 62.6871 101.222 62.6395 100.977 62.5852C100.733 62.5241 100.509 62.4426 100.305 62.3407C100.101 62.232 99.9381 62.086 99.8158 61.9026C99.6936 61.7125 99.6325 61.4612 99.6325 61.1487C99.6325 60.8227 99.7242 60.5375 99.9075 60.293C100.091 60.0485 100.349 59.8617 100.682 59.7327C101.021 59.5969 101.422 59.5289 101.884 59.5289C102.237 59.5289 102.594 59.5731 102.954 59.6614C103.32 59.7429 103.619 59.8617 103.85 60.0179L103.432 60.7922C103.188 60.6292 102.933 60.5171 102.668 60.456C102.403 60.3949 102.139 60.3643 101.874 60.3643C101.446 60.3643 101.127 60.4356 100.916 60.5782C100.706 60.7141 100.6 60.8907 100.6 61.108C100.6 61.2914 100.661 61.434 100.784 61.5359C100.913 61.631 101.076 61.7057 101.273 61.76C101.476 61.8143 101.701 61.8619 101.945 61.9026C102.19 61.9366 102.434 61.9841 102.679 62.0452C102.923 62.0996 103.144 62.1777 103.341 62.2796C103.544 62.3814 103.707 62.5241 103.83 62.7074C103.959 62.8908 104.023 63.1353 104.023 63.4409C104.023 63.7669 103.928 64.0488 103.738 64.2865C103.548 64.5242 103.28 64.711 102.933 64.8468C102.587 64.9759 102.173 65.0404 101.69 65.0404ZM106.794 65.0404C106.346 65.0404 105.918 64.9792 105.51 64.857C105.11 64.7347 104.794 64.5853 104.563 64.4087L104.97 63.6345C105.201 63.7907 105.487 63.9231 105.826 64.0318C106.166 64.1405 106.512 64.1948 106.865 64.1948C107.32 64.1948 107.646 64.1303 107.843 64.0012C108.047 63.8722 108.149 63.6922 108.149 63.4613C108.149 63.2915 108.088 63.1591 107.966 63.064C107.843 62.9689 107.68 62.8976 107.477 62.8501C107.28 62.8025 107.059 62.7618 106.814 62.7278C106.57 62.6871 106.325 62.6395 106.081 62.5852C105.836 62.5241 105.612 62.4426 105.409 62.3407C105.205 62.232 105.042 62.086 104.92 61.9026C104.797 61.7125 104.736 61.4612 104.736 61.1487C104.736 60.8227 104.828 60.5375 105.011 60.293C105.195 60.0485 105.453 59.8617 105.785 59.7327C106.125 59.5969 106.526 59.5289 106.988 59.5289C107.341 59.5289 107.697 59.5731 108.057 59.6614C108.424 59.7429 108.723 59.8617 108.954 60.0179L108.536 60.7922C108.292 60.6292 108.037 60.5171 107.772 60.456C107.507 60.3949 107.242 60.3643 106.977 60.3643C106.55 60.3643 106.23 60.4356 106.02 60.5782C105.809 60.7141 105.704 60.8907 105.704 61.108C105.704 61.2914 105.765 61.434 105.887 61.5359C106.016 61.631 106.179 61.7057 106.376 61.76C106.58 61.8143 106.804 61.8619 107.049 61.9026C107.293 61.9366 107.538 61.9841 107.782 62.0452C108.027 62.0996 108.247 62.1777 108.444 62.2796C108.648 62.3814 108.811 62.5241 108.933 62.7074C109.062 62.8908 109.127 63.1353 109.127 63.4409C109.127 63.7669 109.032 64.0488 108.842 64.2865C108.652 64.5242 108.383 64.711 108.037 64.8468C107.691 64.9759 107.276 65.0404 106.794 65.0404ZM115.306 65.0607C114.763 65.0607 114.243 64.9792 113.747 64.8162C113.252 64.6465 112.861 64.4291 112.576 64.1642L112.953 63.3696C113.224 63.6073 113.571 63.8043 113.992 63.9605C114.413 64.1167 114.851 64.1948 115.306 64.1948C115.72 64.1948 116.056 64.1473 116.315 64.0522C116.573 63.9571 116.763 63.8281 116.885 63.6651C117.007 63.4953 117.068 63.3051 117.068 63.0946C117.068 62.8501 116.987 62.6531 116.824 62.5037C116.668 62.3543 116.461 62.2354 116.203 62.1471C115.951 62.052 115.673 61.9705 115.367 61.9026C115.062 61.8347 114.752 61.7566 114.44 61.6683C114.134 61.5732 113.853 61.4544 113.595 61.3117C113.343 61.1691 113.139 60.979 112.983 60.7412C112.827 60.4967 112.749 60.1843 112.749 59.804C112.749 59.4372 112.844 59.1011 113.034 58.7954C113.231 58.483 113.53 58.2351 113.931 58.0517C114.338 57.8616 114.854 57.7665 115.479 57.7665C115.893 57.7665 116.304 57.8208 116.712 57.9295C117.119 58.0382 117.473 58.1944 117.771 58.3981L117.435 59.2131C117.13 59.0094 116.807 58.8634 116.467 58.7751C116.128 58.68 115.798 58.6324 115.479 58.6324C115.078 58.6324 114.749 58.6834 114.491 58.7852C114.233 58.8871 114.043 59.023 113.921 59.1927C113.805 59.3625 113.747 59.5527 113.747 59.7632C113.747 60.0145 113.825 60.2149 113.982 60.3643C114.145 60.5137 114.352 60.6326 114.603 60.7209C114.861 60.8092 115.143 60.8907 115.449 60.9654C115.754 61.0333 116.06 61.1114 116.366 61.1997C116.678 61.288 116.96 61.4034 117.211 61.5461C117.469 61.6887 117.676 61.8789 117.833 62.1166C117.989 62.3543 118.067 62.6599 118.067 63.0334C118.067 63.3934 117.968 63.7296 117.771 64.042C117.574 64.3476 117.269 64.5955 116.855 64.7857C116.447 64.9691 115.931 65.0607 115.306 65.0607ZM121.684 65.0404C121.223 65.0404 120.815 64.9555 120.462 64.7857C120.115 64.6159 119.844 64.3578 119.647 64.0114C119.457 63.6583 119.362 63.2168 119.362 62.6871V59.5799H120.34V62.575C120.34 63.1047 120.465 63.5021 120.717 63.7669C120.975 64.0318 121.335 64.1642 121.796 64.1642C122.136 64.1642 122.431 64.0963 122.683 63.9605C122.934 63.8179 123.128 63.6141 123.263 63.3492C123.399 63.0776 123.467 62.7516 123.467 62.3712V59.5799H124.445V64.9792H123.518V63.5224L123.671 63.9096C123.494 64.2695 123.229 64.548 122.876 64.7449C122.523 64.9419 122.126 65.0404 121.684 65.0404ZM133.061 59.5289C133.496 59.5289 133.88 59.6138 134.213 59.7836C134.545 59.9534 134.803 60.2115 134.987 60.5579C135.177 60.9042 135.272 61.3423 135.272 61.8721V64.9792H134.294V61.9841C134.294 61.4612 134.172 61.0672 133.927 60.8024C133.683 60.5375 133.34 60.4051 132.898 60.4051C132.572 60.4051 132.287 60.473 132.043 60.6088C131.798 60.7446 131.608 60.945 131.472 61.2099C131.343 61.4747 131.279 61.8041 131.279 62.1981V64.9792H130.301V61.9841C130.301 61.4612 130.178 61.0672 129.934 60.8024C129.696 60.5375 129.353 60.4051 128.905 60.4051C128.586 60.4051 128.304 60.473 128.059 60.6088C127.815 60.7446 127.625 60.945 127.489 61.2099C127.353 61.4747 127.285 61.8041 127.285 62.1981V64.9792H126.307V59.5799H127.244V61.0163L127.091 60.6496C127.261 60.2964 127.523 60.0213 127.876 59.8244C128.229 59.6274 128.64 59.5289 129.109 59.5289C129.625 59.5289 130.07 59.658 130.443 59.9161C130.817 60.1674 131.061 60.5511 131.177 61.0672L130.779 60.9042C130.942 60.49 131.228 60.1572 131.635 59.9059C132.043 59.6546 132.518 59.5289 133.061 59.5289ZM143.826 59.5289C144.261 59.5289 144.644 59.6138 144.977 59.7836C145.31 59.9534 145.568 60.2115 145.751 60.5579C145.941 60.9042 146.037 61.3423 146.037 61.8721V64.9792H145.059V61.9841C145.059 61.4612 144.936 61.0672 144.692 60.8024C144.447 60.5375 144.104 60.4051 143.663 60.4051C143.337 60.4051 143.052 60.473 142.807 60.6088C142.563 60.7446 142.372 60.945 142.237 61.2099C142.108 61.4747 142.043 61.8041 142.043 62.1981V64.9792H141.065V61.9841C141.065 61.4612 140.943 61.0672 140.698 60.8024C140.461 60.5375 140.118 60.4051 139.669 60.4051C139.35 60.4051 139.068 60.473 138.824 60.6088C138.579 60.7446 138.389 60.945 138.253 61.2099C138.117 61.4747 138.05 61.8041 138.05 62.1981V64.9792H137.072V59.5799H138.009V61.0163L137.856 60.6496C138.026 60.2964 138.287 60.0213 138.64 59.8244C138.994 59.6274 139.404 59.5289 139.873 59.5289C140.389 59.5289 140.834 59.658 141.208 59.9161C141.581 60.1674 141.826 60.5511 141.941 61.0672L141.544 60.9042C141.707 60.49 141.992 60.1572 142.4 59.9059C142.807 59.6546 143.283 59.5289 143.826 59.5289ZM151.188 64.9792V63.8382L151.137 63.6243V61.6785C151.137 61.2642 151.015 60.945 150.77 60.7209C150.532 60.49 150.172 60.3745 149.69 60.3745C149.371 60.3745 149.059 60.4288 148.753 60.5375C148.447 60.6394 148.189 60.7786 147.979 60.9552L147.571 60.2217C147.85 59.9976 148.182 59.8278 148.57 59.7123C148.963 59.5901 149.374 59.5289 149.802 59.5289C150.543 59.5289 151.113 59.7089 151.514 60.0689C151.914 60.4288 152.115 60.979 152.115 61.7192V64.9792H151.188ZM149.415 65.0404C149.014 65.0404 148.661 64.9725 148.356 64.8366C148.057 64.7008 147.826 64.514 147.663 64.2763C147.5 64.0318 147.418 63.7567 147.418 63.4511C147.418 63.1591 147.486 62.8942 147.622 62.6565C147.765 62.4188 147.992 62.2286 148.305 62.086C148.624 61.9434 149.052 61.8721 149.588 61.8721H151.3V62.575H149.629C149.14 62.575 148.811 62.6565 148.641 62.8195C148.471 62.9825 148.386 63.1795 148.386 63.4104C148.386 63.6752 148.491 63.8892 148.702 64.0522C148.913 64.2084 149.205 64.2865 149.578 64.2865C149.945 64.2865 150.264 64.205 150.536 64.042C150.814 63.879 151.015 63.6413 151.137 63.3289L151.33 64.0012C151.201 64.3205 150.974 64.5751 150.648 64.7653C150.322 64.9487 149.911 65.0404 149.415 65.0404ZM153.925 64.9792V59.5799H154.862V61.0469L154.77 60.6801C154.92 60.3066 155.171 60.0213 155.524 59.8244C155.877 59.6274 156.312 59.5289 156.828 59.5289V60.4764C156.787 60.4696 156.747 60.4662 156.706 60.4662C156.672 60.4662 156.638 60.4662 156.604 60.4662C156.081 60.4662 155.667 60.6224 155.361 60.9348C155.055 61.2472 154.903 61.6989 154.903 62.2897V64.9792H153.925ZM158.487 67.0167C158.229 67.0167 157.977 66.9726 157.733 66.8843C157.488 66.8028 157.278 66.6806 157.101 66.5176L157.519 65.7841C157.655 65.9131 157.804 66.0116 157.967 66.0795C158.13 66.1474 158.303 66.1814 158.487 66.1814C158.724 66.1814 158.921 66.1202 159.078 65.998C159.234 65.8757 159.38 65.6584 159.516 65.346L159.852 64.6023L159.954 64.4801L162.073 59.5799H163.03L160.412 65.5192C160.256 65.8995 160.079 66.1984 159.882 66.4157C159.692 66.633 159.482 66.7858 159.251 66.8741C159.02 66.9692 158.765 67.0167 158.487 67.0167ZM159.77 65.1524L157.305 59.5799H158.324L160.422 64.3884L159.77 65.1524Z" fill="#F2F2F2"/>
<rect x="274.773" y="54.9792" width="63.2474" height="13.5833" rx="3.39583" fill="url(#paint4_linear_1945_3650)"/>
<rect x="274.88" y="55.0854" width="63.0352" height="13.3711" rx="3.28971" stroke="#E2E8F0" stroke-opacity="0.3" stroke-width="0.21224"/>
<g clip-path="url(#clip0_1945_3650)">
<path d="M278.793 63.771V59.6111H279.388V63.254H281.64V63.771H278.793ZM284.194 63.771V63.1054L284.164 62.9806V61.8456C284.164 61.6039 284.093 61.4177 283.95 61.2869C283.811 61.1522 283.601 61.0849 283.32 61.0849C283.134 61.0849 282.952 61.1166 282.773 61.18C282.595 61.2394 282.445 61.3206 282.322 61.4236L282.084 60.9958C282.247 60.865 282.441 60.766 282.666 60.6986C282.896 60.6273 283.136 60.5916 283.386 60.5916C283.817 60.5916 284.15 60.6966 284.384 60.9066C284.618 61.1166 284.735 61.4375 284.735 61.8693V63.771H284.194ZM283.16 63.8067C282.926 63.8067 282.72 63.767 282.542 63.6878C282.367 63.6086 282.233 63.4996 282.138 63.3609C282.042 63.2183 281.995 63.0579 281.995 62.8796C281.995 62.7092 282.035 62.5547 282.114 62.4161C282.197 62.2774 282.33 62.1665 282.512 62.0833C282.698 62.0001 282.948 61.9585 283.261 61.9585H284.259V62.3685H283.284C282.999 62.3685 282.807 62.4161 282.708 62.5111C282.609 62.6062 282.559 62.7211 282.559 62.8558C282.559 63.0103 282.621 63.1351 282.744 63.2302C282.867 63.3213 283.037 63.3669 283.255 63.3669C283.469 63.3669 283.655 63.3194 283.813 63.2243C283.976 63.1292 284.093 62.9905 284.164 62.8083L284.277 63.2005C284.202 63.3867 284.069 63.5353 283.879 63.6462C283.689 63.7532 283.449 63.8067 283.16 63.8067ZM286.694 63.8067C286.432 63.8067 286.182 63.771 285.945 63.6997C285.711 63.6284 285.527 63.5412 285.392 63.4382L285.63 62.9866C285.765 63.0777 285.931 63.1549 286.129 63.2183C286.327 63.2817 286.529 63.3134 286.735 63.3134C287.001 63.3134 287.191 63.2758 287.306 63.2005C287.425 63.1252 287.484 63.0202 287.484 62.8855C287.484 62.7865 287.448 62.7092 287.377 62.6538C287.306 62.5983 287.211 62.5567 287.092 62.529C286.977 62.5012 286.848 62.4775 286.705 62.4577C286.563 62.4339 286.42 62.4062 286.278 62.3745C286.135 62.3388 286.004 62.2913 285.885 62.2318C285.767 62.1684 285.671 62.0833 285.6 61.9763C285.529 61.8654 285.493 61.7188 285.493 61.5365C285.493 61.3464 285.547 61.18 285.654 61.0374C285.761 60.8947 285.911 60.7858 286.105 60.7105C286.303 60.6313 286.537 60.5916 286.806 60.5916C287.012 60.5916 287.22 60.6174 287.43 60.6689C287.644 60.7164 287.819 60.7858 287.953 60.8769L287.71 61.3285C287.567 61.2335 287.419 61.1681 287.264 61.1324C287.11 61.0968 286.955 61.0789 286.801 61.0789C286.551 61.0789 286.365 61.1205 286.242 61.2037C286.119 61.283 286.058 61.386 286.058 61.5128C286.058 61.6197 286.093 61.7029 286.165 61.7624C286.24 61.8178 286.335 61.8614 286.45 61.8931C286.569 61.9248 286.7 61.9525 286.842 61.9763C286.985 61.9961 287.127 62.0238 287.27 62.0595C287.413 62.0912 287.541 62.1368 287.656 62.1962C287.775 62.2556 287.87 62.3388 287.942 62.4458C288.017 62.5527 288.054 62.6954 288.054 62.8736C288.054 63.0638 287.999 63.2282 287.888 63.3669C287.777 63.5056 287.621 63.6145 287.419 63.6937C287.217 63.769 286.975 63.8067 286.694 63.8067ZM289.849 63.8067C289.532 63.8067 289.286 63.7215 289.112 63.5511C288.938 63.3808 288.851 63.1371 288.851 62.8202V59.932H289.421V62.7964C289.421 62.9667 289.463 63.0975 289.546 63.1886C289.633 63.2797 289.756 63.3253 289.914 63.3253C290.093 63.3253 290.241 63.2758 290.36 63.1767L290.538 63.5868C290.451 63.662 290.346 63.7175 290.223 63.7532C290.105 63.7888 289.98 63.8067 289.849 63.8067ZM288.316 61.0908V60.6214H290.324V61.0908H288.316ZM294.316 63.8185C293.947 63.8185 293.632 63.7373 293.371 63.5749C293.109 63.4125 292.909 63.1787 292.771 62.8736C292.636 62.5646 292.568 62.1883 292.568 61.7445C292.568 61.2731 292.652 60.8749 292.818 60.55C292.984 60.2252 293.216 59.9795 293.513 59.8132C293.811 59.6468 294.151 59.5636 294.536 59.5636C294.734 59.5636 294.922 59.5834 295.1 59.623C295.282 59.6626 295.439 59.724 295.57 59.8072L295.344 60.2707C295.237 60.1955 295.114 60.144 294.975 60.1162C294.841 60.0885 294.698 60.0746 294.547 60.0746C294.124 60.0746 293.787 60.2074 293.537 60.4728C293.288 60.7343 293.163 61.1245 293.163 61.6435C293.163 61.7267 293.167 61.8257 293.175 61.9406C293.183 62.0555 293.202 62.1684 293.234 62.2794L293.032 62.0773C293.091 61.8951 293.185 61.7426 293.311 61.6197C293.442 61.493 293.597 61.3999 293.775 61.3404C293.957 61.277 294.153 61.2453 294.363 61.2453C294.641 61.2453 294.886 61.2968 295.1 61.3999C295.314 61.5029 295.482 61.6494 295.605 61.8396C295.728 62.0258 295.789 62.2477 295.789 62.5052C295.789 62.7706 295.724 63.0024 295.593 63.2005C295.463 63.3986 295.286 63.5511 295.064 63.6581C294.843 63.7651 294.593 63.8185 294.316 63.8185ZM294.292 63.3372C294.474 63.3372 294.633 63.3035 294.767 63.2362C294.906 63.1688 295.015 63.0757 295.094 62.9568C295.173 62.834 295.213 62.6914 295.213 62.529C295.213 62.2833 295.128 62.0892 294.957 61.9466C294.787 61.8 294.555 61.7267 294.262 61.7267C294.072 61.7267 293.906 61.7624 293.763 61.8337C293.62 61.905 293.507 62.002 293.424 62.1249C293.345 62.2437 293.305 62.3804 293.305 62.5349C293.305 62.6775 293.343 62.8103 293.418 62.9331C293.494 63.0519 293.605 63.149 293.751 63.2243C293.898 63.2995 294.078 63.3372 294.292 63.3372ZM298.171 63.771V59.6111H298.658L300.524 62.7548H300.263L302.105 59.6111H302.592L302.598 63.771H302.028L302.022 60.5084H302.158L300.518 63.2659H300.245L298.593 60.5084H298.741V63.771H298.171ZM305.112 63.8067C304.796 63.8067 304.514 63.7373 304.269 63.5987C304.023 63.46 303.829 63.2698 303.686 63.0282C303.544 62.7825 303.472 62.5052 303.472 62.1962C303.472 61.8832 303.544 61.6059 303.686 61.3642C303.829 61.1225 304.023 60.9343 304.269 60.7996C304.514 60.661 304.796 60.5916 305.112 60.5916C305.425 60.5916 305.705 60.661 305.95 60.7996C306.2 60.9343 306.394 61.1225 306.533 61.3642C306.675 61.6019 306.747 61.8792 306.747 62.1962C306.747 62.5092 306.675 62.7865 306.533 63.0282C306.394 63.2698 306.2 63.46 305.95 63.5987C305.705 63.7373 305.425 63.8067 305.112 63.8067ZM305.112 63.3075C305.315 63.3075 305.495 63.2619 305.653 63.1708C305.816 63.0797 305.942 62.9509 306.034 62.7845C306.125 62.6141 306.17 62.418 306.17 62.1962C306.17 61.9704 306.125 61.7762 306.034 61.6138C305.942 61.4474 305.816 61.3186 305.653 61.2275C305.495 61.1364 305.315 61.0908 305.112 61.0908C304.91 61.0908 304.73 61.1364 304.572 61.2275C304.413 61.3186 304.286 61.4474 304.191 61.6138C304.096 61.7762 304.049 61.9704 304.049 62.1962C304.049 62.418 304.096 62.6141 304.191 62.7845C304.286 62.9509 304.413 63.0797 304.572 63.1708C304.73 63.2619 304.91 63.3075 305.112 63.3075ZM309.217 60.5916C309.475 60.5916 309.701 60.6412 309.895 60.7402C310.093 60.8393 310.248 60.9898 310.358 61.1919C310.469 61.3939 310.525 61.6494 310.525 61.9585V63.771H309.954V62.0238C309.954 61.7188 309.879 61.489 309.729 61.3345C309.582 61.18 309.374 61.1027 309.105 61.1027C308.903 61.1027 308.726 61.1423 308.576 61.2216C308.425 61.3008 308.308 61.4177 308.225 61.5722C308.146 61.7267 308.106 61.9189 308.106 62.1486V63.771H307.536V60.6214H308.082V61.4712L307.993 61.2453C308.096 61.0393 308.255 60.8789 308.469 60.764C308.683 60.6491 308.932 60.5916 309.217 60.5916ZM312.662 63.8067C312.345 63.8067 312.1 63.7215 311.925 63.5511C311.751 63.3808 311.664 63.1371 311.664 62.8202V59.932H312.234V62.7964C312.234 62.9667 312.276 63.0975 312.359 63.1886C312.446 63.2797 312.569 63.3253 312.728 63.3253C312.906 63.3253 313.054 63.2758 313.173 63.1767L313.352 63.5868C313.264 63.662 313.159 63.7175 313.037 63.7532C312.918 63.7888 312.793 63.8067 312.662 63.8067ZM311.129 61.0908V60.6214H313.138V61.0908H311.129ZM315.723 60.5916C315.981 60.5916 316.206 60.6412 316.401 60.7402C316.599 60.8393 316.753 60.9898 316.864 61.1919C316.975 61.3939 317.031 61.6494 317.031 61.9585V63.771H316.46V62.0238C316.46 61.7188 316.385 61.489 316.234 61.3345C316.088 61.18 315.88 61.1027 315.61 61.1027C315.408 61.1027 315.232 61.1423 315.081 61.2216C314.931 61.3008 314.814 61.4177 314.731 61.5722C314.651 61.7267 314.612 61.9189 314.612 62.1486V63.771H314.041V59.3615H314.612V61.4712L314.499 61.2453C314.602 61.0393 314.76 60.8789 314.974 60.764C315.188 60.6491 315.438 60.5916 315.723 60.5916ZM318.99 63.8067C318.728 63.8067 318.479 63.771 318.241 63.6997C318.007 63.6284 317.823 63.5412 317.688 63.4382L317.926 62.9866C318.061 63.0777 318.227 63.1549 318.425 63.2183C318.623 63.2817 318.825 63.3134 319.031 63.3134C319.297 63.3134 319.487 63.2758 319.602 63.2005C319.721 63.1252 319.78 63.0202 319.78 62.8855C319.78 62.7865 319.744 62.7092 319.673 62.6538C319.602 62.5983 319.507 62.5567 319.388 62.529C319.273 62.5012 319.144 62.4775 319.002 62.4577C318.859 62.4339 318.716 62.4062 318.574 62.3745C318.431 62.3388 318.3 62.2913 318.181 62.2318C318.063 62.1684 317.967 62.0833 317.896 61.9763C317.825 61.8654 317.789 61.7188 317.789 61.5365C317.789 61.3464 317.843 61.18 317.95 61.0374C318.057 60.8947 318.207 60.7858 318.401 60.7105C318.599 60.6313 318.833 60.5916 319.103 60.5916C319.309 60.5916 319.517 60.6174 319.727 60.6689C319.94 60.7164 320.115 60.7858 320.249 60.8769L320.006 61.3285C319.863 61.2335 319.715 61.1681 319.56 61.1324C319.406 61.0968 319.251 61.0789 319.097 61.0789C318.847 61.0789 318.661 61.1205 318.538 61.2037C318.415 61.283 318.354 61.386 318.354 61.5128C318.354 61.6197 318.389 61.7029 318.461 61.7624C318.536 61.8178 318.631 61.8614 318.746 61.8931C318.865 61.9248 318.996 61.9525 319.138 61.9763C319.281 61.9961 319.423 62.0238 319.566 62.0595C319.709 62.0912 319.837 62.1368 319.952 62.1962C320.071 62.2556 320.166 62.3388 320.238 62.4458C320.313 62.5527 320.351 62.6954 320.351 62.8736C320.351 63.0638 320.295 63.2282 320.184 63.3669C320.073 63.5056 319.917 63.6145 319.715 63.6937C319.513 63.769 319.271 63.8067 318.99 63.8067Z" fill="#E5E5E5"/>
</g>
<mask id="mask0_1945_3650" style="mask-type:alpha" maskUnits="userSpaceOnUse" x="324" y="56" width="11" height="11">
<rect x="324.438" y="56.6772" width="10.1875" height="10.1875" fill="#D9D9D9"/>
</mask>
<g mask="url(#mask0_1945_3650)">
<path d="M329.531 63.2141L326.984 60.6673L327.579 60.073L329.531 62.0256L331.484 60.073L332.078 60.6673L329.531 63.2141Z" fill="#3A5CFF"/>
</g>
<g clip-path="url(#clip1_1945_3650)">
<rect x="167.827" y="79.1748" width="6.79167" height="0.848958" fill="#3A5CFF"/>
<circle opacity="0.25" cx="171.223" cy="79.5994" r="3.39583" fill="#3A5CFF"/>
<circle cx="171.223" cy="79.5993" r="1.48568" fill="#3A5CFF" stroke="white" stroke-width="0.424479"/>
<path d="M176.765 81.5991V77.8946H178.017C178.307 77.8946 178.545 77.947 178.729 78.0519C178.915 78.1557 179.053 78.2961 179.142 78.4734C179.231 78.6507 179.276 78.8484 179.276 79.0667C179.276 79.285 179.231 79.4834 179.142 79.6618C179.054 79.8403 178.918 79.9826 178.733 80.0887C178.549 80.1936 178.312 80.2461 178.024 80.2461H177.127V79.8481H178.009C178.208 79.8481 178.368 79.8138 178.489 79.745C178.609 79.6763 178.697 79.5834 178.751 79.4665C178.807 79.3483 178.834 79.215 178.834 79.0667C178.834 78.9184 178.807 78.7857 178.751 78.6688C178.697 78.5518 178.609 78.4601 178.487 78.3938C178.365 78.3263 178.204 78.2925 178.002 78.2925H177.214V81.5991H176.765ZM179.94 81.5991V78.8207H180.353V79.2404H180.382C180.432 79.1029 180.524 78.9913 180.657 78.9057C180.789 78.8201 180.939 78.7773 181.105 78.7773C181.137 78.7773 181.176 78.7779 181.223 78.7791C181.27 78.7803 181.306 78.7821 181.33 78.7845V79.2187C181.315 79.215 181.282 79.2096 181.23 79.2024C181.18 79.1939 181.126 79.1897 181.069 79.1897C180.934 79.1897 180.814 79.2181 180.707 79.2747C180.603 79.3302 180.519 79.4074 180.458 79.5063C180.397 79.6039 180.367 79.7155 180.367 79.8409V81.5991H179.94ZM182.88 81.657C182.629 81.657 182.409 81.5973 182.22 81.4779C182.031 81.3585 181.884 81.1915 181.778 80.9769C181.673 80.7622 181.621 80.5114 181.621 80.2244C181.621 79.935 181.673 79.6823 181.778 79.4665C181.884 79.2506 182.031 79.083 182.22 78.9636C182.409 78.8442 182.629 78.7845 182.88 78.7845C183.131 78.7845 183.35 78.8442 183.538 78.9636C183.728 79.083 183.875 79.2506 183.98 79.4665C184.086 79.6823 184.139 79.935 184.139 80.2244C184.139 80.5114 184.086 80.7622 183.98 80.9769C183.875 81.1915 183.728 81.3585 183.538 81.4779C183.35 81.5973 183.131 81.657 182.88 81.657ZM182.88 81.2735C183.07 81.2735 183.227 81.2247 183.35 81.127C183.473 81.0293 183.564 80.9009 183.623 80.7417C183.682 80.5825 183.712 80.4101 183.712 80.2244C183.712 80.0387 183.682 79.8656 183.623 79.7052C183.564 79.5449 183.473 79.4152 183.35 79.3163C183.227 79.2175 183.07 79.168 182.88 79.168C182.689 79.168 182.533 79.2175 182.41 79.3163C182.287 79.4152 182.196 79.5449 182.136 79.7052C182.077 79.8656 182.048 80.0387 182.048 80.2244C182.048 80.4101 182.077 80.5825 182.136 80.7417C182.196 80.9009 182.287 81.0293 182.41 81.127C182.533 81.2247 182.689 81.2735 182.88 81.2735ZM186.028 78.8207V79.1825H184.53V78.8207H186.028ZM184.979 81.5991V78.4372C184.979 78.2781 185.016 78.1454 185.091 78.0393C185.166 77.9332 185.263 77.8536 185.382 77.8005C185.501 77.7475 185.627 77.7209 185.76 77.7209C185.865 77.7209 185.951 77.7294 186.017 77.7462C186.083 77.7631 186.133 77.7788 186.165 77.7933L186.042 78.1623C186.02 78.1551 185.99 78.146 185.952 78.1352C185.914 78.1243 185.865 78.1189 185.803 78.1189C185.662 78.1189 185.56 78.1544 185.498 78.2256C185.436 78.2967 185.405 78.4011 185.405 78.5385V81.5991H184.979ZM186.626 81.5991V78.8207H187.053V81.5991H186.626ZM186.843 78.3576C186.76 78.3576 186.688 78.3293 186.628 78.2726C186.569 78.2159 186.539 78.1478 186.539 78.0682C186.539 77.9886 186.569 77.9205 186.628 77.8638C186.688 77.8071 186.76 77.7788 186.843 77.7788C186.926 77.7788 186.997 77.8071 187.057 77.8638C187.117 77.9205 187.147 77.9886 187.147 78.0682C187.147 78.1478 187.117 78.2159 187.057 78.2726C186.997 78.3293 186.926 78.3576 186.843 78.3576ZM189.043 78.8207V79.1825H187.603V78.8207H189.043ZM188.023 78.1551H188.45V80.8032C188.45 80.9238 188.467 81.0143 188.502 81.0746C188.538 81.1336 188.584 81.1734 188.64 81.1939C188.696 81.2132 188.756 81.2229 188.819 81.2229C188.866 81.2229 188.904 81.2205 188.935 81.2156C188.965 81.2096 188.989 81.2048 189.007 81.2012L189.094 81.5847C189.065 81.5955 189.024 81.6064 188.973 81.6172C188.921 81.6293 188.855 81.6353 188.775 81.6353C188.655 81.6353 188.537 81.6094 188.421 81.5575C188.306 81.5057 188.211 81.4267 188.135 81.3206C188.06 81.2144 188.023 81.0806 188.023 80.919V78.1551Z" fill="#E5E5E5"/>
<rect x="196.108" y="79.1748" width="6.79167" height="0.848958" fill="#D31301"/>
<circle opacity="0.25" cx="199.504" cy="79.5994" r="3.39583" fill="#D31301"/>
<circle cx="199.504" cy="79.5993" r="1.48568" fill="#D31301" stroke="white" stroke-width="0.424479"/>
<path d="M205.046 81.5991V77.8946H205.495V81.2012H207.217V81.5991H205.046ZM208.982 81.657C208.732 81.657 208.511 81.5973 208.322 81.4779C208.134 81.3585 207.987 81.1915 207.881 80.9769C207.776 80.7622 207.723 80.5114 207.723 80.2244C207.723 79.935 207.776 79.6823 207.881 79.4665C207.987 79.2506 208.134 79.083 208.322 78.9636C208.511 78.8442 208.732 78.7845 208.982 78.7845C209.233 78.7845 209.453 78.8442 209.641 78.9636C209.83 79.083 209.977 79.2506 210.082 79.4665C210.188 79.6823 210.241 79.935 210.241 80.2244C210.241 80.5114 210.188 80.7622 210.082 80.9769C209.977 81.1915 209.83 81.3585 209.641 81.4779C209.453 81.5973 209.233 81.657 208.982 81.657ZM208.982 81.2735C209.173 81.2735 209.33 81.2247 209.453 81.127C209.576 81.0293 209.667 80.9009 209.726 80.7417C209.785 80.5825 209.814 80.4101 209.814 80.2244C209.814 80.0387 209.785 79.8656 209.726 79.7052C209.667 79.5449 209.576 79.4152 209.453 79.3163C209.33 79.2175 209.173 79.168 208.982 79.168C208.792 79.168 208.635 79.2175 208.512 79.3163C208.389 79.4152 208.298 79.5449 208.239 79.7052C208.18 79.8656 208.15 80.0387 208.15 80.2244C208.15 80.4101 208.18 80.5825 208.239 80.7417C208.298 80.9009 208.389 81.0293 208.512 81.127C208.635 81.2247 208.792 81.2735 208.982 81.2735ZM212.861 79.443L212.478 79.5515C212.453 79.4876 212.418 79.4255 212.371 79.3652C212.325 79.3037 212.262 79.253 212.183 79.2132C212.103 79.1734 212.001 79.1535 211.877 79.1535C211.707 79.1535 211.565 79.1927 211.452 79.2711C211.34 79.3483 211.284 79.4466 211.284 79.566C211.284 79.6721 211.322 79.7559 211.399 79.8174C211.477 79.8789 211.597 79.9301 211.761 79.9711L212.174 80.0724C212.422 80.1327 212.607 80.225 212.729 80.3492C212.851 80.4722 212.912 80.6308 212.912 80.8249C212.912 80.9841 212.866 81.1264 212.774 81.2518C212.684 81.3772 212.557 81.4761 212.394 81.5485C212.231 81.6208 212.042 81.657 211.826 81.657C211.543 81.657 211.308 81.5955 211.123 81.4725C210.937 81.3495 210.819 81.1698 210.77 80.9335L211.175 80.8322C211.214 80.9817 211.287 81.0938 211.394 81.1686C211.503 81.2434 211.644 81.2808 211.819 81.2808C212.018 81.2808 212.176 81.2386 212.293 81.1541C212.411 81.0685 212.47 80.966 212.47 80.8466C212.47 80.7502 212.437 80.6694 212.369 80.6042C212.301 80.5379 212.198 80.4885 212.058 80.4559L211.595 80.3474C211.34 80.2871 211.153 80.1936 211.034 80.067C210.916 79.9392 210.857 79.7794 210.857 79.5877C210.857 79.4309 210.901 79.2922 210.989 79.1716C211.078 79.051 211.199 78.9564 211.352 78.8876C211.507 78.8189 211.682 78.7845 211.877 78.7845C212.152 78.7845 212.368 78.8448 212.525 78.9654C212.683 79.086 212.795 79.2452 212.861 79.443ZM215.522 79.443L215.139 79.5515C215.115 79.4876 215.079 79.4255 215.032 79.3652C214.986 79.3037 214.924 79.253 214.844 79.2132C214.764 79.1734 214.662 79.1535 214.538 79.1535C214.368 79.1535 214.227 79.1927 214.113 79.2711C214.001 79.3483 213.945 79.4466 213.945 79.566C213.945 79.6721 213.984 79.7559 214.061 79.8174C214.138 79.8789 214.258 79.9301 214.422 79.9711L214.835 80.0724C215.083 80.1327 215.268 80.225 215.39 80.3492C215.512 80.4722 215.573 80.6308 215.573 80.8249C215.573 80.9841 215.527 81.1264 215.435 81.2518C215.345 81.3772 215.218 81.4761 215.056 81.5485C214.893 81.6208 214.703 81.657 214.488 81.657C214.204 81.657 213.97 81.5955 213.784 81.4725C213.598 81.3495 213.481 81.1698 213.431 80.9335L213.836 80.8322C213.875 80.9817 213.948 81.0938 214.055 81.1686C214.164 81.2434 214.306 81.2808 214.48 81.2808C214.679 81.2808 214.837 81.2386 214.954 81.1541C215.072 81.0685 215.132 80.966 215.132 80.8466C215.132 80.7502 215.098 80.6694 215.03 80.6042C214.963 80.5379 214.859 80.4885 214.719 80.4559L214.256 80.3474C214.002 80.2871 213.815 80.1936 213.695 80.067C213.577 79.9392 213.518 79.7794 213.518 79.5877C213.518 79.4309 213.562 79.2922 213.65 79.1716C213.739 79.051 213.861 78.9564 214.014 78.8876C214.168 78.8189 214.343 78.7845 214.538 78.7845C214.813 78.7845 215.029 78.8448 215.186 78.9654C215.344 79.086 215.456 79.2452 215.522 79.443Z" fill="#E5E5E5"/>
</g>
<defs>
<linearGradient id="paint0_linear_1945_3650" x1="144.658" y1="-126.92" x2="266.752" y2="311.707" gradientUnits="userSpaceOnUse">
<stop offset="0.133169" stop-color="#0C1022" stop-opacity="0.34"/>
<stop offset="0.506036" stop-color="#29B754" stop-opacity="0.09"/>
</linearGradient>
<linearGradient id="paint1_linear_1945_3650" x1="192" y1="0" x2="192" y2="288" gradientUnits="userSpaceOnUse">
<stop offset="0.370365" stop-color="#C6C6C6" stop-opacity="0.19"/>
<stop offset="1" stop-opacity="0"/>
</linearGradient>
<linearGradient id="paint2_linear_1945_3650" x1="151.808" y1="-55.3455" x2="231.022" y2="273.144" gradientUnits="userSpaceOnUse">
<stop offset="0.133169" stop-color="#0C1022" stop-opacity="0.34"/>
<stop offset="0.506036" stop-color="#29B754" stop-opacity="0.09"/>
</linearGradient>
<linearGradient id="paint3_linear_1945_3650" x1="192" y1="38" x2="192" y2="249.815" gradientUnits="userSpaceOnUse">
<stop offset="0.370365" stop-color="#C6C6C6" stop-opacity="0.19"/>
<stop offset="1" stop-opacity="0"/>
</linearGradient>
<linearGradient id="paint4_linear_1945_3650" x1="338.021" y1="61.7709" x2="274.773" y2="61.7709" gradientUnits="userSpaceOnUse">
<stop stop-color="#17171A"/>
<stop offset="1" stop-color="#17171A"/>
</linearGradient>
<clipPath id="clip0_1945_3650">
<rect width="43" height="8" fill="white" transform="translate(278.169 57.771)"/>
</clipPath>
<clipPath id="clip1_1945_3650">
<rect width="58.9583" height="10.1875" fill="white" transform="translate(162.733 74.5054)"/>
</clipPath>
</defs>
</svg>
