<svg width="464" height="268" viewBox="0 0 464 268" fill="none" xmlns="http://www.w3.org/2000/svg">
<rect x="0.5" y="14.5" width="343" height="253" rx="11.5" fill="#0C1022" fill-opacity="0.6"/>
<rect x="0.5" y="14.5" width="343" height="253" rx="11.5" fill="url(#paint0_linear_1763_8380)" fill-opacity="0.7"/>
<rect x="0.5" y="14.5" width="343" height="253" rx="11.5" stroke="url(#paint1_linear_1763_8380)"/>
<path d="M41.9835 222.499H42.5453V225.816C42.5453 226.112 42.491 226.363 42.3822 226.57C42.2735 226.777 42.1202 226.934 41.9223 227.041C41.7245 227.148 41.4911 227.202 41.2223 227.202C40.9685 227.202 40.7427 227.156 40.5449 227.064C40.347 226.97 40.1915 226.837 40.0782 226.665C39.9649 226.493 39.9083 226.288 39.9083 226.051H40.4611C40.4611 226.183 40.4935 226.297 40.5585 226.396C40.6249 226.492 40.7155 226.568 40.8303 226.622C40.9451 226.677 41.0758 226.704 41.2223 226.704C41.3839 226.704 41.5213 226.67 41.6346 226.602C41.7479 226.534 41.834 226.434 41.8929 226.303C41.9533 226.17 41.9835 226.007 41.9835 225.816V222.499ZM44.6228 227.22C44.4023 227.22 44.2022 227.179 44.0225 227.096C43.8427 227.011 43.7 226.889 43.5943 226.731C43.4886 226.571 43.4357 226.377 43.4357 226.151C43.4357 225.952 43.475 225.79 43.5535 225.666C43.632 225.541 43.737 225.443 43.8684 225.372C43.9998 225.301 44.1448 225.248 44.3034 225.213C44.4635 225.177 44.6243 225.148 44.7859 225.127C44.9974 225.1 45.1688 225.079 45.3002 225.066C45.4331 225.051 45.5298 225.026 45.5902 224.991C45.6521 224.956 45.6831 224.896 45.6831 224.81V224.792C45.6831 224.568 45.6219 224.394 45.4996 224.271C45.3788 224.147 45.1953 224.085 44.9491 224.085C44.6938 224.085 44.4937 224.141 44.3487 224.252C44.2037 224.364 44.1018 224.483 44.0429 224.61L43.5354 224.429C43.626 224.218 43.7468 224.053 43.8979 223.935C44.0504 223.816 44.2165 223.733 44.3963 223.686C44.5775 223.638 44.7557 223.614 44.9309 223.614C45.0427 223.614 45.1711 223.627 45.3161 223.654C45.4626 223.68 45.6038 223.734 45.7397 223.815C45.8772 223.897 45.9912 224.02 46.0818 224.184C46.1724 224.349 46.2178 224.57 46.2178 224.846V227.139H45.6831V226.667H45.6559C45.6197 226.743 45.5592 226.824 45.4747 226.91C45.3901 226.996 45.2776 227.069 45.1371 227.13C44.9966 227.19 44.8252 227.22 44.6228 227.22ZM44.7044 226.74C44.9158 226.74 45.0941 226.698 45.2391 226.615C45.3856 226.532 45.4958 226.425 45.5698 226.294C45.6453 226.162 45.6831 226.024 45.6831 225.879V225.39C45.6604 225.417 45.6106 225.442 45.5336 225.464C45.4581 225.486 45.3705 225.504 45.2708 225.521C45.1726 225.536 45.0767 225.55 44.983 225.562C44.8909 225.572 44.8162 225.581 44.7588 225.589C44.6198 225.607 44.4899 225.637 44.3691 225.677C44.2498 225.717 44.1531 225.776 44.0791 225.856C44.0066 225.935 43.9704 226.042 43.9704 226.178C43.9704 226.364 44.0391 226.504 44.1765 226.599C44.3155 226.693 44.4914 226.74 44.7044 226.74ZM47.7283 225.045V227.139H47.1936V223.659H47.7102V224.203H47.7555C47.837 224.026 47.9609 223.884 48.127 223.777C48.2932 223.668 48.5076 223.614 48.7704 223.614C49.0061 223.614 49.2122 223.662 49.3889 223.759C49.5656 223.854 49.7031 223.999 49.8013 224.193C49.8994 224.387 49.9485 224.631 49.9485 224.928V227.139H49.4139V224.964C49.4139 224.69 49.3429 224.477 49.2009 224.325C49.0589 224.171 48.8641 224.094 48.6164 224.094C48.4457 224.094 48.2932 224.131 48.1588 224.205C48.0258 224.279 47.9209 224.387 47.8438 224.529C47.7668 224.671 47.7283 224.843 47.7283 225.045Z" fill="#969696"/>
<path d="M64.816 227.139V222.499H67.5981V222.997H65.3779V224.565H67.3896V225.063H65.3779V227.139H64.816ZM69.6914 227.211C69.3561 227.211 69.0669 227.137 68.8237 226.989C68.5821 226.84 68.3955 226.631 68.2641 226.364C68.1342 226.095 68.0693 225.782 68.0693 225.426C68.0693 225.069 68.1342 224.755 68.2641 224.483C68.3955 224.21 68.5783 223.997 68.8124 223.845C69.048 223.691 69.3229 223.614 69.637 223.614C69.8183 223.614 69.9973 223.644 70.174 223.704C70.3507 223.765 70.5115 223.863 70.6565 223.999C70.8015 224.133 70.9171 224.311 71.0032 224.533C71.0892 224.755 71.1323 225.029 71.1323 225.353V225.58H68.4499V225.118H70.5886C70.5886 224.921 70.5493 224.746 70.4708 224.592C70.3937 224.438 70.2835 224.317 70.14 224.227C69.998 224.138 69.8304 224.094 69.637 224.094C69.4241 224.094 69.2398 224.147 69.0843 224.252C68.9302 224.357 68.8116 224.493 68.7286 224.66C68.6455 224.828 68.604 225.008 68.604 225.199V225.507C68.604 225.77 68.6493 225.993 68.7399 226.176C68.832 226.357 68.9597 226.495 69.1228 226.59C69.2859 226.684 69.4754 226.731 69.6914 226.731C69.8319 226.731 69.9587 226.711 70.072 226.672C70.1868 226.631 70.2857 226.571 70.3688 226.491C70.4519 226.409 70.5161 226.308 70.5614 226.187L71.0779 226.332C71.0235 226.507 70.9322 226.661 70.8038 226.794C70.6754 226.926 70.5168 227.028 70.328 227.102C70.1392 227.175 69.927 227.211 69.6914 227.211ZM72.0181 227.139V222.499H72.5528V224.212H72.5981C72.6374 224.151 72.6917 224.074 72.7612 223.981C72.8322 223.885 72.9334 223.801 73.0648 223.727C73.1977 223.651 73.3774 223.614 73.604 223.614C73.897 223.614 74.1553 223.687 74.3788 223.833C74.6023 223.98 74.7768 224.187 74.9021 224.456C75.0275 224.725 75.0902 225.042 75.0902 225.408C75.0902 225.776 75.0275 226.096 74.9021 226.366C74.7768 226.635 74.6031 226.843 74.3811 226.991C74.159 227.138 73.903 227.211 73.613 227.211C73.3895 227.211 73.2105 227.174 73.0761 227.1C72.9417 227.025 72.8382 226.939 72.7657 226.844C72.6932 226.747 72.6374 226.667 72.5981 226.604H72.5347V227.139H72.0181ZM72.5437 225.399C72.5437 225.662 72.5822 225.893 72.6593 226.094C72.7363 226.294 72.8488 226.45 72.9968 226.563C73.1448 226.675 73.3261 226.731 73.5405 226.731C73.7641 226.731 73.9506 226.672 74.1001 226.554C74.2512 226.435 74.3644 226.275 74.44 226.074C74.517 225.871 74.5555 225.646 74.5555 225.399C74.5555 225.154 74.5177 224.934 74.4422 224.737C74.3682 224.539 74.2557 224.383 74.1047 224.268C73.9551 224.152 73.7671 224.094 73.5405 224.094C73.3231 224.094 73.1403 224.149 72.9923 224.259C72.8443 224.368 72.7325 224.52 72.657 224.717C72.5815 224.912 72.5437 225.139 72.5437 225.399Z" fill="#969696"/>
<path d="M89.7671 222.499H90.4377L92.0145 226.35H92.0689L93.6457 222.499H94.3163V227.139H93.7907V223.614H93.7454L92.2954 227.139H91.7879L90.338 223.614H90.2927V227.139H89.7671V222.499ZM96.3943 227.22C96.1738 227.22 95.9737 227.179 95.794 227.096C95.6142 227.011 95.4715 226.889 95.3658 226.731C95.26 226.571 95.2072 226.377 95.2072 226.151C95.2072 225.952 95.2465 225.79 95.325 225.666C95.4035 225.541 95.5085 225.443 95.6399 225.372C95.7713 225.301 95.9163 225.248 96.0749 225.213C96.235 225.177 96.3958 225.148 96.5574 225.127C96.7689 225.1 96.9403 225.079 97.0717 225.066C97.2046 225.051 97.3013 225.026 97.3617 224.991C97.4236 224.956 97.4546 224.896 97.4546 224.81V224.792C97.4546 224.568 97.3934 224.394 97.2711 224.271C97.1503 224.147 96.9667 224.085 96.7206 224.085C96.4653 224.085 96.2652 224.141 96.1202 224.252C95.9752 224.364 95.8733 224.483 95.8143 224.61L95.3069 224.429C95.3975 224.218 95.5183 224.053 95.6694 223.935C95.8219 223.816 95.988 223.733 96.1678 223.686C96.349 223.638 96.5272 223.614 96.7024 223.614C96.8142 223.614 96.9426 223.627 97.0876 223.654C97.2341 223.68 97.3753 223.734 97.5112 223.815C97.6487 223.897 97.7627 224.02 97.8533 224.184C97.9439 224.349 97.9893 224.57 97.9893 224.846V227.139H97.4546V226.667H97.4274C97.3912 226.743 97.3307 226.824 97.2462 226.91C97.1616 226.996 97.0491 227.069 96.9086 227.13C96.7681 227.19 96.5967 227.22 96.3943 227.22ZM96.4759 226.74C96.6873 226.74 96.8656 226.698 97.0105 226.615C97.1571 226.532 97.2673 226.425 97.3413 226.294C97.4168 226.162 97.4546 226.024 97.4546 225.879V225.39C97.4319 225.417 97.3821 225.442 97.3051 225.464C97.2295 225.486 97.1419 225.504 97.0423 225.521C96.9441 225.536 96.8482 225.55 96.7545 225.562C96.6624 225.572 96.5876 225.581 96.5303 225.589C96.3913 225.607 96.2614 225.637 96.1406 225.677C96.0213 225.717 95.9246 225.776 95.8506 225.856C95.7781 225.935 95.7418 226.042 95.7418 226.178C95.7418 226.364 95.8106 226.504 95.948 226.599C96.087 226.693 96.2629 226.74 96.4759 226.74ZM98.9651 227.139V223.659H99.4817V224.184H99.5179C99.5814 224.012 99.6961 223.873 99.8623 223.765C100.028 223.658 100.216 223.604 100.424 223.604C100.463 223.604 100.512 223.605 100.571 223.607C100.63 223.608 100.675 223.61 100.705 223.614V224.157C100.687 224.153 100.645 224.146 100.58 224.137C100.517 224.126 100.45 224.121 100.379 224.121C100.21 224.121 100.059 224.156 99.9257 224.227C99.7943 224.297 99.6901 224.394 99.6131 224.517C99.5376 224.64 99.4998 224.78 99.4998 224.937V227.139H98.9651Z" fill="#969696"/>
<path d="M115.184 227.139H114.595L116.299 222.499H116.879L118.582 227.139H117.993L116.607 223.233H116.571L115.184 227.139ZM115.402 225.326H117.776V225.825H115.402V225.326ZM119.233 228.444V223.659H119.749V224.212H119.813C119.852 224.151 119.906 224.074 119.976 223.981C120.047 223.885 120.148 223.801 120.279 223.727C120.412 223.651 120.592 223.614 120.819 223.614C121.112 223.614 121.37 223.687 121.593 223.833C121.817 223.98 121.991 224.187 122.117 224.456C122.242 224.725 122.305 225.042 122.305 225.408C122.305 225.776 122.242 226.096 122.117 226.366C121.991 226.635 121.818 226.843 121.596 226.991C121.374 227.138 121.118 227.211 120.828 227.211C120.604 227.211 120.425 227.174 120.291 227.1C120.156 227.025 120.053 226.939 119.98 226.844C119.908 226.747 119.852 226.667 119.813 226.604H119.767V228.444H119.233ZM119.758 225.399C119.758 225.662 119.797 225.893 119.874 226.094C119.951 226.294 120.063 226.45 120.211 226.563C120.359 226.675 120.541 226.731 120.755 226.731C120.979 226.731 121.165 226.672 121.315 226.554C121.466 226.435 121.579 226.275 121.654 226.074C121.732 225.871 121.77 225.646 121.77 225.399C121.77 225.154 121.732 224.934 121.657 224.737C121.583 224.539 121.47 224.383 121.319 224.268C121.17 224.152 120.982 224.094 120.755 224.094C120.538 224.094 120.355 224.149 120.207 224.259C120.059 224.368 119.947 224.52 119.872 224.717C119.796 224.912 119.758 225.139 119.758 225.399ZM123.12 227.139V223.659H123.637V224.184H123.673C123.737 224.012 123.851 223.873 124.017 223.765C124.184 223.658 124.371 223.604 124.579 223.604C124.619 223.604 124.668 223.605 124.727 223.607C124.785 223.608 124.83 223.61 124.86 223.614V224.157C124.842 224.153 124.801 224.146 124.736 224.137C124.672 224.126 124.605 224.121 124.534 224.121C124.365 224.121 124.214 224.156 124.081 224.227C123.949 224.297 123.845 224.394 123.768 224.517C123.693 224.64 123.655 224.78 123.655 224.937V227.139H123.12Z" fill="#969696"/>
<path d="M139.123 222.499H139.793L141.37 226.35H141.424L143.001 222.499H143.672V227.139H143.146V223.614H143.101L141.651 227.139H141.143L139.693 223.614H139.648V227.139H139.123V222.499ZM145.75 227.22C145.529 227.22 145.329 227.179 145.149 227.096C144.97 227.011 144.827 226.889 144.721 226.731C144.615 226.571 144.563 226.377 144.563 226.151C144.563 225.952 144.602 225.79 144.68 225.666C144.759 225.541 144.864 225.443 144.995 225.372C145.127 225.301 145.272 225.248 145.43 225.213C145.59 225.177 145.751 225.148 145.913 225.127C146.124 225.1 146.296 225.079 146.427 225.066C146.56 225.051 146.657 225.026 146.717 224.991C146.779 224.956 146.81 224.896 146.81 224.81V224.792C146.81 224.568 146.749 224.394 146.627 224.271C146.506 224.147 146.322 224.085 146.076 224.085C145.821 224.085 145.621 224.141 145.476 224.252C145.331 224.364 145.229 224.483 145.17 224.61L144.662 224.429C144.753 224.218 144.874 224.053 145.025 223.935C145.177 223.816 145.343 223.733 145.523 223.686C145.704 223.638 145.883 223.614 146.058 223.614C146.17 223.614 146.298 223.627 146.443 223.654C146.59 223.68 146.731 223.734 146.867 223.815C147.004 223.897 147.118 224.02 147.209 224.184C147.299 224.349 147.345 224.57 147.345 224.846V227.139H146.81V226.667H146.783C146.747 226.743 146.686 226.824 146.602 226.91C146.517 226.996 146.405 227.069 146.264 227.13C146.124 227.19 145.952 227.22 145.75 227.22ZM145.831 226.74C146.043 226.74 146.221 226.698 146.366 226.615C146.512 226.532 146.623 226.425 146.697 226.294C146.772 226.162 146.81 226.024 146.81 225.879V225.39C146.787 225.417 146.738 225.442 146.661 225.464C146.585 225.486 146.497 225.504 146.398 225.521C146.3 225.536 146.204 225.55 146.11 225.562C146.018 225.572 145.943 225.581 145.886 225.589C145.747 225.607 145.617 225.637 145.496 225.677C145.377 225.717 145.28 225.776 145.206 225.856C145.134 225.935 145.097 226.042 145.097 226.178C145.097 226.364 145.166 226.504 145.303 226.599C145.442 226.693 145.618 226.74 145.831 226.74ZM148.54 228.444C148.45 228.444 148.369 228.436 148.298 228.421C148.227 228.407 148.178 228.394 148.151 228.38L148.287 227.909C148.416 227.942 148.531 227.954 148.631 227.945C148.731 227.936 148.819 227.892 148.896 227.812C148.975 227.733 149.046 227.605 149.111 227.429L149.211 227.157L147.924 223.659H148.504L149.465 226.432H149.501L150.462 223.659H151.041L149.564 227.646C149.498 227.826 149.416 227.975 149.317 228.092C149.219 228.212 149.105 228.3 148.975 228.358C148.847 228.415 148.702 228.444 148.54 228.444Z" fill="#969696"/>
<path d="M167.13 222.499H167.692V225.816C167.692 226.112 167.638 226.363 167.529 226.57C167.42 226.777 167.267 226.934 167.069 227.041C166.871 227.148 166.638 227.202 166.369 227.202C166.115 227.202 165.889 227.156 165.692 227.064C165.494 226.97 165.338 226.837 165.225 226.665C165.112 226.493 165.055 226.288 165.055 226.051H165.608C165.608 226.183 165.64 226.297 165.705 226.396C165.772 226.492 165.862 226.568 165.977 226.622C166.092 226.677 166.222 226.704 166.369 226.704C166.531 226.704 166.668 226.67 166.781 226.602C166.895 226.534 166.981 226.434 167.04 226.303C167.1 226.17 167.13 226.007 167.13 225.816V222.499ZM170.939 225.716V223.659H171.473V227.139H170.939V226.55H170.902C170.821 226.726 170.694 226.877 170.522 227C170.35 227.123 170.132 227.184 169.869 227.184C169.652 227.184 169.458 227.136 169.289 227.041C169.12 226.945 168.987 226.8 168.891 226.606C168.794 226.411 168.746 226.166 168.746 225.87V223.659H169.28V225.834C169.28 226.087 169.351 226.29 169.493 226.441C169.637 226.592 169.819 226.667 170.041 226.667C170.174 226.667 170.309 226.633 170.447 226.565C170.586 226.498 170.702 226.393 170.796 226.253C170.891 226.112 170.939 225.933 170.939 225.716ZM172.987 225.045V227.139H172.452V223.659H172.969V224.203H173.014C173.096 224.026 173.22 223.884 173.386 223.777C173.552 223.668 173.767 223.614 174.029 223.614C174.265 223.614 174.471 223.662 174.648 223.759C174.825 223.854 174.962 223.999 175.06 224.193C175.158 224.387 175.207 224.631 175.207 224.928V227.139H174.673V224.964C174.673 224.69 174.602 224.477 174.46 224.325C174.318 224.171 174.123 224.094 173.875 224.094C173.705 224.094 173.552 224.131 173.418 224.205C173.285 224.279 173.18 224.387 173.103 224.529C173.026 224.671 172.987 224.843 172.987 225.045ZM177.643 227.211C177.308 227.211 177.019 227.137 176.776 226.989C176.534 226.84 176.348 226.631 176.216 226.364C176.086 226.095 176.021 225.782 176.021 225.426C176.021 225.069 176.086 224.755 176.216 224.483C176.348 224.21 176.53 223.997 176.764 223.845C177 223.691 177.275 223.614 177.589 223.614C177.77 223.614 177.949 223.644 178.126 223.704C178.303 223.765 178.464 223.863 178.609 223.999C178.753 224.133 178.869 224.311 178.955 224.533C179.041 224.755 179.084 225.029 179.084 225.353V225.58H176.402V225.118H178.541C178.541 224.921 178.501 224.746 178.423 224.592C178.346 224.438 178.235 224.317 178.092 224.227C177.95 224.138 177.782 224.094 177.589 224.094C177.376 224.094 177.192 224.147 177.036 224.252C176.882 224.357 176.764 224.493 176.681 224.66C176.597 224.828 176.556 225.008 176.556 225.199V225.507C176.556 225.77 176.601 225.993 176.692 226.176C176.784 226.357 176.912 226.495 177.075 226.59C177.238 226.684 177.427 226.731 177.643 226.731C177.784 226.731 177.911 226.711 178.024 226.672C178.139 226.631 178.238 226.571 178.321 226.491C178.404 226.409 178.468 226.308 178.513 226.187L179.03 226.332C178.976 226.507 178.884 226.661 178.756 226.794C178.627 226.926 178.469 227.028 178.28 227.102C178.091 227.175 177.879 227.211 177.643 227.211Z" fill="#969696"/>
<path d="M195.511 222.499H196.073V225.816C196.073 226.112 196.019 226.363 195.91 226.57C195.801 226.777 195.648 226.934 195.45 227.041C195.252 227.148 195.019 227.202 194.75 227.202C194.496 227.202 194.27 227.156 194.073 227.064C193.875 226.97 193.719 226.837 193.606 226.665C193.493 226.493 193.436 226.288 193.436 226.051H193.989C193.989 226.183 194.021 226.297 194.086 226.396C194.153 226.492 194.243 226.568 194.358 226.622C194.473 226.677 194.603 226.704 194.75 226.704C194.912 226.704 195.049 226.67 195.162 226.602C195.276 226.534 195.362 226.434 195.42 226.303C195.481 226.17 195.511 226.007 195.511 225.816V222.499ZM199.319 225.716V223.659H199.854V227.139H199.319V226.55H199.283C199.202 226.726 199.075 226.877 198.903 227C198.73 227.123 198.513 227.184 198.25 227.184C198.033 227.184 197.839 227.136 197.67 227.041C197.501 226.945 197.368 226.8 197.271 226.606C197.175 226.411 197.126 226.166 197.126 225.87V223.659H197.661V225.834C197.661 226.087 197.732 226.29 197.874 226.441C198.018 226.592 198.2 226.667 198.422 226.667C198.555 226.667 198.69 226.633 198.828 226.565C198.967 226.498 199.083 226.393 199.177 226.253C199.272 226.112 199.319 225.933 199.319 225.716ZM201.368 222.499V227.139H200.833V222.499H201.368ZM202.692 228.444C202.601 228.444 202.52 228.436 202.449 228.421C202.378 228.407 202.329 228.394 202.302 228.38L202.438 227.909C202.568 227.942 202.683 227.954 202.782 227.945C202.882 227.936 202.97 227.892 203.047 227.812C203.126 227.733 203.198 227.605 203.263 227.429L203.362 227.157L202.075 223.659H202.655L203.616 226.432H203.652L204.613 223.659H205.193L203.716 227.646C203.649 227.826 203.567 227.975 203.469 228.092C203.371 228.212 203.257 228.3 203.127 228.358C202.998 228.415 202.853 228.444 202.692 228.444Z" fill="#969696"/>
<path d="M219.781 227.139H219.192L220.896 222.499H221.476L223.18 227.139H222.591L221.204 223.233H221.168L219.781 227.139ZM219.999 225.326H222.373V225.825H219.999V225.326ZM226.023 225.716V223.659H226.557V227.139H226.023V226.55H225.987C225.905 226.726 225.778 226.877 225.606 227C225.434 227.123 225.216 227.184 224.953 227.184C224.736 227.184 224.543 227.136 224.374 227.041C224.204 226.945 224.071 226.8 223.975 226.606C223.878 226.411 223.83 226.166 223.83 225.87V223.659H224.364V225.834C224.364 226.087 224.435 226.29 224.577 226.441C224.721 226.592 224.904 226.667 225.126 226.667C225.259 226.667 225.394 226.633 225.531 226.565C225.67 226.498 225.786 226.393 225.88 226.253C225.975 226.112 226.023 225.933 226.023 225.716ZM228.941 228.516C228.683 228.516 228.461 228.483 228.275 228.416C228.09 228.351 227.935 228.265 227.811 228.158C227.689 228.052 227.591 227.939 227.519 227.818L227.945 227.519C227.993 227.583 228.054 227.655 228.128 227.737C228.202 227.82 228.303 227.892 228.432 227.952C228.562 228.014 228.731 228.045 228.941 228.045C229.222 228.045 229.454 227.977 229.637 227.841C229.82 227.705 229.911 227.492 229.911 227.202V226.495H229.866C229.826 226.559 229.771 226.637 229.698 226.731C229.627 226.823 229.524 226.905 229.39 226.978C229.257 227.049 229.077 227.084 228.851 227.084C228.57 227.084 228.318 227.018 228.094 226.885C227.872 226.752 227.696 226.559 227.566 226.305C227.438 226.051 227.374 225.743 227.374 225.381C227.374 225.024 227.436 224.714 227.562 224.449C227.687 224.184 227.861 223.978 228.085 223.833C228.309 223.687 228.567 223.614 228.86 223.614C229.086 223.614 229.266 223.651 229.399 223.727C229.533 223.801 229.636 223.885 229.707 223.981C229.78 224.074 229.836 224.151 229.875 224.212H229.929V223.659H230.446V227.238C230.446 227.537 230.378 227.781 230.242 227.968C230.107 228.157 229.926 228.295 229.698 228.382C229.472 228.472 229.219 228.516 228.941 228.516ZM228.923 226.604C229.138 226.604 229.319 226.555 229.467 226.457C229.615 226.359 229.728 226.217 229.805 226.033C229.882 225.849 229.92 225.628 229.92 225.372C229.92 225.121 229.882 224.9 229.807 224.708C229.731 224.516 229.62 224.366 229.472 224.257C229.324 224.148 229.141 224.094 228.923 224.094C228.697 224.094 228.508 224.151 228.357 224.266C228.207 224.381 228.095 224.535 228.019 224.728C227.945 224.921 227.908 225.136 227.908 225.372C227.908 225.613 227.946 225.827 228.022 226.013C228.099 226.197 228.212 226.342 228.361 226.448C228.512 226.552 228.7 226.604 228.923 226.604Z" fill="#969696"/>
<path d="M247.438 223.659C247.411 223.429 247.3 223.251 247.107 223.124C246.914 222.997 246.676 222.934 246.396 222.934C246.19 222.934 246.01 222.967 245.856 223.034C245.704 223.1 245.585 223.191 245.498 223.308C245.414 223.424 245.372 223.556 245.372 223.704C245.372 223.828 245.401 223.934 245.46 224.024C245.52 224.111 245.597 224.184 245.691 224.243C245.785 224.301 245.883 224.348 245.986 224.386C246.088 224.422 246.183 224.452 246.269 224.474L246.74 224.601C246.861 224.633 246.995 224.677 247.143 224.733C247.293 224.789 247.435 224.865 247.571 224.961C247.709 225.057 247.822 225.179 247.911 225.329C248 225.478 248.045 225.662 248.045 225.879C248.045 226.13 247.979 226.356 247.848 226.559C247.718 226.761 247.528 226.922 247.277 227.041C247.028 227.161 246.725 227.22 246.368 227.22C246.036 227.22 245.748 227.167 245.505 227.059C245.264 226.952 245.073 226.803 244.934 226.611C244.797 226.419 244.719 226.196 244.701 225.942H245.281C245.296 226.118 245.355 226.263 245.458 226.377C245.562 226.491 245.693 226.575 245.852 226.631C246.012 226.686 246.184 226.713 246.368 226.713C246.583 226.713 246.775 226.678 246.946 226.609C247.117 226.538 247.252 226.439 247.352 226.314C247.451 226.187 247.501 226.039 247.501 225.87C247.501 225.716 247.458 225.591 247.372 225.494C247.286 225.397 247.173 225.319 247.032 225.258C246.892 225.198 246.74 225.145 246.577 225.1L246.006 224.937C245.643 224.832 245.356 224.684 245.145 224.49C244.934 224.297 244.828 224.044 244.828 223.731C244.828 223.472 244.898 223.245 245.039 223.052C245.18 222.857 245.371 222.706 245.609 222.599C245.85 222.49 246.118 222.435 246.414 222.435C246.713 222.435 246.979 222.489 247.211 222.596C247.444 222.702 247.628 222.847 247.764 223.031C247.901 223.216 247.974 223.425 247.981 223.659H247.438ZM250.355 227.211C250.02 227.211 249.731 227.137 249.487 226.989C249.246 226.84 249.059 226.631 248.928 226.364C248.798 226.095 248.733 225.782 248.733 225.426C248.733 225.069 248.798 224.755 248.928 224.483C249.059 224.21 249.242 223.997 249.476 223.845C249.712 223.691 249.987 223.614 250.301 223.614C250.482 223.614 250.661 223.644 250.838 223.704C251.014 223.765 251.175 223.863 251.32 223.999C251.465 224.133 251.581 224.311 251.667 224.533C251.753 224.755 251.796 225.029 251.796 225.353V225.58H249.114V225.118H251.252C251.252 224.921 251.213 224.746 251.134 224.592C251.057 224.438 250.947 224.317 250.804 224.227C250.662 224.138 250.494 224.094 250.301 224.094C250.088 224.094 249.904 224.147 249.748 224.252C249.594 224.357 249.475 224.493 249.392 224.66C249.309 224.828 249.268 225.008 249.268 225.199V225.507C249.268 225.77 249.313 225.993 249.404 226.176C249.496 226.357 249.623 226.495 249.786 226.59C249.95 226.684 250.139 226.731 250.355 226.731C250.496 226.731 250.622 226.711 250.736 226.672C250.851 226.631 250.949 226.571 251.033 226.491C251.116 226.409 251.18 226.308 251.225 226.187L251.742 226.332C251.687 226.507 251.596 226.661 251.468 226.794C251.339 226.926 251.181 227.028 250.992 227.102C250.803 227.175 250.591 227.211 250.355 227.211ZM252.609 228.444V223.659H253.126V224.212H253.189C253.229 224.151 253.283 224.074 253.352 223.981C253.423 223.885 253.525 223.801 253.656 223.727C253.789 223.651 253.969 223.614 254.195 223.614C254.488 223.614 254.746 223.687 254.97 223.833C255.194 223.98 255.368 224.187 255.493 224.456C255.619 224.725 255.681 225.042 255.681 225.408C255.681 225.776 255.619 226.096 255.493 226.366C255.368 226.635 255.194 226.843 254.972 226.991C254.75 227.138 254.494 227.211 254.204 227.211C253.981 227.211 253.802 227.174 253.667 227.1C253.533 227.025 253.429 226.939 253.357 226.844C253.284 226.747 253.229 226.667 253.189 226.604H253.144V228.444H252.609ZM253.135 225.399C253.135 225.662 253.173 225.893 253.25 226.094C253.328 226.294 253.44 226.45 253.588 226.563C253.736 226.675 253.917 226.731 254.132 226.731C254.355 226.731 254.542 226.672 254.691 226.554C254.842 226.435 254.956 226.275 255.031 226.074C255.108 225.871 255.147 225.646 255.147 225.399C255.147 225.154 255.109 224.934 255.033 224.737C254.959 224.539 254.847 224.383 254.696 224.268C254.546 224.152 254.358 224.094 254.132 224.094C253.914 224.094 253.732 224.149 253.584 224.259C253.436 224.368 253.324 224.52 253.248 224.717C253.173 224.912 253.135 225.139 253.135 225.399Z" fill="#969696"/>
<path d="M273.97 224.819C273.97 225.308 273.882 225.731 273.705 226.087C273.528 226.444 273.286 226.719 272.978 226.912C272.67 227.105 272.318 227.202 271.922 227.202C271.526 227.202 271.175 227.105 270.866 226.912C270.558 226.719 270.316 226.444 270.139 226.087C269.963 225.731 269.874 225.308 269.874 224.819C269.874 224.329 269.963 223.907 270.139 223.55C270.316 223.194 270.558 222.919 270.866 222.725C271.175 222.532 271.526 222.435 271.922 222.435C272.318 222.435 272.67 222.532 272.978 222.725C273.286 222.919 273.528 223.194 273.705 223.55C273.882 223.907 273.97 224.329 273.97 224.819ZM273.427 224.819C273.427 224.417 273.359 224.078 273.225 223.802C273.092 223.525 272.911 223.316 272.683 223.174C272.457 223.032 272.203 222.961 271.922 222.961C271.641 222.961 271.387 223.032 271.159 223.174C270.932 223.316 270.752 223.525 270.617 223.802C270.484 224.078 270.418 224.417 270.418 224.819C270.418 225.221 270.484 225.56 270.617 225.836C270.752 226.112 270.932 226.322 271.159 226.464C271.387 226.606 271.641 226.677 271.922 226.677C272.203 226.677 272.457 226.606 272.683 226.464C272.911 226.322 273.092 226.112 273.225 225.836C273.359 225.56 273.427 225.221 273.427 224.819ZM276.256 227.211C275.93 227.211 275.649 227.134 275.413 226.98C275.178 226.826 274.997 226.614 274.87 226.343C274.743 226.073 274.679 225.764 274.679 225.417C274.679 225.063 274.744 224.752 274.874 224.481C275.006 224.209 275.188 223.997 275.422 223.845C275.658 223.691 275.933 223.614 276.247 223.614C276.492 223.614 276.712 223.659 276.909 223.749C277.105 223.84 277.266 223.967 277.391 224.13C277.517 224.293 277.594 224.483 277.625 224.701H277.09C277.049 224.542 276.958 224.402 276.818 224.28C276.679 224.156 276.492 224.094 276.256 224.094C276.048 224.094 275.865 224.148 275.708 224.257C275.552 224.364 275.431 224.516 275.343 224.712C275.257 224.907 275.214 225.136 275.214 225.399C275.214 225.668 275.256 225.902 275.341 226.101C275.427 226.3 275.548 226.455 275.703 226.565C275.86 226.676 276.045 226.731 276.256 226.731C276.395 226.731 276.521 226.707 276.635 226.658C276.748 226.61 276.844 226.541 276.922 226.45C277.001 226.359 277.057 226.251 277.09 226.124H277.625C277.594 226.329 277.52 226.514 277.4 226.679C277.282 226.842 277.126 226.972 276.931 227.068C276.738 227.164 276.513 227.211 276.256 227.211ZM279.92 223.659V224.112H278.116V223.659H279.92ZM278.642 222.825H279.176V226.142C279.176 226.293 279.198 226.406 279.242 226.482C279.287 226.556 279.345 226.606 279.414 226.631C279.485 226.655 279.56 226.667 279.639 226.667C279.698 226.667 279.746 226.664 279.784 226.658C279.821 226.651 279.852 226.645 279.874 226.64L279.983 227.121C279.947 227.134 279.896 227.148 279.831 227.161C279.766 227.176 279.684 227.184 279.584 227.184C279.433 227.184 279.285 227.152 279.14 227.087C278.997 227.022 278.877 226.923 278.782 226.79C278.689 226.657 278.642 226.489 278.642 226.287V222.825Z" fill="#969696"/>
<path d="M298.278 222.499V227.139H297.734L295.206 223.496H295.16V227.139H294.598V222.499H295.142L297.68 226.151H297.725V222.499H298.278ZM300.743 227.211C300.429 227.211 300.153 227.136 299.916 226.987C299.681 226.837 299.496 226.628 299.363 226.359C299.232 226.09 299.166 225.776 299.166 225.417C299.166 225.054 299.232 224.738 299.363 224.468C299.496 224.197 299.681 223.987 299.916 223.838C300.153 223.688 300.429 223.614 300.743 223.614C301.057 223.614 301.332 223.688 301.568 223.838C301.805 223.987 301.989 224.197 302.121 224.468C302.253 224.738 302.32 225.054 302.32 225.417C302.32 225.776 302.253 226.09 302.121 226.359C301.989 226.628 301.805 226.837 301.568 226.987C301.332 227.136 301.057 227.211 300.743 227.211ZM300.743 226.731C300.982 226.731 301.178 226.67 301.332 226.547C301.486 226.425 301.6 226.264 301.674 226.065C301.748 225.865 301.785 225.649 301.785 225.417C301.785 225.184 301.748 224.968 301.674 224.767C301.6 224.566 301.486 224.403 301.332 224.28C301.178 224.156 300.982 224.094 300.743 224.094C300.504 224.094 300.308 224.156 300.154 224.28C300 224.403 299.886 224.566 299.812 224.767C299.738 224.968 299.701 225.184 299.701 225.417C299.701 225.649 299.738 225.865 299.812 226.065C299.886 226.264 300 226.425 300.154 226.547C300.308 226.67 300.504 226.731 300.743 226.731ZM305.857 223.659L304.57 227.139H304.026L302.74 223.659H303.32L304.28 226.432H304.316L305.277 223.659H305.857Z" fill="#969696"/>
<path d="M321.808 227.139H320.377V222.499H321.872C322.322 222.499 322.707 222.592 323.027 222.778C323.347 222.962 323.593 223.227 323.764 223.573C323.934 223.917 324.02 224.329 324.02 224.81C324.02 225.293 323.933 225.709 323.761 226.058C323.589 226.405 323.338 226.673 323.009 226.86C322.68 227.046 322.28 227.139 321.808 227.139ZM320.938 226.64H321.772C322.156 226.64 322.474 226.566 322.726 226.418C322.978 226.27 323.166 226.06 323.29 225.786C323.414 225.513 323.476 225.187 323.476 224.81C323.476 224.435 323.415 224.113 323.292 223.842C323.17 223.57 322.987 223.362 322.744 223.217C322.501 223.071 322.198 222.997 321.836 222.997H320.938V226.64ZM326.349 227.211C326.013 227.211 325.724 227.137 325.481 226.989C325.239 226.84 325.053 226.631 324.921 226.364C324.791 226.095 324.726 225.782 324.726 225.426C324.726 225.069 324.791 224.755 324.921 224.483C325.053 224.21 325.235 223.997 325.47 223.845C325.705 223.691 325.98 223.614 326.294 223.614C326.475 223.614 326.654 223.644 326.831 223.704C327.008 223.765 327.169 223.863 327.314 223.999C327.459 224.133 327.574 224.311 327.66 224.533C327.746 224.755 327.789 225.029 327.789 225.353V225.58H325.107V225.118H327.246C327.246 224.921 327.206 224.746 327.128 224.592C327.051 224.438 326.941 224.317 326.797 224.227C326.655 224.138 326.487 224.094 326.294 224.094C326.081 224.094 325.897 224.147 325.741 224.252C325.587 224.357 325.469 224.493 325.386 224.66C325.303 224.828 325.261 225.008 325.261 225.199V225.507C325.261 225.77 325.306 225.993 325.397 226.176C325.489 226.357 325.617 226.495 325.78 226.59C325.943 226.684 326.133 226.731 326.349 226.731C326.489 226.731 326.616 226.711 326.729 226.672C326.844 226.631 326.943 226.571 327.026 226.491C327.109 226.409 327.173 226.308 327.218 226.187L327.735 226.332C327.681 226.507 327.589 226.661 327.461 226.794C327.333 226.926 327.174 227.028 326.985 227.102C326.796 227.175 326.584 227.211 326.349 227.211ZM330.016 227.211C329.69 227.211 329.409 227.134 329.174 226.98C328.938 226.826 328.757 226.614 328.63 226.343C328.503 226.073 328.44 225.764 328.44 225.417C328.44 225.063 328.505 224.752 328.634 224.481C328.766 224.209 328.949 223.997 329.183 223.845C329.418 223.691 329.693 223.614 330.007 223.614C330.252 223.614 330.473 223.659 330.669 223.749C330.865 223.84 331.026 223.967 331.151 224.13C331.277 224.293 331.355 224.483 331.385 224.701H330.85C330.809 224.542 330.719 224.402 330.578 224.28C330.439 224.156 330.252 224.094 330.016 224.094C329.808 224.094 329.625 224.148 329.468 224.257C329.313 224.364 329.191 224.516 329.103 224.712C329.017 224.907 328.974 225.136 328.974 225.399C328.974 225.668 329.017 225.902 329.101 226.101C329.187 226.3 329.308 226.455 329.464 226.565C329.621 226.676 329.805 226.731 330.016 226.731C330.155 226.731 330.281 226.707 330.395 226.658C330.508 226.61 330.604 226.541 330.682 226.45C330.761 226.359 330.817 226.251 330.85 226.124H331.385C331.355 226.329 331.28 226.514 331.161 226.679C331.043 226.842 330.886 226.972 330.692 227.068C330.498 227.164 330.273 227.211 330.016 227.211Z" fill="#969696"/>
<path d="M18.8531 76.7593L20.9283 72.6541V72.6179H18.5359V72.1195H21.5083V72.6451L19.4421 76.7593H18.8531ZM23.7664 76.8227C23.4251 76.8227 23.1344 76.7298 22.8942 76.5441C22.6541 76.3568 22.4706 76.0857 22.3437 75.7307C22.2168 75.3743 22.1534 74.9438 22.1534 74.4394C22.1534 73.9379 22.2168 73.5098 22.3437 73.1548C22.4721 72.7984 22.6563 72.5265 22.8965 72.3392C23.1381 72.1504 23.4281 72.056 23.7664 72.056C24.1048 72.056 24.394 72.1504 24.6341 72.3392C24.8758 72.5265 25.0601 72.7984 25.1869 73.1548C25.3153 73.5098 25.3795 73.9379 25.3795 74.4394C25.3795 74.9438 25.3161 75.3743 25.1892 75.7307C25.0623 76.0857 24.8788 76.3568 24.6387 76.5441C24.3985 76.7298 24.1078 76.8227 23.7664 76.8227ZM23.7664 76.3243C24.1048 76.3243 24.3676 76.1612 24.5549 75.8349C24.7421 75.5087 24.8358 75.0435 24.8358 74.4394C24.8358 74.0376 24.7927 73.6955 24.7066 73.4131C24.6221 73.1307 24.4997 72.9154 24.3396 72.7674C24.181 72.6194 23.99 72.5454 23.7664 72.5454C23.4312 72.5454 23.1691 72.7108 22.9803 73.0415C22.7915 73.3708 22.6971 73.8367 22.6971 74.4394C22.6971 74.8411 22.7394 75.1825 22.824 75.4634C22.9086 75.7443 23.0302 75.958 23.1887 76.1045C23.3488 76.251 23.5414 76.3243 23.7664 76.3243ZM27.7538 76.8227C27.4124 76.8227 27.1217 76.7298 26.8816 76.5441C26.6414 76.3568 26.4579 76.0857 26.331 75.7307C26.2042 75.3743 26.1407 74.9438 26.1407 74.4394C26.1407 73.9379 26.2042 73.5098 26.331 73.1548C26.4594 72.7984 26.6437 72.5265 26.8838 72.3392C27.1255 72.1504 27.4155 72.056 27.7538 72.056C28.0921 72.056 28.3813 72.1504 28.6215 72.3392C28.8631 72.5265 29.0474 72.7984 29.1743 73.1548C29.3026 73.5098 29.3668 73.9379 29.3668 74.4394C29.3668 74.9438 29.3034 75.3743 29.1765 75.7307C29.0497 76.0857 28.8662 76.3568 28.626 76.5441C28.3859 76.7298 28.0951 76.8227 27.7538 76.8227ZM27.7538 76.3243C28.0921 76.3243 28.3549 76.1612 28.5422 75.8349C28.7295 75.5087 28.8231 75.0435 28.8231 74.4394C28.8231 74.0376 28.7801 73.6955 28.694 73.4131C28.6094 73.1307 28.4871 72.9154 28.327 72.7674C28.1684 72.6194 27.9773 72.5454 27.7538 72.5454C27.4185 72.5454 27.1564 72.7108 26.9676 73.0415C26.7788 73.3708 26.6845 73.8367 26.6845 74.4394C26.6845 74.8411 26.7267 75.1825 26.8113 75.4634C26.8959 75.7443 27.0175 75.958 27.1761 76.1045C27.3362 76.251 27.5287 76.3243 27.7538 76.3243Z" fill="#969696"/>
<path d="M20.2708 98.6709C20.0805 98.6678 19.8902 98.6316 19.6999 98.5621C19.5096 98.4926 19.3359 98.3756 19.1788 98.211C19.0217 98.0448 18.8956 97.8205 18.8004 97.5381C18.7053 97.2541 18.6577 96.8977 18.6577 96.4688C18.6577 96.0579 18.6962 95.694 18.7733 95.3768C18.8503 95.0581 18.962 94.79 19.1086 94.5725C19.2551 94.3535 19.4318 94.1874 19.6387 94.0741C19.8471 93.9608 20.082 93.9042 20.3433 93.9042C20.603 93.9042 20.8341 93.9563 21.0365 94.0605C21.2404 94.1632 21.4066 94.3067 21.5349 94.491C21.6633 94.6752 21.7464 94.8874 21.7841 95.1276H21.2314C21.18 94.9191 21.0803 94.7462 20.9323 94.6088C20.7843 94.4713 20.5879 94.4026 20.3433 94.4026C19.9838 94.4026 19.7006 94.5589 19.4937 94.8716C19.2883 95.1842 19.1848 95.623 19.1833 96.1878H19.2196C19.3041 96.0595 19.4046 95.95 19.5209 95.8593C19.6387 95.7672 19.7686 95.6962 19.9106 95.6464C20.0525 95.5965 20.2028 95.5716 20.3614 95.5716C20.6272 95.5716 20.8704 95.6381 21.0909 95.771C21.3114 95.9024 21.4881 96.0844 21.621 96.317C21.7539 96.5481 21.8204 96.8131 21.8204 97.1122C21.8204 97.3991 21.7562 97.6619 21.6278 97.9006C21.4994 98.1377 21.319 98.3265 21.0864 98.467C20.8553 98.6059 20.5834 98.6739 20.2708 98.6709ZM20.2708 98.1724C20.4611 98.1724 20.6317 98.1249 20.7828 98.0297C20.9353 97.9346 21.0554 97.8069 21.143 97.6468C21.2321 97.4867 21.2767 97.3085 21.2767 97.1122C21.2767 96.9204 21.2336 96.7459 21.1475 96.5888C21.0629 96.4302 20.9459 96.3041 20.7964 96.2105C20.6484 96.1169 20.4792 96.07 20.2889 96.07C20.1454 96.07 20.0117 96.0987 19.8879 96.1561C19.764 96.212 19.6553 96.289 19.5617 96.3872C19.4695 96.4854 19.397 96.5979 19.3442 96.7248C19.2913 96.8501 19.2649 96.9823 19.2649 97.1212C19.2649 97.3055 19.3079 97.4777 19.394 97.6378C19.4816 97.7979 19.6009 97.927 19.752 98.0252C19.9045 98.1234 20.0774 98.1724 20.2708 98.1724ZM24.2247 98.6709C23.8833 98.6709 23.5926 98.578 23.3525 98.3922C23.1123 98.2049 22.9288 97.9338 22.8019 97.5789C22.6751 97.2224 22.6116 96.792 22.6116 96.2875C22.6116 95.7861 22.6751 95.3579 22.8019 95.003C22.9303 94.6465 23.1146 94.3747 23.3547 94.1874C23.5964 93.9986 23.8864 93.9042 24.2247 93.9042C24.563 93.9042 24.8522 93.9986 25.0924 94.1874C25.334 94.3747 25.5183 94.6465 25.6452 95.003C25.7735 95.3579 25.8377 95.7861 25.8377 96.2875C25.8377 96.792 25.7743 97.2224 25.6474 97.5789C25.5206 97.9338 25.3371 98.2049 25.0969 98.3922C24.8568 98.578 24.566 98.6709 24.2247 98.6709ZM24.2247 98.1724C24.563 98.1724 24.8258 98.0093 25.0131 97.6831C25.2004 97.3569 25.294 96.8917 25.294 96.2875C25.294 95.8858 25.251 95.5437 25.1649 95.2612C25.0803 94.9788 24.958 94.7636 24.7979 94.6156C24.6393 94.4675 24.4482 94.3935 24.2247 94.3935C23.8894 94.3935 23.6273 94.5589 23.4385 94.8897C23.2498 95.2189 23.1554 95.6849 23.1554 96.2875C23.1554 96.6893 23.1976 97.0306 23.2822 97.3115C23.3668 97.5925 23.4884 97.8062 23.647 97.9527C23.8071 98.0992 23.9996 98.1724 24.2247 98.1724ZM28.212 98.6709C27.8707 98.6709 27.5799 98.578 27.3398 98.3922C27.0996 98.2049 26.9161 97.9338 26.7893 97.5789C26.6624 97.2224 26.599 96.792 26.599 96.2875C26.599 95.7861 26.6624 95.3579 26.7893 95.003C26.9176 94.6465 27.1019 94.3747 27.3421 94.1874C27.5837 93.9986 27.8737 93.9042 28.212 93.9042C28.5503 93.9042 28.8396 93.9986 29.0797 94.1874C29.3214 94.3747 29.5056 94.6465 29.6325 95.003C29.7609 95.3579 29.8251 95.7861 29.8251 96.2875C29.8251 96.792 29.7616 97.2224 29.6348 97.5789C29.5079 97.9338 29.3244 98.2049 29.0842 98.3922C28.8441 98.578 28.5534 98.6709 28.212 98.6709ZM28.212 98.1724C28.5503 98.1724 28.8131 98.0093 29.0004 97.6831C29.1877 97.3569 29.2813 96.8917 29.2813 96.2875C29.2813 95.8858 29.2383 95.5437 29.1522 95.2612C29.0676 94.9788 28.9453 94.7636 28.7852 94.6156C28.6266 94.4675 28.4355 94.3935 28.212 94.3935C27.8767 94.3935 27.6147 94.5589 27.4259 94.8897C27.2371 95.2189 27.1427 95.6849 27.1427 96.2875C27.1427 96.6893 27.185 97.0306 27.2696 97.3115C27.3541 97.5925 27.4757 97.8062 27.6343 97.9527C27.7944 98.0992 27.987 98.1724 28.212 98.1724Z" fill="#969696"/>
<path d="M20.23 120.519C19.9642 120.519 19.7248 120.466 19.5118 120.36C19.2989 120.254 19.1282 120.109 18.9998 119.925C18.8714 119.741 18.8012 119.531 18.7891 119.295H19.3328C19.354 119.505 19.4491 119.679 19.6183 119.816C19.789 119.952 19.9929 120.02 20.23 120.02C20.4203 120.02 20.5895 119.976 20.7375 119.887C20.887 119.798 21.004 119.675 21.0886 119.52C21.1747 119.363 21.2178 119.185 21.2178 118.987C21.2178 118.785 21.1732 118.604 21.0841 118.446C20.9965 118.286 20.8757 118.16 20.7216 118.067C20.5676 117.975 20.3916 117.929 20.1937 117.927C20.0518 117.925 19.906 117.947 19.7565 117.993C19.607 118.036 19.4839 118.093 19.3872 118.163L18.8616 118.099L19.1425 115.816H21.5531V116.314H19.6138L19.4506 117.682H19.4778C19.573 117.607 19.6923 117.544 19.8358 117.494C19.9793 117.444 20.1288 117.42 20.2844 117.42C20.5683 117.42 20.8213 117.487 21.0433 117.623C21.2668 117.758 21.442 117.942 21.5689 118.176C21.6973 118.41 21.7615 118.678 21.7615 118.978C21.7615 119.274 21.695 119.539 21.5621 119.771C21.4307 120.002 21.2495 120.185 21.0184 120.319C20.7873 120.452 20.5245 120.519 20.23 120.519ZM24.1748 120.519C23.8335 120.519 23.5428 120.426 23.3026 120.24C23.0625 120.053 22.879 119.782 22.7521 119.427C22.6252 119.07 22.5618 118.64 22.5618 118.135C22.5618 117.634 22.6252 117.206 22.7521 116.851C22.8805 116.494 23.0647 116.223 23.3049 116.035C23.5465 115.846 23.8365 115.752 24.1748 115.752C24.5132 115.752 24.8024 115.846 25.0425 116.035C25.2842 116.223 25.4685 116.494 25.5953 116.851C25.7237 117.206 25.7879 117.634 25.7879 118.135C25.7879 118.64 25.7245 119.07 25.5976 119.427C25.4707 119.782 25.2872 120.053 25.0471 120.24C24.8069 120.426 24.5162 120.519 24.1748 120.519ZM24.1748 120.02C24.5132 120.02 24.776 119.857 24.9632 119.531C25.1505 119.205 25.2442 118.74 25.2442 118.135C25.2442 117.734 25.2011 117.392 25.115 117.109C25.0305 116.827 24.9081 116.611 24.748 116.463C24.5894 116.315 24.3984 116.241 24.1748 116.241C23.8395 116.241 23.5775 116.407 23.3887 116.738C23.1999 117.067 23.1055 117.533 23.1055 118.135C23.1055 118.537 23.1478 118.879 23.2324 119.159C23.317 119.44 23.4385 119.654 23.5971 119.801C23.7572 119.947 23.9498 120.02 24.1748 120.02ZM28.1622 120.519C27.8208 120.519 27.5301 120.426 27.2899 120.24C27.0498 120.053 26.8663 119.782 26.7394 119.427C26.6126 119.07 26.5491 118.64 26.5491 118.135C26.5491 117.634 26.6126 117.206 26.7394 116.851C26.8678 116.494 27.0521 116.223 27.2922 116.035C27.5339 115.846 27.8239 115.752 28.1622 115.752C28.5005 115.752 28.7897 115.846 29.0299 116.035C29.2715 116.223 29.4558 116.494 29.5827 116.851C29.711 117.206 29.7752 117.634 29.7752 118.135C29.7752 118.64 29.7118 119.07 29.5849 119.427C29.4581 119.782 29.2745 120.053 29.0344 120.24C28.7943 120.426 28.5035 120.519 28.1622 120.519ZM28.1622 120.02C28.5005 120.02 28.7633 119.857 28.9506 119.531C29.1379 119.205 29.2315 118.74 29.2315 118.135C29.2315 117.734 29.1885 117.392 29.1024 117.109C29.0178 116.827 28.8954 116.611 28.7354 116.463C28.5768 116.315 28.3857 116.241 28.1622 116.241C27.8269 116.241 27.5648 116.407 27.376 116.738C27.1872 117.067 27.0928 117.533 27.0928 118.135C27.0928 118.537 27.1351 118.879 27.2197 119.159C27.3043 119.44 27.4259 119.654 27.5845 119.801C27.7446 119.947 27.9371 120.02 28.1622 120.02Z" fill="#969696"/>
<path d="M19.0654 141.352V140.89L21.1044 137.664H21.4397V138.38H21.2131L19.6726 140.817V140.854H22.4184V141.352H19.0654ZM21.2494 142.303V141.211V140.996V137.664H21.784V142.303H21.2494ZM24.7808 142.367C24.4394 142.367 24.1487 142.274 23.9085 142.088C23.6684 141.901 23.4849 141.63 23.358 141.275C23.2311 140.918 23.1677 140.488 23.1677 139.984C23.1677 139.482 23.2311 139.054 23.358 138.699C23.4864 138.343 23.6706 138.071 23.9108 137.883C24.1524 137.695 24.4424 137.6 24.7808 137.6C25.1191 137.6 25.4083 137.695 25.6485 137.883C25.8901 138.071 26.0744 138.343 26.2012 138.699C26.3296 139.054 26.3938 139.482 26.3938 139.984C26.3938 140.488 26.3304 140.918 26.2035 141.275C26.0766 141.63 25.8931 141.901 25.653 142.088C25.4128 142.274 25.1221 142.367 24.7808 142.367ZM24.7808 141.868C25.1191 141.868 25.3819 141.705 25.5692 141.379C25.7564 141.053 25.8501 140.588 25.8501 139.984C25.8501 139.582 25.807 139.24 25.7209 138.957C25.6364 138.675 25.514 138.46 25.3539 138.312C25.1953 138.164 25.0043 138.09 24.7808 138.09C24.4455 138.09 24.1834 138.255 23.9946 138.586C23.8058 138.915 23.7114 139.381 23.7114 139.984C23.7114 140.385 23.7537 140.727 23.8383 141.008C23.9229 141.289 24.0445 141.502 24.203 141.649C24.3631 141.795 24.5557 141.868 24.7808 141.868ZM28.7681 142.367C28.4267 142.367 28.136 142.274 27.8959 142.088C27.6557 141.901 27.4722 141.63 27.3453 141.275C27.2185 140.918 27.155 140.488 27.155 139.984C27.155 139.482 27.2185 139.054 27.3453 138.699C27.4737 138.343 27.658 138.071 27.8981 137.883C28.1398 137.695 28.4298 137.6 28.7681 137.6C29.1064 137.6 29.3956 137.695 29.6358 137.883C29.8774 138.071 30.0617 138.343 30.1886 138.699C30.317 139.054 30.3811 139.482 30.3811 139.984C30.3811 140.488 30.3177 140.918 30.1908 141.275C30.064 141.63 29.8805 141.901 29.6403 142.088C29.4002 142.274 29.1094 142.367 28.7681 142.367ZM28.7681 141.868C29.1064 141.868 29.3692 141.705 29.5565 141.379C29.7438 141.053 29.8374 140.588 29.8374 139.984C29.8374 139.582 29.7944 139.24 29.7083 138.957C29.6237 138.675 29.5014 138.46 29.3413 138.312C29.1827 138.164 28.9916 138.09 28.7681 138.09C28.4328 138.09 28.1707 138.255 27.9819 138.586C27.7932 138.915 27.6988 139.381 27.6988 139.984C27.6988 140.385 27.741 140.727 27.8256 141.008C27.9102 141.289 28.0318 141.502 28.1904 141.649C28.3505 141.795 28.543 141.868 28.7681 141.868Z" fill="#969696"/>
<path d="M20.7575 164.215C20.4584 164.215 20.1918 164.164 19.9577 164.061C19.7251 163.958 19.5401 163.816 19.4027 163.633C19.2667 163.449 19.1927 163.235 19.1807 162.992H19.7516C19.7636 163.141 19.815 163.27 19.9056 163.379C19.9962 163.486 20.1148 163.569 20.2613 163.628C20.4078 163.687 20.5702 163.717 20.7484 163.717C20.9478 163.717 21.1245 163.682 21.2785 163.612C21.4326 163.543 21.5534 163.446 21.641 163.322C21.7286 163.199 21.7724 163.055 21.7724 162.892C21.7724 162.721 21.7301 162.571 21.6455 162.441C21.561 162.31 21.4371 162.207 21.274 162.133C21.1109 162.059 20.9115 162.022 20.6759 162.022H20.3044V161.524H20.6759C20.8602 161.524 21.0218 161.49 21.1607 161.424C21.3012 161.357 21.4107 161.264 21.4892 161.143C21.5693 161.022 21.6093 160.88 21.6093 160.717C21.6093 160.56 21.5746 160.423 21.5051 160.307C21.4356 160.191 21.3374 160.1 21.2106 160.035C21.0852 159.97 20.9372 159.938 20.7665 159.938C20.6064 159.938 20.4554 159.967 20.3134 160.026C20.173 160.083 20.0582 160.167 19.9691 160.278C19.8799 160.386 19.8316 160.518 19.8241 160.672H19.2803C19.2894 160.429 19.3626 160.216 19.5001 160.033C19.6375 159.849 19.8173 159.705 20.0393 159.602C20.2628 159.5 20.5083 159.448 20.7756 159.448C21.0626 159.448 21.3087 159.507 21.5141 159.623C21.7196 159.738 21.8774 159.889 21.9876 160.078C22.0979 160.267 22.153 160.471 22.153 160.69C22.153 160.951 22.0843 161.174 21.9469 161.358C21.8109 161.542 21.6259 161.67 21.3918 161.741V161.777C21.6848 161.826 21.9136 161.95 22.0783 162.151C22.2429 162.351 22.3252 162.597 22.3252 162.892C22.3252 163.144 22.2565 163.371 22.119 163.572C21.9831 163.771 21.7973 163.928 21.5617 164.043C21.3261 164.158 21.058 164.215 20.7575 164.215ZM24.7652 164.215C24.4238 164.215 24.1331 164.122 23.893 163.936C23.6528 163.749 23.4693 163.478 23.3424 163.123C23.2156 162.767 23.1521 162.336 23.1521 161.832C23.1521 161.33 23.2156 160.902 23.3424 160.547C23.4708 160.191 23.6551 159.919 23.8952 159.732C24.1369 159.543 24.4269 159.448 24.7652 159.448C25.1035 159.448 25.3927 159.543 25.6329 159.732C25.8745 159.919 26.0588 160.191 26.1857 160.547C26.314 160.902 26.3782 161.33 26.3782 161.832C26.3782 162.336 26.3148 162.767 26.1879 163.123C26.0611 163.478 25.8776 163.749 25.6374 163.936C25.3973 164.122 25.1065 164.215 24.7652 164.215ZM24.7652 163.717C25.1035 163.717 25.3663 163.554 25.5536 163.227C25.7409 162.901 25.8345 162.436 25.8345 161.832C25.8345 161.43 25.7915 161.088 25.7054 160.805C25.6208 160.523 25.4985 160.308 25.3384 160.16C25.1798 160.012 24.9887 159.938 24.7652 159.938C24.4299 159.938 24.1678 160.103 23.979 160.434C23.7902 160.763 23.6959 161.229 23.6959 161.832C23.6959 162.233 23.7381 162.575 23.8227 162.856C23.9073 163.137 24.0289 163.35 24.1875 163.497C24.3476 163.643 24.5401 163.717 24.7652 163.717ZM28.7525 164.215C28.4112 164.215 28.1204 164.122 27.8803 163.936C27.6401 163.749 27.4566 163.478 27.3298 163.123C27.2029 162.767 27.1395 162.336 27.1395 161.832C27.1395 161.33 27.2029 160.902 27.3298 160.547C27.4581 160.191 27.6424 159.919 27.8825 159.732C28.1242 159.543 28.4142 159.448 28.7525 159.448C29.0908 159.448 29.3801 159.543 29.6202 159.732C29.8619 159.919 30.0461 160.191 30.173 160.547C30.3014 160.902 30.3656 161.33 30.3656 161.832C30.3656 162.336 30.3021 162.767 30.1753 163.123C30.0484 163.478 29.8649 163.749 29.6247 163.936C29.3846 164.122 29.0939 164.215 28.7525 164.215ZM28.7525 163.717C29.0908 163.717 29.3536 163.554 29.5409 163.227C29.7282 162.901 29.8218 162.436 29.8218 161.832C29.8218 161.43 29.7788 161.088 29.6927 160.805C29.6081 160.523 29.4858 160.308 29.3257 160.16C29.1671 160.012 28.976 159.938 28.7525 159.938C28.4172 159.938 28.1552 160.103 27.9664 160.434C27.7776 160.763 27.6832 161.229 27.6832 161.832C27.6832 162.233 27.7255 162.575 27.8101 162.856C27.8946 163.137 28.0162 163.35 28.1748 163.497C28.3349 163.643 28.5275 163.717 28.7525 163.717Z" fill="#969696"/>
<path d="M18.7894 186V185.592L20.3209 183.915C20.5006 183.719 20.6486 183.548 20.7649 183.403C20.8812 183.257 20.9673 183.119 21.0232 182.991C21.0806 182.861 21.1093 182.725 21.1093 182.583C21.1093 182.42 21.07 182.279 20.9915 182.159C20.9145 182.04 20.8087 181.948 20.6743 181.883C20.5399 181.818 20.3889 181.786 20.2212 181.786C20.043 181.786 19.8874 181.823 19.7545 181.897C19.6231 181.969 19.5212 182.071 19.4487 182.202C19.3777 182.334 19.3422 182.488 19.3422 182.665H18.8075C18.8075 182.393 18.8702 182.154 18.9956 181.949C19.1209 181.743 19.2916 181.583 19.5076 181.468C19.7251 181.354 19.969 181.296 20.2393 181.296C20.5112 181.296 20.7521 181.354 20.962 181.468C21.172 181.583 21.3366 181.738 21.4559 181.933C21.5752 182.128 21.6349 182.344 21.6349 182.583C21.6349 182.754 21.6039 182.921 21.542 183.084C21.4816 183.245 21.3759 183.426 21.2248 183.625C21.0753 183.823 20.8676 184.065 20.6018 184.35L19.5597 185.465V185.501H21.7165V186H18.7894ZM24.1655 186.063C23.8242 186.063 23.5334 185.97 23.2933 185.784C23.0531 185.597 22.8696 185.326 22.7427 184.971C22.6159 184.615 22.5524 184.184 22.5524 183.68C22.5524 183.178 22.6159 182.75 22.7427 182.395C22.8711 182.039 23.0554 181.767 23.2955 181.579C23.5372 181.391 23.8272 181.296 24.1655 181.296C24.5038 181.296 24.793 181.391 25.0332 181.579C25.2749 181.767 25.4591 182.039 25.586 182.395C25.7144 182.75 25.7786 183.178 25.7786 183.68C25.7786 184.184 25.7151 184.615 25.5882 184.971C25.4614 185.326 25.2779 185.597 25.0377 185.784C24.7976 185.97 24.5068 186.063 24.1655 186.063ZM24.1655 185.565C24.5038 185.565 24.7666 185.401 24.9539 185.075C25.1412 184.749 25.2348 184.284 25.2348 183.68C25.2348 183.278 25.1918 182.936 25.1057 182.653C25.0211 182.371 24.8988 182.156 24.7387 182.008C24.5801 181.86 24.389 181.786 24.1655 181.786C23.8302 181.786 23.5682 181.951 23.3794 182.282C23.1906 182.611 23.0962 183.077 23.0962 183.68C23.0962 184.081 23.1385 184.423 23.223 184.704C23.3076 184.985 23.4292 185.198 23.5878 185.345C23.7479 185.491 23.9405 185.565 24.1655 185.565ZM28.1528 186.063C27.8115 186.063 27.5207 185.97 27.2806 185.784C27.0405 185.597 26.8569 185.326 26.7301 184.971C26.6032 184.615 26.5398 184.184 26.5398 183.68C26.5398 183.178 26.6032 182.75 26.7301 182.395C26.8585 182.039 27.0427 181.767 27.2829 181.579C27.5245 181.391 27.8145 181.296 28.1528 181.296C28.4911 181.296 28.7804 181.391 29.0205 181.579C29.2622 181.767 29.4464 182.039 29.5733 182.395C29.7017 182.75 29.7659 183.178 29.7659 183.68C29.7659 184.184 29.7024 184.615 29.5756 184.971C29.4487 185.326 29.2652 185.597 29.0251 185.784C28.7849 185.97 28.4942 186.063 28.1528 186.063ZM28.1528 185.565C28.4911 185.565 28.7539 185.401 28.9412 185.075C29.1285 184.749 29.2222 184.284 29.2222 183.68C29.2222 183.278 29.1791 182.936 29.093 182.653C29.0084 182.371 28.8861 182.156 28.726 182.008C28.5674 181.86 28.3764 181.786 28.1528 181.786C27.8175 181.786 27.5555 181.951 27.3667 182.282C27.1779 182.611 27.0835 183.077 27.0835 183.68C27.0835 184.081 27.1258 184.423 27.2104 184.704C27.2949 184.985 27.4165 185.198 27.5751 185.345C27.7352 185.491 27.9278 185.565 28.1528 185.565Z" fill="#969696"/>
<path d="M20.399 203.208V207.848H19.8372V203.797H19.81L18.6772 204.549V203.978L19.8372 203.208H20.399ZM23.2468 207.911C22.9055 207.911 22.6147 207.818 22.3746 207.632C22.1344 207.445 21.9509 207.174 21.8241 206.819C21.6972 206.463 21.6337 206.032 21.6337 205.528C21.6337 205.026 21.6972 204.598 21.8241 204.243C21.9524 203.887 22.1367 203.615 22.3768 203.428C22.6185 203.239 22.9085 203.144 23.2468 203.144C23.5851 203.144 23.8744 203.239 24.1145 203.428C24.3562 203.615 24.5404 203.887 24.6673 204.243C24.7957 204.598 24.8599 205.026 24.8599 205.528C24.8599 206.032 24.7964 206.463 24.6696 206.819C24.5427 207.174 24.3592 207.445 24.119 207.632C23.8789 207.818 23.5881 207.911 23.2468 207.911ZM23.2468 207.413C23.5851 207.413 23.8479 207.25 24.0352 206.923C24.2225 206.597 24.3161 206.132 24.3161 205.528C24.3161 205.126 24.2731 204.784 24.187 204.501C24.1024 204.219 23.9801 204.004 23.82 203.856C23.6614 203.708 23.4703 203.634 23.2468 203.634C22.9115 203.634 22.6495 203.799 22.4607 204.13C22.2719 204.459 22.1775 204.925 22.1775 205.528C22.1775 205.93 22.2198 206.271 22.3043 206.552C22.3889 206.833 22.5105 207.046 22.6691 207.193C22.8292 207.339 23.0218 207.413 23.2468 207.413ZM27.2341 207.911C26.8928 207.911 26.6021 207.818 26.3619 207.632C26.1218 207.445 25.9383 207.174 25.8114 206.819C25.6845 206.463 25.6211 206.032 25.6211 205.528C25.6211 205.026 25.6845 204.598 25.8114 204.243C25.9398 203.887 26.124 203.615 26.3642 203.428C26.6058 203.239 26.8958 203.144 27.2341 203.144C27.5725 203.144 27.8617 203.239 28.1018 203.428C28.3435 203.615 28.5278 203.887 28.6546 204.243C28.783 204.598 28.8472 205.026 28.8472 205.528C28.8472 206.032 28.7838 206.463 28.6569 206.819C28.53 207.174 28.3465 207.445 28.1064 207.632C27.8662 207.818 27.5755 207.911 27.2341 207.911ZM27.2341 207.413C27.5725 207.413 27.8353 207.25 28.0225 206.923C28.2098 206.597 28.3035 206.132 28.3035 205.528C28.3035 205.126 28.2604 204.784 28.1743 204.501C28.0897 204.219 27.9674 204.004 27.8073 203.856C27.6487 203.708 27.4577 203.634 27.2341 203.634C26.8988 203.634 26.6368 203.799 26.448 204.13C26.2592 204.459 26.1648 204.925 26.1648 205.528C26.1648 205.93 26.2071 206.271 26.2917 206.552C26.3763 206.833 26.4978 207.046 26.6564 207.193C26.8165 207.339 27.0091 207.413 27.2341 207.413Z" fill="#969696"/>
<line x1="39.6455" y1="80.0124" x2="331.746" y2="80.0124" stroke="#2C2C2C" stroke-width="0.455695"/>
<line x1="39.6455" y1="98.696" x2="331.746" y2="98.696" stroke="#2C2C2C" stroke-width="0.455695"/>
<line x1="39.6455" y1="117.379" x2="331.746" y2="117.379" stroke="#2C2C2C" stroke-width="0.455695"/>
<line x1="39.6455" y1="136.063" x2="331.746" y2="136.063" stroke="#2C2C2C" stroke-width="0.455695"/>
<line x1="39.6455" y1="154.746" x2="331.746" y2="154.746" stroke="#2C2C2C" stroke-width="0.455695"/>
<line x1="39.6455" y1="173.43" x2="331.746" y2="173.43" stroke="#2C2C2C" stroke-width="0.455695"/>
<line x1="39.6455" y1="192.113" x2="331.746" y2="192.113" stroke="#2C2C2C" stroke-width="0.455695"/>
<line x1="39.6455" y1="210.797" x2="331.746" y2="210.797" stroke="#2C2C2C" stroke-width="0.455695"/>
<path d="M101.526 170.663L83.43 163.978C80.7737 162.997 77.9577 162.519 75.1263 162.57L68.6903 162.685C59.7459 162.846 51.7229 168.226 48.1786 176.439L39.6455 196.215V210.569H331.51L331.746 126.721C322.045 133.529 308.735 131.696 301.236 122.52L297.787 118.301C291.12 110.143 279.73 107.62 270.242 112.199L248.246 122.814C247.256 123.292 246.303 123.84 245.393 124.455L212.99 146.347C210.351 148.129 207.368 149.339 204.234 149.898L188.214 152.754C181.184 154.007 173.977 151.852 168.789 146.946C158.01 136.754 140.492 139.587 133.475 152.657L129.496 160.067C124.12 170.081 112.187 174.601 101.526 170.663Z" fill="url(#paint2_linear_1763_8380)" fill-opacity="0.2"/>
<path d="M329.316 126.666C329.316 128.008 330.404 129.096 331.746 129.096C333.088 129.096 334.176 128.008 334.176 126.666C334.176 125.323 333.088 124.235 331.746 124.235C330.404 124.235 329.316 125.323 329.316 126.666ZM301.227 122.464L300.874 122.753L301.227 122.464ZM270.271 112.166L270.074 111.755L270.271 112.166ZM297.779 118.255L297.426 118.544L297.779 118.255ZM245.393 124.405L245.648 124.782L245.393 124.405ZM248.244 122.769L248.442 123.18L248.244 122.769ZM204.937 149.895L205.042 150.339L204.937 149.895ZM212.439 146.613L212.694 146.991L212.439 146.613ZM170.665 147.814L170.358 148.152L170.665 147.814ZM191.222 153.131L191.118 152.687L191.222 153.131ZM133.583 152.337L133.181 152.121L133.583 152.337ZM129.497 159.928L129.898 160.144L129.497 159.928ZM83.2242 163.754L83.0666 164.182L101.398 170.937L101.556 170.509L101.713 170.081L83.3818 163.327L83.2242 163.754ZM129.497 159.928L129.898 160.144L133.984 152.553L133.583 152.337L133.181 152.121L129.095 159.712L129.497 159.928ZM168.972 146.275L168.665 146.613L170.358 148.152L170.665 147.814L170.971 147.477L169.278 145.938L168.972 146.275ZM191.222 153.131L191.327 153.574L205.042 150.339L204.937 149.895L204.833 149.451L191.118 152.687L191.222 153.131ZM212.439 146.613L212.694 146.991L245.648 124.782L245.393 124.405L245.139 124.027L212.185 146.236L212.439 146.613ZM248.244 122.769L248.442 123.18L270.469 112.576L270.271 112.166L270.074 111.755L248.047 122.359L248.244 122.769ZM297.779 118.255L297.426 118.544L300.874 122.753L301.227 122.464L301.579 122.175L298.131 117.967L297.779 118.255ZM39.6455 195.987L40.0625 196.17L48.8832 176.136L48.4662 175.953L48.0491 175.769L39.2284 195.803L39.6455 195.987ZM69.3192 162.349V162.805H75.3463V162.349V161.893H69.3192V162.349ZM48.4662 175.953L48.8832 176.136C52.4503 168.034 60.4668 162.805 69.3192 162.805V162.349V161.893C60.1055 161.893 51.7618 167.336 48.0491 175.769L48.4662 175.953ZM301.227 122.464L300.874 122.753C308.535 132.103 322.105 133.971 332.007 127.039L331.746 126.666L331.485 126.292C321.973 132.951 308.938 131.156 301.579 122.175L301.227 122.464ZM270.271 112.166L270.469 112.576C279.755 108.106 290.894 110.572 297.426 118.544L297.779 118.255L298.131 117.967C291.333 109.669 279.739 107.103 270.074 111.755L270.271 112.166ZM245.393 124.405L245.648 124.782C246.54 124.182 247.473 123.646 248.442 123.18L248.244 122.769L248.047 122.359C247.038 122.844 246.067 123.401 245.139 124.027L245.393 124.405ZM204.937 149.895L205.042 150.339C207.774 149.694 210.367 148.56 212.694 146.991L212.439 146.613L212.185 146.236C209.948 147.743 207.458 148.832 204.833 149.451L204.937 149.895ZM170.665 147.814L170.358 148.152C176.027 153.305 183.871 155.333 191.327 153.574L191.222 153.131L191.118 152.687C183.954 154.377 176.418 152.428 170.971 147.477L170.665 147.814ZM133.583 152.337L133.984 152.553C140.864 139.769 157.923 136.847 168.665 146.613L168.972 146.275L169.278 145.938C158.097 135.774 140.343 138.815 133.181 152.121L133.583 152.337ZM101.556 170.509L101.398 170.937C112.26 174.939 124.412 170.337 129.898 160.144L129.497 159.928L129.095 159.712C123.824 169.506 112.149 173.927 101.713 170.081L101.556 170.509ZM83.2242 163.754L83.3818 163.327C80.8088 162.379 78.0884 161.893 75.3463 161.893V162.349V162.805C77.9808 162.805 80.5946 163.271 83.0666 164.182L83.2242 163.754Z" fill="#01D449"/>
<path d="M19.3761 50.2278V42.5721H22.3619C23.0326 42.5721 23.605 42.6778 24.0789 42.8893C24.5528 43.1007 24.9174 43.4069 25.1726 43.808C25.4278 44.209 25.5554 44.6865 25.5554 45.2407C25.5554 45.7948 25.4278 46.2724 25.1726 46.6734C24.9174 47.0671 24.5528 47.3697 24.0789 47.5811C23.605 47.7925 23.0326 47.8983 22.3619 47.8983H19.9777L20.4698 47.3952V50.2278H19.3761ZM24.4945 50.2278L22.5478 47.4499H23.718L25.6866 50.2278H24.4945ZM20.4698 47.5046L19.9777 46.9687H22.3291C23.029 46.9687 23.5576 46.8192 23.9149 46.5202C24.2794 46.214 24.4617 45.7875 24.4617 45.2407C24.4617 44.6938 24.2794 44.2709 23.9149 43.972C23.5576 43.6731 23.029 43.5236 22.3291 43.5236H19.9777L20.4698 42.9768V47.5046ZM29.7503 50.2934C29.1305 50.2934 28.5837 50.1658 28.1098 49.9106C27.6431 49.6554 27.2786 49.3055 27.0161 48.8607C26.7609 48.4159 26.6333 47.9056 26.6333 47.3296C26.6333 46.7536 26.7573 46.2432 27.0052 45.7984C27.2604 45.3537 27.6067 45.0073 28.0442 44.7594C28.4889 44.5043 28.9884 44.3767 29.5425 44.3767C30.1039 44.3767 30.5997 44.5006 31.0299 44.7485C31.46 44.9964 31.7954 45.3464 32.036 45.7984C32.2839 46.2432 32.4079 46.7645 32.4079 47.3624C32.4079 47.4061 32.4042 47.4572 32.3969 47.5155C32.3969 47.5738 32.3933 47.6285 32.386 47.6795H27.4536V46.9249H31.8392L31.4126 47.1874C31.4199 46.8155 31.3434 46.4838 31.183 46.1921C31.0226 45.9005 30.8002 45.6745 30.5158 45.5141C30.2388 45.3464 29.9143 45.2625 29.5425 45.2625C29.1779 45.2625 28.8535 45.3464 28.5691 45.5141C28.2848 45.6745 28.0624 45.9041 27.902 46.2031C27.7416 46.4947 27.6614 46.8301 27.6614 47.2093V47.3842C27.6614 47.7707 27.7489 48.117 27.9238 48.4232C28.1061 48.7222 28.3577 48.9555 28.6785 49.1232C28.9993 49.2909 29.3675 49.3747 29.7831 49.3747C30.1258 49.3747 30.4356 49.3164 30.7127 49.1997C30.9971 49.0831 31.245 48.9081 31.4564 48.6748L32.036 49.3528C31.7736 49.6591 31.4455 49.8924 31.0517 50.0528C30.6653 50.2132 30.2315 50.2934 29.7503 50.2934ZM35.2792 50.2278L32.7419 44.4313H33.8355L36.0885 49.6809H35.5635L37.8602 44.4313H38.8883L36.351 50.2278H35.2792ZM42.289 50.2934C41.6693 50.2934 41.1224 50.1658 40.6485 49.9106C40.1819 49.6554 39.8173 49.3055 39.5548 48.8607C39.2996 48.4159 39.172 47.9056 39.172 47.3296C39.172 46.7536 39.296 46.2432 39.5439 45.7984C39.7991 45.3537 40.1454 45.0073 40.5829 44.7594C41.0276 44.5043 41.5271 44.3767 42.0812 44.3767C42.6426 44.3767 43.1384 44.5006 43.5686 44.7485C43.9988 44.9964 44.3342 45.3464 44.5748 45.7984C44.8227 46.2432 44.9466 46.7645 44.9466 47.3624C44.9466 47.4061 44.943 47.4572 44.9357 47.5155C44.9357 47.5738 44.932 47.6285 44.9247 47.6795H39.9923V46.9249H44.3779L43.9514 47.1874C43.9587 46.8155 43.8821 46.4838 43.7217 46.1921C43.5613 45.9005 43.3389 45.6745 43.0546 45.5141C42.7775 45.3464 42.4531 45.2625 42.0812 45.2625C41.7166 45.2625 41.3922 45.3464 41.1078 45.5141C40.8235 45.6745 40.6011 45.9041 40.4407 46.2031C40.2803 46.4947 40.2001 46.8301 40.2001 47.2093V47.3842C40.2001 47.7707 40.2876 48.117 40.4626 48.4232C40.6449 48.7222 40.8964 48.9555 41.2172 49.1232C41.538 49.2909 41.9062 49.3747 42.3218 49.3747C42.6645 49.3747 42.9744 49.3164 43.2514 49.1997C43.5358 49.0831 43.7837 48.9081 43.9951 48.6748L44.5748 49.3528C44.3123 49.6591 43.9842 49.8924 43.5905 50.0528C43.204 50.2132 42.7702 50.2934 42.289 50.2934ZM49.4996 44.3767C49.9735 44.3767 50.3891 44.4678 50.7464 44.6501C51.1109 44.8324 51.3953 45.1094 51.5994 45.4813C51.8036 45.8531 51.9057 46.3234 51.9057 46.8921V50.2278H50.8558V47.0124C50.8558 46.451 50.7172 46.0281 50.4402 45.7437C50.1704 45.4594 49.7876 45.3172 49.2918 45.3172C48.92 45.3172 48.5955 45.3901 48.3184 45.5359C48.0414 45.6818 47.8263 45.8969 47.6732 46.1812C47.5274 46.4656 47.4544 46.8192 47.4544 47.2421V50.2278H46.4045V44.4313H47.4107V45.9953L47.2466 45.5797C47.4362 45.2006 47.7279 44.9053 48.1216 44.6938C48.5153 44.4824 48.9746 44.3767 49.4996 44.3767ZM56.2876 50.2934C55.7918 50.2934 55.3543 50.2023 54.9752 50.02C54.6034 49.8377 54.3117 49.5606 54.1003 49.1888C53.8961 48.8097 53.794 48.3357 53.794 47.767V44.4313H54.844V47.6467C54.844 48.2154 54.9789 48.642 55.2486 48.9263C55.5257 49.2107 55.9121 49.3528 56.4079 49.3528C56.7725 49.3528 57.0896 49.2799 57.3594 49.1341C57.6292 48.981 57.837 48.7623 57.9828 48.4779C58.1286 48.1863 58.2015 47.8363 58.2015 47.428V44.4313H59.2514V50.2278H58.2562V48.6638L58.4203 49.0794C58.2307 49.4659 57.9463 49.7648 57.5672 49.9762C57.1881 50.1877 56.7615 50.2934 56.2876 50.2934ZM63.8313 50.2934C63.2115 50.2934 62.6647 50.1658 62.1908 49.9106C61.7241 49.6554 61.3596 49.3055 61.0971 48.8607C60.8419 48.4159 60.7143 47.9056 60.7143 47.3296C60.7143 46.7536 60.8383 46.2432 61.0862 45.7984C61.3414 45.3537 61.6877 45.0073 62.1251 44.7594C62.5699 44.5043 63.0693 44.3767 63.6235 44.3767C64.1849 44.3767 64.6807 44.5006 65.1109 44.7485C65.541 44.9964 65.8764 45.3464 66.117 45.7984C66.3649 46.2432 66.4889 46.7645 66.4889 47.3624C66.4889 47.4061 66.4852 47.4572 66.4779 47.5155C66.4779 47.5738 66.4743 47.6285 66.467 47.6795H61.5346V46.9249H65.9202L65.4936 47.1874C65.5009 46.8155 65.4244 46.4838 65.264 46.1921C65.1036 45.9005 64.8812 45.6745 64.5968 45.5141C64.3198 45.3464 63.9953 45.2625 63.6235 45.2625C63.2589 45.2625 62.9345 45.3464 62.6501 45.5141C62.3658 45.6745 62.1434 45.9041 61.983 46.2031C61.8226 46.4947 61.7424 46.8301 61.7424 47.2093V47.3842C61.7424 47.7707 61.8299 48.117 62.0048 48.4232C62.1871 48.7222 62.4387 48.9555 62.7595 49.1232C63.0803 49.2909 63.4485 49.3747 63.8641 49.3747C64.2068 49.3747 64.5166 49.3164 64.7937 49.1997C65.078 49.0831 65.3259 48.9081 65.5374 48.6748L66.117 49.3528C65.8546 49.6591 65.5265 49.8924 65.1327 50.0528C64.7463 50.2132 64.3125 50.2934 63.8313 50.2934ZM74.493 50.3153C73.9097 50.3153 73.3665 50.2168 72.8634 50.02C72.3676 49.8231 71.9375 49.5497 71.5729 49.1997C71.2083 48.8425 70.924 48.4269 70.7198 47.953C70.5157 47.479 70.4136 46.9614 70.4136 46.3999C70.4136 45.8385 70.5157 45.3209 70.7198 44.8469C70.924 44.373 71.2083 43.9611 71.5729 43.6111C71.9375 43.2538 72.3676 42.9768 72.8634 42.7799C73.3592 42.583 73.9024 42.4846 74.493 42.4846C75.0763 42.4846 75.6122 42.583 76.1007 42.7799C76.5965 42.9695 77.0267 43.2429 77.3912 43.6002C77.7631 43.9501 78.0474 44.3621 78.2443 44.836C78.4484 45.3099 78.5505 45.8312 78.5505 46.3999C78.5505 46.9687 78.4484 47.49 78.2443 47.9639C78.0474 48.4378 77.7631 48.8534 77.3912 49.2107C77.0267 49.5606 76.5965 49.8341 76.1007 50.0309C75.6122 50.2205 75.0763 50.3153 74.493 50.3153ZM74.493 49.3419C74.9159 49.3419 75.306 49.269 75.6632 49.1232C76.0278 48.9774 76.3413 48.7732 76.6038 48.5107C76.8735 48.241 77.0813 47.9274 77.2272 47.5702C77.3803 47.2129 77.4568 46.8228 77.4568 46.3999C77.4568 45.9771 77.3803 45.587 77.2272 45.2297C77.0813 44.8725 76.8735 44.5626 76.6038 44.3001C76.3413 44.0303 76.0278 43.8225 75.6632 43.6767C75.306 43.5309 74.9159 43.458 74.493 43.458C74.0628 43.458 73.6654 43.5309 73.3009 43.6767C72.9436 43.8225 72.6301 44.0303 72.3603 44.3001C72.0906 44.5626 71.8791 44.8725 71.726 45.2297C71.5802 45.587 71.5073 45.9771 71.5073 46.3999C71.5073 46.8228 71.5802 47.2129 71.726 47.5702C71.8791 47.9274 72.0906 48.241 72.3603 48.5107C72.6301 48.7732 72.9436 48.9774 73.3009 49.1232C73.6654 49.269 74.0628 49.3419 74.493 49.3419ZM81.5892 50.2278L79.0519 44.4313H80.1455L82.3985 49.6809H81.8735L84.1702 44.4313H85.1983L82.661 50.2278H81.5892ZM88.599 50.2934C87.9793 50.2934 87.4324 50.1658 86.9585 49.9106C86.4919 49.6554 86.1273 49.3055 85.8648 48.8607C85.6096 48.4159 85.482 47.9056 85.482 47.3296C85.482 46.7536 85.606 46.2432 85.8539 45.7984C86.1091 45.3537 86.4554 45.0073 86.8929 44.7594C87.3376 44.5043 87.8371 44.3767 88.3912 44.3767C88.9526 44.3767 89.4484 44.5006 89.8786 44.7485C90.3088 44.9964 90.6442 45.3464 90.8848 45.7984C91.1327 46.2432 91.2566 46.7645 91.2566 47.3624C91.2566 47.4061 91.253 47.4572 91.2457 47.5155C91.2457 47.5738 91.242 47.6285 91.2347 47.6795H86.3023V46.9249H90.6879L90.2614 47.1874C90.2687 46.8155 90.1921 46.4838 90.0317 46.1921C89.8713 45.9005 89.6489 45.6745 89.3646 45.5141C89.0875 45.3464 88.763 45.2625 88.3912 45.2625C88.0266 45.2625 87.7022 45.3464 87.4178 45.5141C87.1335 45.6745 86.9111 45.9041 86.7507 46.2031C86.5903 46.4947 86.5101 46.8301 86.5101 47.2093V47.3842C86.5101 47.7707 86.5976 48.117 86.7726 48.4232C86.9549 48.7222 87.2064 48.9555 87.5272 49.1232C87.848 49.2909 88.2162 49.3747 88.6318 49.3747C88.9745 49.3747 89.2844 49.3164 89.5614 49.1997C89.8458 49.0831 90.0937 48.9081 90.3051 48.6748L90.8848 49.3528C90.6223 49.6591 90.2942 49.8924 89.9005 50.0528C89.514 50.2132 89.0802 50.2934 88.599 50.2934ZM92.7145 50.2278V44.4313H93.7207V46.0062L93.6223 45.6125C93.7827 45.2115 94.0524 44.9053 94.4316 44.6938C94.8107 44.4824 95.2774 44.3767 95.8315 44.3767V45.3938C95.7877 45.3865 95.744 45.3828 95.7002 45.3828C95.6638 45.3828 95.6273 45.3828 95.5909 45.3828C95.0295 45.3828 94.5847 45.5505 94.2566 45.8859C93.9285 46.2213 93.7644 46.7062 93.7644 47.3405V50.2278H92.7145ZM98.8807 50.2278L96.3434 44.4313H97.437L99.69 49.6809H99.165L101.462 44.4313H102.49L99.9525 50.2278H98.8807ZM103.47 50.2278V44.4313H104.52V50.2278H103.47ZM103.995 43.3158C103.79 43.3158 103.619 43.2502 103.481 43.1189C103.349 42.9877 103.284 42.8273 103.284 42.6377C103.284 42.4409 103.349 42.2768 103.481 42.1456C103.619 42.0143 103.79 41.9487 103.995 41.9487C104.199 41.9487 104.366 42.0143 104.498 42.1456C104.636 42.2695 104.705 42.4263 104.705 42.6159C104.705 42.8127 104.64 42.9804 104.509 43.1189C104.377 43.2502 104.206 43.3158 103.995 43.3158ZM109.105 50.2934C108.486 50.2934 107.939 50.1658 107.465 49.9106C106.998 49.6554 106.634 49.3055 106.371 48.8607C106.116 48.4159 105.988 47.9056 105.988 47.3296C105.988 46.7536 106.112 46.2432 106.36 45.7984C106.615 45.3537 106.962 45.0073 107.399 44.7594C107.844 44.5043 108.343 44.3767 108.897 44.3767C109.459 44.3767 109.955 44.5006 110.385 44.7485C110.815 44.9964 111.15 45.3464 111.391 45.7984C111.639 46.2432 111.763 46.7645 111.763 47.3624C111.763 47.4061 111.759 47.4572 111.752 47.5155C111.752 47.5738 111.748 47.6285 111.741 47.6795H106.809V46.9249H111.194L110.768 47.1874C110.775 46.8155 110.698 46.4838 110.538 46.1921C110.378 45.9005 110.155 45.6745 109.871 45.5141C109.594 45.3464 109.269 45.2625 108.897 45.2625C108.533 45.2625 108.208 45.3464 107.924 45.5141C107.64 45.6745 107.417 45.9041 107.257 46.2031C107.097 46.4947 107.016 46.8301 107.016 47.2093V47.3842C107.016 47.7707 107.104 48.117 107.279 48.4232C107.461 48.7222 107.713 48.9555 108.033 49.1232C108.354 49.2909 108.722 49.3747 109.138 49.3747C109.481 49.3747 109.791 49.3164 110.068 49.1997C110.352 49.0831 110.6 48.9081 110.811 48.6748L111.391 49.3528C111.129 49.6591 110.8 49.8924 110.407 50.0528C110.02 50.2132 109.586 50.2934 109.105 50.2934ZM114.339 50.2278L112.184 44.4313H113.18L115.094 49.6809H114.623L116.614 44.4313H117.5L119.446 49.6809H118.987L120.945 44.4313H121.885L119.72 50.2278H118.714L116.887 45.4375H117.193L115.345 50.2278H114.339Z" fill="#F2F2F2"/>
<rect x="263.847" y="39.2278" width="67.8985" height="14.5822" rx="3.64556" fill="url(#paint3_linear_1763_8380)"/>
<rect x="263.961" y="39.3417" width="67.6707" height="14.3544" rx="3.53164" stroke="#E2E8F0" stroke-opacity="0.3" stroke-width="0.227847"/>
<g clip-path="url(#clip0_1763_8380)">
<path d="M269.241 48.5188V46.809L269.388 47.2046L267.467 44.053H268.15L269.764 46.7133H269.394L271.015 44.053H271.646L269.732 47.2046L269.873 46.809V48.5188H269.241ZM273.33 48.5571C272.968 48.5571 272.649 48.4826 272.373 48.3338C272.101 48.1849 271.888 47.9808 271.735 47.7213C271.586 47.4619 271.511 47.1642 271.511 46.8282C271.511 46.4922 271.584 46.1945 271.728 45.935C271.877 45.6756 272.079 45.4735 272.334 45.3289C272.594 45.1801 272.885 45.1056 273.208 45.1056C273.536 45.1056 273.825 45.1779 274.076 45.3226C274.327 45.4672 274.523 45.6713 274.663 45.935C274.808 46.1945 274.88 46.4986 274.88 46.8473C274.88 46.8728 274.878 46.9026 274.874 46.9366C274.874 46.9707 274.871 47.0026 274.867 47.0323H271.99V46.5921H274.548L274.299 46.7452C274.304 46.5283 274.259 46.3348 274.165 46.1647C274.072 45.9946 273.942 45.8627 273.776 45.7691C273.615 45.6713 273.425 45.6224 273.208 45.6224C272.996 45.6224 272.807 45.6713 272.641 45.7691C272.475 45.8627 272.345 45.9967 272.251 46.1711C272.158 46.3412 272.111 46.5368 272.111 46.758V46.8601C272.111 47.0855 272.162 47.2875 272.264 47.4661C272.371 47.6405 272.517 47.7766 272.704 47.8744C272.892 47.9723 273.106 48.0212 273.349 48.0212C273.549 48.0212 273.729 47.9872 273.891 47.9191C274.057 47.8511 274.202 47.749 274.325 47.6129L274.663 48.0084C274.51 48.1871 274.319 48.3232 274.089 48.4167C273.863 48.5103 273.61 48.5571 273.33 48.5571ZM277.736 48.5188V47.8043L277.704 47.6703V46.4518C277.704 46.1923 277.627 45.9924 277.474 45.8521C277.325 45.7075 277.1 45.6352 276.798 45.6352C276.598 45.6352 276.403 45.6692 276.211 45.7372C276.02 45.801 275.858 45.8882 275.726 45.9988L275.471 45.5395C275.645 45.3991 275.854 45.2928 276.096 45.2205C276.343 45.1439 276.6 45.1056 276.868 45.1056C277.332 45.1056 277.689 45.2184 277.94 45.4438C278.191 45.6692 278.316 46.0137 278.316 46.4773V48.5188H277.736ZM276.626 48.5571C276.375 48.5571 276.154 48.5145 275.962 48.4295C275.775 48.3444 275.631 48.2275 275.528 48.0786C275.426 47.9255 275.375 47.7532 275.375 47.5618C275.375 47.379 275.418 47.2131 275.503 47.0642C275.592 46.9154 275.735 46.7963 275.93 46.707C276.13 46.6176 276.398 46.573 276.734 46.573H277.806V47.0132H276.76C276.454 47.0132 276.247 47.0642 276.141 47.1663C276.035 47.2684 275.981 47.3917 275.981 47.5363C275.981 47.7022 276.047 47.8362 276.179 47.9382C276.311 48.0361 276.494 48.085 276.728 48.085C276.958 48.085 277.157 48.0339 277.328 47.9319C277.502 47.8298 277.627 47.6809 277.704 47.4853L277.825 47.9063C277.744 48.1062 277.602 48.2657 277.398 48.3848C277.194 48.4997 276.936 48.5571 276.626 48.5571ZM279.45 48.5188V45.1375H280.037V46.0562L279.979 45.8266C280.073 45.5926 280.23 45.414 280.451 45.2907C280.673 45.1673 280.945 45.1056 281.268 45.1056V45.699C281.243 45.6947 281.217 45.6926 281.191 45.6926C281.17 45.6926 281.149 45.6926 281.128 45.6926C280.8 45.6926 280.541 45.7904 280.349 45.986C280.158 46.1817 280.062 46.4645 280.062 46.8346V48.5188H279.45ZM282.023 48.5188V43.785H282.635V48.5188H282.023ZM283.951 49.7947C283.79 49.7947 283.632 49.7671 283.479 49.7118C283.326 49.6608 283.194 49.5842 283.084 49.4821L283.345 49.0228C283.43 49.1036 283.524 49.1653 283.626 49.2078C283.728 49.2503 283.837 49.2716 283.951 49.2716C284.1 49.2716 284.224 49.2333 284.321 49.1568C284.419 49.0802 284.511 48.9441 284.596 48.7485L284.806 48.2827L284.87 48.2062L286.197 45.1375H286.797L285.157 48.8569C285.059 49.0951 284.949 49.2822 284.825 49.4183C284.706 49.5544 284.575 49.6501 284.43 49.7054C284.285 49.765 284.126 49.7947 283.951 49.7947ZM284.755 48.6273L283.211 45.1375H283.849L285.164 48.1488L284.755 48.6273Z" fill="#E5E5E5"/>
</g>
<mask id="mask0_1763_8380" style="mask-type:alpha" maskUnits="userSpaceOnUse" x="317" y="41" width="12" height="11">
<rect x="317.164" y="41.0505" width="10.9367" height="10.9367" fill="#D9D9D9"/>
</mask>
<g mask="url(#mask0_1763_8380)">
<path d="M322.632 48.0682L319.898 45.334L320.536 44.696L322.632 46.7922L324.728 44.696L325.366 45.334L322.632 48.0682Z" fill="#3A5CFF"/>
</g>
<g filter="url(#filter0_f_1763_8380)">
<rect x="315" y="100" width="49" height="57" fill="#01D449"/>
</g>
<defs>
<filter id="filter0_f_1763_8380" x="215" y="0" width="249" height="257" filterUnits="userSpaceOnUse" color-interpolation-filters="sRGB">
<feFlood flood-opacity="0" result="BackgroundImageFix"/>
<feBlend mode="normal" in="SourceGraphic" in2="BackgroundImageFix" result="shape"/>
<feGaussianBlur stdDeviation="50" result="effect1_foregroundBlur_1763_8380"/>
</filter>
<linearGradient id="paint0_linear_1763_8380" x1="129.589" y1="-97.9361" x2="235.835" y2="289.766" gradientUnits="userSpaceOnUse">
<stop offset="0.133169" stop-color="#0C1022" stop-opacity="0.34"/>
<stop offset="0.506036" stop-color="#29B754" stop-opacity="0.09"/>
</linearGradient>
<linearGradient id="paint1_linear_1763_8380" x1="172" y1="14" x2="172" y2="268" gradientUnits="userSpaceOnUse">
<stop offset="0.370365" stop-color="#C6C6C6" stop-opacity="0.19"/>
<stop offset="1" stop-opacity="0"/>
</linearGradient>
<linearGradient id="paint2_linear_1763_8380" x1="185.696" y1="132.645" x2="185.696" y2="209.202" gradientUnits="userSpaceOnUse">
<stop stop-color="#01D449"/>
<stop offset="1" stop-color="#01D449" stop-opacity="0.1"/>
</linearGradient>
<linearGradient id="paint3_linear_1763_8380" x1="331.746" y1="46.5189" x2="263.847" y2="46.5189" gradientUnits="userSpaceOnUse">
<stop stop-color="#17171A"/>
<stop offset="1" stop-color="#17171A"/>
</linearGradient>
<clipPath id="clip0_1763_8380">
<rect width="20" height="8" fill="white" transform="translate(267.493 42.5188)"/>
</clipPath>
</defs>
</svg>
