<svg width="484" height="294" viewBox="0 0 484 294" fill="none" xmlns="http://www.w3.org/2000/svg">
<rect x="0.5" y="0.5" width="383" height="293" rx="15.5" fill="url(#paint0_linear_1763_8376)"/>
<rect x="0.5" y="0.5" width="383" height="293" rx="15.5" stroke="#1A1A1A"/>
<rect x="20.5" y="20.5" width="343" height="253" rx="11.5" fill="#0C1022" fill-opacity="0.6"/>
<rect x="20.5" y="20.5" width="343" height="253" rx="11.5" fill="url(#paint1_linear_1763_8376)" fill-opacity="0.7"/>
<rect x="20.5" y="20.5" width="343" height="253" rx="11.5" stroke="url(#paint2_linear_1763_8376)"/>
<path d="M61.9835 228.499H62.5453V231.816C62.5453 232.112 62.491 232.363 62.3822 232.57C62.2735 232.777 62.1202 232.934 61.9223 233.041C61.7245 233.148 61.4911 233.202 61.2223 233.202C60.9685 233.202 60.7427 233.156 60.5449 233.064C60.347 232.97 60.1915 232.837 60.0782 232.665C59.9649 232.493 59.9083 232.288 59.9083 232.051H60.4611C60.4611 232.183 60.4935 232.297 60.5585 232.396C60.6249 232.492 60.7155 232.568 60.8303 232.622C60.9451 232.677 61.0758 232.704 61.2223 232.704C61.3839 232.704 61.5213 232.67 61.6346 232.602C61.7479 232.534 61.834 232.434 61.8929 232.303C61.9533 232.17 61.9835 232.007 61.9835 231.816V228.499ZM64.6228 233.22C64.4023 233.22 64.2022 233.179 64.0225 233.096C63.8427 233.011 63.7 232.889 63.5943 232.731C63.4886 232.571 63.4357 232.377 63.4357 232.151C63.4357 231.952 63.475 231.79 63.5535 231.666C63.632 231.541 63.737 231.443 63.8684 231.372C63.9998 231.301 64.1448 231.248 64.3034 231.213C64.4635 231.177 64.6243 231.148 64.7859 231.127C64.9974 231.1 65.1688 231.079 65.3002 231.066C65.4331 231.051 65.5298 231.026 65.5902 230.991C65.6521 230.956 65.6831 230.896 65.6831 230.81V230.792C65.6831 230.568 65.6219 230.394 65.4996 230.271C65.3788 230.147 65.1953 230.085 64.9491 230.085C64.6938 230.085 64.4937 230.141 64.3487 230.252C64.2037 230.364 64.1018 230.483 64.0429 230.61L63.5354 230.429C63.626 230.218 63.7468 230.053 63.8979 229.935C64.0504 229.816 64.2165 229.733 64.3963 229.686C64.5775 229.638 64.7557 229.614 64.9309 229.614C65.0427 229.614 65.1711 229.627 65.3161 229.654C65.4626 229.68 65.6038 229.734 65.7397 229.815C65.8772 229.897 65.9912 230.02 66.0818 230.184C66.1724 230.349 66.2178 230.57 66.2178 230.846V233.139H65.6831V232.667H65.6559C65.6197 232.743 65.5592 232.824 65.4747 232.91C65.3901 232.996 65.2776 233.069 65.1371 233.13C64.9966 233.19 64.8252 233.22 64.6228 233.22ZM64.7044 232.74C64.9158 232.74 65.0941 232.698 65.2391 232.615C65.3856 232.532 65.4958 232.425 65.5698 232.294C65.6453 232.162 65.6831 232.024 65.6831 231.879V231.39C65.6604 231.417 65.6106 231.442 65.5336 231.464C65.4581 231.486 65.3705 231.504 65.2708 231.521C65.1726 231.536 65.0767 231.55 64.983 231.562C64.8909 231.572 64.8162 231.581 64.7588 231.589C64.6198 231.607 64.4899 231.637 64.3691 231.677C64.2498 231.717 64.1531 231.776 64.0791 231.856C64.0066 231.935 63.9704 232.042 63.9704 232.178C63.9704 232.364 64.0391 232.504 64.1765 232.599C64.3155 232.693 64.4914 232.74 64.7044 232.74ZM67.7283 231.045V233.139H67.1936V229.659H67.7102V230.203H67.7555C67.837 230.026 67.9609 229.884 68.127 229.777C68.2932 229.668 68.5076 229.614 68.7704 229.614C69.0061 229.614 69.2122 229.662 69.3889 229.759C69.5656 229.854 69.7031 229.999 69.8013 230.193C69.8994 230.387 69.9485 230.631 69.9485 230.928V233.139H69.4139V230.964C69.4139 230.69 69.3429 230.477 69.2009 230.325C69.0589 230.171 68.8641 230.094 68.6164 230.094C68.4457 230.094 68.2932 230.131 68.1588 230.205C68.0258 230.279 67.9209 230.387 67.8438 230.529C67.7668 230.671 67.7283 230.843 67.7283 231.045Z" fill="#969696"/>
<path d="M84.816 233.139V228.499H87.5981V228.997H85.3779V230.565H87.3896V231.063H85.3779V233.139H84.816ZM89.6914 233.211C89.3561 233.211 89.0669 233.137 88.8237 232.989C88.5821 232.84 88.3955 232.631 88.2641 232.364C88.1342 232.095 88.0693 231.782 88.0693 231.426C88.0693 231.069 88.1342 230.755 88.2641 230.483C88.3955 230.21 88.5783 229.997 88.8124 229.845C89.048 229.691 89.3229 229.614 89.637 229.614C89.8183 229.614 89.9973 229.644 90.174 229.704C90.3507 229.765 90.5115 229.863 90.6565 229.999C90.8015 230.133 90.9171 230.311 91.0032 230.533C91.0892 230.755 91.1323 231.029 91.1323 231.353V231.58H88.4499V231.118H90.5886C90.5886 230.921 90.5493 230.746 90.4708 230.592C90.3937 230.438 90.2835 230.317 90.14 230.227C89.998 230.138 89.8304 230.094 89.637 230.094C89.4241 230.094 89.2398 230.147 89.0843 230.252C88.9302 230.357 88.8116 230.493 88.7286 230.66C88.6455 230.828 88.604 231.008 88.604 231.199V231.507C88.604 231.77 88.6493 231.993 88.7399 232.176C88.832 232.357 88.9597 232.495 89.1228 232.59C89.2859 232.684 89.4754 232.731 89.6914 232.731C89.8319 232.731 89.9587 232.711 90.072 232.672C90.1868 232.631 90.2857 232.571 90.3688 232.491C90.4519 232.409 90.5161 232.308 90.5614 232.187L91.0779 232.332C91.0235 232.507 90.9322 232.661 90.8038 232.794C90.6754 232.926 90.5168 233.028 90.328 233.102C90.1392 233.175 89.927 233.211 89.6914 233.211ZM92.0181 233.139V228.499H92.5528V230.212H92.5981C92.6374 230.151 92.6917 230.074 92.7612 229.981C92.8322 229.885 92.9334 229.801 93.0648 229.727C93.1977 229.651 93.3774 229.614 93.604 229.614C93.897 229.614 94.1553 229.687 94.3788 229.833C94.6023 229.98 94.7768 230.187 94.9021 230.456C95.0275 230.725 95.0902 231.042 95.0902 231.408C95.0902 231.776 95.0275 232.096 94.9021 232.366C94.7768 232.635 94.6031 232.843 94.3811 232.991C94.159 233.138 93.903 233.211 93.613 233.211C93.3895 233.211 93.2105 233.174 93.0761 233.1C92.9417 233.025 92.8382 232.939 92.7657 232.844C92.6932 232.747 92.6374 232.667 92.5981 232.604H92.5347V233.139H92.0181ZM92.5437 231.399C92.5437 231.662 92.5822 231.893 92.6593 232.094C92.7363 232.294 92.8488 232.45 92.9968 232.563C93.1448 232.675 93.3261 232.731 93.5405 232.731C93.7641 232.731 93.9506 232.672 94.1001 232.554C94.2512 232.435 94.3644 232.275 94.44 232.074C94.517 231.871 94.5555 231.646 94.5555 231.399C94.5555 231.154 94.5177 230.934 94.4422 230.737C94.3682 230.539 94.2557 230.383 94.1047 230.268C93.9551 230.152 93.7671 230.094 93.5405 230.094C93.3231 230.094 93.1403 230.149 92.9923 230.259C92.8443 230.368 92.7325 230.52 92.657 230.717C92.5815 230.912 92.5437 231.139 92.5437 231.399Z" fill="#969696"/>
<path d="M109.767 228.499H110.438L112.014 232.35H112.069L113.646 228.499H114.316V233.139H113.791V229.614H113.745L112.295 233.139H111.788L110.338 229.614H110.293V233.139H109.767V228.499ZM116.394 233.22C116.174 233.22 115.974 233.179 115.794 233.096C115.614 233.011 115.471 232.889 115.366 232.731C115.26 232.571 115.207 232.377 115.207 232.151C115.207 231.952 115.246 231.79 115.325 231.666C115.404 231.541 115.509 231.443 115.64 231.372C115.771 231.301 115.916 231.248 116.075 231.213C116.235 231.177 116.396 231.148 116.557 231.127C116.769 231.1 116.94 231.079 117.072 231.066C117.205 231.051 117.301 231.026 117.362 230.991C117.424 230.956 117.455 230.896 117.455 230.81V230.792C117.455 230.568 117.393 230.394 117.271 230.271C117.15 230.147 116.967 230.085 116.721 230.085C116.465 230.085 116.265 230.141 116.12 230.252C115.975 230.364 115.873 230.483 115.814 230.61L115.307 230.429C115.397 230.218 115.518 230.053 115.669 229.935C115.822 229.816 115.988 229.733 116.168 229.686C116.349 229.638 116.527 229.614 116.702 229.614C116.814 229.614 116.943 229.627 117.088 229.654C117.234 229.68 117.375 229.734 117.511 229.815C117.649 229.897 117.763 230.02 117.853 230.184C117.944 230.349 117.989 230.57 117.989 230.846V233.139H117.455V232.667H117.427C117.391 232.743 117.331 232.824 117.246 232.91C117.162 232.996 117.049 233.069 116.909 233.13C116.768 233.19 116.597 233.22 116.394 233.22ZM116.476 232.74C116.687 232.74 116.866 232.698 117.011 232.615C117.157 232.532 117.267 232.425 117.341 232.294C117.417 232.162 117.455 232.024 117.455 231.879V231.39C117.432 231.417 117.382 231.442 117.305 231.464C117.23 231.486 117.142 231.504 117.042 231.521C116.944 231.536 116.848 231.55 116.755 231.562C116.662 231.572 116.588 231.581 116.53 231.589C116.391 231.607 116.261 231.637 116.141 231.677C116.021 231.717 115.925 231.776 115.851 231.856C115.778 231.935 115.742 232.042 115.742 232.178C115.742 232.364 115.811 232.504 115.948 232.599C116.087 232.693 116.263 232.74 116.476 232.74ZM118.965 233.139V229.659H119.482V230.184H119.518C119.581 230.012 119.696 229.873 119.862 229.765C120.028 229.658 120.216 229.604 120.424 229.604C120.463 229.604 120.512 229.605 120.571 229.607C120.63 229.608 120.675 229.61 120.705 229.614V230.157C120.687 230.153 120.645 230.146 120.58 230.137C120.517 230.126 120.45 230.121 120.379 230.121C120.21 230.121 120.059 230.156 119.926 230.227C119.794 230.297 119.69 230.394 119.613 230.517C119.538 230.64 119.5 230.78 119.5 230.937V233.139H118.965Z" fill="#969696"/>
<path d="M135.184 233.139H134.595L136.299 228.499H136.879L138.582 233.139H137.993L136.607 229.233H136.571L135.184 233.139ZM135.402 231.326H137.776V231.825H135.402V231.326ZM139.233 234.444V229.659H139.749V230.212H139.813C139.852 230.151 139.906 230.074 139.976 229.981C140.047 229.885 140.148 229.801 140.279 229.727C140.412 229.651 140.592 229.614 140.819 229.614C141.112 229.614 141.37 229.687 141.593 229.833C141.817 229.98 141.991 230.187 142.117 230.456C142.242 230.725 142.305 231.042 142.305 231.408C142.305 231.776 142.242 232.096 142.117 232.366C141.991 232.635 141.818 232.843 141.596 232.991C141.374 233.138 141.118 233.211 140.828 233.211C140.604 233.211 140.425 233.174 140.291 233.1C140.156 233.025 140.053 232.939 139.98 232.844C139.908 232.747 139.852 232.667 139.813 232.604H139.767V234.444H139.233ZM139.758 231.399C139.758 231.662 139.797 231.893 139.874 232.094C139.951 232.294 140.063 232.45 140.211 232.563C140.359 232.675 140.541 232.731 140.755 232.731C140.979 232.731 141.165 232.672 141.315 232.554C141.466 232.435 141.579 232.275 141.654 232.074C141.732 231.871 141.77 231.646 141.77 231.399C141.77 231.154 141.732 230.934 141.657 230.737C141.583 230.539 141.47 230.383 141.319 230.268C141.17 230.152 140.982 230.094 140.755 230.094C140.538 230.094 140.355 230.149 140.207 230.259C140.059 230.368 139.947 230.52 139.872 230.717C139.796 230.912 139.758 231.139 139.758 231.399ZM143.12 233.139V229.659H143.637V230.184H143.673C143.737 230.012 143.851 229.873 144.017 229.765C144.184 229.658 144.371 229.604 144.579 229.604C144.619 229.604 144.668 229.605 144.727 229.607C144.785 229.608 144.83 229.61 144.86 229.614V230.157C144.842 230.153 144.801 230.146 144.736 230.137C144.672 230.126 144.605 230.121 144.534 230.121C144.365 230.121 144.214 230.156 144.081 230.227C143.949 230.297 143.845 230.394 143.768 230.517C143.693 230.64 143.655 230.78 143.655 230.937V233.139H143.12Z" fill="#969696"/>
<path d="M159.123 228.499H159.793L161.37 232.35H161.424L163.001 228.499H163.672V233.139H163.146V229.614H163.101L161.651 233.139H161.143L159.693 229.614H159.648V233.139H159.123V228.499ZM165.75 233.22C165.529 233.22 165.329 233.179 165.149 233.096C164.97 233.011 164.827 232.889 164.721 232.731C164.615 232.571 164.563 232.377 164.563 232.151C164.563 231.952 164.602 231.79 164.68 231.666C164.759 231.541 164.864 231.443 164.995 231.372C165.127 231.301 165.272 231.248 165.43 231.213C165.59 231.177 165.751 231.148 165.913 231.127C166.124 231.1 166.296 231.079 166.427 231.066C166.56 231.051 166.657 231.026 166.717 230.991C166.779 230.956 166.81 230.896 166.81 230.81V230.792C166.81 230.568 166.749 230.394 166.627 230.271C166.506 230.147 166.322 230.085 166.076 230.085C165.821 230.085 165.621 230.141 165.476 230.252C165.331 230.364 165.229 230.483 165.17 230.61L164.662 230.429C164.753 230.218 164.874 230.053 165.025 229.935C165.177 229.816 165.343 229.733 165.523 229.686C165.704 229.638 165.883 229.614 166.058 229.614C166.17 229.614 166.298 229.627 166.443 229.654C166.59 229.68 166.731 229.734 166.867 229.815C167.004 229.897 167.118 230.02 167.209 230.184C167.299 230.349 167.345 230.57 167.345 230.846V233.139H166.81V232.667H166.783C166.747 232.743 166.686 232.824 166.602 232.91C166.517 232.996 166.405 233.069 166.264 233.13C166.124 233.19 165.952 233.22 165.75 233.22ZM165.831 232.74C166.043 232.74 166.221 232.698 166.366 232.615C166.512 232.532 166.623 232.425 166.697 232.294C166.772 232.162 166.81 232.024 166.81 231.879V231.39C166.787 231.417 166.738 231.442 166.661 231.464C166.585 231.486 166.497 231.504 166.398 231.521C166.3 231.536 166.204 231.55 166.11 231.562C166.018 231.572 165.943 231.581 165.886 231.589C165.747 231.607 165.617 231.637 165.496 231.677C165.377 231.717 165.28 231.776 165.206 231.856C165.134 231.935 165.097 232.042 165.097 232.178C165.097 232.364 165.166 232.504 165.303 232.599C165.442 232.693 165.618 232.74 165.831 232.74ZM168.54 234.444C168.45 234.444 168.369 234.436 168.298 234.421C168.227 234.407 168.178 234.394 168.151 234.38L168.287 233.909C168.416 233.942 168.531 233.954 168.631 233.945C168.731 233.936 168.819 233.892 168.896 233.812C168.975 233.733 169.046 233.605 169.111 233.429L169.211 233.157L167.924 229.659H168.504L169.465 232.432H169.501L170.462 229.659H171.041L169.564 233.646C169.498 233.826 169.416 233.975 169.317 234.092C169.219 234.212 169.105 234.3 168.975 234.358C168.847 234.415 168.702 234.444 168.54 234.444Z" fill="#969696"/>
<path d="M187.13 228.499H187.692V231.816C187.692 232.112 187.638 232.363 187.529 232.57C187.42 232.777 187.267 232.934 187.069 233.041C186.871 233.148 186.638 233.202 186.369 233.202C186.115 233.202 185.889 233.156 185.692 233.064C185.494 232.97 185.338 232.837 185.225 232.665C185.112 232.493 185.055 232.288 185.055 232.051H185.608C185.608 232.183 185.64 232.297 185.705 232.396C185.772 232.492 185.862 232.568 185.977 232.622C186.092 232.677 186.222 232.704 186.369 232.704C186.531 232.704 186.668 232.67 186.781 232.602C186.895 232.534 186.981 232.434 187.04 232.303C187.1 232.17 187.13 232.007 187.13 231.816V228.499ZM190.939 231.716V229.659H191.473V233.139H190.939V232.55H190.902C190.821 232.726 190.694 232.877 190.522 233C190.35 233.123 190.132 233.184 189.869 233.184C189.652 233.184 189.458 233.136 189.289 233.041C189.12 232.945 188.987 232.8 188.891 232.606C188.794 232.411 188.746 232.166 188.746 231.87V229.659H189.28V231.834C189.28 232.087 189.351 232.29 189.493 232.441C189.637 232.592 189.819 232.667 190.041 232.667C190.174 232.667 190.309 232.633 190.447 232.565C190.586 232.498 190.702 232.393 190.796 232.253C190.891 232.112 190.939 231.933 190.939 231.716ZM192.987 231.045V233.139H192.452V229.659H192.969V230.203H193.014C193.096 230.026 193.22 229.884 193.386 229.777C193.552 229.668 193.767 229.614 194.029 229.614C194.265 229.614 194.471 229.662 194.648 229.759C194.825 229.854 194.962 229.999 195.06 230.193C195.158 230.387 195.207 230.631 195.207 230.928V233.139H194.673V230.964C194.673 230.69 194.602 230.477 194.46 230.325C194.318 230.171 194.123 230.094 193.875 230.094C193.705 230.094 193.552 230.131 193.418 230.205C193.285 230.279 193.18 230.387 193.103 230.529C193.026 230.671 192.987 230.843 192.987 231.045ZM197.643 233.211C197.308 233.211 197.019 233.137 196.776 232.989C196.534 232.84 196.348 232.631 196.216 232.364C196.086 232.095 196.021 231.782 196.021 231.426C196.021 231.069 196.086 230.755 196.216 230.483C196.348 230.21 196.53 229.997 196.764 229.845C197 229.691 197.275 229.614 197.589 229.614C197.77 229.614 197.949 229.644 198.126 229.704C198.303 229.765 198.464 229.863 198.609 229.999C198.753 230.133 198.869 230.311 198.955 230.533C199.041 230.755 199.084 231.029 199.084 231.353V231.58H196.402V231.118H198.541C198.541 230.921 198.501 230.746 198.423 230.592C198.346 230.438 198.235 230.317 198.092 230.227C197.95 230.138 197.782 230.094 197.589 230.094C197.376 230.094 197.192 230.147 197.036 230.252C196.882 230.357 196.764 230.493 196.681 230.66C196.597 230.828 196.556 231.008 196.556 231.199V231.507C196.556 231.77 196.601 231.993 196.692 232.176C196.784 232.357 196.912 232.495 197.075 232.59C197.238 232.684 197.427 232.731 197.643 232.731C197.784 232.731 197.911 232.711 198.024 232.672C198.139 232.631 198.238 232.571 198.321 232.491C198.404 232.409 198.468 232.308 198.513 232.187L199.03 232.332C198.976 232.507 198.884 232.661 198.756 232.794C198.627 232.926 198.469 233.028 198.28 233.102C198.091 233.175 197.879 233.211 197.643 233.211Z" fill="#969696"/>
<path d="M215.511 228.499H216.073V231.816C216.073 232.112 216.019 232.363 215.91 232.57C215.801 232.777 215.648 232.934 215.45 233.041C215.252 233.148 215.019 233.202 214.75 233.202C214.496 233.202 214.27 233.156 214.073 233.064C213.875 232.97 213.719 232.837 213.606 232.665C213.493 232.493 213.436 232.288 213.436 232.051H213.989C213.989 232.183 214.021 232.297 214.086 232.396C214.153 232.492 214.243 232.568 214.358 232.622C214.473 232.677 214.603 232.704 214.75 232.704C214.912 232.704 215.049 232.67 215.162 232.602C215.276 232.534 215.362 232.434 215.42 232.303C215.481 232.17 215.511 232.007 215.511 231.816V228.499ZM219.319 231.716V229.659H219.854V233.139H219.319V232.55H219.283C219.202 232.726 219.075 232.877 218.903 233C218.73 233.123 218.513 233.184 218.25 233.184C218.033 233.184 217.839 233.136 217.67 233.041C217.501 232.945 217.368 232.8 217.271 232.606C217.175 232.411 217.126 232.166 217.126 231.87V229.659H217.661V231.834C217.661 232.087 217.732 232.29 217.874 232.441C218.018 232.592 218.2 232.667 218.422 232.667C218.555 232.667 218.69 232.633 218.828 232.565C218.967 232.498 219.083 232.393 219.177 232.253C219.272 232.112 219.319 231.933 219.319 231.716ZM221.368 228.499V233.139H220.833V228.499H221.368ZM222.692 234.444C222.601 234.444 222.52 234.436 222.449 234.421C222.378 234.407 222.329 234.394 222.302 234.38L222.438 233.909C222.568 233.942 222.683 233.954 222.782 233.945C222.882 233.936 222.97 233.892 223.047 233.812C223.126 233.733 223.198 233.605 223.263 233.429L223.362 233.157L222.075 229.659H222.655L223.616 232.432H223.652L224.613 229.659H225.193L223.716 233.646C223.649 233.826 223.567 233.975 223.469 234.092C223.371 234.212 223.257 234.3 223.127 234.358C222.998 234.415 222.853 234.444 222.692 234.444Z" fill="#969696"/>
<path d="M239.781 233.139H239.192L240.896 228.499H241.476L243.18 233.139H242.591L241.204 229.233H241.168L239.781 233.139ZM239.999 231.326H242.373V231.825H239.999V231.326ZM246.023 231.716V229.659H246.557V233.139H246.023V232.55H245.987C245.905 232.726 245.778 232.877 245.606 233C245.434 233.123 245.216 233.184 244.953 233.184C244.736 233.184 244.543 233.136 244.374 233.041C244.204 232.945 244.071 232.8 243.975 232.606C243.878 232.411 243.83 232.166 243.83 231.87V229.659H244.364V231.834C244.364 232.087 244.435 232.29 244.577 232.441C244.721 232.592 244.904 232.667 245.126 232.667C245.259 232.667 245.394 232.633 245.531 232.565C245.67 232.498 245.786 232.393 245.88 232.253C245.975 232.112 246.023 231.933 246.023 231.716ZM248.941 234.516C248.683 234.516 248.461 234.483 248.275 234.416C248.09 234.351 247.935 234.265 247.811 234.158C247.689 234.052 247.591 233.939 247.519 233.818L247.945 233.519C247.993 233.583 248.054 233.655 248.128 233.737C248.202 233.82 248.303 233.892 248.432 233.952C248.562 234.014 248.731 234.045 248.941 234.045C249.222 234.045 249.454 233.977 249.637 233.841C249.82 233.705 249.911 233.492 249.911 233.202V232.495H249.866C249.826 232.559 249.771 232.637 249.698 232.731C249.627 232.823 249.524 232.905 249.39 232.978C249.257 233.049 249.077 233.084 248.851 233.084C248.57 233.084 248.318 233.018 248.094 232.885C247.872 232.752 247.696 232.559 247.566 232.305C247.438 232.051 247.374 231.743 247.374 231.381C247.374 231.024 247.436 230.714 247.562 230.449C247.687 230.184 247.861 229.978 248.085 229.833C248.309 229.687 248.567 229.614 248.86 229.614C249.086 229.614 249.266 229.651 249.399 229.727C249.533 229.801 249.636 229.885 249.707 229.981C249.78 230.074 249.836 230.151 249.875 230.212H249.929V229.659H250.446V233.238C250.446 233.537 250.378 233.781 250.242 233.968C250.107 234.157 249.926 234.295 249.698 234.382C249.472 234.472 249.219 234.516 248.941 234.516ZM248.923 232.604C249.138 232.604 249.319 232.555 249.467 232.457C249.615 232.359 249.728 232.217 249.805 232.033C249.882 231.849 249.92 231.628 249.92 231.372C249.92 231.121 249.882 230.9 249.807 230.708C249.731 230.516 249.62 230.366 249.472 230.257C249.324 230.148 249.141 230.094 248.923 230.094C248.697 230.094 248.508 230.151 248.357 230.266C248.207 230.381 248.095 230.535 248.019 230.728C247.945 230.921 247.908 231.136 247.908 231.372C247.908 231.613 247.946 231.827 248.022 232.013C248.099 232.197 248.212 232.342 248.361 232.448C248.512 232.552 248.7 232.604 248.923 232.604Z" fill="#969696"/>
<path d="M267.438 229.659C267.411 229.429 267.3 229.251 267.107 229.124C266.914 228.997 266.676 228.934 266.396 228.934C266.19 228.934 266.01 228.967 265.856 229.034C265.704 229.1 265.585 229.191 265.498 229.308C265.414 229.424 265.372 229.556 265.372 229.704C265.372 229.828 265.401 229.934 265.46 230.024C265.52 230.111 265.597 230.184 265.691 230.243C265.785 230.301 265.883 230.348 265.986 230.386C266.088 230.422 266.183 230.452 266.269 230.474L266.74 230.601C266.861 230.633 266.995 230.677 267.143 230.733C267.293 230.789 267.435 230.865 267.571 230.961C267.709 231.057 267.822 231.179 267.911 231.329C268 231.478 268.045 231.662 268.045 231.879C268.045 232.13 267.979 232.356 267.848 232.559C267.718 232.761 267.528 232.922 267.277 233.041C267.028 233.161 266.725 233.22 266.368 233.22C266.036 233.22 265.748 233.167 265.505 233.059C265.264 232.952 265.073 232.803 264.934 232.611C264.797 232.419 264.719 232.196 264.701 231.942H265.281C265.296 232.118 265.355 232.263 265.458 232.377C265.562 232.491 265.693 232.575 265.852 232.631C266.012 232.686 266.184 232.713 266.368 232.713C266.583 232.713 266.775 232.678 266.946 232.609C267.117 232.538 267.252 232.439 267.352 232.314C267.451 232.187 267.501 232.039 267.501 231.87C267.501 231.716 267.458 231.591 267.372 231.494C267.286 231.397 267.173 231.319 267.032 231.258C266.892 231.198 266.74 231.145 266.577 231.1L266.006 230.937C265.643 230.832 265.356 230.684 265.145 230.49C264.934 230.297 264.828 230.044 264.828 229.731C264.828 229.472 264.898 229.245 265.039 229.052C265.18 228.857 265.371 228.706 265.609 228.599C265.85 228.49 266.118 228.435 266.414 228.435C266.713 228.435 266.979 228.489 267.211 228.596C267.444 228.702 267.628 228.847 267.764 229.031C267.901 229.216 267.974 229.425 267.981 229.659H267.438ZM270.355 233.211C270.02 233.211 269.731 233.137 269.487 232.989C269.246 232.84 269.059 232.631 268.928 232.364C268.798 232.095 268.733 231.782 268.733 231.426C268.733 231.069 268.798 230.755 268.928 230.483C269.059 230.21 269.242 229.997 269.476 229.845C269.712 229.691 269.987 229.614 270.301 229.614C270.482 229.614 270.661 229.644 270.838 229.704C271.014 229.765 271.175 229.863 271.32 229.999C271.465 230.133 271.581 230.311 271.667 230.533C271.753 230.755 271.796 231.029 271.796 231.353V231.58H269.114V231.118H271.252C271.252 230.921 271.213 230.746 271.134 230.592C271.057 230.438 270.947 230.317 270.804 230.227C270.662 230.138 270.494 230.094 270.301 230.094C270.088 230.094 269.904 230.147 269.748 230.252C269.594 230.357 269.475 230.493 269.392 230.66C269.309 230.828 269.268 231.008 269.268 231.199V231.507C269.268 231.77 269.313 231.993 269.404 232.176C269.496 232.357 269.623 232.495 269.786 232.59C269.95 232.684 270.139 232.731 270.355 232.731C270.496 232.731 270.622 232.711 270.736 232.672C270.851 232.631 270.949 232.571 271.033 232.491C271.116 232.409 271.18 232.308 271.225 232.187L271.742 232.332C271.687 232.507 271.596 232.661 271.468 232.794C271.339 232.926 271.181 233.028 270.992 233.102C270.803 233.175 270.591 233.211 270.355 233.211ZM272.609 234.444V229.659H273.126V230.212H273.189C273.229 230.151 273.283 230.074 273.352 229.981C273.423 229.885 273.525 229.801 273.656 229.727C273.789 229.651 273.969 229.614 274.195 229.614C274.488 229.614 274.746 229.687 274.97 229.833C275.194 229.98 275.368 230.187 275.493 230.456C275.619 230.725 275.681 231.042 275.681 231.408C275.681 231.776 275.619 232.096 275.493 232.366C275.368 232.635 275.194 232.843 274.972 232.991C274.75 233.138 274.494 233.211 274.204 233.211C273.981 233.211 273.802 233.174 273.667 233.1C273.533 233.025 273.429 232.939 273.357 232.844C273.284 232.747 273.229 232.667 273.189 232.604H273.144V234.444H272.609ZM273.135 231.399C273.135 231.662 273.173 231.893 273.25 232.094C273.328 232.294 273.44 232.45 273.588 232.563C273.736 232.675 273.917 232.731 274.132 232.731C274.355 232.731 274.542 232.672 274.691 232.554C274.842 232.435 274.956 232.275 275.031 232.074C275.108 231.871 275.147 231.646 275.147 231.399C275.147 231.154 275.109 230.934 275.033 230.737C274.959 230.539 274.847 230.383 274.696 230.268C274.546 230.152 274.358 230.094 274.132 230.094C273.914 230.094 273.732 230.149 273.584 230.259C273.436 230.368 273.324 230.52 273.248 230.717C273.173 230.912 273.135 231.139 273.135 231.399Z" fill="#969696"/>
<path d="M293.97 230.819C293.97 231.308 293.882 231.731 293.705 232.087C293.528 232.444 293.286 232.719 292.978 232.912C292.67 233.105 292.318 233.202 291.922 233.202C291.526 233.202 291.175 233.105 290.866 232.912C290.558 232.719 290.316 232.444 290.139 232.087C289.963 231.731 289.874 231.308 289.874 230.819C289.874 230.329 289.963 229.907 290.139 229.55C290.316 229.194 290.558 228.919 290.866 228.725C291.175 228.532 291.526 228.435 291.922 228.435C292.318 228.435 292.67 228.532 292.978 228.725C293.286 228.919 293.528 229.194 293.705 229.55C293.882 229.907 293.97 230.329 293.97 230.819ZM293.427 230.819C293.427 230.417 293.359 230.078 293.225 229.802C293.092 229.525 292.911 229.316 292.683 229.174C292.457 229.032 292.203 228.961 291.922 228.961C291.641 228.961 291.387 229.032 291.159 229.174C290.932 229.316 290.752 229.525 290.617 229.802C290.484 230.078 290.418 230.417 290.418 230.819C290.418 231.221 290.484 231.56 290.617 231.836C290.752 232.112 290.932 232.322 291.159 232.464C291.387 232.606 291.641 232.677 291.922 232.677C292.203 232.677 292.457 232.606 292.683 232.464C292.911 232.322 293.092 232.112 293.225 231.836C293.359 231.56 293.427 231.221 293.427 230.819ZM296.256 233.211C295.93 233.211 295.649 233.134 295.413 232.98C295.178 232.826 294.997 232.614 294.87 232.343C294.743 232.073 294.679 231.764 294.679 231.417C294.679 231.063 294.744 230.752 294.874 230.481C295.006 230.209 295.188 229.997 295.422 229.845C295.658 229.691 295.933 229.614 296.247 229.614C296.492 229.614 296.712 229.659 296.909 229.749C297.105 229.84 297.266 229.967 297.391 230.13C297.517 230.293 297.594 230.483 297.625 230.701H297.09C297.049 230.542 296.958 230.402 296.818 230.28C296.679 230.156 296.492 230.094 296.256 230.094C296.048 230.094 295.865 230.148 295.708 230.257C295.552 230.364 295.431 230.516 295.343 230.712C295.257 230.907 295.214 231.136 295.214 231.399C295.214 231.668 295.256 231.902 295.341 232.101C295.427 232.3 295.548 232.455 295.703 232.565C295.86 232.676 296.045 232.731 296.256 232.731C296.395 232.731 296.521 232.707 296.635 232.658C296.748 232.61 296.844 232.541 296.922 232.45C297.001 232.359 297.057 232.251 297.09 232.124H297.625C297.594 232.329 297.52 232.514 297.4 232.679C297.282 232.842 297.126 232.972 296.931 233.068C296.738 233.164 296.513 233.211 296.256 233.211ZM299.92 229.659V230.112H298.116V229.659H299.92ZM298.642 228.825H299.176V232.142C299.176 232.293 299.198 232.406 299.242 232.482C299.287 232.556 299.345 232.606 299.414 232.631C299.485 232.655 299.56 232.667 299.639 232.667C299.698 232.667 299.746 232.664 299.784 232.658C299.821 232.651 299.852 232.645 299.874 232.64L299.983 233.121C299.947 233.134 299.896 233.148 299.831 233.161C299.766 233.176 299.684 233.184 299.584 233.184C299.433 233.184 299.285 233.152 299.14 233.087C298.997 233.022 298.877 232.923 298.782 232.79C298.689 232.657 298.642 232.489 298.642 232.287V228.825Z" fill="#969696"/>
<path d="M318.278 228.499V233.139H317.734L315.206 229.496H315.16V233.139H314.598V228.499H315.142L317.68 232.151H317.725V228.499H318.278ZM320.743 233.211C320.429 233.211 320.153 233.136 319.916 232.987C319.681 232.837 319.496 232.628 319.363 232.359C319.232 232.09 319.166 231.776 319.166 231.417C319.166 231.054 319.232 230.738 319.363 230.468C319.496 230.197 319.681 229.987 319.916 229.838C320.153 229.688 320.429 229.614 320.743 229.614C321.057 229.614 321.332 229.688 321.568 229.838C321.805 229.987 321.989 230.197 322.121 230.468C322.253 230.738 322.32 231.054 322.32 231.417C322.32 231.776 322.253 232.09 322.121 232.359C321.989 232.628 321.805 232.837 321.568 232.987C321.332 233.136 321.057 233.211 320.743 233.211ZM320.743 232.731C320.982 232.731 321.178 232.67 321.332 232.547C321.486 232.425 321.6 232.264 321.674 232.065C321.748 231.865 321.785 231.649 321.785 231.417C321.785 231.184 321.748 230.968 321.674 230.767C321.6 230.566 321.486 230.403 321.332 230.28C321.178 230.156 320.982 230.094 320.743 230.094C320.504 230.094 320.308 230.156 320.154 230.28C320 230.403 319.886 230.566 319.812 230.767C319.738 230.968 319.701 231.184 319.701 231.417C319.701 231.649 319.738 231.865 319.812 232.065C319.886 232.264 320 232.425 320.154 232.547C320.308 232.67 320.504 232.731 320.743 232.731ZM325.857 229.659L324.57 233.139H324.026L322.74 229.659H323.32L324.28 232.432H324.316L325.277 229.659H325.857Z" fill="#969696"/>
<path d="M341.808 233.139H340.377V228.499H341.872C342.322 228.499 342.707 228.592 343.027 228.778C343.347 228.962 343.593 229.227 343.764 229.573C343.934 229.917 344.02 230.329 344.02 230.81C344.02 231.293 343.933 231.709 343.761 232.058C343.589 232.405 343.338 232.673 343.009 232.86C342.68 233.046 342.28 233.139 341.808 233.139ZM340.938 232.64H341.772C342.156 232.64 342.474 232.566 342.726 232.418C342.978 232.27 343.166 232.06 343.29 231.786C343.414 231.513 343.476 231.187 343.476 230.81C343.476 230.435 343.415 230.113 343.292 229.842C343.17 229.57 342.987 229.362 342.744 229.217C342.501 229.071 342.198 228.997 341.836 228.997H340.938V232.64ZM346.349 233.211C346.013 233.211 345.724 233.137 345.481 232.989C345.239 232.84 345.053 232.631 344.921 232.364C344.791 232.095 344.726 231.782 344.726 231.426C344.726 231.069 344.791 230.755 344.921 230.483C345.053 230.21 345.235 229.997 345.47 229.845C345.705 229.691 345.98 229.614 346.294 229.614C346.475 229.614 346.654 229.644 346.831 229.704C347.008 229.765 347.169 229.863 347.314 229.999C347.459 230.133 347.574 230.311 347.66 230.533C347.746 230.755 347.789 231.029 347.789 231.353V231.58H345.107V231.118H347.246C347.246 230.921 347.206 230.746 347.128 230.592C347.051 230.438 346.941 230.317 346.797 230.227C346.655 230.138 346.487 230.094 346.294 230.094C346.081 230.094 345.897 230.147 345.741 230.252C345.587 230.357 345.469 230.493 345.386 230.66C345.303 230.828 345.261 231.008 345.261 231.199V231.507C345.261 231.77 345.306 231.993 345.397 232.176C345.489 232.357 345.617 232.495 345.78 232.59C345.943 232.684 346.133 232.731 346.349 232.731C346.489 232.731 346.616 232.711 346.729 232.672C346.844 232.631 346.943 232.571 347.026 232.491C347.109 232.409 347.173 232.308 347.218 232.187L347.735 232.332C347.681 232.507 347.589 232.661 347.461 232.794C347.333 232.926 347.174 233.028 346.985 233.102C346.796 233.175 346.584 233.211 346.349 233.211ZM350.016 233.211C349.69 233.211 349.409 233.134 349.174 232.98C348.938 232.826 348.757 232.614 348.63 232.343C348.503 232.073 348.44 231.764 348.44 231.417C348.44 231.063 348.505 230.752 348.634 230.481C348.766 230.209 348.949 229.997 349.183 229.845C349.418 229.691 349.693 229.614 350.007 229.614C350.252 229.614 350.473 229.659 350.669 229.749C350.865 229.84 351.026 229.967 351.151 230.13C351.277 230.293 351.355 230.483 351.385 230.701H350.85C350.809 230.542 350.719 230.402 350.578 230.28C350.439 230.156 350.252 230.094 350.016 230.094C349.808 230.094 349.625 230.148 349.468 230.257C349.313 230.364 349.191 230.516 349.103 230.712C349.017 230.907 348.974 231.136 348.974 231.399C348.974 231.668 349.017 231.902 349.101 232.101C349.187 232.3 349.308 232.455 349.464 232.565C349.621 232.676 349.805 232.731 350.016 232.731C350.155 232.731 350.281 232.707 350.395 232.658C350.508 232.61 350.604 232.541 350.682 232.45C350.761 232.359 350.817 232.251 350.85 232.124H351.385C351.355 232.329 351.28 232.514 351.161 232.679C351.043 232.842 350.886 232.972 350.692 233.068C350.498 233.164 350.273 233.211 350.016 233.211Z" fill="#969696"/>
<path d="M38.8531 82.7593L40.9283 78.6541V78.6179H38.5359V78.1195H41.5083V78.6451L39.4421 82.7593H38.8531ZM43.7664 82.8227C43.4251 82.8227 43.1344 82.7298 42.8942 82.5441C42.6541 82.3568 42.4706 82.0857 42.3437 81.7307C42.2168 81.3743 42.1534 80.9438 42.1534 80.4394C42.1534 79.9379 42.2168 79.5098 42.3437 79.1548C42.4721 78.7984 42.6563 78.5265 42.8965 78.3392C43.1381 78.1504 43.4281 78.056 43.7664 78.056C44.1048 78.056 44.394 78.1504 44.6341 78.3392C44.8758 78.5265 45.0601 78.7984 45.1869 79.1548C45.3153 79.5098 45.3795 79.9379 45.3795 80.4394C45.3795 80.9438 45.3161 81.3743 45.1892 81.7307C45.0623 82.0857 44.8788 82.3568 44.6387 82.5441C44.3985 82.7298 44.1078 82.8227 43.7664 82.8227ZM43.7664 82.3243C44.1048 82.3243 44.3676 82.1612 44.5549 81.8349C44.7421 81.5087 44.8358 81.0435 44.8358 80.4394C44.8358 80.0376 44.7927 79.6955 44.7066 79.4131C44.6221 79.1307 44.4997 78.9154 44.3396 78.7674C44.181 78.6194 43.99 78.5454 43.7664 78.5454C43.4312 78.5454 43.1691 78.7108 42.9803 79.0415C42.7915 79.3708 42.6971 79.8367 42.6971 80.4394C42.6971 80.8411 42.7394 81.1825 42.824 81.4634C42.9086 81.7443 43.0302 81.958 43.1887 82.1045C43.3488 82.251 43.5414 82.3243 43.7664 82.3243ZM47.7538 82.8227C47.4124 82.8227 47.1217 82.7298 46.8816 82.5441C46.6414 82.3568 46.4579 82.0857 46.331 81.7307C46.2042 81.3743 46.1407 80.9438 46.1407 80.4394C46.1407 79.9379 46.2042 79.5098 46.331 79.1548C46.4594 78.7984 46.6437 78.5265 46.8838 78.3392C47.1255 78.1504 47.4155 78.056 47.7538 78.056C48.0921 78.056 48.3813 78.1504 48.6215 78.3392C48.8631 78.5265 49.0474 78.7984 49.1743 79.1548C49.3026 79.5098 49.3668 79.9379 49.3668 80.4394C49.3668 80.9438 49.3034 81.3743 49.1765 81.7307C49.0497 82.0857 48.8662 82.3568 48.626 82.5441C48.3859 82.7298 48.0951 82.8227 47.7538 82.8227ZM47.7538 82.3243C48.0921 82.3243 48.3549 82.1612 48.5422 81.8349C48.7295 81.5087 48.8231 81.0435 48.8231 80.4394C48.8231 80.0376 48.7801 79.6955 48.694 79.4131C48.6094 79.1307 48.4871 78.9154 48.327 78.7674C48.1684 78.6194 47.9773 78.5454 47.7538 78.5454C47.4185 78.5454 47.1564 78.7108 46.9676 79.0415C46.7788 79.3708 46.6845 79.8367 46.6845 80.4394C46.6845 80.8411 46.7267 81.1825 46.8113 81.4634C46.8959 81.7443 47.0175 81.958 47.1761 82.1045C47.3362 82.251 47.5287 82.3243 47.7538 82.3243Z" fill="#969696"/>
<path d="M40.2708 104.671C40.0805 104.668 39.8902 104.632 39.6999 104.562C39.5096 104.493 39.3359 104.376 39.1788 104.211C39.0217 104.045 38.8956 103.821 38.8004 103.538C38.7053 103.254 38.6577 102.898 38.6577 102.469C38.6577 102.058 38.6962 101.694 38.7733 101.377C38.8503 101.058 38.962 100.79 39.1086 100.573C39.2551 100.354 39.4318 100.187 39.6387 100.074C39.8471 99.9608 40.082 99.9042 40.3433 99.9042C40.603 99.9042 40.8341 99.9563 41.0365 100.061C41.2404 100.163 41.4066 100.307 41.5349 100.491C41.6633 100.675 41.7464 100.887 41.7841 101.128H41.2314C41.18 100.919 41.0803 100.746 40.9323 100.609C40.7843 100.471 40.5879 100.403 40.3433 100.403C39.9838 100.403 39.7006 100.559 39.4937 100.872C39.2883 101.184 39.1848 101.623 39.1833 102.188H39.2196C39.3041 102.059 39.4046 101.95 39.5209 101.859C39.6387 101.767 39.7686 101.696 39.9106 101.646C40.0525 101.597 40.2028 101.572 40.3614 101.572C40.6272 101.572 40.8704 101.638 41.0909 101.771C41.3114 101.902 41.4881 102.084 41.621 102.317C41.7539 102.548 41.8204 102.813 41.8204 103.112C41.8204 103.399 41.7562 103.662 41.6278 103.901C41.4994 104.138 41.319 104.326 41.0864 104.467C40.8553 104.606 40.5834 104.674 40.2708 104.671ZM40.2708 104.172C40.4611 104.172 40.6317 104.125 40.7828 104.03C40.9353 103.935 41.0554 103.807 41.143 103.647C41.2321 103.487 41.2767 103.309 41.2767 103.112C41.2767 102.92 41.2336 102.746 41.1475 102.589C41.0629 102.43 40.9459 102.304 40.7964 102.21C40.6484 102.117 40.4792 102.07 40.2889 102.07C40.1454 102.07 40.0117 102.099 39.8879 102.156C39.764 102.212 39.6553 102.289 39.5617 102.387C39.4695 102.485 39.397 102.598 39.3442 102.725C39.2913 102.85 39.2649 102.982 39.2649 103.121C39.2649 103.305 39.3079 103.478 39.394 103.638C39.4816 103.798 39.6009 103.927 39.752 104.025C39.9045 104.123 40.0774 104.172 40.2708 104.172ZM44.2247 104.671C43.8833 104.671 43.5926 104.578 43.3525 104.392C43.1123 104.205 42.9288 103.934 42.8019 103.579C42.6751 103.222 42.6116 102.792 42.6116 102.288C42.6116 101.786 42.6751 101.358 42.8019 101.003C42.9303 100.647 43.1146 100.375 43.3547 100.187C43.5964 99.9986 43.8864 99.9042 44.2247 99.9042C44.563 99.9042 44.8522 99.9986 45.0924 100.187C45.334 100.375 45.5183 100.647 45.6452 101.003C45.7735 101.358 45.8377 101.786 45.8377 102.288C45.8377 102.792 45.7743 103.222 45.6474 103.579C45.5206 103.934 45.3371 104.205 45.0969 104.392C44.8568 104.578 44.566 104.671 44.2247 104.671ZM44.2247 104.172C44.563 104.172 44.8258 104.009 45.0131 103.683C45.2004 103.357 45.294 102.892 45.294 102.288C45.294 101.886 45.251 101.544 45.1649 101.261C45.0803 100.979 44.958 100.764 44.7979 100.616C44.6393 100.468 44.4482 100.394 44.2247 100.394C43.8894 100.394 43.6273 100.559 43.4385 100.89C43.2498 101.219 43.1554 101.685 43.1554 102.288C43.1554 102.689 43.1976 103.031 43.2822 103.312C43.3668 103.592 43.4884 103.806 43.647 103.953C43.8071 104.099 43.9996 104.172 44.2247 104.172ZM48.212 104.671C47.8707 104.671 47.5799 104.578 47.3398 104.392C47.0996 104.205 46.9161 103.934 46.7893 103.579C46.6624 103.222 46.599 102.792 46.599 102.288C46.599 101.786 46.6624 101.358 46.7893 101.003C46.9176 100.647 47.1019 100.375 47.3421 100.187C47.5837 99.9986 47.8737 99.9042 48.212 99.9042C48.5503 99.9042 48.8396 99.9986 49.0797 100.187C49.3214 100.375 49.5056 100.647 49.6325 101.003C49.7609 101.358 49.8251 101.786 49.8251 102.288C49.8251 102.792 49.7616 103.222 49.6348 103.579C49.5079 103.934 49.3244 104.205 49.0842 104.392C48.8441 104.578 48.5534 104.671 48.212 104.671ZM48.212 104.172C48.5503 104.172 48.8131 104.009 49.0004 103.683C49.1877 103.357 49.2813 102.892 49.2813 102.288C49.2813 101.886 49.2383 101.544 49.1522 101.261C49.0676 100.979 48.9453 100.764 48.7852 100.616C48.6266 100.468 48.4355 100.394 48.212 100.394C47.8767 100.394 47.6147 100.559 47.4259 100.89C47.2371 101.219 47.1427 101.685 47.1427 102.288C47.1427 102.689 47.185 103.031 47.2696 103.312C47.3541 103.592 47.4757 103.806 47.6343 103.953C47.7944 104.099 47.987 104.172 48.212 104.172Z" fill="#969696"/>
<path d="M40.23 126.519C39.9642 126.519 39.7248 126.466 39.5118 126.36C39.2989 126.254 39.1282 126.109 38.9998 125.925C38.8714 125.741 38.8012 125.531 38.7891 125.295H39.3328C39.354 125.505 39.4491 125.679 39.6183 125.816C39.789 125.952 39.9929 126.02 40.23 126.02C40.4203 126.02 40.5895 125.976 40.7375 125.887C40.887 125.798 41.004 125.675 41.0886 125.52C41.1747 125.363 41.2178 125.185 41.2178 124.987C41.2178 124.785 41.1732 124.604 41.0841 124.446C40.9965 124.286 40.8757 124.16 40.7216 124.067C40.5676 123.975 40.3916 123.929 40.1937 123.927C40.0518 123.925 39.906 123.947 39.7565 123.993C39.607 124.036 39.4839 124.093 39.3872 124.163L38.8616 124.099L39.1425 121.816H41.5531V122.314H39.6138L39.4506 123.682H39.4778C39.573 123.607 39.6923 123.544 39.8358 123.494C39.9793 123.444 40.1288 123.42 40.2844 123.42C40.5683 123.42 40.8213 123.487 41.0433 123.623C41.2668 123.758 41.442 123.942 41.5689 124.176C41.6973 124.41 41.7615 124.678 41.7615 124.978C41.7615 125.274 41.695 125.539 41.5621 125.771C41.4307 126.002 41.2495 126.185 41.0184 126.319C40.7873 126.452 40.5245 126.519 40.23 126.519ZM44.1748 126.519C43.8335 126.519 43.5428 126.426 43.3026 126.24C43.0625 126.053 42.879 125.782 42.7521 125.427C42.6252 125.07 42.5618 124.64 42.5618 124.135C42.5618 123.634 42.6252 123.206 42.7521 122.851C42.8805 122.494 43.0647 122.223 43.3049 122.035C43.5465 121.846 43.8365 121.752 44.1748 121.752C44.5132 121.752 44.8024 121.846 45.0425 122.035C45.2842 122.223 45.4685 122.494 45.5953 122.851C45.7237 123.206 45.7879 123.634 45.7879 124.135C45.7879 124.64 45.7245 125.07 45.5976 125.427C45.4707 125.782 45.2872 126.053 45.0471 126.24C44.8069 126.426 44.5162 126.519 44.1748 126.519ZM44.1748 126.02C44.5132 126.02 44.776 125.857 44.9632 125.531C45.1505 125.205 45.2442 124.74 45.2442 124.135C45.2442 123.734 45.2011 123.392 45.115 123.109C45.0305 122.827 44.9081 122.611 44.748 122.463C44.5894 122.315 44.3984 122.241 44.1748 122.241C43.8395 122.241 43.5775 122.407 43.3887 122.738C43.1999 123.067 43.1055 123.533 43.1055 124.135C43.1055 124.537 43.1478 124.879 43.2324 125.159C43.317 125.44 43.4385 125.654 43.5971 125.801C43.7572 125.947 43.9498 126.02 44.1748 126.02ZM48.1622 126.519C47.8208 126.519 47.5301 126.426 47.2899 126.24C47.0498 126.053 46.8663 125.782 46.7394 125.427C46.6126 125.07 46.5491 124.64 46.5491 124.135C46.5491 123.634 46.6126 123.206 46.7394 122.851C46.8678 122.494 47.0521 122.223 47.2922 122.035C47.5339 121.846 47.8239 121.752 48.1622 121.752C48.5005 121.752 48.7897 121.846 49.0299 122.035C49.2715 122.223 49.4558 122.494 49.5827 122.851C49.711 123.206 49.7752 123.634 49.7752 124.135C49.7752 124.64 49.7118 125.07 49.5849 125.427C49.4581 125.782 49.2745 126.053 49.0344 126.24C48.7943 126.426 48.5035 126.519 48.1622 126.519ZM48.1622 126.02C48.5005 126.02 48.7633 125.857 48.9506 125.531C49.1379 125.205 49.2315 124.74 49.2315 124.135C49.2315 123.734 49.1885 123.392 49.1024 123.109C49.0178 122.827 48.8954 122.611 48.7354 122.463C48.5768 122.315 48.3857 122.241 48.1622 122.241C47.8269 122.241 47.5648 122.407 47.376 122.738C47.1872 123.067 47.0928 123.533 47.0928 124.135C47.0928 124.537 47.1351 124.879 47.2197 125.159C47.3043 125.44 47.4259 125.654 47.5845 125.801C47.7446 125.947 47.9371 126.02 48.1622 126.02Z" fill="#969696"/>
<path d="M39.0654 147.352V146.89L41.1044 143.664H41.4397V144.38H41.2131L39.6726 146.817V146.854H42.4184V147.352H39.0654ZM41.2494 148.303V147.211V146.996V143.664H41.784V148.303H41.2494ZM44.7808 148.367C44.4394 148.367 44.1487 148.274 43.9085 148.088C43.6684 147.901 43.4849 147.63 43.358 147.275C43.2311 146.918 43.1677 146.488 43.1677 145.984C43.1677 145.482 43.2311 145.054 43.358 144.699C43.4864 144.343 43.6706 144.071 43.9108 143.883C44.1524 143.695 44.4424 143.6 44.7808 143.6C45.1191 143.6 45.4083 143.695 45.6485 143.883C45.8901 144.071 46.0744 144.343 46.2012 144.699C46.3296 145.054 46.3938 145.482 46.3938 145.984C46.3938 146.488 46.3304 146.918 46.2035 147.275C46.0766 147.63 45.8931 147.901 45.653 148.088C45.4128 148.274 45.1221 148.367 44.7808 148.367ZM44.7808 147.868C45.1191 147.868 45.3819 147.705 45.5692 147.379C45.7564 147.053 45.8501 146.588 45.8501 145.984C45.8501 145.582 45.807 145.24 45.7209 144.957C45.6364 144.675 45.514 144.46 45.3539 144.312C45.1953 144.164 45.0043 144.09 44.7808 144.09C44.4455 144.09 44.1834 144.255 43.9946 144.586C43.8058 144.915 43.7114 145.381 43.7114 145.984C43.7114 146.385 43.7537 146.727 43.8383 147.008C43.9229 147.289 44.0445 147.502 44.203 147.649C44.3631 147.795 44.5557 147.868 44.7808 147.868ZM48.7681 148.367C48.4267 148.367 48.136 148.274 47.8959 148.088C47.6557 147.901 47.4722 147.63 47.3453 147.275C47.2185 146.918 47.155 146.488 47.155 145.984C47.155 145.482 47.2185 145.054 47.3453 144.699C47.4737 144.343 47.658 144.071 47.8981 143.883C48.1398 143.695 48.4298 143.6 48.7681 143.6C49.1064 143.6 49.3956 143.695 49.6358 143.883C49.8774 144.071 50.0617 144.343 50.1886 144.699C50.317 145.054 50.3811 145.482 50.3811 145.984C50.3811 146.488 50.3177 146.918 50.1908 147.275C50.064 147.63 49.8805 147.901 49.6403 148.088C49.4002 148.274 49.1094 148.367 48.7681 148.367ZM48.7681 147.868C49.1064 147.868 49.3692 147.705 49.5565 147.379C49.7438 147.053 49.8374 146.588 49.8374 145.984C49.8374 145.582 49.7944 145.24 49.7083 144.957C49.6237 144.675 49.5014 144.46 49.3413 144.312C49.1827 144.164 48.9916 144.09 48.7681 144.09C48.4328 144.09 48.1707 144.255 47.9819 144.586C47.7932 144.915 47.6988 145.381 47.6988 145.984C47.6988 146.385 47.741 146.727 47.8256 147.008C47.9102 147.289 48.0318 147.502 48.1904 147.649C48.3505 147.795 48.543 147.868 48.7681 147.868Z" fill="#969696"/>
<path d="M40.7575 170.215C40.4584 170.215 40.1918 170.164 39.9577 170.061C39.7251 169.958 39.5401 169.816 39.4027 169.633C39.2667 169.449 39.1927 169.235 39.1807 168.992H39.7516C39.7636 169.141 39.815 169.27 39.9056 169.379C39.9962 169.486 40.1148 169.569 40.2613 169.628C40.4078 169.687 40.5702 169.717 40.7484 169.717C40.9478 169.717 41.1245 169.682 41.2785 169.612C41.4326 169.543 41.5534 169.446 41.641 169.322C41.7286 169.199 41.7724 169.055 41.7724 168.892C41.7724 168.721 41.7301 168.571 41.6455 168.441C41.561 168.31 41.4371 168.207 41.274 168.133C41.1109 168.059 40.9115 168.022 40.6759 168.022H40.3044V167.524H40.6759C40.8602 167.524 41.0218 167.49 41.1607 167.424C41.3012 167.357 41.4107 167.264 41.4892 167.143C41.5693 167.022 41.6093 166.88 41.6093 166.717C41.6093 166.56 41.5746 166.423 41.5051 166.307C41.4356 166.191 41.3374 166.1 41.2106 166.035C41.0852 165.97 40.9372 165.938 40.7665 165.938C40.6064 165.938 40.4554 165.967 40.3134 166.026C40.173 166.083 40.0582 166.167 39.9691 166.278C39.8799 166.386 39.8316 166.518 39.8241 166.672H39.2803C39.2894 166.429 39.3626 166.216 39.5001 166.033C39.6375 165.849 39.8173 165.705 40.0393 165.602C40.2628 165.5 40.5083 165.448 40.7756 165.448C41.0626 165.448 41.3087 165.507 41.5141 165.623C41.7196 165.738 41.8774 165.889 41.9876 166.078C42.0979 166.267 42.153 166.471 42.153 166.69C42.153 166.951 42.0843 167.174 41.9469 167.358C41.8109 167.542 41.6259 167.67 41.3918 167.741V167.777C41.6848 167.826 41.9136 167.95 42.0783 168.151C42.2429 168.351 42.3252 168.597 42.3252 168.892C42.3252 169.144 42.2565 169.371 42.119 169.572C41.9831 169.771 41.7973 169.928 41.5617 170.043C41.3261 170.158 41.058 170.215 40.7575 170.215ZM44.7652 170.215C44.4238 170.215 44.1331 170.122 43.893 169.936C43.6528 169.749 43.4693 169.478 43.3424 169.123C43.2156 168.767 43.1521 168.336 43.1521 167.832C43.1521 167.33 43.2156 166.902 43.3424 166.547C43.4708 166.191 43.6551 165.919 43.8952 165.732C44.1369 165.543 44.4269 165.448 44.7652 165.448C45.1035 165.448 45.3927 165.543 45.6329 165.732C45.8745 165.919 46.0588 166.191 46.1857 166.547C46.314 166.902 46.3782 167.33 46.3782 167.832C46.3782 168.336 46.3148 168.767 46.1879 169.123C46.0611 169.478 45.8776 169.749 45.6374 169.936C45.3973 170.122 45.1065 170.215 44.7652 170.215ZM44.7652 169.717C45.1035 169.717 45.3663 169.554 45.5536 169.227C45.7409 168.901 45.8345 168.436 45.8345 167.832C45.8345 167.43 45.7915 167.088 45.7054 166.805C45.6208 166.523 45.4985 166.308 45.3384 166.16C45.1798 166.012 44.9887 165.938 44.7652 165.938C44.4299 165.938 44.1678 166.103 43.979 166.434C43.7902 166.763 43.6959 167.229 43.6959 167.832C43.6959 168.233 43.7381 168.575 43.8227 168.856C43.9073 169.137 44.0289 169.35 44.1875 169.497C44.3476 169.643 44.5401 169.717 44.7652 169.717ZM48.7525 170.215C48.4112 170.215 48.1204 170.122 47.8803 169.936C47.6401 169.749 47.4566 169.478 47.3298 169.123C47.2029 168.767 47.1395 168.336 47.1395 167.832C47.1395 167.33 47.2029 166.902 47.3298 166.547C47.4581 166.191 47.6424 165.919 47.8825 165.732C48.1242 165.543 48.4142 165.448 48.7525 165.448C49.0908 165.448 49.3801 165.543 49.6202 165.732C49.8619 165.919 50.0461 166.191 50.173 166.547C50.3014 166.902 50.3656 167.33 50.3656 167.832C50.3656 168.336 50.3021 168.767 50.1753 169.123C50.0484 169.478 49.8649 169.749 49.6247 169.936C49.3846 170.122 49.0939 170.215 48.7525 170.215ZM48.7525 169.717C49.0908 169.717 49.3536 169.554 49.5409 169.227C49.7282 168.901 49.8218 168.436 49.8218 167.832C49.8218 167.43 49.7788 167.088 49.6927 166.805C49.6081 166.523 49.4858 166.308 49.3257 166.16C49.1671 166.012 48.976 165.938 48.7525 165.938C48.4172 165.938 48.1552 166.103 47.9664 166.434C47.7776 166.763 47.6832 167.229 47.6832 167.832C47.6832 168.233 47.7255 168.575 47.8101 168.856C47.8946 169.137 48.0162 169.35 48.1748 169.497C48.3349 169.643 48.5275 169.717 48.7525 169.717Z" fill="#969696"/>
<path d="M38.7894 192V191.592L40.3209 189.915C40.5006 189.719 40.6486 189.548 40.7649 189.403C40.8812 189.257 40.9673 189.119 41.0232 188.991C41.0806 188.861 41.1093 188.725 41.1093 188.583C41.1093 188.42 41.07 188.279 40.9915 188.159C40.9145 188.04 40.8087 187.948 40.6743 187.883C40.5399 187.818 40.3889 187.786 40.2212 187.786C40.043 187.786 39.8874 187.823 39.7545 187.897C39.6231 187.969 39.5212 188.071 39.4487 188.202C39.3777 188.334 39.3422 188.488 39.3422 188.665H38.8075C38.8075 188.393 38.8702 188.154 38.9956 187.949C39.1209 187.743 39.2916 187.583 39.5076 187.468C39.7251 187.354 39.969 187.296 40.2393 187.296C40.5112 187.296 40.7521 187.354 40.962 187.468C41.172 187.583 41.3366 187.738 41.4559 187.933C41.5752 188.128 41.6349 188.344 41.6349 188.583C41.6349 188.754 41.6039 188.921 41.542 189.084C41.4816 189.245 41.3759 189.426 41.2248 189.625C41.0753 189.823 40.8676 190.065 40.6018 190.35L39.5597 191.465V191.501H41.7165V192H38.7894ZM44.1655 192.063C43.8242 192.063 43.5334 191.97 43.2933 191.784C43.0531 191.597 42.8696 191.326 42.7427 190.971C42.6159 190.615 42.5524 190.184 42.5524 189.68C42.5524 189.178 42.6159 188.75 42.7427 188.395C42.8711 188.039 43.0554 187.767 43.2955 187.579C43.5372 187.391 43.8272 187.296 44.1655 187.296C44.5038 187.296 44.793 187.391 45.0332 187.579C45.2749 187.767 45.4591 188.039 45.586 188.395C45.7144 188.75 45.7786 189.178 45.7786 189.68C45.7786 190.184 45.7151 190.615 45.5882 190.971C45.4614 191.326 45.2779 191.597 45.0377 191.784C44.7976 191.97 44.5068 192.063 44.1655 192.063ZM44.1655 191.565C44.5038 191.565 44.7666 191.401 44.9539 191.075C45.1412 190.749 45.2348 190.284 45.2348 189.68C45.2348 189.278 45.1918 188.936 45.1057 188.653C45.0211 188.371 44.8988 188.156 44.7387 188.008C44.5801 187.86 44.389 187.786 44.1655 187.786C43.8302 187.786 43.5682 187.951 43.3794 188.282C43.1906 188.611 43.0962 189.077 43.0962 189.68C43.0962 190.081 43.1385 190.423 43.223 190.704C43.3076 190.985 43.4292 191.198 43.5878 191.345C43.7479 191.491 43.9405 191.565 44.1655 191.565ZM48.1528 192.063C47.8115 192.063 47.5207 191.97 47.2806 191.784C47.0405 191.597 46.8569 191.326 46.7301 190.971C46.6032 190.615 46.5398 190.184 46.5398 189.68C46.5398 189.178 46.6032 188.75 46.7301 188.395C46.8585 188.039 47.0427 187.767 47.2829 187.579C47.5245 187.391 47.8145 187.296 48.1528 187.296C48.4911 187.296 48.7804 187.391 49.0205 187.579C49.2622 187.767 49.4464 188.039 49.5733 188.395C49.7017 188.75 49.7659 189.178 49.7659 189.68C49.7659 190.184 49.7024 190.615 49.5756 190.971C49.4487 191.326 49.2652 191.597 49.0251 191.784C48.7849 191.97 48.4942 192.063 48.1528 192.063ZM48.1528 191.565C48.4911 191.565 48.7539 191.401 48.9412 191.075C49.1285 190.749 49.2222 190.284 49.2222 189.68C49.2222 189.278 49.1791 188.936 49.093 188.653C49.0084 188.371 48.8861 188.156 48.726 188.008C48.5674 187.86 48.3764 187.786 48.1528 187.786C47.8175 187.786 47.5555 187.951 47.3667 188.282C47.1779 188.611 47.0835 189.077 47.0835 189.68C47.0835 190.081 47.1258 190.423 47.2104 190.704C47.2949 190.985 47.4165 191.198 47.5751 191.345C47.7352 191.491 47.9278 191.565 48.1528 191.565Z" fill="#969696"/>
<path d="M40.399 209.208V213.848H39.8372V209.797H39.81L38.6772 210.549V209.978L39.8372 209.208H40.399ZM43.2468 213.911C42.9055 213.911 42.6147 213.818 42.3746 213.632C42.1344 213.445 41.9509 213.174 41.8241 212.819C41.6972 212.463 41.6337 212.032 41.6337 211.528C41.6337 211.026 41.6972 210.598 41.8241 210.243C41.9524 209.887 42.1367 209.615 42.3768 209.428C42.6185 209.239 42.9085 209.144 43.2468 209.144C43.5851 209.144 43.8744 209.239 44.1145 209.428C44.3562 209.615 44.5404 209.887 44.6673 210.243C44.7957 210.598 44.8599 211.026 44.8599 211.528C44.8599 212.032 44.7964 212.463 44.6696 212.819C44.5427 213.174 44.3592 213.445 44.119 213.632C43.8789 213.818 43.5881 213.911 43.2468 213.911ZM43.2468 213.413C43.5851 213.413 43.8479 213.25 44.0352 212.923C44.2225 212.597 44.3161 212.132 44.3161 211.528C44.3161 211.126 44.2731 210.784 44.187 210.501C44.1024 210.219 43.9801 210.004 43.82 209.856C43.6614 209.708 43.4703 209.634 43.2468 209.634C42.9115 209.634 42.6495 209.799 42.4607 210.13C42.2719 210.459 42.1775 210.925 42.1775 211.528C42.1775 211.93 42.2198 212.271 42.3043 212.552C42.3889 212.833 42.5105 213.046 42.6691 213.193C42.8292 213.339 43.0218 213.413 43.2468 213.413ZM47.2341 213.911C46.8928 213.911 46.6021 213.818 46.3619 213.632C46.1218 213.445 45.9383 213.174 45.8114 212.819C45.6845 212.463 45.6211 212.032 45.6211 211.528C45.6211 211.026 45.6845 210.598 45.8114 210.243C45.9398 209.887 46.124 209.615 46.3642 209.428C46.6058 209.239 46.8958 209.144 47.2341 209.144C47.5725 209.144 47.8617 209.239 48.1018 209.428C48.3435 209.615 48.5278 209.887 48.6546 210.243C48.783 210.598 48.8472 211.026 48.8472 211.528C48.8472 212.032 48.7838 212.463 48.6569 212.819C48.53 213.174 48.3465 213.445 48.1064 213.632C47.8662 213.818 47.5755 213.911 47.2341 213.911ZM47.2341 213.413C47.5725 213.413 47.8353 213.25 48.0225 212.923C48.2098 212.597 48.3035 212.132 48.3035 211.528C48.3035 211.126 48.2604 210.784 48.1743 210.501C48.0897 210.219 47.9674 210.004 47.8073 209.856C47.6487 209.708 47.4577 209.634 47.2341 209.634C46.8988 209.634 46.6368 209.799 46.448 210.13C46.2592 210.459 46.1648 210.925 46.1648 211.528C46.1648 211.93 46.2071 212.271 46.2917 212.552C46.3763 212.833 46.4978 213.046 46.6564 213.193C46.8165 213.339 47.0091 213.413 47.2341 213.413Z" fill="#969696"/>
<line x1="59.6455" y1="86.0124" x2="351.746" y2="86.0124" stroke="#2C2C2C" stroke-width="0.455695"/>
<line x1="59.6455" y1="104.696" x2="351.746" y2="104.696" stroke="#2C2C2C" stroke-width="0.455695"/>
<line x1="59.6455" y1="123.379" x2="351.746" y2="123.379" stroke="#2C2C2C" stroke-width="0.455695"/>
<line x1="59.6455" y1="142.063" x2="351.746" y2="142.063" stroke="#2C2C2C" stroke-width="0.455695"/>
<line x1="59.6455" y1="160.746" x2="351.746" y2="160.746" stroke="#2C2C2C" stroke-width="0.455695"/>
<line x1="59.6455" y1="179.43" x2="351.746" y2="179.43" stroke="#2C2C2C" stroke-width="0.455695"/>
<line x1="59.6455" y1="198.113" x2="351.746" y2="198.113" stroke="#2C2C2C" stroke-width="0.455695"/>
<line x1="59.6455" y1="216.797" x2="351.746" y2="216.797" stroke="#2C2C2C" stroke-width="0.455695"/>
<path d="M121.526 176.663L103.43 169.978C100.774 168.997 97.9577 168.519 95.1263 168.57L88.6903 168.685C79.7459 168.846 71.7229 174.226 68.1786 182.439L59.6455 202.215V216.569H351.51L351.746 132.721C342.045 139.529 328.735 137.696 321.236 128.52L317.787 124.301C311.12 116.143 299.73 113.62 290.242 118.199L268.246 128.814C267.256 129.292 266.303 129.84 265.393 130.455L232.99 152.347C230.351 154.129 227.368 155.339 224.234 155.898L208.214 158.754C201.184 160.007 193.977 157.852 188.789 152.946C178.01 142.754 160.492 145.587 153.475 158.657L149.496 166.067C144.12 176.081 132.187 180.601 121.526 176.663Z" fill="url(#paint3_linear_1763_8376)" fill-opacity="0.2"/>
<path d="M349.316 132.666C349.316 134.008 350.404 135.096 351.746 135.096C353.088 135.096 354.176 134.008 354.176 132.666C354.176 131.323 353.088 130.235 351.746 130.235C350.404 130.235 349.316 131.323 349.316 132.666ZM321.227 128.464L320.874 128.753L321.227 128.464ZM290.271 118.166L290.074 117.755L290.271 118.166ZM317.779 124.255L317.426 124.544L317.779 124.255ZM265.393 130.405L265.648 130.782L265.393 130.405ZM268.244 128.769L268.442 129.18L268.244 128.769ZM224.937 155.895L225.042 156.339L224.937 155.895ZM232.439 152.613L232.694 152.991L232.439 152.613ZM190.665 153.814L190.358 154.152L190.665 153.814ZM211.222 159.131L211.118 158.687L211.222 159.131ZM153.583 158.337L153.181 158.121L153.583 158.337ZM149.497 165.928L149.898 166.144L149.497 165.928ZM103.224 169.754L103.067 170.182L121.398 176.937L121.556 176.509L121.713 176.081L103.382 169.327L103.224 169.754ZM149.497 165.928L149.898 166.144L153.984 158.553L153.583 158.337L153.181 158.121L149.095 165.712L149.497 165.928ZM188.972 152.275L188.665 152.613L190.358 154.152L190.665 153.814L190.971 153.477L189.278 151.938L188.972 152.275ZM211.222 159.131L211.327 159.574L225.042 156.339L224.937 155.895L224.833 155.451L211.118 158.687L211.222 159.131ZM232.439 152.613L232.694 152.991L265.648 130.782L265.393 130.405L265.139 130.027L232.185 152.236L232.439 152.613ZM268.244 128.769L268.442 129.18L290.469 118.576L290.271 118.166L290.074 117.755L268.047 128.359L268.244 128.769ZM317.779 124.255L317.426 124.544L320.874 128.753L321.227 128.464L321.579 128.175L318.131 123.967L317.779 124.255ZM59.6455 201.987L60.0625 202.17L68.8832 182.136L68.4662 181.953L68.0491 181.769L59.2284 201.803L59.6455 201.987ZM89.3192 168.349V168.805H95.3463V168.349V167.893H89.3192V168.349ZM68.4662 181.953L68.8832 182.136C72.4503 174.034 80.4668 168.805 89.3192 168.805V168.349V167.893C80.1055 167.893 71.7618 173.336 68.0491 181.769L68.4662 181.953ZM321.227 128.464L320.874 128.753C328.535 138.103 342.105 139.971 352.007 133.039L351.746 132.666L351.485 132.292C341.973 138.951 328.938 137.156 321.579 128.175L321.227 128.464ZM290.271 118.166L290.469 118.576C299.755 114.106 310.894 116.572 317.426 124.544L317.779 124.255L318.131 123.967C311.333 115.669 299.739 113.103 290.074 117.755L290.271 118.166ZM265.393 130.405L265.648 130.782C266.54 130.182 267.473 129.646 268.442 129.18L268.244 128.769L268.047 128.359C267.038 128.844 266.067 129.401 265.139 130.027L265.393 130.405ZM224.937 155.895L225.042 156.339C227.774 155.694 230.367 154.56 232.694 152.991L232.439 152.613L232.185 152.236C229.948 153.743 227.458 154.832 224.833 155.451L224.937 155.895ZM190.665 153.814L190.358 154.152C196.027 159.305 203.871 161.333 211.327 159.574L211.222 159.131L211.118 158.687C203.954 160.377 196.418 158.428 190.971 153.477L190.665 153.814ZM153.583 158.337L153.984 158.553C160.864 145.769 177.923 142.847 188.665 152.613L188.972 152.275L189.278 151.938C178.097 141.774 160.343 144.815 153.181 158.121L153.583 158.337ZM121.556 176.509L121.398 176.937C132.26 180.939 144.412 176.337 149.898 166.144L149.497 165.928L149.095 165.712C143.824 175.506 132.149 179.927 121.713 176.081L121.556 176.509ZM103.224 169.754L103.382 169.327C100.809 168.379 98.0884 167.893 95.3463 167.893V168.349V168.805C97.9808 168.805 100.595 169.271 103.067 170.182L103.224 169.754Z" fill="#01D449"/>
<path d="M39.3761 56.2278V48.5721H42.3619C43.0326 48.5721 43.605 48.6778 44.0789 48.8893C44.5528 49.1007 44.9174 49.4069 45.1726 49.808C45.4278 50.209 45.5554 50.6865 45.5554 51.2407C45.5554 51.7948 45.4278 52.2724 45.1726 52.6734C44.9174 53.0671 44.5528 53.3697 44.0789 53.5811C43.605 53.7925 43.0326 53.8983 42.3619 53.8983H39.9777L40.4698 53.3952V56.2278H39.3761ZM44.4945 56.2278L42.5478 53.4499H43.718L45.6866 56.2278H44.4945ZM40.4698 53.5046L39.9777 52.9687H42.3291C43.029 52.9687 43.5576 52.8192 43.9149 52.5202C44.2794 52.214 44.4617 51.7875 44.4617 51.2407C44.4617 50.6938 44.2794 50.2709 43.9149 49.972C43.5576 49.6731 43.029 49.5236 42.3291 49.5236H39.9777L40.4698 48.9768V53.5046ZM49.7503 56.2934C49.1305 56.2934 48.5837 56.1658 48.1098 55.9106C47.6431 55.6554 47.2786 55.3055 47.0161 54.8607C46.7609 54.4159 46.6333 53.9056 46.6333 53.3296C46.6333 52.7536 46.7573 52.2432 47.0052 51.7984C47.2604 51.3537 47.6067 51.0073 48.0442 50.7594C48.4889 50.5043 48.9884 50.3767 49.5425 50.3767C50.1039 50.3767 50.5997 50.5006 51.0299 50.7485C51.46 50.9964 51.7954 51.3464 52.036 51.7984C52.2839 52.2432 52.4079 52.7645 52.4079 53.3624C52.4079 53.4061 52.4042 53.4572 52.3969 53.5155C52.3969 53.5738 52.3933 53.6285 52.386 53.6795H47.4536V52.9249H51.8392L51.4126 53.1874C51.4199 52.8155 51.3434 52.4838 51.183 52.1921C51.0226 51.9005 50.8002 51.6745 50.5158 51.5141C50.2388 51.3464 49.9143 51.2625 49.5425 51.2625C49.1779 51.2625 48.8535 51.3464 48.5691 51.5141C48.2848 51.6745 48.0624 51.9041 47.902 52.2031C47.7416 52.4947 47.6614 52.8301 47.6614 53.2093V53.3842C47.6614 53.7707 47.7489 54.117 47.9238 54.4232C48.1061 54.7222 48.3577 54.9555 48.6785 55.1232C48.9993 55.2909 49.3675 55.3747 49.7831 55.3747C50.1258 55.3747 50.4356 55.3164 50.7127 55.1997C50.9971 55.0831 51.245 54.9081 51.4564 54.6748L52.036 55.3528C51.7736 55.6591 51.4455 55.8924 51.0517 56.0528C50.6653 56.2132 50.2315 56.2934 49.7503 56.2934ZM55.2792 56.2278L52.7419 50.4313H53.8355L56.0885 55.6809H55.5635L57.8602 50.4313H58.8883L56.351 56.2278H55.2792ZM62.289 56.2934C61.6693 56.2934 61.1224 56.1658 60.6485 55.9106C60.1819 55.6554 59.8173 55.3055 59.5548 54.8607C59.2996 54.4159 59.172 53.9056 59.172 53.3296C59.172 52.7536 59.296 52.2432 59.5439 51.7984C59.7991 51.3537 60.1454 51.0073 60.5829 50.7594C61.0276 50.5043 61.5271 50.3767 62.0812 50.3767C62.6426 50.3767 63.1384 50.5006 63.5686 50.7485C63.9988 50.9964 64.3342 51.3464 64.5748 51.7984C64.8227 52.2432 64.9466 52.7645 64.9466 53.3624C64.9466 53.4061 64.943 53.4572 64.9357 53.5155C64.9357 53.5738 64.932 53.6285 64.9247 53.6795H59.9923V52.9249H64.3779L63.9514 53.1874C63.9587 52.8155 63.8821 52.4838 63.7217 52.1921C63.5613 51.9005 63.3389 51.6745 63.0546 51.5141C62.7775 51.3464 62.4531 51.2625 62.0812 51.2625C61.7166 51.2625 61.3922 51.3464 61.1078 51.5141C60.8235 51.6745 60.6011 51.9041 60.4407 52.2031C60.2803 52.4947 60.2001 52.8301 60.2001 53.2093V53.3842C60.2001 53.7707 60.2876 54.117 60.4626 54.4232C60.6449 54.7222 60.8964 54.9555 61.2172 55.1232C61.538 55.2909 61.9062 55.3747 62.3218 55.3747C62.6645 55.3747 62.9744 55.3164 63.2514 55.1997C63.5358 55.0831 63.7837 54.9081 63.9951 54.6748L64.5748 55.3528C64.3123 55.6591 63.9842 55.8924 63.5905 56.0528C63.204 56.2132 62.7702 56.2934 62.289 56.2934ZM69.4996 50.3767C69.9735 50.3767 70.3891 50.4678 70.7464 50.6501C71.1109 50.8324 71.3953 51.1094 71.5994 51.4813C71.8036 51.8531 71.9057 52.3234 71.9057 52.8921V56.2278H70.8558V53.0124C70.8558 52.451 70.7172 52.0281 70.4402 51.7437C70.1704 51.4594 69.7876 51.3172 69.2918 51.3172C68.92 51.3172 68.5955 51.3901 68.3184 51.5359C68.0414 51.6818 67.8263 51.8969 67.6732 52.1812C67.5274 52.4656 67.4544 52.8192 67.4544 53.2421V56.2278H66.4045V50.4313H67.4107V51.9953L67.2466 51.5797C67.4362 51.2006 67.7279 50.9053 68.1216 50.6938C68.5153 50.4824 68.9746 50.3767 69.4996 50.3767ZM76.2876 56.2934C75.7918 56.2934 75.3543 56.2023 74.9752 56.02C74.6034 55.8377 74.3117 55.5606 74.1003 55.1888C73.8961 54.8097 73.794 54.3357 73.794 53.767V50.4313H74.844V53.6467C74.844 54.2154 74.9789 54.642 75.2486 54.9263C75.5257 55.2107 75.9121 55.3528 76.4079 55.3528C76.7725 55.3528 77.0896 55.2799 77.3594 55.1341C77.6292 54.981 77.837 54.7623 77.9828 54.4779C78.1286 54.1863 78.2015 53.8363 78.2015 53.428V50.4313H79.2514V56.2278H78.2562V54.6638L78.4203 55.0794C78.2307 55.4659 77.9463 55.7648 77.5672 55.9762C77.1881 56.1877 76.7615 56.2934 76.2876 56.2934ZM83.8313 56.2934C83.2115 56.2934 82.6647 56.1658 82.1908 55.9106C81.7241 55.6554 81.3596 55.3055 81.0971 54.8607C80.8419 54.4159 80.7143 53.9056 80.7143 53.3296C80.7143 52.7536 80.8383 52.2432 81.0862 51.7984C81.3414 51.3537 81.6877 51.0073 82.1251 50.7594C82.5699 50.5043 83.0693 50.3767 83.6235 50.3767C84.1849 50.3767 84.6807 50.5006 85.1109 50.7485C85.541 50.9964 85.8764 51.3464 86.117 51.7984C86.3649 52.2432 86.4889 52.7645 86.4889 53.3624C86.4889 53.4061 86.4852 53.4572 86.4779 53.5155C86.4779 53.5738 86.4743 53.6285 86.467 53.6795H81.5346V52.9249H85.9202L85.4936 53.1874C85.5009 52.8155 85.4244 52.4838 85.264 52.1921C85.1036 51.9005 84.8812 51.6745 84.5968 51.5141C84.3198 51.3464 83.9953 51.2625 83.6235 51.2625C83.2589 51.2625 82.9345 51.3464 82.6501 51.5141C82.3658 51.6745 82.1434 51.9041 81.983 52.2031C81.8226 52.4947 81.7424 52.8301 81.7424 53.2093V53.3842C81.7424 53.7707 81.8299 54.117 82.0048 54.4232C82.1871 54.7222 82.4387 54.9555 82.7595 55.1232C83.0803 55.2909 83.4485 55.3747 83.8641 55.3747C84.2068 55.3747 84.5166 55.3164 84.7937 55.1997C85.078 55.0831 85.3259 54.9081 85.5374 54.6748L86.117 55.3528C85.8546 55.6591 85.5265 55.8924 85.1327 56.0528C84.7463 56.2132 84.3125 56.2934 83.8313 56.2934ZM94.493 56.3153C93.9097 56.3153 93.3665 56.2168 92.8634 56.02C92.3676 55.8231 91.9375 55.5497 91.5729 55.1997C91.2083 54.8425 90.924 54.4269 90.7198 53.953C90.5157 53.479 90.4136 52.9614 90.4136 52.3999C90.4136 51.8385 90.5157 51.3209 90.7198 50.8469C90.924 50.373 91.2083 49.9611 91.5729 49.6111C91.9375 49.2538 92.3676 48.9768 92.8634 48.7799C93.3592 48.583 93.9024 48.4846 94.493 48.4846C95.0763 48.4846 95.6122 48.583 96.1007 48.7799C96.5965 48.9695 97.0267 49.2429 97.3912 49.6002C97.7631 49.9501 98.0474 50.3621 98.2443 50.836C98.4484 51.3099 98.5505 51.8312 98.5505 52.3999C98.5505 52.9687 98.4484 53.49 98.2443 53.9639C98.0474 54.4378 97.7631 54.8534 97.3912 55.2107C97.0267 55.5606 96.5965 55.8341 96.1007 56.0309C95.6122 56.2205 95.0763 56.3153 94.493 56.3153ZM94.493 55.3419C94.9159 55.3419 95.306 55.269 95.6632 55.1232C96.0278 54.9774 96.3413 54.7732 96.6038 54.5107C96.8735 54.241 97.0813 53.9274 97.2272 53.5702C97.3803 53.2129 97.4568 52.8228 97.4568 52.3999C97.4568 51.9771 97.3803 51.587 97.2272 51.2297C97.0813 50.8725 96.8735 50.5626 96.6038 50.3001C96.3413 50.0303 96.0278 49.8225 95.6632 49.6767C95.306 49.5309 94.9159 49.458 94.493 49.458C94.0628 49.458 93.6654 49.5309 93.3009 49.6767C92.9436 49.8225 92.6301 50.0303 92.3603 50.3001C92.0906 50.5626 91.8791 50.8725 91.726 51.2297C91.5802 51.587 91.5073 51.9771 91.5073 52.3999C91.5073 52.8228 91.5802 53.2129 91.726 53.5702C91.8791 53.9274 92.0906 54.241 92.3603 54.5107C92.6301 54.7732 92.9436 54.9774 93.3009 55.1232C93.6654 55.269 94.0628 55.3419 94.493 55.3419ZM101.589 56.2278L99.0519 50.4313H100.146L102.398 55.6809H101.874L104.17 50.4313H105.198L102.661 56.2278H101.589ZM108.599 56.2934C107.979 56.2934 107.432 56.1658 106.958 55.9106C106.492 55.6554 106.127 55.3055 105.865 54.8607C105.61 54.4159 105.482 53.9056 105.482 53.3296C105.482 52.7536 105.606 52.2432 105.854 51.7984C106.109 51.3537 106.455 51.0073 106.893 50.7594C107.338 50.5043 107.837 50.3767 108.391 50.3767C108.953 50.3767 109.448 50.5006 109.879 50.7485C110.309 50.9964 110.644 51.3464 110.885 51.7984C111.133 52.2432 111.257 52.7645 111.257 53.3624C111.257 53.4061 111.253 53.4572 111.246 53.5155C111.246 53.5738 111.242 53.6285 111.235 53.6795H106.302V52.9249H110.688L110.261 53.1874C110.269 52.8155 110.192 52.4838 110.032 52.1921C109.871 51.9005 109.649 51.6745 109.365 51.5141C109.088 51.3464 108.763 51.2625 108.391 51.2625C108.027 51.2625 107.702 51.3464 107.418 51.5141C107.133 51.6745 106.911 51.9041 106.751 52.2031C106.59 52.4947 106.51 52.8301 106.51 53.2093V53.3842C106.51 53.7707 106.598 54.117 106.773 54.4232C106.955 54.7222 107.206 54.9555 107.527 55.1232C107.848 55.2909 108.216 55.3747 108.632 55.3747C108.974 55.3747 109.284 55.3164 109.561 55.1997C109.846 55.0831 110.094 54.9081 110.305 54.6748L110.885 55.3528C110.622 55.6591 110.294 55.8924 109.9 56.0528C109.514 56.2132 109.08 56.2934 108.599 56.2934ZM112.715 56.2278V50.4313H113.721V52.0062L113.622 51.6125C113.783 51.2115 114.052 50.9053 114.432 50.6938C114.811 50.4824 115.277 50.3767 115.831 50.3767V51.3938C115.788 51.3865 115.744 51.3828 115.7 51.3828C115.664 51.3828 115.627 51.3828 115.591 51.3828C115.029 51.3828 114.585 51.5505 114.257 51.8859C113.928 52.2213 113.764 52.7062 113.764 53.3405V56.2278H112.715ZM118.881 56.2278L116.343 50.4313H117.437L119.69 55.6809H119.165L121.462 50.4313H122.49L119.952 56.2278H118.881ZM123.47 56.2278V50.4313H124.52V56.2278H123.47ZM123.995 49.3158C123.79 49.3158 123.619 49.2502 123.481 49.1189C123.349 48.9877 123.284 48.8273 123.284 48.6377C123.284 48.4409 123.349 48.2768 123.481 48.1456C123.619 48.0143 123.79 47.9487 123.995 47.9487C124.199 47.9487 124.366 48.0143 124.498 48.1456C124.636 48.2695 124.705 48.4263 124.705 48.6159C124.705 48.8127 124.64 48.9804 124.509 49.1189C124.377 49.2502 124.206 49.3158 123.995 49.3158ZM129.105 56.2934C128.486 56.2934 127.939 56.1658 127.465 55.9106C126.998 55.6554 126.634 55.3055 126.371 54.8607C126.116 54.4159 125.988 53.9056 125.988 53.3296C125.988 52.7536 126.112 52.2432 126.36 51.7984C126.615 51.3537 126.962 51.0073 127.399 50.7594C127.844 50.5043 128.343 50.3767 128.897 50.3767C129.459 50.3767 129.955 50.5006 130.385 50.7485C130.815 50.9964 131.15 51.3464 131.391 51.7984C131.639 52.2432 131.763 52.7645 131.763 53.3624C131.763 53.4061 131.759 53.4572 131.752 53.5155C131.752 53.5738 131.748 53.6285 131.741 53.6795H126.809V52.9249H131.194L130.768 53.1874C130.775 52.8155 130.698 52.4838 130.538 52.1921C130.378 51.9005 130.155 51.6745 129.871 51.5141C129.594 51.3464 129.269 51.2625 128.897 51.2625C128.533 51.2625 128.208 51.3464 127.924 51.5141C127.64 51.6745 127.417 51.9041 127.257 52.2031C127.097 52.4947 127.016 52.8301 127.016 53.2093V53.3842C127.016 53.7707 127.104 54.117 127.279 54.4232C127.461 54.7222 127.713 54.9555 128.033 55.1232C128.354 55.2909 128.722 55.3747 129.138 55.3747C129.481 55.3747 129.791 55.3164 130.068 55.1997C130.352 55.0831 130.6 54.9081 130.811 54.6748L131.391 55.3528C131.129 55.6591 130.8 55.8924 130.407 56.0528C130.02 56.2132 129.586 56.2934 129.105 56.2934ZM134.339 56.2278L132.184 50.4313H133.18L135.094 55.6809H134.623L136.614 50.4313H137.5L139.446 55.6809H138.987L140.945 50.4313H141.885L139.72 56.2278H138.714L136.887 51.4375H137.193L135.345 56.2278H134.339Z" fill="#F2F2F2"/>
<rect x="283.847" y="45.2278" width="67.8985" height="14.5822" rx="3.64556" fill="url(#paint4_linear_1763_8376)"/>
<rect x="283.961" y="45.3417" width="67.6707" height="14.3544" rx="3.53164" stroke="#E2E8F0" stroke-opacity="0.3" stroke-width="0.227847"/>
<g clip-path="url(#clip0_1763_8376)">
<path d="M289.241 54.5188V52.809L289.388 53.2046L287.467 50.053H288.15L289.764 52.7133H289.394L291.015 50.053H291.646L289.732 53.2046L289.873 52.809V54.5188H289.241ZM293.33 54.5571C292.968 54.5571 292.649 54.4826 292.373 54.3338C292.101 54.1849 291.888 53.9808 291.735 53.7213C291.586 53.4619 291.511 53.1642 291.511 52.8282C291.511 52.4922 291.584 52.1945 291.728 51.935C291.877 51.6756 292.079 51.4735 292.334 51.3289C292.594 51.1801 292.885 51.1056 293.208 51.1056C293.536 51.1056 293.825 51.1779 294.076 51.3226C294.327 51.4672 294.523 51.6713 294.663 51.935C294.808 52.1945 294.88 52.4986 294.88 52.8473C294.88 52.8728 294.878 52.9026 294.874 52.9366C294.874 52.9707 294.871 53.0026 294.867 53.0323H291.99V52.5921H294.548L294.299 52.7452C294.304 52.5283 294.259 52.3348 294.165 52.1647C294.072 51.9946 293.942 51.8627 293.776 51.7691C293.615 51.6713 293.425 51.6224 293.208 51.6224C292.996 51.6224 292.807 51.6713 292.641 51.7691C292.475 51.8627 292.345 51.9967 292.251 52.1711C292.158 52.3412 292.111 52.5368 292.111 52.758V52.8601C292.111 53.0855 292.162 53.2875 292.264 53.4661C292.371 53.6405 292.517 53.7766 292.704 53.8744C292.892 53.9723 293.106 54.0212 293.349 54.0212C293.549 54.0212 293.729 53.9872 293.891 53.9191C294.057 53.8511 294.202 53.749 294.325 53.6129L294.663 54.0084C294.51 54.1871 294.319 54.3232 294.089 54.4167C293.863 54.5103 293.61 54.5571 293.33 54.5571ZM297.736 54.5188V53.8043L297.704 53.6703V52.4518C297.704 52.1923 297.627 51.9924 297.474 51.8521C297.325 51.7075 297.1 51.6352 296.798 51.6352C296.598 51.6352 296.403 51.6692 296.211 51.7372C296.02 51.801 295.858 51.8882 295.726 51.9988L295.471 51.5395C295.645 51.3991 295.854 51.2928 296.096 51.2205C296.343 51.1439 296.6 51.1056 296.868 51.1056C297.332 51.1056 297.689 51.2184 297.94 51.4438C298.191 51.6692 298.316 52.0137 298.316 52.4773V54.5188H297.736ZM296.626 54.5571C296.375 54.5571 296.154 54.5145 295.962 54.4295C295.775 54.3444 295.631 54.2275 295.528 54.0786C295.426 53.9255 295.375 53.7532 295.375 53.5618C295.375 53.379 295.418 53.2131 295.503 53.0642C295.592 52.9154 295.735 52.7963 295.93 52.707C296.13 52.6176 296.398 52.573 296.734 52.573H297.806V53.0132H296.76C296.454 53.0132 296.247 53.0642 296.141 53.1663C296.035 53.2684 295.981 53.3917 295.981 53.5363C295.981 53.7022 296.047 53.8362 296.179 53.9382C296.311 54.0361 296.494 54.085 296.728 54.085C296.958 54.085 297.157 54.0339 297.328 53.9319C297.502 53.8298 297.627 53.6809 297.704 53.4853L297.825 53.9063C297.744 54.1062 297.602 54.2657 297.398 54.3848C297.194 54.4997 296.936 54.5571 296.626 54.5571ZM299.45 54.5188V51.1375H300.037V52.0562L299.979 51.8266C300.073 51.5926 300.23 51.414 300.451 51.2907C300.673 51.1673 300.945 51.1056 301.268 51.1056V51.699C301.243 51.6947 301.217 51.6926 301.191 51.6926C301.17 51.6926 301.149 51.6926 301.128 51.6926C300.8 51.6926 300.541 51.7904 300.349 51.986C300.158 52.1817 300.062 52.4645 300.062 52.8346V54.5188H299.45ZM302.023 54.5188V49.785H302.635V54.5188H302.023ZM303.951 55.7947C303.79 55.7947 303.632 55.7671 303.479 55.7118C303.326 55.6608 303.194 55.5842 303.084 55.4821L303.345 55.0228C303.43 55.1036 303.524 55.1653 303.626 55.2078C303.728 55.2503 303.837 55.2716 303.951 55.2716C304.1 55.2716 304.224 55.2333 304.321 55.1568C304.419 55.0802 304.511 54.9441 304.596 54.7485L304.806 54.2827L304.87 54.2062L306.197 51.1375H306.797L305.157 54.8569C305.059 55.0951 304.949 55.2822 304.825 55.4183C304.706 55.5544 304.575 55.6501 304.43 55.7054C304.285 55.765 304.126 55.7947 303.951 55.7947ZM304.755 54.6273L303.211 51.1375H303.849L305.164 54.1488L304.755 54.6273Z" fill="#E5E5E5"/>
</g>
<mask id="mask0_1763_8376" style="mask-type:alpha" maskUnits="userSpaceOnUse" x="337" y="47" width="12" height="11">
<rect x="337.164" y="47.0505" width="10.9367" height="10.9367" fill="#D9D9D9"/>
</mask>
<g mask="url(#mask0_1763_8376)">
<path d="M342.632 54.0682L339.898 51.334L340.536 50.696L342.632 52.7922L344.728 50.696L345.366 51.334L342.632 54.0682Z" fill="#3A5CFF"/>
</g>
<g filter="url(#filter0_f_1763_8376)">
<rect x="335" y="106" width="49" height="57" fill="#01D449"/>
</g>
<defs>
<filter id="filter0_f_1763_8376" x="235" y="6" width="249" height="257" filterUnits="userSpaceOnUse" color-interpolation-filters="sRGB">
<feFlood flood-opacity="0" result="BackgroundImageFix"/>
<feBlend mode="normal" in="SourceGraphic" in2="BackgroundImageFix" result="shape"/>
<feGaussianBlur stdDeviation="50" result="effect1_foregroundBlur_1763_8376"/>
</filter>
<linearGradient id="paint0_linear_1763_8376" x1="384" y1="147" x2="0" y2="147" gradientUnits="userSpaceOnUse">
<stop stop-color="#0A0A11"/>
<stop offset="1" stop-color="#0F0F19"/>
</linearGradient>
<linearGradient id="paint1_linear_1763_8376" x1="149.589" y1="-91.9361" x2="255.835" y2="295.766" gradientUnits="userSpaceOnUse">
<stop offset="0.133169" stop-color="#0C1022" stop-opacity="0.34"/>
<stop offset="0.506036" stop-color="#29B754" stop-opacity="0.09"/>
</linearGradient>
<linearGradient id="paint2_linear_1763_8376" x1="192" y1="20" x2="192" y2="274" gradientUnits="userSpaceOnUse">
<stop offset="0.370365" stop-color="#C6C6C6" stop-opacity="0.19"/>
<stop offset="1" stop-opacity="0"/>
</linearGradient>
<linearGradient id="paint3_linear_1763_8376" x1="205.696" y1="138.645" x2="205.696" y2="215.202" gradientUnits="userSpaceOnUse">
<stop stop-color="#01D449"/>
<stop offset="1" stop-color="#01D449" stop-opacity="0.1"/>
</linearGradient>
<linearGradient id="paint4_linear_1763_8376" x1="351.746" y1="52.5189" x2="283.847" y2="52.5189" gradientUnits="userSpaceOnUse">
<stop stop-color="#17171A"/>
<stop offset="1" stop-color="#17171A"/>
</linearGradient>
<clipPath id="clip0_1763_8376">
<rect width="20" height="8" fill="white" transform="translate(287.493 48.5188)"/>
</clipPath>
</defs>
</svg>
