<svg width="40" height="40" viewBox="0 0 40 40" fill="none" xmlns="http://www.w3.org/2000/svg">
<rect width="40" height="40" rx="20" fill="#FE3F71" fill-opacity="0.1"/>
<path d="M20 30.5469C25.8249 30.5469 30.5469 25.8249 30.5469 20C30.5469 14.1751 25.8249 9.45312 20 9.45312C14.1751 9.45312 9.45312 14.1751 9.45312 20C9.45312 25.8249 14.1751 30.5469 20 30.5469Z" fill="url(#paint0_linear_1889_383)"/>
<path d="M22.2406 14.1406H17.7641C15.7672 14.1406 14.1453 15.7625 14.1453 17.7594V22.2359C14.1453 24.2328 15.7672 25.8547 17.7641 25.8547H22.2406C24.2375 25.8547 25.8594 24.2328 25.8594 22.2359V17.7594C25.8594 15.7625 24.2375 14.1406 22.2406 14.1406ZM24.5516 22.2406C24.5516 23.5156 23.5156 24.5562 22.2359 24.5562H17.7594C16.4844 24.5562 15.4438 23.5203 15.4438 22.2406V17.7641C15.4438 16.4891 16.4797 15.4484 17.7594 15.4484H22.2359C23.5109 15.4484 24.5516 16.4844 24.5516 17.7641V22.2406Z" fill="white"/>
<path d="M20 17.0049C18.35 17.0049 17.0047 18.3502 17.0047 20.0002C17.0047 21.6502 18.35 22.9955 20 22.9955C21.65 22.9955 22.9953 21.6502 22.9953 20.0002C22.9953 18.3502 21.65 17.0049 20 17.0049ZM20 21.8189C18.9969 21.8189 18.1813 21.0033 18.1813 20.0002C18.1813 18.9971 18.9969 18.1814 20 18.1814C21.0031 18.1814 21.8188 18.9971 21.8188 20.0002C21.8188 21.0033 21.0031 21.8189 20 21.8189Z" fill="white"/>
<path d="M23.2234 17.3334C23.4994 17.2886 23.6868 17.0287 23.6421 16.7527C23.5974 16.4767 23.3374 16.2893 23.0614 16.334C22.7855 16.3788 22.598 16.6387 22.6428 16.9147C22.6875 17.1907 22.9475 17.3781 23.2234 17.3334Z" fill="white"/>
<defs>
<linearGradient id="paint0_linear_1889_383" x1="11.9693" y1="28.0307" x2="26.9576" y2="13.0424" gradientUnits="userSpaceOnUse">
<stop stop-color="#FEE411"/>
<stop offset="0.0518459" stop-color="#FEDB16"/>
<stop offset="0.1381" stop-color="#FEC125"/>
<stop offset="0.2481" stop-color="#FE983D"/>
<stop offset="0.3762" stop-color="#FE5F5E"/>
<stop offset="0.5" stop-color="#FE2181"/>
<stop offset="1" stop-color="#9000DC"/>
</linearGradient>
</defs>
</svg>
