<svg width="40" height="40" viewBox="0 0 40 40" fill="none" xmlns="http://www.w3.org/2000/svg">
<rect width="40" height="40" rx="20" fill="black" fill-opacity="0.15"/>
<g clip-path="url(#clip0_1889_395)">
<path d="M20 8C13.3728 8 8 13.3728 8 20C8 26.6272 13.3728 32 20 32C26.6272 32 32 26.6272 32 20C32 13.3728 26.6272 8 20 8Z" fill="black"/>
<path d="M21.3128 18.9138L26.4498 12.9424H25.2325L20.772 18.1273L17.2094 12.9424H13.1004L18.4877 20.7829L13.1004 27.0448H14.3178L19.0282 21.5694L22.7906 27.0448H26.8996L21.3125 18.9138H21.3128ZM14.7564 13.8588H16.6263L25.2331 26.17H23.3632L14.7564 13.8588Z" fill="white"/>
</g>
<defs>
<clipPath id="clip0_1889_395">
<rect width="24" height="24" fill="white" transform="translate(8 8)"/>
</clipPath>
</defs>
</svg>
