<svg width="40" height="40" viewBox="0 0 40 40" fill="none" xmlns="http://www.w3.org/2000/svg">
<rect width="40" height="40" rx="20" fill="#FF0000" fill-opacity="0.15"/>
<g clip-path="url(#clip0_1889_389)">
<path d="M20 32C26.6274 32 32 26.6274 32 20C32 13.3726 26.6274 8 20 8C13.3726 8 8 13.3726 8 20C8 26.6274 13.3726 32 20 32Z" fill="#FF0000"/>
<path d="M23.9268 15.4854H16.0732C15.7593 15.4854 15.4485 15.5472 15.1586 15.6674C14.8686 15.7875 14.6052 15.9636 14.3834 16.1856C14.1615 16.4076 13.9856 16.6712 13.8656 16.9612C13.7456 17.2512 13.684 17.562 13.6842 17.8759V22.1232C13.684 22.4371 13.7456 22.7479 13.8656 23.0379C13.9856 23.328 14.1615 23.5915 14.3834 23.8135C14.6052 24.0355 14.8686 24.2116 15.1586 24.3318C15.4485 24.4519 15.7593 24.5138 16.0732 24.5138H23.9268C24.2407 24.5138 24.5515 24.4519 24.8414 24.3318C25.1314 24.2116 25.3948 24.0355 25.6166 23.8135C25.8385 23.5915 26.0144 23.328 26.1344 23.0379C26.2544 22.7479 26.316 22.4371 26.3158 22.1232V17.8759C26.316 17.562 26.2544 17.2512 26.1344 16.9612C26.0144 16.6712 25.8385 16.4076 25.6166 16.1856C25.3948 15.9636 25.1314 15.7875 24.8414 15.6674C24.5515 15.5472 24.2407 15.4854 23.9268 15.4854ZM18.3358 21.9354V18.0638L21.6642 19.9996L18.3358 21.9354Z" fill="white"/>
</g>
<defs>
<clipPath id="clip0_1889_389">
<rect width="24" height="24" fill="white" transform="translate(8 8)"/>
</clipPath>
</defs>
</svg>
