<svg width="119" height="119" viewBox="0 0 119 119" fill="none" xmlns="http://www.w3.org/2000/svg">
<g filter="url(#filter0_d_1795_404)">
<path d="M78.213 72.9502C78.0488 72.9504 77.8862 72.9182 77.7346 72.8553C77.5829 72.7925 77.4452 72.7003 77.3292 72.584L67.3292 62.584C67.2131 62.468 67.121 62.3302 67.0582 62.1786C66.9953 62.0269 66.963 61.8644 66.963 61.7002C66.963 61.5361 66.9953 61.3736 67.0582 61.2219C67.121 61.0703 67.2131 60.9325 67.3292 60.8165L74.8292 53.3165C74.9453 53.2004 75.083 53.1082 75.2347 53.0454C75.3863 52.9825 75.5488 52.9502 75.713 52.9502C75.8771 52.9502 76.0397 52.9825 76.1913 53.0454C76.343 53.1082 76.4807 53.2004 76.5967 53.3165L86.5967 63.3165C86.7129 63.4325 86.805 63.5703 86.8678 63.7219C86.9307 63.8736 86.963 64.0361 86.963 64.2002C86.963 64.3644 86.9307 64.5269 86.8678 64.6786C86.805 64.8302 86.7129 64.968 86.5967 65.084L79.0967 72.584C78.9808 72.7003 78.8431 72.7925 78.6914 72.8553C78.5398 72.9182 78.3772 72.9504 78.213 72.9502Z" fill="#C3E7F4"/>
<path d="M53.213 47.9502C53.0488 47.9504 52.8862 47.9182 52.7346 47.8553C52.5829 47.7925 52.4452 47.7003 52.3292 47.584L42.3292 37.584C42.2131 37.468 42.121 37.3302 42.0582 37.1786C41.9953 37.0269 41.963 36.8644 41.963 36.7002C41.963 36.5361 41.9953 36.3736 42.0582 36.2219C42.121 36.0703 42.2131 35.9325 42.3292 35.8165L49.8292 28.3165C49.9453 28.2004 50.083 28.1082 50.2347 28.0454C50.3863 27.9825 50.5488 27.9502 50.713 27.9502C50.8771 27.9502 51.0397 27.9825 51.1913 28.0454C51.343 28.1082 51.4807 28.2004 51.5967 28.3165L61.5967 38.3165C61.7129 38.4325 61.805 38.5703 61.8678 38.7219C61.9307 38.8736 61.963 39.0361 61.963 39.2002C61.963 39.3644 61.9307 39.5269 61.8678 39.6786C61.805 39.8302 61.7129 39.968 61.5967 40.084L54.0967 47.584C53.9808 47.7003 53.8431 47.7925 53.6914 47.8553C53.5398 47.9182 53.3772 47.9504 53.213 47.9502Z" fill="#C3E7F4"/>
<path d="M49.2115 91.6877C44.9932 91.693 40.8371 90.6712 37.1021 88.7106C33.3671 86.75 30.1655 83.9096 27.774 80.4347C25.492 77.1565 24.0176 73.385 23.471 69.4282C22.8876 65.4244 23.2491 61.3396 24.5265 57.5003C25.8039 53.6611 27.9619 50.174 30.8278 47.3179L43.213 34.9326L54.9807 46.7002L42.8237 58.8572C41.1652 60.4686 40.1461 62.6258 39.9546 64.9302C39.7632 67.2346 40.4123 69.5304 41.782 71.3934C42.5936 72.4497 43.6212 73.3209 44.7961 73.9487C45.971 74.5765 47.2663 74.9465 48.5956 75.034C49.9249 75.1216 51.2575 74.9246 52.5046 74.4563C53.7517 73.9881 54.8847 73.2592 55.8278 72.3184L68.213 59.9326L79.9807 71.7002L67.5954 84.0855C65.1828 86.501 62.3168 88.4161 59.1619 89.7207C56.007 91.0253 52.6255 91.6938 49.2115 91.6877Z" fill="#E32728"/>
<path d="M33.838 51.075C33.5908 51.0749 33.3492 51.0016 33.1437 50.8642C32.9382 50.7269 32.778 50.5317 32.6834 50.3033C32.5888 50.0749 32.5641 49.8236 32.6123 49.5812C32.6605 49.3387 32.7795 49.116 32.9542 48.9412L44.2042 37.6912C44.44 37.4635 44.7557 37.3375 45.0835 37.3404C45.4112 37.3432 45.7248 37.4747 45.9565 37.7064C46.1883 37.9382 46.3197 38.2517 46.3226 38.5795C46.3254 38.9072 46.1994 39.223 45.9717 39.4587L34.7217 50.7087C34.6058 50.825 34.4681 50.9172 34.3164 50.9801C34.1648 51.0429 34.0022 51.0752 33.838 51.075Z" fill="#EE7D7E"/>
<path d="M48.838 36.0752C49.5284 36.0752 50.088 35.5156 50.088 34.8252C50.088 34.1348 49.5284 33.5752 48.838 33.5752C48.1477 33.5752 47.588 34.1348 47.588 34.8252C47.588 35.5156 48.1477 36.0752 48.838 36.0752Z" fill="white"/>
<path d="M49.2115 89.1876C43.7967 89.2203 38.5415 87.3553 34.3586 83.9166C34.1068 83.705 33.9486 83.4028 33.9181 83.0753C33.8876 82.7479 33.9874 82.4216 34.1959 82.1672C34.4044 81.9129 34.7047 81.7509 35.0317 81.7164C35.3588 81.6819 35.6862 81.7778 35.9431 81.9831C39.6949 85.0268 44.3791 86.6878 49.2102 86.6876C54.0413 86.6874 58.7254 85.0259 62.4769 81.9818C62.604 81.8779 62.7503 81.8001 62.9075 81.7528C63.0647 81.7055 63.2297 81.6896 63.3931 81.706C63.5564 81.7224 63.7149 81.7709 63.8595 81.8485C64.0042 81.9262 64.1321 82.0316 64.2359 82.1588C64.3398 82.2859 64.4177 82.4322 64.465 82.5894C64.5123 82.7466 64.5282 82.9116 64.5118 83.0749C64.4954 83.2383 64.4469 83.3968 64.3692 83.5414C64.2915 83.686 64.1861 83.8139 64.059 83.9178C59.876 87.3525 54.6238 89.2166 49.2115 89.1876Z" fill="#AA1D1E"/>
<path d="M55.713 26.7002C55.3815 26.7002 55.0635 26.5685 54.8291 26.3341C54.5947 26.0997 54.463 25.7817 54.463 25.4502V20.4502C54.463 20.1187 54.5947 19.8007 54.8291 19.5663C55.0635 19.3319 55.3815 19.2002 55.713 19.2002C56.0445 19.2002 56.3625 19.3319 56.5969 19.5663C56.8313 19.8007 56.963 20.1187 56.963 20.4502V25.4502C56.963 25.7817 56.8313 26.0997 56.5969 26.3341C56.3625 26.5685 56.0445 26.7002 55.713 26.7002Z" fill="#42362E"/>
<path d="M69.463 35.4502H64.463C64.1315 35.4502 63.8135 35.3185 63.5791 35.0841C63.3447 34.8497 63.213 34.5317 63.213 34.2002C63.213 33.8687 63.3447 33.5507 63.5791 33.3163C63.8135 33.0819 64.1315 32.9502 64.463 32.9502H69.463C69.7945 32.9502 70.1125 33.0819 70.3469 33.3163C70.5813 33.5507 70.713 33.8687 70.713 34.2002C70.713 34.5317 70.5813 34.8497 70.3469 35.0841C70.1125 35.3185 69.7945 35.4502 69.463 35.4502Z" fill="#42362E"/>
<path d="M61.9005 29.2627C61.6533 29.2626 61.4117 29.1893 61.2062 29.0519C61.0007 28.9146 60.8405 28.7194 60.7459 28.491C60.6513 28.2626 60.6266 28.0113 60.6748 27.7689C60.723 27.5265 60.842 27.3038 61.0167 27.1289L64.5525 23.5937C64.668 23.4752 64.8059 23.3808 64.9582 23.3161C65.1105 23.2513 65.2741 23.2174 65.4396 23.2163C65.6051 23.2153 65.7691 23.2471 65.9222 23.3099C66.0753 23.3728 66.2144 23.4654 66.3314 23.5824C66.4484 23.6994 66.541 23.8385 66.6039 23.9916C66.6667 24.1447 66.6985 24.3087 66.6975 24.4742C66.6964 24.6397 66.6625 24.8033 66.5978 24.9556C66.533 25.1079 66.4386 25.2458 66.3201 25.3613L62.7842 28.8964C62.6683 29.0127 62.5306 29.1049 62.3789 29.1678C62.2273 29.2306 62.0647 29.2629 61.9005 29.2627Z" fill="#42362E"/>
<path d="M80.713 51.7002C80.3815 51.7002 80.0635 51.5685 79.8291 51.3341C79.5947 51.0997 79.463 50.7817 79.463 50.4502V45.4502C79.463 45.1187 79.5947 44.8007 79.8291 44.5663C80.0635 44.3319 80.3815 44.2002 80.713 44.2002C81.0445 44.2002 81.3625 44.3319 81.5969 44.5663C81.8313 44.8007 81.963 45.1187 81.963 45.4502V50.4502C81.963 50.7817 81.8313 51.0997 81.5969 51.3341C81.3625 51.5685 81.0445 51.7002 80.713 51.7002Z" fill="#42362E"/>
<path d="M94.463 60.4502H89.463C89.1315 60.4502 88.8135 60.3185 88.5791 60.0841C88.3447 59.8497 88.213 59.5317 88.213 59.2002C88.213 58.8687 88.3447 58.5507 88.5791 58.3163C88.8135 58.0819 89.1315 57.9502 89.463 57.9502H94.463C94.7945 57.9502 95.1125 58.0819 95.3469 58.3163C95.5813 58.5507 95.713 58.8687 95.713 59.2002C95.713 59.5317 95.5813 59.8497 95.3469 60.0841C95.1125 60.3185 94.7945 60.4502 94.463 60.4502Z" fill="#42362E"/>
<path d="M86.9005 54.2627C86.6533 54.2626 86.4117 54.1893 86.2062 54.0519C86.0007 53.9146 85.8405 53.7194 85.7459 53.491C85.6513 53.2626 85.6266 53.0113 85.6748 52.7689C85.723 52.5265 85.842 52.3038 86.0167 52.1289L89.5525 48.5937C89.668 48.4752 89.8059 48.3808 89.9582 48.3161C90.1105 48.2513 90.2741 48.2174 90.4396 48.2163C90.6051 48.2153 90.7691 48.2471 90.9222 48.3099C91.0753 48.3728 91.2144 48.4654 91.3314 48.5824C91.4484 48.6994 91.541 48.8385 91.6039 48.9916C91.6667 49.1447 91.6985 49.3087 91.6975 49.4742C91.6964 49.6397 91.6625 49.8033 91.5978 49.9556C91.533 50.1079 91.4386 50.2458 91.3201 50.3613L87.7842 53.8964C87.6683 54.0127 87.5306 54.1049 87.3789 54.1678C87.2273 54.2306 87.0647 54.2629 86.9005 54.2627Z" fill="#42362E"/>
</g>
<defs>
<filter id="filter0_d_1795_404" x="1.14441e-05" y="0.00019455" width="118.913" height="118.888" filterUnits="userSpaceOnUse" color-interpolation-filters="sRGB">
<feFlood flood-opacity="0" result="BackgroundImageFix"/>
<feColorMatrix in="SourceAlpha" type="matrix" values="0 0 0 0 0 0 0 0 0 0 0 0 0 0 0 0 0 0 127 0" result="hardAlpha"/>
<feOffset dy="4"/>
<feGaussianBlur stdDeviation="11.6"/>
<feComposite in2="hardAlpha" operator="out"/>
<feColorMatrix type="matrix" values="0 0 0 0 0.890196 0 0 0 0 0.152941 0 0 0 0 0.156863 0 0 0 0.5 0"/>
<feBlend mode="normal" in2="BackgroundImageFix" result="effect1_dropShadow_1795_404"/>
<feBlend mode="normal" in="SourceGraphic" in2="effect1_dropShadow_1795_404" result="shape"/>
</filter>
</defs>
</svg>
