<svg width="126" height="126" viewBox="0 0 126 126" fill="none" xmlns="http://www.w3.org/2000/svg">
<g filter="url(#filter0_d_1795_449)">
<path d="M28 31.5C25.23 31.5 23 33.73 23 36.5V94C23 96.77 25.23 99 28 99H73C75.77 99 78 96.77 78 94V36.5C78 33.73 75.77 31.5 73 31.5H28Z" fill="#FF9751"/>
<path d="M35.7271 31.5C35.5884 31.8926 35.5 32.3089 35.5 32.75V41.5C35.5 43.5775 37.1725 45.25 39.25 45.25H64.25C66.3275 45.25 68 43.5775 68 41.5V32.75C68 32.3087 67.9117 31.8925 67.7729 31.5H35.7271Z" fill="#FF7F29"/>
<path d="M73.7983 31.5781C79.28 83.087 41.4289 95.2788 25.1777 98.1308C25.98 98.6785 26.9512 99 28 99H73C75.77 99 78 96.77 78 94V36.5C78 34.0034 76.1839 31.9601 73.7983 31.5781Z" fill="#FF7F29"/>
<path d="M30.6636 36.5C29.1882 36.5 28 37.6882 28 39.1636V89C28 90.4753 29.1882 91.6636 30.6636 91.6636H70.3364C71.8117 91.6636 73 90.4753 73 89V39.1636C73 37.6882 71.8117 36.5 70.3364 36.5H30.6636Z" fill="#E4EFF8"/>
<path d="M60.5007 65.2485V67.7491H44.2464C42.1473 67.7491 40.5001 69.4516 40.5001 71.4955V76.4998H37.9995V71.4955C37.9995 68.0546 40.7779 65.2485 44.2464 65.2485H60.5007Z" fill="#C4DCF0"/>
<path d="M42.9988 53.9985V56.4992H59.2531C61.3523 56.4992 62.9995 58.2016 62.9995 60.2455V65.2498H65.5001V60.2455C65.5001 56.8046 62.7217 53.9985 59.2531 53.9985H42.9988Z" fill="#C4DCF0"/>
<path d="M71.0178 48.1789L89.5793 29.6173C90.5587 28.638 92.1355 28.638 93.1149 29.6173L94.8826 31.3851C95.862 32.3644 95.862 33.9413 94.8826 34.9206L76.3211 53.4822L69.25 55.25L71.0178 48.1789Z" fill="#549AD4"/>
<path d="M73 55.2476C69.0635 74.8499 56.9225 85.6915 45.0312 91.6635H70.3364C71.8118 91.6635 73 90.4753 73 89V55.2476Z" fill="#C4DCF0"/>
<path d="M91.75 84C91.75 92.2843 85.0343 99 76.75 99C68.4657 99 61.75 92.2843 61.75 84C61.75 75.7157 68.4657 69 76.75 69C85.0343 69 91.75 75.7157 91.75 84Z" fill="#FF5555"/>
<path d="M86.0591 72.2593C88.1248 74.8967 89.2481 78.1498 89.25 81.5C89.25 89.7843 82.5343 96.5 74.25 96.5C70.8683 96.4938 67.5878 95.3454 64.9409 93.2407C67.7824 96.874 72.1375 98.998 76.75 99C85.0343 99 91.75 92.2843 91.75 84C91.7434 79.4232 89.6479 75.0997 86.0591 72.2593Z" fill="#FF2929"/>
<path d="M41.75 52.7485V55.2492H58.0043C60.1034 55.2492 61.7506 56.9516 61.7506 58.9955V63.9998H64.2512V58.9955C64.2512 55.5546 61.4728 52.7485 58.0043 52.7485H41.75Z" fill="#FF9751"/>
<path d="M63 60.25V64H64.2524V58.9951C64.2524 55.5543 61.4734 52.7459 58.0049 52.7476L54.25 52.7494C63 52.7499 63 57.75 63 60.25Z" fill="#FF7F29"/>
<path d="M59.2506 66.4985V68.9992H42.9963C40.8972 68.9992 39.25 70.7016 39.25 72.7455V77.7498H36.7494V72.7455C36.7494 69.3046 39.5278 66.4985 42.9963 66.4985H59.2506Z" fill="#FF9751"/>
<path d="M56.75 66.4976V69H59.25V66.4976H56.75Z" fill="#FF7F29"/>
<path d="M60.5 62.7012H65.5C66.885 62.7012 68 63.8162 68 65.2012V70.2012C68 71.5862 66.885 72.7012 65.5 72.7012H60.5C59.115 72.7012 58 71.5862 58 70.2012V65.2012C58 63.8162 59.115 62.7012 60.5 62.7012Z" fill="#549AD4"/>
<path d="M41.7451 69C39.646 69 38 70.7013 38 72.7451V77.75H39.25V72.7451C39.25 70.7013 40.896 69 42.9951 69H41.7451Z" fill="#FF7F29"/>
<path d="M35.5 76.5H40.5C41.885 76.5 43 77.615 43 79V84C43 85.385 41.885 86.5 40.5 86.5H35.5C34.115 86.5 33 85.385 33 84V79C33 77.615 34.115 76.5 35.5 76.5Z" fill="#FF5151"/>
<path d="M35.5 36.5V39C35.5 41.0775 37.1725 42.75 39.25 42.75H64.25C66.3275 42.75 68 41.0775 68 39V36.5H35.5Z" fill="#C4DCF0"/>
<path d="M65.9785 62.75C66.4567 68.0359 63.0042 70.6784 58.708 71.9444C59.1616 72.4107 59.795 72.7012 60.5 72.7012H65.5C66.885 72.7012 68 71.5862 68 70.2012V65.2012C68 63.9801 67.1328 62.9723 65.9785 62.75Z" fill="#3588CB"/>
<path d="M50.5 19C47.0482 19 44.25 21.7982 44.25 25.25H38C35.9225 25.25 34.25 26.9225 34.25 29V37.75C34.25 39.8275 35.9225 41.5 38 41.5H63C65.0775 41.5 66.75 39.8275 66.75 37.75V29C66.75 26.9225 65.0775 25.25 63 25.25H56.75C56.75 21.7982 53.9518 19 50.5 19Z" fill="#38668C"/>
<path d="M36.9282 41.3266C37.2699 41.4287 37.6243 41.5 38 41.5H63C65.0775 41.5 66.75 39.8275 66.75 37.75V29C66.75 27.0858 65.3244 25.5314 63.4761 25.2964C62.2011 37.2338 47.3509 40.5032 36.9282 41.3266Z" fill="#2C5170"/>
<path d="M51.75 25.25C51.75 25.9404 51.1904 26.5 50.5 26.5C49.8096 26.5 49.25 25.9404 49.25 25.25C49.25 24.5596 49.8096 24 50.5 24C51.1904 24 51.75 24.5596 51.75 25.25Z" fill="#E4EFF8"/>
<path d="M40.9785 76.5488C41.4567 81.8347 38.0042 84.4772 33.708 85.7432C34.1616 86.2095 34.795 86.5 35.5 86.5H40.5C41.885 86.5 43 85.385 43 84V79C43 77.779 42.1328 76.7711 40.9785 76.5488Z" fill="#FF2929"/>
<path d="M35.5 49H40.5C41.885 49 43 50.115 43 51.5V56.5C43 57.885 41.885 59 40.5 59H35.5C34.115 59 33 57.885 33 56.5V51.5C33 50.115 34.115 49 35.5 49Z" fill="#FF5151"/>
<path d="M41.75 52.75V55.2524H44.25V52.75H41.75Z" fill="#FF7F29"/>
<path d="M40.9785 49.0488C41.4567 54.3347 38.0042 56.9772 33.708 58.2432C34.1616 58.7095 34.795 59 35.5 59H40.5C41.885 59 43 57.885 43 56.5V51.5C43 50.2789 42.1328 49.2711 40.9785 49.0488Z" fill="#FF2929"/>
<path d="M86.75 84C86.75 89.5229 82.2729 94 76.75 94C71.2272 94 66.75 89.5228 66.75 84C66.75 78.4772 71.2272 74 76.75 74C82.2728 74 86.75 78.4772 86.75 84Z" fill="#E4EFF8"/>
<path d="M81.75 84C81.75 86.7614 79.5114 89 76.75 89C73.9886 89 71.75 86.7614 71.75 84C71.75 81.2386 73.9886 79 76.75 79C79.5114 79 81.75 81.2386 81.75 84Z" fill="#FF5555"/>
<path d="M78.8008 79.4446C79.0947 80.0902 79.2478 80.7909 79.25 81.5002C79.25 84.2616 77.0114 86.5002 74.25 86.5002C73.5427 86.4988 72.8437 86.3473 72.1992 86.0557C73.0065 87.8455 74.7866 88.9972 76.75 89C79.5114 89 81.75 86.7614 81.75 84C81.7483 82.0336 80.5942 80.2511 78.8008 79.4446Z" fill="#FF2929"/>
<path d="M82.436 75.7749C83.613 77.4523 84.2462 79.4508 84.25 81.5C84.25 87.0228 79.7729 91.5 74.25 91.5C72.2184 91.4997 70.235 90.8806 68.564 89.7251C70.4319 92.4002 73.4873 93.9958 76.75 94C82.2729 94 86.75 89.5229 86.75 84C86.7497 80.7163 85.1372 77.642 82.436 75.7749Z" fill="#C4DCF0"/>
<path d="M92.3823 32.4203L73.8203 50.9823L70.0825 51.9174L69.25 55.2499L76.3203 53.4823L94.8823 34.9203C95.8617 33.9409 95.8617 32.3645 94.8823 31.3852L93.1147 29.6176C92.9891 29.4919 92.8523 29.3837 92.7095 29.2905C93.344 30.2606 93.236 31.5666 92.3823 32.4203Z" fill="#3588CB"/>
<path d="M87.3372 31.8595L89.5793 29.6173C90.5586 28.638 92.1355 28.638 93.1148 29.6173L94.8826 31.3851C95.8619 32.3644 95.8619 33.9413 94.8826 34.9206L93.0824 36.7208L87.3372 31.8595Z" fill="#E4EFF8"/>
<path d="M48 80.25C46.3329 80.25 46.3329 82.7506 48 82.7506H59.25C60.9171 82.7506 60.9171 80.25 59.25 80.25H48Z" fill="#549AD4"/>
<path d="M48 85.2495C46.3329 85.2495 46.3329 87.7501 48 87.7501H59.25C60.9171 87.7501 60.9171 85.2495 59.25 85.2495H48Z" fill="#549AD4"/>
<path d="M48 75.25C46.3329 75.25 46.3329 77.7506 48 77.7506H54.2469C55.914 77.7506 55.914 75.25 54.2469 75.25H48Z" fill="#549AD4"/>
<path d="M55.0752 85.25C53.9698 86.1337 52.8496 86.9763 51.7109 87.75H59.25C60.9171 87.75 60.9171 85.25 59.25 85.25H55.0752Z" fill="#3588CB"/>
<path d="M60.1533 80.6162C59.4491 81.3566 58.7306 82.0679 57.9976 82.75H59.25C60.5184 82.75 60.8151 81.3086 60.1533 80.6162Z" fill="#3588CB"/>
<path d="M85.3224 66.5889L86.2063 74.5438L94.1612 75.4277L103 66.5889L96.8129 63.9372L94.1612 57.75L85.3224 66.5889Z" fill="#549AD4"/>
<path d="M91.3563 68.108C91.032 68.1179 90.7243 68.2537 90.4982 68.4864L75.8636 83.1117C74.6825 84.2928 76.4541 86.0645 77.6352 84.8834L92.2698 70.2488C93.08 69.4517 92.4924 68.0746 91.3563 68.108Z" fill="#549AD4"/>
<path d="M86.2063 74.5436L94.1612 75.4275L103 66.5887L96.8129 63.937L86.2063 74.5436Z" fill="#3588CB"/>
<path d="M92.8193 29.3066C93.4549 30.2784 93.3467 31.5864 92.4917 32.4415L90.6895 34.2436L87.6476 31.6688L87.4373 31.879L93.1934 36.7475L94.9956 34.9454C95.9765 33.9645 95.9765 32.3856 94.9956 31.4047L93.2252 29.6343C93.0994 29.5084 92.9624 29.4002 92.8193 29.3066Z" fill="#C4DCF0"/>
</g>
<defs>
<filter id="filter0_d_1795_449" x="0" y="0" width="126" height="126" filterUnits="userSpaceOnUse" color-interpolation-filters="sRGB">
<feFlood flood-opacity="0" result="BackgroundImageFix"/>
<feColorMatrix in="SourceAlpha" type="matrix" values="0 0 0 0 0 0 0 0 0 0 0 0 0 0 0 0 0 0 127 0" result="hardAlpha"/>
<feOffset dy="4"/>
<feGaussianBlur stdDeviation="11.5"/>
<feComposite in2="hardAlpha" operator="out"/>
<feColorMatrix type="matrix" values="0 0 0 0 1 0 0 0 0 0.498039 0 0 0 0 0.160784 0 0 0 0.5 0"/>
<feBlend mode="normal" in2="BackgroundImageFix" result="effect1_dropShadow_1795_449"/>
<feBlend mode="normal" in="SourceGraphic" in2="effect1_dropShadow_1795_449" result="shape"/>
</filter>
</defs>
</svg>
