<svg width="32" height="32" viewBox="0 0 32 32" fill="none" xmlns="http://www.w3.org/2000/svg">
<path d="M5.41199 26.1286L10.5293 17.8626L6.65399 13.9873C6.37266 13.706 6.51666 13.2253 6.90532 13.144L21.2527 10.1553C21.6053 10.082 21.9173 10.394 21.844 10.7466L18.8553 25.0933C18.774 25.4826 18.2933 25.626 18.012 25.3446L14.1367 21.4693L5.87066 26.5866C5.57199 26.7726 5.22732 26.428 5.41199 26.1286ZM22.5107 9.22198C23.042 9.64865 23.2913 10.3546 23.1493 11.0186L22.3933 14.646C24.7827 14.4453 26.6667 12.44 26.6667 9.99998C26.6667 7.42665 24.5727 5.33331 22 5.33331C19.56 5.33331 17.5547 7.21665 17.3533 9.60598L20.9807 8.84998C21.5233 8.73731 22.0813 8.87265 22.5107 9.22198Z" fill="#F2F2F2"/>
</svg>
